<svg width="95" height="77" viewBox="0 0 95 77" fill="none" xmlns="http://www.w3.org/2000/svg">
<path fill-rule="evenodd" clip-rule="evenodd" d="M38.0378 0H56.0278C64.069 0 70.439 5.21541e-07 75.4222 0.669376C80.5497 1.36063 84.7015 2.81312 87.9784 6.08562C91.2509 9.3625 92.7034 13.5144 93.3947 18.6419C93.7884 21.5863 93.9503 25.0119 94.0159 28.98C94.0731 29.3126 94.079 29.6519 94.0334 29.9862C94.064 32.4625 94.064 35.14 94.064 38.0363V38.5262C94.064 46.5675 94.064 52.9375 93.3947 57.9206C92.7034 63.0481 91.2509 67.2 87.9784 70.4769C84.7015 73.7494 80.5497 75.2019 75.4222 75.8931C70.4347 76.5625 64.069 76.5625 56.0278 76.5625H38.0378C29.9965 76.5625 23.6265 76.5625 18.6434 75.8931C13.5159 75.2019 9.36404 73.7494 6.08716 70.4769C2.81466 67.2 1.36216 63.0481 0.670912 57.9206C0.00153692 52.9331 0.0015369 46.5675 0.0015369 38.5262V38.0363C0.0015369 35.14 0.00153677 32.4625 0.0321618 29.9862C-0.0147456 29.6521 -0.0103194 29.3128 0.0452869 28.98C0.115287 25.0119 0.277162 21.5863 0.670912 18.6419C1.36216 13.5144 2.81466 9.3625 6.08716 6.08562C9.36404 2.81312 13.5159 1.36063 18.6434 0.669376C23.6309 5.21541e-07 29.9965 0 38.0378 0ZM6.57279 32.8125C6.56404 34.51 6.56404 36.33 6.56404 38.2812C6.56404 46.6244 6.57279 52.5525 7.17654 57.05C7.76716 61.4469 8.87841 63.9844 10.729 65.835C12.5797 67.6856 15.1172 68.7969 19.5184 69.3875C24.0159 69.9912 29.9397 70 38.2828 70H55.7828C64.1259 70 70.054 69.9912 74.5515 69.3875C78.9484 68.7969 81.4859 67.6856 83.3365 65.835C85.1872 63.9844 86.2984 61.4469 86.889 57.0456C87.4928 52.5481 87.5015 46.6244 87.5015 38.2812C87.5015 36.33 87.5015 34.51 87.4928 32.8125H6.57279ZM87.3878 26.25H6.67779C6.76529 23.6819 6.91404 21.4638 7.17654 19.5125C7.76716 15.1156 8.87841 12.5781 10.729 10.7275C12.5797 8.87688 15.1172 7.76562 19.5184 7.175C24.0159 6.57125 29.9397 6.5625 38.2828 6.5625H55.7828C64.1259 6.5625 70.054 6.57125 74.5515 7.175C78.9484 7.76562 81.4859 8.87688 83.3365 10.7275C85.1872 12.5781 86.2984 15.1156 86.889 19.5169C87.1515 21.4637 87.3003 23.6819 87.3878 26.25ZM17.5015 55.7812C17.5015 54.911 17.8472 54.0764 18.4626 53.4611C19.0779 52.8457 19.9125 52.5 20.7828 52.5H38.2828C39.153 52.5 39.9876 52.8457 40.603 53.4611C41.2183 54.0764 41.564 54.911 41.564 55.7812C41.564 56.6515 41.2183 57.4861 40.603 58.1014C39.9876 58.7168 39.153 59.0625 38.2828 59.0625H20.7828C19.9125 59.0625 19.0779 58.7168 18.4626 58.1014C17.8472 57.4861 17.5015 56.6515 17.5015 55.7812ZM45.939 55.7812C45.939 54.911 46.2847 54.0764 46.9001 53.4611C47.5154 52.8457 48.35 52.5 49.2203 52.5H55.7828C56.653 52.5 57.4876 52.8457 58.103 53.4611C58.7183 54.0764 59.064 54.911 59.064 55.7812C59.064 56.6515 58.7183 57.4861 58.103 58.1014C57.4876 58.7168 56.653 59.0625 55.7828 59.0625H49.2203C48.35 59.0625 47.5154 58.7168 46.9001 58.1014C46.2847 57.4861 45.939 56.6515 45.939 55.7812Z" fill="#666666"/>
</svg>
