<svg width="17" height="25" viewBox="0 0 17 25" fill="none" xmlns="http://www.w3.org/2000/svg">
<path d="M15.2558 12.0156C14.3819 11.2831 13.2709 10.8942 12.1308 10.9219H4.80272C4.4686 10.9303 4.13621 10.8712 3.82545 10.7482C3.5147 10.6252 3.23196 10.4407 2.99417 10.2058C2.75638 9.97095 2.56843 9.69051 2.44157 9.3813C2.3147 9.07208 2.25154 8.74045 2.25585 8.40625C2.2477 8.27617 2.2477 8.14571 2.25585 8.01562C2.35437 7.41845 2.66751 6.87777 3.13646 6.49513C3.60541 6.11249 4.19792 5.9142 4.80272 5.9375H12.0215C12.6103 5.93698 13.1802 6.14564 13.6295 6.52625C14.0788 6.90687 14.3783 7.4347 14.4746 8.01562H16.8183C16.7202 6.81084 16.1723 5.68709 15.2836 4.8678C14.3948 4.04851 13.2302 3.59369 12.0215 3.59375H9.55272V0H7.5996V3.59375H4.80272C3.59394 3.59369 2.42941 4.04851 1.54064 4.8678C0.651869 5.68709 0.103961 6.81084 0.00584592 8.01562C-0.00194864 8.14572 -0.00194864 8.27616 0.00584592 8.40625C0.00584592 9.03619 0.129921 9.65995 0.370986 10.2419C0.612052 10.8239 0.965387 11.3527 1.41082 11.7982C2.31041 12.6977 3.53051 13.2031 4.80272 13.2031H12.209C12.5404 13.1948 12.8702 13.2529 13.1789 13.374C13.4876 13.4951 13.7689 13.6768 14.0062 13.9083C14.2436 14.1398 14.4322 14.4165 14.5609 14.7221C14.6897 15.0277 14.7559 15.3559 14.7558 15.6875C14.7721 15.8642 14.7721 16.042 14.7558 16.2187C14.6318 16.7685 14.3245 17.2598 13.8844 17.6118C13.4443 17.9639 12.8976 18.1559 12.334 18.1562H4.99022C4.42663 18.1559 3.8799 17.9639 3.43981 17.6118C2.99971 17.2598 2.69241 16.7685 2.56835 16.2187H0.208971C0.343249 17.3927 0.904756 18.4763 1.7865 19.2629C2.66824 20.0496 3.80858 20.4844 4.99022 20.4844H7.5996V24.0312H9.55272V20.4844H12.209C13.3906 20.4844 14.531 20.0496 15.4127 19.2629C16.2944 18.4763 16.8559 17.3927 16.9902 16.2187V15.6875C16.9883 14.9857 16.832 14.2929 16.5322 13.6583C16.2325 13.0237 15.7967 12.4629 15.2558 12.0156Z" fill="white"/>
</svg>
