<svg width="26" height="26" viewBox="0 0 26 26" fill="none" xmlns="http://www.w3.org/2000/svg">
<rect width="26" height="26" rx="3" fill="#88C742"/>
<path d="M12 20C13.775 19.9998 15.4989 19.4056 16.897 18.312L21.293 22.708L22.707 21.294L18.311 16.898C19.4051 15.4997 19.9997 13.7755 20 12C20 7.589 16.411 4 12 4C7.589 4 4 7.589 4 12C4 16.411 7.589 20 12 20ZM12 6C15.309 6 18 8.691 18 12C18 15.309 15.309 18 12 18C8.691 18 6 15.309 6 12C6 8.691 8.691 6 12 6Z" fill="white"/>
<path d="M13.4118 10.5861C13.7908 10.9661 13.9998 11.4681 13.9998 12.0001H15.9998C16.0005 11.4745 15.8972 10.9541 15.6957 10.4687C15.4942 9.98328 15.1985 9.54261 14.8258 9.17209C13.3118 7.66009 10.6868 7.66009 9.17383 9.17209L10.5858 10.5881C11.3458 9.83009 12.6558 9.83209 13.4118 10.5861Z" fill="white"/>
</svg>
