<svg width="165" height="24" viewBox="0 0 165 24" fill="none" xmlns="http://www.w3.org/2000/svg">
<path d="M6.84766 13.3906H2.49707L2.48242 10.666H6.33496C6.93066 10.666 7.43848 10.5488 7.8584 10.3145C8.27832 10.0801 8.5957 9.73828 8.81055 9.28906C9.03516 8.83984 9.14746 8.29785 9.14746 7.66309C9.14746 6.95996 9.0498 6.38867 8.85449 5.94922C8.65918 5.5 8.35156 5.17285 7.93164 4.96777C7.52148 4.7627 6.99414 4.66016 6.34961 4.66016H3.55176V23H-0.0078125V1.67188H6.34961C7.3457 1.67188 8.23438 1.78906 9.01562 2.02344C9.80664 2.24805 10.4756 2.59473 11.0225 3.06348C11.5693 3.53223 11.9844 4.13281 12.2676 4.86523C12.5605 5.58789 12.707 6.44727 12.707 7.44336C12.707 8.3125 12.5215 9.11328 12.1504 9.8457C11.7793 10.5684 11.2275 11.1641 10.4951 11.6328C9.77246 12.0918 8.87402 12.3652 7.7998 12.4531L6.84766 13.3906ZM6.71582 23H1.3252L2.96582 20.0264H6.71582C7.35059 20.0264 7.87305 19.8896 8.2832 19.6162C8.69336 19.3428 9.00098 18.9619 9.20605 18.4736C9.41113 17.9854 9.51367 17.4141 9.51367 16.7598C9.51367 16.0762 9.42578 15.4805 9.25 14.9727C9.07422 14.4648 8.79102 14.0742 8.40039 13.8008C8.00977 13.5273 7.49219 13.3906 6.84766 13.3906H3.25879L3.28809 10.666H7.87305L8.69336 11.7061C9.71875 11.7256 10.5537 11.9795 11.1982 12.4678C11.8428 12.9463 12.3164 13.5664 12.6191 14.3281C12.9219 15.0898 13.0732 15.9053 13.0732 16.7744C13.0732 18.1318 12.8193 19.2744 12.3115 20.2021C11.8037 21.1201 11.0762 21.8184 10.1289 22.2969C9.19141 22.7656 8.05371 23 6.71582 23ZM19.7676 10.2119V23H16.3545V7.15039H19.6064L19.7676 10.2119ZM23.5908 7.04785L23.5762 10.417C23.3809 10.3682 23.1709 10.3389 22.9463 10.3291C22.7314 10.3096 22.5166 10.2998 22.3018 10.2998C21.833 10.2998 21.4277 10.3828 21.0859 10.5488C20.7441 10.7148 20.4561 10.9541 20.2217 11.2666C19.9873 11.5791 19.8018 11.9551 19.665 12.3945C19.5381 12.834 19.46 13.332 19.4307 13.8887L18.6982 13.918C18.6982 12.9219 18.7764 11.999 18.9326 11.1494C19.0889 10.29 19.3232 9.54297 19.6357 8.9082C19.958 8.26367 20.3584 7.76074 20.8369 7.39941C21.3154 7.03809 21.8721 6.85742 22.5068 6.85742C22.6826 6.85742 22.8828 6.87695 23.1074 6.91602C23.332 6.95508 23.4932 6.99902 23.5908 7.04785ZM32.7607 19.7773V11.8818C32.7607 11.335 32.6826 10.8955 32.5264 10.5635C32.3799 10.2314 32.1602 9.99219 31.8672 9.8457C31.584 9.68945 31.2275 9.61133 30.7979 9.61133C30.3486 9.61133 29.9678 9.7041 29.6553 9.88965C29.3525 10.0752 29.123 10.3291 28.9668 10.6514C28.8105 10.9639 28.7324 11.3252 28.7324 11.7354H25.3193C25.3193 11.1006 25.4463 10.4902 25.7002 9.9043C25.9639 9.31836 26.3398 8.7959 26.8281 8.33691C27.3164 7.87793 27.9072 7.5166 28.6006 7.25293C29.2939 6.98926 30.0654 6.85742 30.915 6.85742C31.9307 6.85742 32.834 7.02832 33.625 7.37012C34.416 7.70215 35.0361 8.24414 35.4854 8.99609C35.9443 9.73828 36.1738 10.7148 36.1738 11.9258V19.3232C36.1738 20.0557 36.2178 20.71 36.3057 21.2861C36.4033 21.8525 36.5352 22.3457 36.7012 22.7656V23H33.2295C33.0732 22.6191 32.9561 22.1309 32.8779 21.5352C32.7998 20.9395 32.7607 20.3535 32.7607 19.7773ZM33.2148 13.3467L33.2295 15.5586H31.5889C31.1006 15.5586 30.6611 15.627 30.2705 15.7637C29.8799 15.8906 29.5479 16.0762 29.2744 16.3203C29.0107 16.5547 28.8057 16.8428 28.6592 17.1846C28.5225 17.5264 28.4541 17.9023 28.4541 18.3125C28.4541 18.8105 28.5225 19.2158 28.6592 19.5283C28.8057 19.8408 29.0156 20.0752 29.2891 20.2314C29.5723 20.3779 29.9141 20.4512 30.3145 20.4512C30.8613 20.4512 31.335 20.334 31.7354 20.0996C32.1455 19.8555 32.458 19.5625 32.6729 19.2207C32.8975 18.8789 32.9854 18.5664 32.9365 18.2832L33.7129 19.7041C33.6348 20.0752 33.4883 20.4658 33.2734 20.876C33.0684 21.2861 32.7998 21.6768 32.4678 22.0479C32.1357 22.4189 31.7354 22.7217 31.2666 22.9561C30.7979 23.1807 30.2559 23.293 29.6406 23.293C28.752 23.293 27.9609 23.1074 27.2676 22.7363C26.5742 22.3652 26.0273 21.833 25.627 21.1396C25.2363 20.4365 25.041 19.5967 25.041 18.6201C25.041 17.8291 25.1729 17.1113 25.4365 16.4668C25.7002 15.8223 26.0908 15.2705 26.6084 14.8115C27.126 14.3428 27.7754 13.9814 28.5566 13.7275C29.3477 13.4736 30.2705 13.3467 31.3252 13.3467H33.2148ZM47.0137 18.8252C47.0137 18.4932 46.916 18.2002 46.7207 17.9463C46.5352 17.6826 46.2324 17.4238 45.8125 17.1699C45.3926 16.916 44.8311 16.6426 44.1279 16.3496C43.3955 16.0469 42.7461 15.7441 42.1797 15.4414C41.6133 15.1387 41.1348 14.8066 40.7441 14.4453C40.3535 14.0742 40.0557 13.6494 39.8506 13.1709C39.6455 12.6924 39.543 12.1357 39.543 11.501C39.543 10.8467 39.665 10.2412 39.9092 9.68457C40.1533 9.12793 40.5049 8.63965 40.9639 8.21973C41.4229 7.79004 41.9746 7.45801 42.6191 7.22363C43.2637 6.97949 43.9912 6.85742 44.8018 6.85742C45.9443 6.85742 46.9209 7.06738 47.7314 7.4873C48.5518 7.89746 49.1768 8.47363 49.6064 9.21582C50.0459 9.94824 50.2656 10.793 50.2656 11.75H46.8525C46.8525 11.3496 46.7793 10.9883 46.6328 10.666C46.4863 10.334 46.2617 10.0703 45.959 9.875C45.6562 9.66992 45.2705 9.56738 44.8018 9.56738C44.3721 9.56738 44.0107 9.65039 43.7178 9.81641C43.4346 9.97266 43.2197 10.1875 43.0732 10.4609C42.9365 10.7246 42.8682 11.0225 42.8682 11.3545C42.8682 11.5986 42.9121 11.8135 43 11.999C43.0879 12.1846 43.2344 12.3652 43.4395 12.541C43.6445 12.707 43.918 12.8779 44.2598 13.0537C44.6113 13.2295 45.0557 13.4297 45.5928 13.6543C46.6572 14.0645 47.541 14.4893 48.2441 14.9287C48.9473 15.3682 49.4746 15.8809 49.8262 16.4668C50.1777 17.0527 50.3535 17.7803 50.3535 18.6494C50.3535 19.3525 50.2217 19.9873 49.958 20.5537C49.7041 21.1201 49.333 21.6084 48.8447 22.0186C48.3662 22.4287 47.7852 22.7461 47.1016 22.9707C46.4277 23.1855 45.6758 23.293 44.8457 23.293C43.6055 23.293 42.5557 23.0488 41.6963 22.5605C40.8467 22.0625 40.2021 21.4229 39.7627 20.6416C39.3232 19.8604 39.1035 19.0352 39.1035 18.166H42.3994C42.4287 18.791 42.5605 19.2793 42.7949 19.6309C43.0391 19.9824 43.3467 20.2266 43.7178 20.3633C44.0889 20.4902 44.4746 20.5537 44.875 20.5537C45.3535 20.5537 45.749 20.4902 46.0615 20.3633C46.374 20.2266 46.6084 20.0264 46.7646 19.7627C46.9307 19.499 47.0137 19.1865 47.0137 18.8252ZM56.9453 7.15039V23H53.5322V7.15039H56.9453ZM53.3564 3.00488C53.3564 2.45801 53.5225 2.00391 53.8545 1.64258C54.1865 1.27148 54.6504 1.08594 55.2461 1.08594C55.8418 1.08594 56.3057 1.27148 56.6377 1.64258C56.9697 2.00391 57.1357 2.45801 57.1357 3.00488C57.1357 3.53223 56.9697 3.97656 56.6377 4.33789C56.3057 4.69922 55.8418 4.87988 55.2461 4.87988C54.6504 4.87988 54.1865 4.69922 53.8545 4.33789C53.5225 3.97656 53.3564 3.53223 53.3564 3.00488ZM64.2109 0.5V23H60.7979V0.5H64.2109Z" fill="#347BB7"/>
<path d="M84.2207 17.4922C84.2207 17.0527 84.1719 16.6621 84.0742 16.3203C83.9863 15.9688 83.8154 15.6514 83.5615 15.3682C83.3076 15.085 82.9463 14.8066 82.4775 14.5332C82.0186 14.2598 81.4229 13.9814 80.6904 13.6982C79.8506 13.376 79.0645 13.0244 78.332 12.6436C77.6094 12.2529 76.9697 11.8135 76.4131 11.3252C75.8662 10.8271 75.4365 10.2461 75.124 9.58203C74.8115 8.91797 74.6553 8.14648 74.6553 7.26758C74.6553 6.39844 74.8066 5.60742 75.1094 4.89453C75.4219 4.17188 75.8613 3.55176 76.4277 3.03418C77.0039 2.50684 77.6875 2.10156 78.4785 1.81836C79.2695 1.52539 80.1436 1.37891 81.1006 1.37891C82.4775 1.37891 83.6543 1.67188 84.6309 2.25781C85.6172 2.84375 86.3691 3.62988 86.8867 4.61621C87.4141 5.60254 87.6777 6.69629 87.6777 7.89746H84.1328C84.1328 7.2041 84.0254 6.58887 83.8105 6.05176C83.5957 5.51465 83.2637 5.09473 82.8145 4.79199C82.3652 4.48926 81.7842 4.33789 81.0713 4.33789C80.417 4.33789 79.875 4.46484 79.4453 4.71875C79.0254 4.97266 78.7129 5.31934 78.5078 5.75879C78.3125 6.19824 78.2148 6.70117 78.2148 7.26758C78.2148 7.6582 78.2979 8.01465 78.4639 8.33691C78.6299 8.64941 78.8691 8.9375 79.1816 9.20117C79.4941 9.46484 79.875 9.71387 80.3242 9.94824C80.7734 10.1826 81.291 10.4072 81.877 10.6221C82.873 10.9834 83.7422 11.3838 84.4844 11.8232C85.2266 12.2627 85.8369 12.7559 86.3154 13.3027C86.8037 13.8398 87.165 14.4502 87.3994 15.1338C87.6436 15.8174 87.7656 16.5938 87.7656 17.4629C87.7656 18.3418 87.6143 19.1426 87.3115 19.8652C87.0186 20.5781 86.5889 21.1885 86.0225 21.6963C85.4561 22.2041 84.7725 22.5996 83.9717 22.8828C83.1709 23.1562 82.2725 23.293 81.2764 23.293C80.3584 23.293 79.4746 23.1562 78.625 22.8828C77.7852 22.6094 77.0332 22.1943 76.3691 21.6377C75.7051 21.0713 75.1777 20.3633 74.7871 19.5137C74.4062 18.6641 74.2158 17.668 74.2158 16.5254H77.7754C77.7754 17.209 77.8584 17.7949 78.0244 18.2832C78.1904 18.7617 78.4297 19.1572 78.7422 19.4697C79.0645 19.7725 79.4404 19.9971 79.8701 20.1436C80.3096 20.2803 80.7979 20.3486 81.335 20.3486C81.999 20.3486 82.541 20.2314 82.9609 19.9971C83.3906 19.7529 83.708 19.416 83.9131 18.9863C84.1182 18.5566 84.2207 18.0586 84.2207 17.4922ZM97.082 7.15039V9.78711H89.3037V7.15039H97.082ZM91.4277 3.26855H94.8262V18.5762C94.8262 19.0645 94.8799 19.4355 94.9873 19.6895C95.0947 19.9434 95.2461 20.1143 95.4414 20.2021C95.6367 20.29 95.8662 20.334 96.1299 20.334C96.3252 20.334 96.5156 20.3193 96.7012 20.29C96.8965 20.251 97.0381 20.2168 97.126 20.1875V22.9414C96.8721 23.0391 96.5791 23.1221 96.2471 23.1904C95.915 23.2588 95.5146 23.293 95.0459 23.293C94.3525 23.293 93.7324 23.1514 93.1855 22.8682C92.6387 22.5752 92.209 22.1016 91.8965 21.4473C91.584 20.7832 91.4277 19.9043 91.4277 18.8105V3.26855ZM107.556 19.2646V7.15039H110.969V23H107.746L107.556 19.2646ZM108.039 15.9541L109.123 15.9248C109.123 16.9893 109.025 17.9707 108.83 18.8691C108.635 19.7676 108.332 20.5488 107.922 21.2129C107.521 21.8672 106.999 22.3799 106.354 22.751C105.72 23.1123 104.958 23.293 104.069 23.293C103.415 23.293 102.814 23.1807 102.268 22.9561C101.73 22.7314 101.267 22.3848 100.876 21.916C100.495 21.4473 100.197 20.8369 99.9824 20.085C99.7676 19.333 99.6602 18.4346 99.6602 17.3896V7.15039H103.073V17.4189C103.073 17.9854 103.122 18.459 103.22 18.8398C103.317 19.2109 103.454 19.5137 103.63 19.748C103.806 19.9727 104.001 20.1338 104.216 20.2314C104.44 20.3193 104.68 20.3633 104.934 20.3633C105.705 20.3633 106.315 20.1729 106.765 19.792C107.224 19.4014 107.551 18.874 107.746 18.21C107.941 17.5459 108.039 16.7939 108.039 15.9541ZM122.351 19.6895V0.5H125.764V23L122.673 23.0146L122.351 19.6895ZM113.84 15.7197V14.4746C113.84 13.1758 113.957 12.0527 114.191 11.1055C114.426 10.1484 114.768 9.35254 115.217 8.71777C115.676 8.08301 116.228 7.61426 116.872 7.31152C117.517 7.00879 118.244 6.85742 119.055 6.85742C119.846 6.85742 120.529 7.03809 121.105 7.39941C121.682 7.75098 122.17 8.25391 122.57 8.9082C122.971 9.5625 123.288 10.3438 123.522 11.252C123.767 12.1504 123.933 13.1562 124.021 14.2695V15.998C123.913 17.0723 123.742 18.0586 123.508 18.957C123.273 19.8457 122.956 20.6123 122.556 21.2568C122.155 21.9014 121.662 22.4043 121.076 22.7656C120.5 23.1172 119.821 23.293 119.04 23.293C118.229 23.293 117.502 23.1318 116.857 22.8096C116.223 22.4873 115.676 22.0088 115.217 21.374C114.768 20.7393 114.426 19.9531 114.191 19.0156C113.957 18.0684 113.84 16.9697 113.84 15.7197ZM117.253 14.4746V15.7197C117.253 16.5303 117.302 17.2285 117.399 17.8145C117.497 18.4004 117.653 18.8838 117.868 19.2646C118.083 19.6357 118.366 19.9141 118.718 20.0996C119.069 20.2754 119.494 20.3633 119.992 20.3633C120.617 20.3633 121.125 20.207 121.516 19.8945C121.916 19.582 122.224 19.1621 122.438 18.6348C122.663 18.0977 122.819 17.502 122.907 16.8477V13.4346C122.858 12.917 122.761 12.4385 122.614 11.999C122.468 11.5498 122.277 11.1592 122.043 10.8271C121.809 10.4951 121.521 10.2363 121.179 10.0508C120.847 9.85547 120.456 9.75781 120.007 9.75781C119.509 9.75781 119.084 9.85547 118.732 10.0508C118.381 10.2363 118.098 10.5244 117.883 10.915C117.668 11.2959 117.507 11.7842 117.399 12.3799C117.302 12.9658 117.253 13.6641 117.253 14.4746ZM135.329 23.293C134.304 23.293 133.391 23.1416 132.59 22.8389C131.789 22.5264 131.11 22.0674 130.554 21.4619C129.997 20.8467 129.572 20.0947 129.279 19.2061C128.986 18.3076 128.84 17.2676 128.84 16.0859V14.5625C128.84 13.2246 128.991 12.0723 129.294 11.1055C129.606 10.1289 130.036 9.32812 130.583 8.70312C131.13 8.07812 131.774 7.61426 132.517 7.31152C133.269 7.00879 134.084 6.85742 134.963 6.85742C135.959 6.85742 136.823 7.01855 137.556 7.34082C138.288 7.66309 138.889 8.14648 139.357 8.79102C139.836 9.43555 140.188 10.2314 140.412 11.1787C140.646 12.126 140.764 13.2148 140.764 14.4453V16.1592H130.48V13.5811H137.395V13.2148C137.375 12.4922 137.287 11.8721 137.131 11.3545C136.975 10.8271 136.721 10.4268 136.369 10.1533C136.027 9.87012 135.554 9.72852 134.948 9.72852C134.509 9.72852 134.118 9.81152 133.776 9.97754C133.435 10.1436 133.151 10.4121 132.927 10.7832C132.712 11.1543 132.546 11.6523 132.429 12.2773C132.312 12.8926 132.253 13.6543 132.253 14.5625V16.0859C132.253 16.877 132.321 17.5459 132.458 18.0928C132.604 18.6396 132.819 19.0889 133.103 19.4404C133.386 19.7822 133.728 20.0361 134.128 20.2021C134.538 20.3584 135.012 20.4365 135.549 20.4365C136.34 20.4365 137.019 20.29 137.585 19.9971C138.161 19.6943 138.659 19.3037 139.079 18.8252L140.588 20.9199C140.305 21.3008 139.924 21.6768 139.445 22.0479C138.967 22.4092 138.386 22.707 137.702 22.9414C137.028 23.1758 136.237 23.293 135.329 23.293ZM146.872 10.5342V23H143.459V7.15039H146.667L146.872 10.5342ZM146.257 14.5039H145.173C145.163 13.3613 145.285 12.3213 145.539 11.3838C145.793 10.4463 146.154 9.64062 146.623 8.9668C147.102 8.29297 147.668 7.77539 148.322 7.41406C148.986 7.04297 149.724 6.85742 150.534 6.85742C151.159 6.85742 151.73 6.96484 152.248 7.17969C152.775 7.38477 153.225 7.72168 153.596 8.19043C153.967 8.65918 154.25 9.26953 154.445 10.0215C154.65 10.7734 154.753 11.6914 154.753 12.7754V23H151.34V12.7461C151.34 12.0039 151.257 11.418 151.091 10.9883C150.935 10.5488 150.7 10.2363 150.388 10.0508C150.075 9.85547 149.68 9.75781 149.201 9.75781C148.762 9.75781 148.356 9.88477 147.985 10.1387C147.624 10.3828 147.312 10.7246 147.048 11.1641C146.794 11.5938 146.599 12.0967 146.462 12.6729C146.325 13.2393 146.257 13.8496 146.257 14.5039ZM164.582 7.15039V9.78711H156.804V7.15039H164.582ZM158.928 3.26855H162.326V18.5762C162.326 19.0645 162.38 19.4355 162.487 19.6895C162.595 19.9434 162.746 20.1143 162.941 20.2021C163.137 20.29 163.366 20.334 163.63 20.334C163.825 20.334 164.016 20.3193 164.201 20.29C164.396 20.251 164.538 20.2168 164.626 20.1875V22.9414C164.372 23.0391 164.079 23.1221 163.747 23.1904C163.415 23.2588 163.015 23.293 162.546 23.293C161.853 23.293 161.232 23.1514 160.686 22.8682C160.139 22.5752 159.709 22.1016 159.396 21.4473C159.084 20.7832 158.928 19.9043 158.928 18.8105V3.26855Z" fill="#88C742"/>
</svg>
