<svg width="260" height="260" viewBox="0 0 260 260" fill="none" xmlns="http://www.w3.org/2000/svg">
<path d="M81.8735 88.4004L78.0527 103H74.2808L79.835 85.2266H82.1909L81.8735 88.4004ZM84.8887 103L81.0435 88.4004L80.6895 85.2266H83.082L88.6851 103H84.8887ZM85.0229 96.3716V99.3379H77.0029V96.3716H85.0229ZM93.4946 100.363L95.6187 89.792H99.1831L95.5576 103H93.4214L93.4946 100.363ZM92.2373 89.792L94.3979 100.375L94.4346 103H92.2861L88.6606 89.792H92.2373ZM106.458 99.9604V93.8569C106.458 93.4582 106.41 93.1408 106.312 92.9048C106.222 92.6688 106.084 92.4979 105.897 92.3921C105.718 92.2782 105.498 92.2212 105.238 92.2212C104.945 92.2212 104.701 92.2822 104.505 92.4043C104.31 92.5264 104.164 92.7013 104.066 92.9292C103.976 93.1571 103.932 93.4297 103.932 93.7471H100.501C100.501 93.1774 100.611 92.6403 100.831 92.1357C101.051 91.623 101.372 91.1755 101.795 90.793C102.227 90.4023 102.739 90.0972 103.333 89.8774C103.928 89.6577 104.595 89.5479 105.335 89.5479C106.214 89.5479 106.996 89.6984 107.679 89.9995C108.363 90.2925 108.904 90.7604 109.303 91.4033C109.701 92.0462 109.901 92.8804 109.901 93.9058V99.7896C109.901 100.53 109.938 101.132 110.011 101.596C110.092 102.06 110.21 102.459 110.365 102.792V103H106.922C106.768 102.634 106.65 102.178 106.568 101.633C106.495 101.079 106.458 100.522 106.458 99.9604ZM106.874 94.9312L106.886 96.9819H105.628C105.303 96.9819 105.018 97.0348 104.774 97.1406C104.538 97.2464 104.339 97.397 104.176 97.5923C104.013 97.7795 103.891 97.9992 103.81 98.2515C103.736 98.5037 103.7 98.7723 103.7 99.0571C103.7 99.3745 103.744 99.6431 103.834 99.8628C103.924 100.083 104.058 100.249 104.237 100.363C104.416 100.477 104.627 100.534 104.872 100.534C105.246 100.534 105.571 100.457 105.848 100.302C106.125 100.148 106.328 99.9604 106.458 99.7407C106.597 99.521 106.642 99.3175 106.593 99.1304L107.374 100.461C107.276 100.762 107.142 101.075 106.971 101.401C106.808 101.726 106.601 102.028 106.349 102.304C106.096 102.581 105.783 102.809 105.409 102.988C105.042 103.159 104.607 103.244 104.103 103.244C103.395 103.244 102.748 103.081 102.162 102.756C101.576 102.43 101.112 101.975 100.77 101.389C100.436 100.803 100.27 100.107 100.27 99.3013C100.27 98.634 100.375 98.0317 100.587 97.4946C100.807 96.9494 101.132 96.4896 101.563 96.1152C101.995 95.7327 102.54 95.4398 103.199 95.2363C103.858 95.0329 104.632 94.9312 105.519 94.9312H106.874ZM116.017 84.25V103H112.586V84.25H116.017ZM122.315 89.792V103H118.885V89.792H122.315ZM118.727 86.374C118.727 85.8451 118.893 85.4097 119.227 85.0679C119.569 84.7179 120.025 84.543 120.594 84.543C121.172 84.543 121.628 84.7179 121.961 85.0679C122.295 85.4097 122.462 85.8451 122.462 86.374C122.462 86.8949 122.291 87.3302 121.949 87.6802C121.616 88.022 121.168 88.1929 120.606 88.1929C120.029 88.1929 119.569 88.022 119.227 87.6802C118.893 87.3302 118.727 86.8949 118.727 86.374ZM130.848 99.9604V93.8569C130.848 93.4582 130.799 93.1408 130.702 92.9048C130.612 92.6688 130.474 92.4979 130.287 92.3921C130.108 92.2782 129.888 92.2212 129.627 92.2212C129.334 92.2212 129.09 92.2822 128.895 92.4043C128.7 92.5264 128.553 92.7013 128.456 92.9292C128.366 93.1571 128.321 93.4297 128.321 93.7471H124.891C124.891 93.1774 125.001 92.6403 125.221 92.1357C125.44 91.623 125.762 91.1755 126.185 90.793C126.616 90.4023 127.129 90.0972 127.723 89.8774C128.317 89.6577 128.985 89.5479 129.725 89.5479C130.604 89.5479 131.385 89.6984 132.069 89.9995C132.752 90.2925 133.294 90.7604 133.692 91.4033C134.091 92.0462 134.291 92.8804 134.291 93.9058V99.7896C134.291 100.53 134.327 101.132 134.4 101.596C134.482 102.06 134.6 102.459 134.754 102.792V103H131.312C131.157 102.634 131.039 102.178 130.958 101.633C130.885 101.079 130.848 100.522 130.848 99.9604ZM131.263 94.9312L131.275 96.9819H130.018C129.693 96.9819 129.408 97.0348 129.164 97.1406C128.928 97.2464 128.728 97.397 128.565 97.5923C128.403 97.7795 128.281 97.9992 128.199 98.2515C128.126 98.5037 128.089 98.7723 128.089 99.0571C128.089 99.3745 128.134 99.6431 128.224 99.8628C128.313 100.083 128.447 100.249 128.626 100.363C128.806 100.477 129.017 100.534 129.261 100.534C129.636 100.534 129.961 100.457 130.238 100.302C130.514 100.148 130.718 99.9604 130.848 99.7407C130.986 99.521 131.031 99.3175 130.982 99.1304L131.764 100.461C131.666 100.762 131.532 101.075 131.361 101.401C131.198 101.726 130.991 102.028 130.738 102.304C130.486 102.581 130.173 102.809 129.798 102.988C129.432 103.159 128.997 103.244 128.492 103.244C127.784 103.244 127.137 103.081 126.551 102.756C125.965 102.43 125.501 101.975 125.16 101.389C124.826 100.803 124.659 100.107 124.659 99.3013C124.659 98.634 124.765 98.0317 124.977 97.4946C125.196 96.9494 125.522 96.4896 125.953 96.1152C126.384 95.7327 126.93 95.4398 127.589 95.2363C128.248 95.0329 129.021 94.9312 129.908 94.9312H131.263ZM141.59 100.4C141.908 100.4 142.18 100.335 142.408 100.205C142.644 100.074 142.823 99.8628 142.945 99.5698C143.067 99.2769 143.132 98.8984 143.141 98.4346H146.351C146.351 99.4274 146.139 100.286 145.716 101.01C145.301 101.726 144.74 102.28 144.032 102.67C143.332 103.053 142.538 103.244 141.651 103.244C140.764 103.244 139.991 103.102 139.332 102.817C138.673 102.532 138.128 102.117 137.696 101.572C137.273 101.027 136.952 100.363 136.732 99.582C136.52 98.7926 136.415 97.8893 136.415 96.8721V95.9077C136.415 94.9067 136.52 94.0116 136.732 93.2222C136.952 92.4328 137.273 91.7655 137.696 91.2202C138.128 90.675 138.669 90.2599 139.32 89.9751C139.979 89.6903 140.752 89.5479 141.639 89.5479C142.591 89.5479 143.417 89.7472 144.117 90.146C144.817 90.5366 145.362 91.1144 145.753 91.8794C146.152 92.6444 146.351 93.5884 146.351 94.7114H143.141C143.132 94.2069 143.071 93.7878 142.958 93.4541C142.852 93.1123 142.685 92.8519 142.457 92.6729C142.237 92.4857 141.944 92.3921 141.578 92.3921C141.196 92.3921 140.886 92.4735 140.65 92.6362C140.423 92.7909 140.248 93.0187 140.125 93.3198C140.012 93.6128 139.934 93.979 139.894 94.4185C139.853 94.8579 139.833 95.3543 139.833 95.9077V96.8721C139.833 97.4661 139.849 97.9829 139.881 98.4224C139.922 98.8537 139.999 99.2199 140.113 99.521C140.235 99.814 140.41 100.034 140.638 100.18C140.874 100.327 141.192 100.4 141.59 100.4ZM140.248 102.939H142.799L142.689 103.659C143.055 103.741 143.393 103.936 143.702 104.245C144.011 104.554 144.166 105.063 144.166 105.771C144.166 106.202 144.089 106.593 143.934 106.943C143.779 107.301 143.543 107.61 143.226 107.871C142.917 108.131 142.53 108.33 142.066 108.469C141.603 108.607 141.065 108.676 140.455 108.676L140.382 106.65C140.577 106.65 140.744 106.613 140.882 106.54C141.021 106.475 141.122 106.369 141.188 106.223C141.261 106.076 141.297 105.885 141.297 105.649C141.297 105.421 141.249 105.242 141.151 105.112C141.061 104.99 140.915 104.896 140.711 104.831C140.516 104.766 140.252 104.721 139.918 104.697L140.248 102.939ZM147.926 96.8477V95.9565C147.926 94.923 148.048 94.0075 148.292 93.21C148.544 92.4124 148.902 91.7451 149.366 91.208C149.83 90.6628 150.388 90.2518 151.039 89.9751C151.698 89.6903 152.434 89.5479 153.248 89.5479C154.07 89.5479 154.806 89.6903 155.458 89.9751C156.117 90.2518 156.678 90.6628 157.142 91.208C157.614 91.7451 157.976 92.4124 158.229 93.21C158.481 94.0075 158.607 94.923 158.607 95.9565V96.8477C158.607 97.873 158.481 98.7845 158.229 99.582C157.976 100.38 157.614 101.051 157.142 101.596C156.678 102.141 156.121 102.552 155.47 102.829C154.819 103.106 154.086 103.244 153.272 103.244C152.459 103.244 151.722 103.106 151.063 102.829C150.412 102.552 149.85 102.141 149.378 101.596C148.906 101.051 148.544 100.38 148.292 99.582C148.048 98.7845 147.926 97.873 147.926 96.8477ZM151.344 95.9565V96.8477C151.344 97.458 151.384 97.987 151.466 98.4346C151.555 98.8822 151.681 99.2524 151.844 99.5454C152.015 99.8384 152.219 100.054 152.455 100.192C152.691 100.331 152.963 100.4 153.272 100.4C153.582 100.4 153.858 100.331 154.103 100.192C154.347 100.054 154.546 99.8384 154.701 99.5454C154.863 99.2524 154.981 98.8822 155.055 98.4346C155.136 97.987 155.177 97.458 155.177 96.8477V95.9565C155.177 95.3625 155.132 94.8416 155.042 94.394C154.953 93.9383 154.827 93.568 154.664 93.2832C154.501 92.9902 154.298 92.7705 154.054 92.624C153.818 92.4694 153.549 92.3921 153.248 92.3921C152.947 92.3921 152.678 92.4694 152.442 92.624C152.215 92.7705 152.015 92.9902 151.844 93.2832C151.681 93.568 151.555 93.9383 151.466 94.394C151.384 94.8416 151.344 95.3625 151.344 95.9565ZM155.226 84.2866L157.167 84.4209C157.167 85.0231 157.065 85.5724 156.861 86.0688C156.658 86.5571 156.369 86.9478 155.995 87.2407C155.628 87.5337 155.205 87.6802 154.725 87.6802C154.408 87.6802 154.131 87.6273 153.895 87.5215C153.667 87.4157 153.451 87.2936 153.248 87.1553C153.053 87.0169 152.853 86.8949 152.65 86.7891C152.446 86.6833 152.215 86.6304 151.954 86.6304C151.726 86.6304 151.535 86.7321 151.38 86.9355C151.234 87.139 151.161 87.4279 151.161 87.8022L149.22 87.668C149.22 87.082 149.321 86.5449 149.525 86.0566C149.736 85.5602 150.025 85.1615 150.392 84.8604C150.758 84.5511 151.173 84.3965 151.637 84.3965C151.897 84.3965 152.141 84.4535 152.369 84.5674C152.597 84.6732 152.821 84.7952 153.041 84.9336C153.26 85.0719 153.484 85.194 153.712 85.2998C153.94 85.4056 154.18 85.4585 154.432 85.4585C154.652 85.4585 154.839 85.3568 154.994 85.1533C155.148 84.9499 155.226 84.661 155.226 84.2866ZM166.09 103.244C165.187 103.244 164.385 103.106 163.685 102.829C162.993 102.552 162.407 102.154 161.927 101.633C161.447 101.104 161.081 100.465 160.829 99.7163C160.576 98.9676 160.45 98.1131 160.45 97.1528V96.0664C160.45 94.9922 160.572 94.0522 160.816 93.2466C161.061 92.4328 161.406 91.7492 161.854 91.1958C162.302 90.6424 162.851 90.2314 163.502 89.9629C164.161 89.6862 164.906 89.5479 165.736 89.5479C166.566 89.5479 167.294 89.6862 167.921 89.9629C168.556 90.2314 169.081 90.6383 169.496 91.1836C169.911 91.7207 170.224 92.388 170.436 93.1855C170.647 93.9831 170.753 94.9108 170.753 95.9688V97.5312H161.903V95.1265H167.396V94.8213C167.396 94.2842 167.339 93.8366 167.225 93.4785C167.111 93.1123 166.932 92.8397 166.688 92.6606C166.444 92.4816 166.118 92.3921 165.711 92.3921C165.37 92.3921 165.081 92.4613 164.845 92.5996C164.609 92.738 164.422 92.9536 164.283 93.2466C164.145 93.5396 164.043 93.922 163.978 94.394C163.913 94.8579 163.88 95.4154 163.88 96.0664V97.1528C163.88 97.7632 163.933 98.2759 164.039 98.6909C164.145 99.0978 164.299 99.4315 164.503 99.6919C164.715 99.9442 164.971 100.127 165.272 100.241C165.573 100.347 165.923 100.4 166.322 100.4C166.924 100.4 167.465 100.294 167.945 100.083C168.434 99.8628 168.849 99.5658 169.19 99.1914L170.558 101.267C170.322 101.576 169.996 101.885 169.581 102.194C169.166 102.504 168.67 102.756 168.092 102.951C167.514 103.146 166.847 103.244 166.09 103.244ZM178.59 99.4355C178.59 99.2077 178.513 99.0042 178.358 98.8252C178.203 98.6462 177.959 98.4631 177.625 98.2759C177.292 98.0806 176.848 97.8649 176.295 97.6289C175.693 97.3848 175.16 97.1325 174.696 96.8721C174.232 96.6117 173.837 96.3228 173.512 96.0054C173.194 95.688 172.954 95.3258 172.792 94.9189C172.629 94.512 172.547 94.0482 172.547 93.5273C172.547 92.9658 172.649 92.4491 172.853 91.9771C173.064 91.4969 173.365 91.0778 173.756 90.7197C174.146 90.3535 174.623 90.0687 175.184 89.8652C175.754 89.6536 176.393 89.5479 177.101 89.5479C178.093 89.5479 178.944 89.7228 179.652 90.0728C180.368 90.4146 180.917 90.8947 181.3 91.5132C181.682 92.1317 181.874 92.8519 181.874 93.6738H178.456C178.456 93.3809 178.411 93.1204 178.321 92.8926C178.232 92.6566 178.085 92.4735 177.882 92.3433C177.687 92.2131 177.422 92.1479 177.088 92.1479C176.844 92.1479 176.625 92.2008 176.429 92.3066C176.242 92.4124 176.091 92.5549 175.978 92.7339C175.872 92.9048 175.819 93.1082 175.819 93.3442C175.819 93.5233 175.855 93.682 175.929 93.8203C176.01 93.9587 176.136 94.0929 176.307 94.2231C176.478 94.3534 176.706 94.4917 176.991 94.6382C177.284 94.7765 177.642 94.9312 178.065 95.1021C178.944 95.4276 179.664 95.7775 180.226 96.1519C180.795 96.5262 181.218 96.9657 181.495 97.4702C181.772 97.9666 181.91 98.5811 181.91 99.3135C181.91 99.8994 181.796 100.432 181.568 100.913C181.349 101.393 181.027 101.808 180.604 102.158C180.181 102.508 179.672 102.776 179.078 102.963C178.492 103.151 177.837 103.244 177.113 103.244C176.047 103.244 175.147 103.033 174.415 102.609C173.683 102.186 173.129 101.645 172.755 100.986C172.381 100.319 172.193 99.6268 172.193 98.9106H175.44C175.457 99.3501 175.538 99.696 175.685 99.9482C175.839 100.192 176.047 100.363 176.307 100.461C176.568 100.559 176.856 100.607 177.174 100.607C177.491 100.607 177.752 100.567 177.955 100.485C178.167 100.396 178.325 100.262 178.431 100.083C178.537 99.8953 178.59 99.6797 178.59 99.4355Z" fill="#666666"/>
<path d="M170.069 253.671C143.961 262.13 115.846 262.109 89.7504 253.612C63.6548 245.115 40.9177 228.578 24.7958 206.368C8.67385 184.159 -0.0058176 157.417 2.92374e-06 129.972C0.00582344 102.528 8.69683 75.79 24.8282 53.5874C40.9596 31.3847 63.7037 14.8567 89.8029 6.37075C115.902 -2.11521 144.017 -2.12378 170.122 6.34626C196.226 14.8163 218.98 31.3304 235.125 53.5232C251.27 75.7161 259.977 102.449 260 129.893L215.362 129.93C215.347 111.909 209.63 94.3555 199.028 79.783C188.427 65.2106 173.486 54.3669 156.345 48.8052C139.204 43.2435 120.743 43.2492 103.605 48.8213C86.4678 54.3934 71.5333 65.2462 60.941 79.8251C50.3487 94.4041 44.6419 111.961 44.6381 129.982C44.6342 148.003 50.3336 165.562 60.9197 180.146C71.5059 194.729 86.4358 205.588 103.571 211.168C120.706 216.747 139.167 216.76 156.311 211.206L170.069 253.671Z" fill="#00A65A"/>
<path d="M260 130C260 157.419 251.33 184.136 235.231 206.331C219.131 228.526 196.426 245.063 170.362 253.576L156.503 211.143C173.617 205.554 188.526 194.695 199.098 180.121C209.669 165.548 215.362 148.004 215.362 130H260Z" fill="#D9D9D9"/>
<path d="M103.901 155.765C103.901 156.888 103.681 157.832 103.242 158.597C102.81 159.354 102.208 159.927 101.435 160.318C100.67 160.7 99.7993 160.892 98.8228 160.892C97.8462 160.892 96.9714 160.7 96.1982 160.318C95.4251 159.927 94.8148 159.354 94.3672 158.597C93.9196 157.832 93.6958 156.888 93.6958 155.765C93.6958 155.016 93.8219 154.336 94.0742 153.726C94.3265 153.116 94.6805 152.595 95.1362 152.164C95.6001 151.724 96.1413 151.39 96.7598 151.163C97.3864 150.927 98.0659 150.809 98.7983 150.809C99.783 150.809 100.658 151.016 101.423 151.431C102.196 151.838 102.802 152.412 103.242 153.152C103.681 153.893 103.901 154.764 103.901 155.765ZM100.471 155.521C100.471 154.992 100.402 154.536 100.263 154.153C100.133 153.771 99.9417 153.478 99.6895 153.274C99.4453 153.063 99.1483 152.957 98.7983 152.957C98.4565 152.957 98.1595 153.063 97.9072 153.274C97.6549 153.478 97.4596 153.771 97.3213 154.153C97.1911 154.536 97.126 154.992 97.126 155.521C97.126 156.041 97.1911 156.489 97.3213 156.863C97.4596 157.238 97.6549 157.531 97.9072 157.742C98.1595 157.946 98.4647 158.047 98.8228 158.047C99.1727 158.047 99.4697 157.946 99.7139 157.742C99.9661 157.531 100.153 157.238 100.275 156.863C100.406 156.489 100.471 156.041 100.471 155.521ZM103.608 147.598C103.608 148.51 103.404 149.311 102.998 150.003C102.591 150.695 102.025 151.236 101.301 151.626C100.585 152.017 99.7586 152.212 98.8228 152.212C97.8787 152.212 97.0446 152.017 96.3203 151.626C95.596 151.236 95.0264 150.695 94.6113 150.003C94.2044 149.303 94.001 148.501 94.001 147.598C94.001 146.524 94.2044 145.617 94.6113 144.876C95.0264 144.135 95.596 143.574 96.3203 143.191C97.0446 142.809 97.8747 142.618 98.8105 142.618C99.7546 142.618 100.585 142.809 101.301 143.191C102.025 143.574 102.591 144.135 102.998 144.876C103.404 145.617 103.608 146.524 103.608 147.598ZM100.19 147.769C100.19 147.305 100.137 146.902 100.031 146.561C99.9336 146.219 99.783 145.95 99.5796 145.755C99.3761 145.56 99.1198 145.462 98.8105 145.462C98.5176 145.462 98.2653 145.556 98.0537 145.743C97.8503 145.93 97.6956 146.194 97.5898 146.536C97.484 146.878 97.4312 147.289 97.4312 147.769C97.4312 148.241 97.48 148.652 97.5776 149.002C97.6834 149.352 97.8421 149.625 98.0537 149.82C98.2653 150.015 98.5216 150.113 98.8228 150.113C99.132 150.113 99.3843 150.015 99.5796 149.82C99.783 149.616 99.9336 149.34 100.031 148.99C100.137 148.64 100.19 148.233 100.19 147.769ZM116.608 150.198V153.287C116.608 154.621 116.482 155.769 116.23 156.729C115.978 157.689 115.624 158.479 115.168 159.097C114.712 159.708 114.171 160.159 113.544 160.452C112.918 160.745 112.226 160.892 111.469 160.892C110.867 160.892 110.301 160.798 109.772 160.611C109.243 160.424 108.763 160.139 108.332 159.756C107.909 159.366 107.543 158.873 107.233 158.279C106.932 157.677 106.7 156.965 106.538 156.143C106.375 155.313 106.293 154.361 106.293 153.287V150.198C106.293 148.864 106.42 147.72 106.672 146.768C106.932 145.808 107.29 145.022 107.746 144.412C108.202 143.802 108.743 143.354 109.37 143.069C110.004 142.776 110.7 142.63 111.457 142.63C112.051 142.63 112.613 142.723 113.142 142.911C113.679 143.09 114.155 143.37 114.57 143.753C114.993 144.135 115.355 144.628 115.656 145.23C115.965 145.824 116.201 146.536 116.364 147.366C116.527 148.188 116.608 149.132 116.608 150.198ZM113.178 153.763V149.698C113.178 149.071 113.15 148.522 113.093 148.05C113.044 147.578 112.975 147.179 112.885 146.854C112.796 146.528 112.678 146.264 112.531 146.06C112.385 145.857 112.222 145.71 112.043 145.621C111.864 145.523 111.665 145.474 111.445 145.474C111.184 145.474 110.948 145.547 110.737 145.694C110.525 145.84 110.342 146.08 110.188 146.414C110.033 146.74 109.915 147.175 109.833 147.72C109.76 148.257 109.724 148.917 109.724 149.698V153.763C109.724 154.389 109.748 154.943 109.797 155.423C109.854 155.903 109.931 156.314 110.029 156.656C110.135 156.989 110.253 157.258 110.383 157.461C110.521 157.665 110.68 157.815 110.859 157.913C111.046 158.003 111.25 158.047 111.469 158.047C111.73 158.047 111.966 157.974 112.177 157.828C112.397 157.673 112.58 157.429 112.727 157.095C112.873 156.762 112.983 156.322 113.056 155.777C113.138 155.223 113.178 154.552 113.178 153.763ZM122.468 157.645V160.049C122.468 160.969 122.24 161.893 121.784 162.82C121.328 163.756 120.751 164.521 120.051 165.115L118.22 164.163C118.423 163.789 118.623 163.41 118.818 163.028C119.013 162.645 119.176 162.226 119.306 161.771C119.436 161.315 119.501 160.798 119.501 160.22V157.645H122.468ZM135.383 150.198V153.287C135.383 154.621 135.257 155.769 135.004 156.729C134.752 157.689 134.398 158.479 133.942 159.097C133.487 159.708 132.945 160.159 132.319 160.452C131.692 160.745 131 160.892 130.244 160.892C129.641 160.892 129.076 160.798 128.547 160.611C128.018 160.424 127.538 160.139 127.106 159.756C126.683 159.366 126.317 158.873 126.008 158.279C125.707 157.677 125.475 156.965 125.312 156.143C125.149 155.313 125.068 154.361 125.068 153.287V150.198C125.068 148.864 125.194 147.72 125.446 146.768C125.707 145.808 126.065 145.022 126.521 144.412C126.976 143.802 127.517 143.354 128.144 143.069C128.779 142.776 129.475 142.63 130.231 142.63C130.826 142.63 131.387 142.723 131.916 142.911C132.453 143.09 132.929 143.37 133.344 143.753C133.767 144.135 134.13 144.628 134.431 145.23C134.74 145.824 134.976 146.536 135.139 147.366C135.301 148.188 135.383 149.132 135.383 150.198ZM131.953 153.763V149.698C131.953 149.071 131.924 148.522 131.867 148.05C131.818 147.578 131.749 147.179 131.66 146.854C131.57 146.528 131.452 146.264 131.306 146.06C131.159 145.857 130.996 145.71 130.817 145.621C130.638 145.523 130.439 145.474 130.219 145.474C129.959 145.474 129.723 145.547 129.511 145.694C129.3 145.84 129.117 146.08 128.962 146.414C128.807 146.74 128.689 147.175 128.608 147.72C128.535 148.257 128.498 148.917 128.498 149.698V153.763C128.498 154.389 128.522 154.943 128.571 155.423C128.628 155.903 128.706 156.314 128.803 156.656C128.909 156.989 129.027 157.258 129.157 157.461C129.296 157.665 129.454 157.815 129.633 157.913C129.82 158.003 130.024 158.047 130.244 158.047C130.504 158.047 130.74 157.974 130.952 157.828C131.171 157.673 131.354 157.429 131.501 157.095C131.647 156.762 131.757 156.322 131.831 155.777C131.912 155.223 131.953 154.552 131.953 153.763ZM148.029 150.198V153.287C148.029 154.621 147.903 155.769 147.651 156.729C147.399 157.689 147.045 158.479 146.589 159.097C146.133 159.708 145.592 160.159 144.965 160.452C144.339 160.745 143.647 160.892 142.89 160.892C142.288 160.892 141.722 160.798 141.193 160.611C140.664 160.424 140.184 160.139 139.753 159.756C139.33 159.366 138.964 158.873 138.654 158.279C138.353 157.677 138.121 156.965 137.958 156.143C137.796 155.313 137.714 154.361 137.714 153.287V150.198C137.714 148.864 137.84 147.72 138.093 146.768C138.353 145.808 138.711 145.022 139.167 144.412C139.623 143.802 140.164 143.354 140.791 143.069C141.425 142.776 142.121 142.63 142.878 142.63C143.472 142.63 144.034 142.723 144.562 142.911C145.1 143.09 145.576 143.37 145.991 143.753C146.414 144.135 146.776 144.628 147.077 145.23C147.386 145.824 147.622 146.536 147.785 147.366C147.948 148.188 148.029 149.132 148.029 150.198ZM144.599 153.763V149.698C144.599 149.071 144.571 148.522 144.514 148.05C144.465 147.578 144.396 147.179 144.306 146.854C144.217 146.528 144.099 146.264 143.952 146.06C143.806 145.857 143.643 145.71 143.464 145.621C143.285 145.523 143.085 145.474 142.866 145.474C142.605 145.474 142.369 145.547 142.158 145.694C141.946 145.84 141.763 146.08 141.608 146.414C141.454 146.74 141.336 147.175 141.254 147.72C141.181 148.257 141.145 148.917 141.145 149.698V153.763C141.145 154.389 141.169 154.943 141.218 155.423C141.275 155.903 141.352 156.314 141.45 156.656C141.556 156.989 141.674 157.258 141.804 157.461C141.942 157.665 142.101 157.815 142.28 157.913C142.467 158.003 142.67 158.047 142.89 158.047C143.151 158.047 143.387 157.974 143.598 157.828C143.818 157.673 144.001 157.429 144.147 157.095C144.294 156.762 144.404 156.322 144.477 155.777C144.558 155.223 144.599 154.552 144.599 153.763ZM150.397 147.232V146.292C150.397 145.617 150.52 145.002 150.764 144.449C151.016 143.895 151.386 143.452 151.875 143.118C152.371 142.785 152.985 142.618 153.718 142.618C154.458 142.618 155.077 142.785 155.573 143.118C156.07 143.452 156.436 143.895 156.672 144.449C156.916 145.002 157.038 145.617 157.038 146.292V147.232C157.038 147.891 156.916 148.497 156.672 149.051C156.428 149.604 156.057 150.048 155.561 150.381C155.073 150.715 154.462 150.882 153.73 150.882C152.998 150.882 152.383 150.715 151.887 150.381C151.39 150.048 151.016 149.604 150.764 149.051C150.52 148.497 150.397 147.891 150.397 147.232ZM152.631 146.292V147.232C152.631 147.509 152.672 147.773 152.753 148.025C152.835 148.27 152.957 148.469 153.12 148.624C153.282 148.77 153.486 148.843 153.73 148.843C153.974 148.843 154.174 148.77 154.328 148.624C154.483 148.469 154.597 148.27 154.67 148.025C154.751 147.773 154.792 147.509 154.792 147.232V146.292C154.792 145.999 154.751 145.73 154.67 145.486C154.597 145.234 154.479 145.035 154.316 144.888C154.153 144.734 153.95 144.656 153.706 144.656C153.461 144.656 153.258 144.734 153.095 144.888C152.941 145.035 152.823 145.234 152.741 145.486C152.668 145.73 152.631 145.999 152.631 146.292ZM157.417 157.242V156.29C157.417 155.622 157.543 155.012 157.795 154.458C158.047 153.905 158.417 153.462 158.906 153.128C159.402 152.794 160.013 152.627 160.737 152.627C161.486 152.627 162.104 152.794 162.592 153.128C163.081 153.462 163.447 153.905 163.691 154.458C163.943 155.012 164.069 155.622 164.069 156.29V157.242C164.069 157.909 163.947 158.519 163.703 159.073C163.459 159.618 163.089 160.057 162.592 160.391C162.104 160.725 161.494 160.892 160.761 160.892C160.029 160.892 159.41 160.725 158.906 160.391C158.409 160.057 158.035 159.614 157.783 159.061C157.539 158.507 157.417 157.901 157.417 157.242ZM159.65 156.29V157.229C159.65 157.514 159.699 157.783 159.797 158.035C159.895 158.279 160.025 158.479 160.188 158.633C160.358 158.78 160.55 158.853 160.761 158.853C161.054 158.853 161.278 158.78 161.433 158.633C161.587 158.479 161.689 158.279 161.738 158.035C161.795 157.783 161.823 157.514 161.823 157.229V156.302C161.823 156.009 161.783 155.74 161.701 155.496C161.628 155.244 161.51 155.044 161.347 154.898C161.193 154.743 160.993 154.666 160.749 154.666C160.497 154.666 160.289 154.743 160.126 154.898C159.964 155.044 159.842 155.244 159.76 155.496C159.687 155.74 159.65 156.005 159.65 156.29ZM161.64 145.425L154.353 159.317L152.717 158.389L160.004 144.498L161.64 145.425Z" fill="black"/>
</svg>
