<svg width="260" height="260" viewBox="0 0 260 260" fill="none" xmlns="http://www.w3.org/2000/svg">
<path d="M81.0884 84.9746V102.748H77.5117V84.9746H81.0884ZM86.6548 92.5308V95.4849H80.1851V92.5308H86.6548ZM87.3384 84.9746V87.9409H80.1851V84.9746H87.3384ZM92.3555 92.4819V102.748H88.9375V89.54H92.1602L92.3555 92.4819ZM95.4683 89.4424L95.4194 92.8481C95.2648 92.8156 95.0776 92.7912 94.8579 92.7749C94.6463 92.7586 94.4591 92.7505 94.2964 92.7505C93.9139 92.7505 93.5884 92.8115 93.3198 92.9336C93.0513 93.0475 92.8275 93.2225 92.6484 93.4585C92.4775 93.6864 92.3473 93.9712 92.2578 94.313C92.1683 94.6548 92.1154 95.0413 92.0991 95.4727L91.4521 95.2285C91.4521 94.3659 91.5173 93.5765 91.6475 92.8604C91.7858 92.1361 91.9893 91.5094 92.2578 90.9805C92.5264 90.4434 92.8478 90.0283 93.2222 89.7354C93.6047 89.4424 94.036 89.2959 94.5161 89.2959C94.6789 89.2959 94.8498 89.3122 95.0288 89.3447C95.216 89.3691 95.3625 89.4017 95.4683 89.4424ZM102.292 102.992C101.389 102.992 100.587 102.854 99.8872 102.577C99.1955 102.3 98.6095 101.902 98.1294 101.381C97.6493 100.852 97.283 100.213 97.0308 99.4644C96.7785 98.7157 96.6523 97.8612 96.6523 96.9009V95.8145C96.6523 94.7402 96.7744 93.8003 97.0186 92.9946C97.2627 92.1808 97.6086 91.4972 98.0562 90.9438C98.5037 90.3905 99.0531 89.9795 99.7041 89.7109C100.363 89.4342 101.108 89.2959 101.938 89.2959C102.768 89.2959 103.496 89.4342 104.123 89.7109C104.758 89.9795 105.283 90.3864 105.698 90.9316C106.113 91.4688 106.426 92.1361 106.638 92.9336C106.849 93.7311 106.955 94.6589 106.955 95.7168V97.2793H98.105V94.8745H103.598V94.5693C103.598 94.0322 103.541 93.5846 103.427 93.2266C103.313 92.8604 103.134 92.5877 102.89 92.4087C102.646 92.2297 102.32 92.1401 101.914 92.1401C101.572 92.1401 101.283 92.2093 101.047 92.3477C100.811 92.486 100.624 92.7017 100.485 92.9946C100.347 93.2876 100.245 93.6701 100.18 94.1421C100.115 94.606 100.083 95.1634 100.083 95.8145V96.9009C100.083 97.5112 100.135 98.0239 100.241 98.439C100.347 98.8459 100.502 99.1795 100.705 99.4399C100.917 99.6922 101.173 99.8753 101.474 99.9893C101.775 100.095 102.125 100.148 102.524 100.148C103.126 100.148 103.667 100.042 104.147 99.8306C104.636 99.6108 105.051 99.3138 105.393 98.9395L106.76 101.015C106.524 101.324 106.198 101.633 105.783 101.942C105.368 102.252 104.872 102.504 104.294 102.699C103.716 102.895 103.049 102.992 102.292 102.992ZM115.329 107.826V92.25L115.756 89.54H118.759V107.826H115.329ZM108.481 96.5713V95.6924C108.481 94.6182 108.57 93.6782 108.75 92.8726C108.937 92.0669 109.209 91.3996 109.567 90.8706C109.925 90.3416 110.373 89.9469 110.91 89.6865C111.447 89.4261 112.07 89.2959 112.778 89.2959C113.437 89.2959 114.003 89.4505 114.475 89.7598C114.955 90.069 115.358 90.5044 115.683 91.0659C116.009 91.6274 116.265 92.2907 116.452 93.0557C116.647 93.8125 116.798 94.6466 116.904 95.5581V96.8276C116.798 97.6903 116.643 98.4959 116.44 99.2446C116.245 99.9933 115.984 100.648 115.659 101.21C115.333 101.771 114.934 102.211 114.462 102.528C113.99 102.838 113.425 102.992 112.766 102.992C112.058 102.992 111.435 102.854 110.898 102.577C110.369 102.292 109.925 101.881 109.567 101.344C109.209 100.799 108.937 100.128 108.75 99.3301C108.57 98.5244 108.481 97.6048 108.481 96.5713ZM111.899 95.6924V96.5713C111.899 97.1816 111.931 97.7147 111.997 98.1704C112.062 98.6261 112.163 98.9964 112.302 99.2812C112.44 99.5661 112.627 99.7817 112.863 99.9282C113.099 100.075 113.396 100.148 113.754 100.148C114.243 100.148 114.629 100.03 114.914 99.7939C115.199 99.5498 115.406 99.2161 115.537 98.793C115.675 98.3617 115.752 97.8774 115.769 97.3403V95.0454C115.76 94.5978 115.716 94.195 115.634 93.8369C115.553 93.4788 115.431 93.1737 115.268 92.9214C115.105 92.6691 114.898 92.4779 114.646 92.3477C114.401 92.2093 114.108 92.1401 113.767 92.1401C113.425 92.1401 113.132 92.2093 112.888 92.3477C112.652 92.486 112.46 92.7017 112.314 92.9946C112.167 93.2795 112.062 93.6457 111.997 94.0933C111.931 94.5327 111.899 95.0658 111.899 95.6924ZM127.744 99.5742V89.54H131.174V102.748H127.951L127.744 99.5742ZM128.134 96.8521L129.086 96.8276C129.086 97.7147 129.001 98.5366 128.83 99.2935C128.659 100.042 128.403 100.693 128.061 101.247C127.719 101.8 127.292 102.231 126.779 102.541C126.267 102.842 125.66 102.992 124.96 102.992C124.423 102.992 123.927 102.903 123.471 102.724C123.024 102.536 122.637 102.248 122.312 101.857C121.986 101.458 121.73 100.95 121.542 100.331C121.363 99.7044 121.274 98.9517 121.274 98.0728V89.54H124.704V98.1094C124.704 98.4674 124.737 98.7767 124.802 99.0371C124.867 99.2894 124.956 99.4969 125.07 99.6597C125.184 99.8224 125.319 99.9404 125.473 100.014C125.628 100.079 125.803 100.111 125.998 100.111C126.535 100.111 126.958 99.973 127.268 99.6963C127.585 99.4115 127.809 99.0249 127.939 98.5366C128.069 98.0402 128.134 97.4787 128.134 96.8521ZM138.986 102.992C138.083 102.992 137.281 102.854 136.582 102.577C135.89 102.3 135.304 101.902 134.824 101.381C134.344 100.852 133.977 100.213 133.725 99.4644C133.473 98.7157 133.347 97.8612 133.347 96.9009V95.8145C133.347 94.7402 133.469 93.8003 133.713 92.9946C133.957 92.1808 134.303 91.4972 134.75 90.9438C135.198 90.3905 135.747 89.9795 136.398 89.7109C137.058 89.4342 137.802 89.2959 138.632 89.2959C139.462 89.2959 140.191 89.4342 140.817 89.7109C141.452 89.9795 141.977 90.3864 142.392 90.9316C142.807 91.4688 143.12 92.1361 143.332 92.9336C143.544 93.7311 143.649 94.6589 143.649 95.7168V97.2793H134.799V94.8745H140.292V94.5693C140.292 94.0322 140.236 93.5846 140.122 93.2266C140.008 92.8604 139.829 92.5877 139.584 92.4087C139.34 92.2297 139.015 92.1401 138.608 92.1401C138.266 92.1401 137.977 92.2093 137.741 92.3477C137.505 92.486 137.318 92.7017 137.18 92.9946C137.041 93.2876 136.94 93.6701 136.875 94.1421C136.809 94.606 136.777 95.1634 136.777 95.8145V96.9009C136.777 97.5112 136.83 98.0239 136.936 98.439C137.041 98.8459 137.196 99.1795 137.399 99.4399C137.611 99.6922 137.867 99.8753 138.168 99.9893C138.47 100.095 138.819 100.148 139.218 100.148C139.82 100.148 140.362 100.042 140.842 99.8306C141.33 99.6108 141.745 99.3138 142.087 98.9395L143.454 101.015C143.218 101.324 142.893 101.633 142.478 101.942C142.062 102.252 141.566 102.504 140.988 102.699C140.41 102.895 139.743 102.992 138.986 102.992ZM139.169 83.9736L142.38 87.3794V87.5259H139.719L138.193 85.7803L136.667 87.5381H134.042V87.355L137.216 83.9736H139.169ZM148.984 92.3599V102.748H145.554V89.54H148.764L148.984 92.3599ZM148.471 95.6924L147.556 95.7168C147.539 94.724 147.633 93.8328 147.836 93.0435C148.048 92.2541 148.345 91.5827 148.728 91.0293C149.118 90.4678 149.582 90.0405 150.119 89.7476C150.664 89.4465 151.271 89.2959 151.938 89.2959C152.451 89.2959 152.919 89.3854 153.342 89.5645C153.773 89.7435 154.143 90.0283 154.453 90.4189C154.762 90.8096 155.002 91.3304 155.173 91.9814C155.344 92.6243 155.429 93.4137 155.429 94.3496V102.748H151.999V94.3252C151.999 93.7555 151.942 93.3161 151.828 93.0068C151.714 92.6895 151.543 92.4697 151.315 92.3477C151.088 92.2174 150.803 92.1523 150.461 92.1523C150.135 92.1523 149.847 92.2459 149.594 92.4331C149.342 92.6121 149.13 92.8604 148.959 93.1777C148.797 93.4951 148.671 93.8695 148.581 94.3008C148.5 94.7321 148.463 95.196 148.471 95.6924ZM162.705 100.148C163.022 100.148 163.295 100.083 163.522 99.9526C163.758 99.8224 163.938 99.6108 164.06 99.3179C164.182 99.0249 164.247 98.6465 164.255 98.1826H167.465C167.465 99.1755 167.254 100.034 166.831 100.758C166.416 101.474 165.854 102.028 165.146 102.418C164.446 102.801 163.653 102.992 162.766 102.992C161.879 102.992 161.105 102.85 160.446 102.565C159.787 102.28 159.242 101.865 158.811 101.32C158.387 100.775 158.066 100.111 157.846 99.3301C157.635 98.5407 157.529 97.6374 157.529 96.6201V95.6558C157.529 94.6548 157.635 93.7596 157.846 92.9702C158.066 92.1808 158.387 91.5135 158.811 90.9683C159.242 90.423 159.783 90.008 160.434 89.7231C161.093 89.4383 161.866 89.2959 162.753 89.2959C163.706 89.2959 164.532 89.4953 165.231 89.894C165.931 90.2847 166.477 90.8625 166.867 91.6274C167.266 92.3924 167.465 93.3364 167.465 94.4595H164.255C164.247 93.9549 164.186 93.5358 164.072 93.2021C163.966 92.8604 163.799 92.5999 163.571 92.4209C163.352 92.2337 163.059 92.1401 162.692 92.1401C162.31 92.1401 162.001 92.2215 161.765 92.3843C161.537 92.5389 161.362 92.7668 161.24 93.0679C161.126 93.3608 161.049 93.7271 161.008 94.1665C160.967 94.606 160.947 95.1024 160.947 95.6558V96.6201C160.947 97.2142 160.963 97.731 160.996 98.1704C161.036 98.6017 161.114 98.9679 161.228 99.269C161.35 99.562 161.525 99.7817 161.752 99.9282C161.988 100.075 162.306 100.148 162.705 100.148ZM173.02 89.54V102.748H169.589V89.54H173.02ZM169.431 86.1221C169.431 85.5931 169.597 85.1577 169.931 84.8159C170.273 84.466 170.729 84.291 171.298 84.291C171.876 84.291 172.332 84.466 172.666 84.8159C172.999 85.1577 173.166 85.5931 173.166 86.1221C173.166 86.6429 172.995 87.0783 172.653 87.4282C172.32 87.77 171.872 87.9409 171.311 87.9409C170.733 87.9409 170.273 87.77 169.931 87.4282C169.597 87.0783 169.431 86.6429 169.431 86.1221ZM181.552 99.7085V93.605C181.552 93.2062 181.503 92.8888 181.406 92.6528C181.316 92.4168 181.178 92.2459 180.991 92.1401C180.812 92.0262 180.592 91.9692 180.332 91.9692C180.039 91.9692 179.794 92.0303 179.599 92.1523C179.404 92.2744 179.257 92.4494 179.16 92.6772C179.07 92.9051 179.025 93.1777 179.025 93.4951H175.595C175.595 92.9255 175.705 92.3883 175.925 91.8838C176.145 91.3711 176.466 90.9235 176.889 90.541C177.32 90.1504 177.833 89.8452 178.427 89.6255C179.021 89.4058 179.689 89.2959 180.429 89.2959C181.308 89.2959 182.089 89.4465 182.773 89.7476C183.457 90.0405 183.998 90.5085 184.396 91.1514C184.795 91.7943 184.995 92.6284 184.995 93.6538V99.5376C184.995 100.278 185.031 100.88 185.104 101.344C185.186 101.808 185.304 102.207 185.458 102.541V102.748H182.016C181.861 102.382 181.743 101.926 181.662 101.381C181.589 100.827 181.552 100.27 181.552 99.7085ZM181.967 94.6792L181.979 96.73H180.722C180.397 96.73 180.112 96.7829 179.868 96.8887C179.632 96.9945 179.432 97.145 179.27 97.3403C179.107 97.5275 178.985 97.7472 178.903 97.9995C178.83 98.2518 178.793 98.5203 178.793 98.8052C178.793 99.1226 178.838 99.3911 178.928 99.6108C179.017 99.8306 179.152 99.9974 179.331 100.111C179.51 100.225 179.721 100.282 179.965 100.282C180.34 100.282 180.665 100.205 180.942 100.05C181.219 99.8957 181.422 99.7085 181.552 99.4888C181.691 99.269 181.735 99.0656 181.687 98.8784L182.468 100.209C182.37 100.51 182.236 100.823 182.065 101.149C181.902 101.474 181.695 101.776 181.442 102.052C181.19 102.329 180.877 102.557 180.502 102.736C180.136 102.907 179.701 102.992 179.196 102.992C178.488 102.992 177.841 102.829 177.255 102.504C176.669 102.178 176.206 101.723 175.864 101.137C175.53 100.551 175.363 99.855 175.363 99.0493C175.363 98.382 175.469 97.7798 175.681 97.2427C175.9 96.6974 176.226 96.2376 176.657 95.8633C177.089 95.4808 177.634 95.1878 178.293 94.9844C178.952 94.7809 179.725 94.6792 180.612 94.6792H181.967Z" fill="#666666"/>
<path d="M235.268 206.28C217.1 231.352 190.581 249.116 160.482 256.376C130.383 263.636 98.6807 259.914 71.0811 245.882C43.4815 231.849 21.7965 208.426 9.92878 179.829C-1.93897 151.231 -3.2102 119.337 6.34385 89.8857C15.8979 60.4344 35.6499 35.3601 62.0451 19.1752C88.4403 2.99035 119.745 -3.24227 150.327 1.59899C180.908 6.44026 208.758 22.0375 228.863 45.5838C248.969 69.1301 260.01 99.0792 260 130.041L215.362 130.027C215.368 109.696 208.118 90.031 194.916 74.5698C181.715 59.1086 163.428 48.8669 143.347 45.688C123.267 42.5091 102.711 46.6016 85.3787 57.2291C68.0468 67.8566 55.0771 84.3211 48.8036 103.66C42.5301 122.998 43.3649 143.941 51.1576 162.719C58.9503 181.497 73.1893 196.877 91.3121 206.091C109.435 215.306 130.251 217.749 150.015 212.982C169.779 208.215 187.193 196.551 199.122 180.088L235.268 206.28Z" fill="#00A65A"/>
<path d="M260 130C260 157.389 251.35 184.078 235.283 206.259L199.132 180.074C209.682 165.509 215.362 147.984 215.362 130H260Z" fill="#D9D9D9"/>
<path d="M97.2334 157.875H97.4043C98.1855 157.875 98.8529 157.762 99.4062 157.534C99.9678 157.306 100.424 156.972 100.773 156.533C101.132 156.085 101.392 155.536 101.555 154.885C101.717 154.234 101.799 153.493 101.799 152.663V149.233C101.799 148.598 101.754 148.049 101.665 147.585C101.575 147.113 101.449 146.722 101.286 146.413C101.123 146.096 100.94 145.86 100.737 145.705C100.533 145.55 100.314 145.473 100.078 145.473C99.8009 145.473 99.5568 145.567 99.3452 145.754C99.1336 145.941 98.9546 146.197 98.8081 146.523C98.6698 146.84 98.564 147.202 98.4907 147.609C98.4175 148.016 98.3809 148.435 98.3809 148.867C98.3809 149.322 98.4175 149.75 98.4907 150.148C98.564 150.547 98.6738 150.901 98.8203 151.21C98.9668 151.52 99.154 151.76 99.3818 151.931C99.6097 152.102 99.8823 152.187 100.2 152.187C100.46 152.187 100.7 152.114 100.92 151.967C101.14 151.813 101.331 151.609 101.494 151.357C101.656 151.105 101.787 150.828 101.884 150.527C101.982 150.226 102.035 149.917 102.043 149.599L103.154 150.295C103.154 150.848 103.052 151.398 102.849 151.943C102.653 152.488 102.381 152.985 102.031 153.432C101.681 153.88 101.274 154.238 100.81 154.506C100.354 154.767 99.862 154.897 99.333 154.897C98.625 154.897 97.9984 154.746 97.4531 154.445C96.9079 154.144 96.4481 153.725 96.0737 153.188C95.7075 152.643 95.4308 152.008 95.2437 151.284C95.0565 150.551 94.9629 149.762 94.9629 148.916C94.9629 148.053 95.0809 147.243 95.3169 146.486C95.561 145.721 95.9069 145.05 96.3545 144.472C96.8021 143.894 97.3433 143.443 97.978 143.117C98.6128 142.784 99.3208 142.617 100.102 142.617C100.875 142.617 101.575 142.788 102.202 143.129C102.828 143.471 103.365 143.964 103.813 144.606C104.261 145.241 104.602 146.006 104.838 146.901C105.083 147.788 105.205 148.781 105.205 149.88V151.113C105.205 152.277 105.103 153.359 104.899 154.36C104.696 155.353 104.387 156.248 103.972 157.045C103.557 157.843 103.04 158.527 102.421 159.096C101.803 159.658 101.079 160.089 100.249 160.39C99.4266 160.683 98.4948 160.83 97.4531 160.83H97.2334V157.875ZM117.985 150.197V153.286C117.985 154.62 117.859 155.768 117.607 156.728C117.355 157.688 117.001 158.478 116.545 159.096C116.089 159.707 115.548 160.158 114.921 160.451C114.295 160.744 113.603 160.891 112.846 160.891C112.244 160.891 111.678 160.797 111.149 160.61C110.62 160.423 110.14 160.138 109.709 159.755C109.286 159.365 108.92 158.872 108.61 158.278C108.309 157.676 108.077 156.964 107.915 156.142C107.752 155.312 107.67 154.36 107.67 153.286V150.197C107.67 148.863 107.797 147.719 108.049 146.767C108.309 145.807 108.667 145.021 109.123 144.411C109.579 143.801 110.12 143.353 110.747 143.068C111.381 142.775 112.077 142.629 112.834 142.629C113.428 142.629 113.99 142.722 114.519 142.91C115.056 143.089 115.532 143.369 115.947 143.752C116.37 144.134 116.732 144.627 117.033 145.229C117.342 145.823 117.578 146.535 117.741 147.365C117.904 148.187 117.985 149.131 117.985 150.197ZM114.555 153.762V149.697C114.555 149.07 114.527 148.521 114.47 148.049C114.421 147.577 114.352 147.178 114.262 146.853C114.173 146.527 114.055 146.263 113.908 146.059C113.762 145.856 113.599 145.709 113.42 145.62C113.241 145.522 113.042 145.473 112.822 145.473C112.561 145.473 112.325 145.546 112.114 145.693C111.902 145.839 111.719 146.079 111.564 146.413C111.41 146.739 111.292 147.174 111.21 147.719C111.137 148.256 111.101 148.916 111.101 149.697V153.762C111.101 154.388 111.125 154.942 111.174 155.422C111.231 155.902 111.308 156.313 111.406 156.655C111.512 156.988 111.63 157.257 111.76 157.46C111.898 157.664 112.057 157.814 112.236 157.912C112.423 158.002 112.626 158.046 112.846 158.046C113.107 158.046 113.343 157.973 113.554 157.827C113.774 157.672 113.957 157.428 114.104 157.094C114.25 156.761 114.36 156.321 114.433 155.776C114.514 155.222 114.555 154.551 114.555 153.762ZM123.845 157.644V160.048C123.845 160.968 123.617 161.892 123.161 162.819C122.705 163.755 122.128 164.52 121.428 165.114L119.597 164.162C119.8 163.788 120 163.409 120.195 163.027C120.39 162.644 120.553 162.225 120.683 161.77C120.813 161.314 120.878 160.797 120.878 160.219V157.644H123.845ZM136.76 150.197V153.286C136.76 154.62 136.634 155.768 136.381 156.728C136.129 157.688 135.775 158.478 135.319 159.096C134.864 159.707 134.322 160.158 133.696 160.451C133.069 160.744 132.377 160.891 131.621 160.891C131.018 160.891 130.453 160.797 129.924 160.61C129.395 160.423 128.915 160.138 128.483 159.755C128.06 159.365 127.694 158.872 127.385 158.278C127.084 157.676 126.852 156.964 126.689 156.142C126.526 155.312 126.445 154.36 126.445 153.286V150.197C126.445 148.863 126.571 147.719 126.823 146.767C127.084 145.807 127.442 145.021 127.897 144.411C128.353 143.801 128.894 143.353 129.521 143.068C130.156 142.775 130.852 142.629 131.608 142.629C132.202 142.629 132.764 142.722 133.293 142.91C133.83 143.089 134.306 143.369 134.721 143.752C135.144 144.134 135.507 144.627 135.808 145.229C136.117 145.823 136.353 146.535 136.516 147.365C136.678 148.187 136.76 149.131 136.76 150.197ZM133.33 153.762V149.697C133.33 149.07 133.301 148.521 133.244 148.049C133.195 147.577 133.126 147.178 133.037 146.853C132.947 146.527 132.829 146.263 132.683 146.059C132.536 145.856 132.373 145.709 132.194 145.62C132.015 145.522 131.816 145.473 131.596 145.473C131.336 145.473 131.1 145.546 130.888 145.693C130.677 145.839 130.493 146.079 130.339 146.413C130.184 146.739 130.066 147.174 129.985 147.719C129.912 148.256 129.875 148.916 129.875 149.697V153.762C129.875 154.388 129.899 154.942 129.948 155.422C130.005 155.902 130.083 156.313 130.18 156.655C130.286 156.988 130.404 157.257 130.534 157.46C130.673 157.664 130.831 157.814 131.01 157.912C131.197 158.002 131.401 158.046 131.621 158.046C131.881 158.046 132.117 157.973 132.329 157.827C132.548 157.672 132.731 157.428 132.878 157.094C133.024 156.761 133.134 156.321 133.208 155.776C133.289 155.222 133.33 154.551 133.33 153.762ZM149.406 150.197V153.286C149.406 154.62 149.28 155.768 149.028 156.728C148.776 157.688 148.422 158.478 147.966 159.096C147.51 159.707 146.969 160.158 146.342 160.451C145.716 160.744 145.024 160.891 144.267 160.891C143.665 160.891 143.099 160.797 142.57 160.61C142.041 160.423 141.561 160.138 141.13 159.755C140.707 159.365 140.34 158.872 140.031 158.278C139.73 157.676 139.498 156.964 139.335 156.142C139.173 155.312 139.091 154.36 139.091 153.286V150.197C139.091 148.863 139.217 147.719 139.47 146.767C139.73 145.807 140.088 145.021 140.544 144.411C141 143.801 141.541 143.353 142.167 143.068C142.802 142.775 143.498 142.629 144.255 142.629C144.849 142.629 145.41 142.722 145.939 142.91C146.477 143.089 146.953 143.369 147.368 143.752C147.791 144.134 148.153 144.627 148.454 145.229C148.763 145.823 148.999 146.535 149.162 147.365C149.325 148.187 149.406 149.131 149.406 150.197ZM145.976 153.762V149.697C145.976 149.07 145.948 148.521 145.891 148.049C145.842 147.577 145.773 147.178 145.683 146.853C145.594 146.527 145.476 146.263 145.329 146.059C145.183 145.856 145.02 145.709 144.841 145.62C144.662 145.522 144.462 145.473 144.243 145.473C143.982 145.473 143.746 145.546 143.535 145.693C143.323 145.839 143.14 146.079 142.985 146.413C142.831 146.739 142.713 147.174 142.631 147.719C142.558 148.256 142.521 148.916 142.521 149.697V153.762C142.521 154.388 142.546 154.942 142.595 155.422C142.652 155.902 142.729 156.313 142.827 156.655C142.932 156.988 143.05 157.257 143.181 157.46C143.319 157.664 143.478 157.814 143.657 157.912C143.844 158.002 144.047 158.046 144.267 158.046C144.528 158.046 144.764 157.973 144.975 157.827C145.195 157.672 145.378 157.428 145.524 157.094C145.671 156.761 145.781 156.321 145.854 155.776C145.935 155.222 145.976 154.551 145.976 153.762ZM151.774 147.231V146.291C151.774 145.616 151.896 145.001 152.141 144.448C152.393 143.894 152.763 143.451 153.251 143.117C153.748 142.784 154.362 142.617 155.095 142.617C155.835 142.617 156.454 142.784 156.95 143.117C157.447 143.451 157.813 143.894 158.049 144.448C158.293 145.001 158.415 145.616 158.415 146.291V147.231C158.415 147.89 158.293 148.496 158.049 149.05C157.805 149.603 157.434 150.047 156.938 150.38C156.45 150.714 155.839 150.881 155.107 150.881C154.375 150.881 153.76 150.714 153.264 150.38C152.767 150.047 152.393 149.603 152.141 149.05C151.896 148.496 151.774 147.89 151.774 147.231ZM154.008 146.291V147.231C154.008 147.508 154.049 147.772 154.13 148.024C154.212 148.269 154.334 148.468 154.497 148.623C154.659 148.769 154.863 148.842 155.107 148.842C155.351 148.842 155.55 148.769 155.705 148.623C155.86 148.468 155.974 148.269 156.047 148.024C156.128 147.772 156.169 147.508 156.169 147.231V146.291C156.169 145.998 156.128 145.729 156.047 145.485C155.974 145.233 155.856 145.034 155.693 144.887C155.53 144.733 155.327 144.655 155.083 144.655C154.838 144.655 154.635 144.733 154.472 144.887C154.318 145.034 154.2 145.233 154.118 145.485C154.045 145.729 154.008 145.998 154.008 146.291ZM158.793 157.241V156.289C158.793 155.621 158.92 155.011 159.172 154.458C159.424 153.904 159.794 153.461 160.283 153.127C160.779 152.793 161.389 152.626 162.114 152.626C162.862 152.626 163.481 152.793 163.969 153.127C164.458 153.461 164.824 153.904 165.068 154.458C165.32 155.011 165.446 155.621 165.446 156.289V157.241C165.446 157.908 165.324 158.518 165.08 159.072C164.836 159.617 164.466 160.056 163.969 160.39C163.481 160.724 162.871 160.891 162.138 160.891C161.406 160.891 160.787 160.724 160.283 160.39C159.786 160.056 159.412 159.613 159.16 159.06C158.916 158.506 158.793 157.9 158.793 157.241ZM161.027 156.289V157.229C161.027 157.513 161.076 157.782 161.174 158.034C161.271 158.278 161.402 158.478 161.564 158.632C161.735 158.779 161.927 158.852 162.138 158.852C162.431 158.852 162.655 158.779 162.81 158.632C162.964 158.478 163.066 158.278 163.115 158.034C163.172 157.782 163.2 157.513 163.2 157.229V156.301C163.2 156.008 163.16 155.739 163.078 155.495C163.005 155.243 162.887 155.043 162.724 154.897C162.569 154.742 162.37 154.665 162.126 154.665C161.874 154.665 161.666 154.742 161.503 154.897C161.341 155.043 161.219 155.243 161.137 155.495C161.064 155.739 161.027 156.004 161.027 156.289ZM163.017 145.424L155.729 159.316L154.094 158.388L161.381 144.497L163.017 145.424Z" fill="black"/>
</svg>
