<svg width="260" height="260" viewBox="0 0 260 260" fill="none" xmlns="http://www.w3.org/2000/svg">
<path d="M85.0171 81.2266V99H81.4404V81.2266H85.0171ZM90.5835 88.7827V91.7368H84.1138V88.7827H90.5835ZM91.2671 81.2266V84.1929H84.1138V81.2266H91.2671ZM96.7725 85.792V99H93.3423V85.792H96.7725ZM93.1836 82.374C93.1836 81.8451 93.3504 81.4097 93.6841 81.0679C94.0259 80.7179 94.4816 80.543 95.0513 80.543C95.6291 80.543 96.0848 80.7179 96.4185 81.0679C96.7521 81.4097 96.9189 81.8451 96.9189 82.374C96.9189 82.8949 96.748 83.3302 96.4062 83.6802C96.0726 84.022 95.625 84.1929 95.0635 84.1929C94.4857 84.1929 94.0259 84.022 93.6841 83.6802C93.3504 83.3302 93.1836 82.8949 93.1836 82.374ZM102.839 88.6118V99H99.4092V85.792H102.62L102.839 88.6118ZM102.327 91.9443L101.411 91.9688C101.395 90.9759 101.488 90.0848 101.692 89.2954C101.903 88.506 102.201 87.8346 102.583 87.2812C102.974 86.7197 103.438 86.2925 103.975 85.9995C104.52 85.6984 105.126 85.5479 105.793 85.5479C106.306 85.5479 106.774 85.6374 107.197 85.8164C107.629 85.9954 107.999 86.2803 108.308 86.6709C108.617 87.0615 108.857 87.5824 109.028 88.2334C109.199 88.8763 109.285 89.6657 109.285 90.6016V99H105.854V90.5771C105.854 90.0075 105.798 89.568 105.684 89.2588C105.57 88.9414 105.399 88.7217 105.171 88.5996C104.943 88.4694 104.658 88.4043 104.316 88.4043C103.991 88.4043 103.702 88.4979 103.45 88.6851C103.197 88.8641 102.986 89.1123 102.815 89.4297C102.652 89.7471 102.526 90.1214 102.437 90.5527C102.355 90.984 102.319 91.4479 102.327 91.9443ZM117.61 95.9604V89.8569C117.61 89.4582 117.561 89.1408 117.463 88.9048C117.374 88.6688 117.236 88.4979 117.048 88.3921C116.869 88.2782 116.65 88.2212 116.389 88.2212C116.096 88.2212 115.852 88.2822 115.657 88.4043C115.461 88.5264 115.315 88.7013 115.217 88.9292C115.128 89.1571 115.083 89.4297 115.083 89.7471H111.653C111.653 89.1774 111.763 88.6403 111.982 88.1357C112.202 87.623 112.524 87.1755 112.947 86.793C113.378 86.4023 113.891 86.0972 114.485 85.8774C115.079 85.6577 115.746 85.5479 116.487 85.5479C117.366 85.5479 118.147 85.6984 118.831 85.9995C119.514 86.2925 120.055 86.7604 120.454 87.4033C120.853 88.0462 121.052 88.8804 121.052 89.9058V95.7896C121.052 96.5301 121.089 97.1323 121.162 97.5962C121.243 98.0601 121.361 98.4588 121.516 98.7925V99H118.074C117.919 98.6338 117.801 98.1781 117.72 97.6328C117.646 97.0794 117.61 96.522 117.61 95.9604ZM118.025 90.9312L118.037 92.9819H116.78C116.454 92.9819 116.169 93.0348 115.925 93.1406C115.689 93.2464 115.49 93.397 115.327 93.5923C115.164 93.7795 115.042 93.9992 114.961 94.2515C114.888 94.5037 114.851 94.7723 114.851 95.0571C114.851 95.3745 114.896 95.6431 114.985 95.8628C115.075 96.0825 115.209 96.2493 115.388 96.3633C115.567 96.4772 115.779 96.5342 116.023 96.5342C116.397 96.5342 116.723 96.4569 117 96.3022C117.276 96.1476 117.48 95.9604 117.61 95.7407C117.748 95.521 117.793 95.3175 117.744 95.1304L118.525 96.4609C118.428 96.762 118.293 97.0754 118.123 97.4009C117.96 97.7264 117.752 98.0275 117.5 98.3042C117.248 98.5809 116.934 98.8088 116.56 98.9878C116.194 99.1587 115.758 99.2441 115.254 99.2441C114.546 99.2441 113.899 99.0814 113.313 98.7559C112.727 98.4303 112.263 97.9746 111.921 97.3887C111.588 96.8027 111.421 96.1069 111.421 95.3013C111.421 94.634 111.527 94.0317 111.738 93.4946C111.958 92.9494 112.284 92.4896 112.715 92.1152C113.146 91.7327 113.691 91.4398 114.351 91.2363C115.01 91.0329 115.783 90.9312 116.67 90.9312H118.025ZM126.936 88.6118V99H123.506V85.792H126.716L126.936 88.6118ZM126.423 91.9443L125.508 91.9688C125.492 90.9759 125.585 90.0848 125.789 89.2954C126 88.506 126.297 87.8346 126.68 87.2812C127.07 86.7197 127.534 86.2925 128.071 85.9995C128.617 85.6984 129.223 85.5479 129.89 85.5479C130.403 85.5479 130.871 85.6374 131.294 85.8164C131.725 85.9954 132.096 86.2803 132.405 86.6709C132.714 87.0615 132.954 87.5824 133.125 88.2334C133.296 88.8763 133.381 89.6657 133.381 90.6016V99H129.951V90.5771C129.951 90.0075 129.894 89.568 129.78 89.2588C129.666 88.9414 129.495 88.7217 129.268 88.5996C129.04 88.4694 128.755 88.4043 128.413 88.4043C128.088 88.4043 127.799 88.4979 127.546 88.6851C127.294 88.8641 127.083 89.1123 126.912 89.4297C126.749 89.7471 126.623 90.1214 126.533 90.5527C126.452 90.984 126.415 91.4479 126.423 91.9443ZM140.657 96.3999C140.974 96.3999 141.247 96.3348 141.475 96.2046C141.711 96.0744 141.89 95.8628 142.012 95.5698C142.134 95.2769 142.199 94.8984 142.207 94.4346H145.417C145.417 95.4274 145.206 96.286 144.783 97.0103C144.368 97.7264 143.806 98.2798 143.098 98.6704C142.398 99.0529 141.605 99.2441 140.718 99.2441C139.831 99.2441 139.058 99.1017 138.398 98.8169C137.739 98.5321 137.194 98.117 136.763 97.5718C136.34 97.0265 136.018 96.3633 135.798 95.582C135.587 94.7926 135.481 93.8893 135.481 92.8721V91.9077C135.481 90.9067 135.587 90.0116 135.798 89.2222C136.018 88.4328 136.34 87.7655 136.763 87.2202C137.194 86.675 137.735 86.2599 138.386 85.9751C139.045 85.6903 139.819 85.5479 140.706 85.5479C141.658 85.5479 142.484 85.7472 143.184 86.146C143.883 86.5366 144.429 87.1144 144.819 87.8794C145.218 88.6444 145.417 89.5884 145.417 90.7114H142.207C142.199 90.2069 142.138 89.7878 142.024 89.4541C141.918 89.1123 141.751 88.8519 141.523 88.6729C141.304 88.4857 141.011 88.3921 140.645 88.3921C140.262 88.3921 139.953 88.4735 139.717 88.6362C139.489 88.7909 139.314 89.0187 139.192 89.3198C139.078 89.6128 139.001 89.979 138.96 90.4185C138.919 90.8579 138.899 91.3543 138.899 91.9077V92.8721C138.899 93.4661 138.915 93.9829 138.948 94.4224C138.988 94.8537 139.066 95.2199 139.18 95.521C139.302 95.814 139.477 96.0337 139.705 96.1802C139.941 96.3267 140.258 96.3999 140.657 96.3999ZM152.705 99.2441C151.802 99.2441 151 99.1058 150.3 98.8291C149.609 98.5524 149.023 98.1536 148.542 97.6328C148.062 97.1038 147.696 96.465 147.444 95.7163C147.192 94.9676 147.065 94.1131 147.065 93.1528V92.0664C147.065 90.9922 147.188 90.0522 147.432 89.2466C147.676 88.4328 148.022 87.7492 148.469 87.1958C148.917 86.6424 149.466 86.2314 150.117 85.9629C150.776 85.6862 151.521 85.5479 152.351 85.5479C153.181 85.5479 153.91 85.6862 154.536 85.9629C155.171 86.2314 155.696 86.6383 156.111 87.1836C156.526 87.7207 156.839 88.388 157.051 89.1855C157.262 89.9831 157.368 90.9108 157.368 91.9688V93.5312H148.518V91.1265H154.011V90.8213C154.011 90.2842 153.954 89.8366 153.84 89.4785C153.726 89.1123 153.547 88.8397 153.303 88.6606C153.059 88.4816 152.734 88.3921 152.327 88.3921C151.985 88.3921 151.696 88.4613 151.46 88.5996C151.224 88.738 151.037 88.9536 150.898 89.2466C150.76 89.5396 150.658 89.922 150.593 90.394C150.528 90.8579 150.496 91.4154 150.496 92.0664V93.1528C150.496 93.7632 150.549 94.2759 150.654 94.6909C150.76 95.0978 150.915 95.4315 151.118 95.6919C151.33 95.9442 151.586 96.1273 151.887 96.2412C152.188 96.347 152.538 96.3999 152.937 96.3999C153.539 96.3999 154.08 96.2941 154.561 96.0825C155.049 95.8628 155.464 95.5658 155.806 95.1914L157.173 97.2666C156.937 97.5758 156.611 97.8851 156.196 98.1943C155.781 98.5036 155.285 98.7559 154.707 98.9512C154.129 99.1465 153.462 99.2441 152.705 99.2441ZM162.935 85.792V99H159.504V85.792H162.935ZM159.346 82.374C159.346 81.8451 159.513 81.4097 159.846 81.0679C160.188 80.7179 160.644 80.543 161.213 80.543C161.791 80.543 162.247 80.7179 162.581 81.0679C162.914 81.4097 163.081 81.8451 163.081 82.374C163.081 82.8949 162.91 83.3302 162.568 83.6802C162.235 84.022 161.787 84.1929 161.226 84.1929C160.648 84.1929 160.188 84.022 159.846 83.6802C159.513 83.3302 159.346 82.8949 159.346 82.374ZM169.062 88.7339V99H165.645V85.792H168.867L169.062 88.7339ZM172.175 85.6943L172.126 89.1001C171.972 89.0675 171.785 89.0431 171.565 89.0269C171.353 89.0106 171.166 89.0024 171.003 89.0024C170.621 89.0024 170.295 89.0635 170.027 89.1855C169.758 89.2995 169.535 89.4744 169.355 89.7104C169.185 89.9383 169.054 90.2231 168.965 90.5649C168.875 90.9067 168.822 91.2933 168.806 91.7246L168.159 91.4805C168.159 90.6178 168.224 89.8285 168.354 89.1123C168.493 88.388 168.696 87.7614 168.965 87.2324C169.233 86.6953 169.555 86.2803 169.929 85.9873C170.312 85.6943 170.743 85.5479 171.223 85.5479C171.386 85.5479 171.557 85.5641 171.736 85.5967C171.923 85.6211 172.069 85.6536 172.175 85.6943ZM173.091 92.8477V91.9565C173.091 90.923 173.213 90.0075 173.457 89.21C173.709 88.4124 174.067 87.7451 174.531 87.208C174.995 86.6628 175.553 86.2518 176.204 85.9751C176.863 85.6903 177.599 85.5479 178.413 85.5479C179.235 85.5479 179.972 85.6903 180.623 85.9751C181.282 86.2518 181.843 86.6628 182.307 87.208C182.779 87.7451 183.141 88.4124 183.394 89.21C183.646 90.0075 183.772 90.923 183.772 91.9565V92.8477C183.772 93.873 183.646 94.7845 183.394 95.582C183.141 96.3796 182.779 97.0509 182.307 97.5962C181.843 98.1414 181.286 98.5524 180.635 98.8291C179.984 99.1058 179.251 99.2441 178.438 99.2441C177.624 99.2441 176.887 99.1058 176.228 98.8291C175.577 98.5524 175.015 98.1414 174.543 97.5962C174.071 97.0509 173.709 96.3796 173.457 95.582C173.213 94.7845 173.091 93.873 173.091 92.8477ZM176.509 91.9565V92.8477C176.509 93.458 176.549 93.987 176.631 94.4346C176.72 94.8822 176.847 95.2524 177.009 95.5454C177.18 95.8384 177.384 96.054 177.62 96.1924C177.856 96.3307 178.128 96.3999 178.438 96.3999C178.747 96.3999 179.023 96.3307 179.268 96.1924C179.512 96.054 179.711 95.8384 179.866 95.5454C180.028 95.2524 180.146 94.8822 180.22 94.4346C180.301 93.987 180.342 93.458 180.342 92.8477V91.9565C180.342 91.3625 180.297 90.8416 180.208 90.394C180.118 89.9383 179.992 89.568 179.829 89.2832C179.666 88.9902 179.463 88.7705 179.219 88.624C178.983 88.4694 178.714 88.3921 178.413 88.3921C178.112 88.3921 177.843 88.4694 177.607 88.624C177.38 88.7705 177.18 88.9902 177.009 89.2832C176.847 89.568 176.72 89.9383 176.631 90.394C176.549 90.8416 176.509 91.3625 176.509 91.9565Z" fill="#666666"/>
<path d="M206.085 235.409C182.4 252.505 153.648 261.126 124.464 259.882C95.2798 258.638 67.3652 247.602 45.221 228.552C23.0767 209.503 7.99338 183.55 2.40299 154.88C-3.18739 126.209 1.04098 96.4914 14.4063 70.518C27.7717 44.5446 49.4951 23.8293 76.0738 11.7124C102.653 -0.404637 132.538 -3.21716 160.91 3.72828C189.283 10.6737 214.49 26.9723 232.466 49.9961C250.443 73.0199 260.142 101.427 259.998 130.637L215.361 130.418C215.455 111.238 209.087 92.5851 197.283 77.467C185.479 62.3489 168.927 51.6467 150.297 47.0862C131.666 42.5256 112.043 44.3724 94.5904 52.3287C77.138 60.2851 62.8738 73.8874 54.0977 90.9423C45.3216 107.997 42.5451 127.511 46.2159 146.337C49.8868 165.163 59.7909 182.204 74.3315 194.712C88.8721 207.221 107.202 214.468 126.365 215.285C145.528 216.101 164.408 210.44 179.96 199.215L206.085 235.409Z" fill="#00A65A"/>
<path d="M260 130C260 150.531 255.137 170.77 245.81 189.059C236.483 207.349 222.957 223.17 206.338 235.226L180.126 199.094C191.038 191.178 199.92 180.79 206.044 168.78C212.169 156.771 215.362 143.481 215.362 130H260Z" fill="#D9D9D9"/>
<path d="M108.037 154.672C108.037 155.795 107.817 156.739 107.377 157.504C106.946 158.261 106.344 158.834 105.571 159.225C104.806 159.608 103.935 159.799 102.958 159.799C101.982 159.799 101.107 159.608 100.334 159.225C99.5609 158.834 98.9505 158.261 98.5029 157.504C98.0553 156.739 97.8315 155.795 97.8315 154.672C97.8315 153.923 97.9577 153.244 98.21 152.633C98.4622 152.023 98.8162 151.502 99.272 151.071C99.7358 150.631 100.277 150.298 100.896 150.07C101.522 149.834 102.202 149.716 102.934 149.716C103.919 149.716 104.794 149.923 105.559 150.338C106.332 150.745 106.938 151.319 107.377 152.06C107.817 152.8 108.037 153.671 108.037 154.672ZM104.606 154.428C104.606 153.899 104.537 153.443 104.399 153.061C104.269 152.678 104.077 152.385 103.825 152.182C103.581 151.97 103.284 151.864 102.934 151.864C102.592 151.864 102.295 151.97 102.043 152.182C101.791 152.385 101.595 152.678 101.457 153.061C101.327 153.443 101.262 153.899 101.262 154.428C101.262 154.949 101.327 155.396 101.457 155.771C101.595 156.145 101.791 156.438 102.043 156.649C102.295 156.853 102.6 156.955 102.958 156.955C103.308 156.955 103.605 156.853 103.85 156.649C104.102 156.438 104.289 156.145 104.411 155.771C104.541 155.396 104.606 154.949 104.606 154.428ZM107.744 146.505C107.744 147.417 107.54 148.218 107.133 148.91C106.726 149.602 106.161 150.143 105.437 150.534C104.72 150.924 103.894 151.12 102.958 151.12C102.014 151.12 101.18 150.924 100.456 150.534C99.7318 150.143 99.1621 149.602 98.7471 148.91C98.3402 148.21 98.1367 147.409 98.1367 146.505C98.1367 145.431 98.3402 144.524 98.7471 143.783C99.1621 143.043 99.7318 142.481 100.456 142.099C101.18 141.716 102.01 141.525 102.946 141.525C103.89 141.525 104.72 141.716 105.437 142.099C106.161 142.481 106.726 143.043 107.133 143.783C107.54 144.524 107.744 145.431 107.744 146.505ZM104.326 146.676C104.326 146.212 104.273 145.81 104.167 145.468C104.069 145.126 103.919 144.857 103.715 144.662C103.512 144.467 103.256 144.369 102.946 144.369C102.653 144.369 102.401 144.463 102.189 144.65C101.986 144.837 101.831 145.102 101.726 145.443C101.62 145.785 101.567 146.196 101.567 146.676C101.567 147.148 101.616 147.559 101.713 147.909C101.819 148.259 101.978 148.532 102.189 148.727C102.401 148.922 102.657 149.02 102.958 149.02C103.268 149.02 103.52 148.922 103.715 148.727C103.919 148.524 104.069 148.247 104.167 147.897C104.273 147.547 104.326 147.14 104.326 146.676ZM113.53 151.498L110.795 150.814L111.687 141.781H120.268V144.711H114.494L114.165 148.532C114.352 148.402 114.628 148.259 114.995 148.104C115.369 147.95 115.784 147.873 116.24 147.873C116.972 147.873 117.623 148.007 118.193 148.275C118.763 148.544 119.243 148.935 119.633 149.447C120.024 149.96 120.321 150.587 120.524 151.327C120.728 152.068 120.83 152.906 120.83 153.842C120.83 154.631 120.72 155.384 120.5 156.1C120.288 156.816 119.967 157.451 119.536 158.004C119.104 158.558 118.563 158.997 117.912 159.323C117.261 159.64 116.5 159.799 115.629 159.799C114.97 159.799 114.331 159.685 113.713 159.457C113.103 159.229 112.553 158.891 112.065 158.444C111.577 157.988 111.186 157.443 110.893 156.808C110.6 156.165 110.454 155.433 110.454 154.611H113.835C113.868 155.091 113.961 155.51 114.116 155.868C114.278 156.218 114.482 156.487 114.726 156.674C114.978 156.861 115.271 156.955 115.605 156.955C115.931 156.955 116.211 156.873 116.447 156.71C116.683 156.54 116.87 156.304 117.009 156.002C117.147 155.701 117.249 155.351 117.314 154.953C117.379 154.546 117.412 154.11 117.412 153.646C117.412 153.174 117.367 152.747 117.277 152.365C117.196 151.982 117.066 151.657 116.887 151.388C116.716 151.111 116.496 150.9 116.228 150.753C115.959 150.599 115.642 150.521 115.275 150.521C114.779 150.521 114.405 150.627 114.152 150.839C113.908 151.042 113.701 151.262 113.53 151.498ZM126.604 156.552V158.957C126.604 159.876 126.376 160.8 125.92 161.728C125.464 162.663 124.886 163.428 124.187 164.022L122.355 163.07C122.559 162.696 122.758 162.318 122.954 161.935C123.149 161.553 123.312 161.133 123.442 160.678C123.572 160.222 123.637 159.705 123.637 159.127V156.552H126.604ZM139.519 149.105V152.194C139.519 153.528 139.392 154.676 139.14 155.636C138.888 156.597 138.534 157.386 138.078 158.004C137.622 158.615 137.081 159.066 136.455 159.359C135.828 159.652 135.136 159.799 134.379 159.799C133.777 159.799 133.212 159.705 132.683 159.518C132.154 159.331 131.674 159.046 131.242 158.664C130.819 158.273 130.453 157.781 130.144 157.187C129.842 156.584 129.611 155.872 129.448 155.05C129.285 154.22 129.204 153.268 129.204 152.194V149.105C129.204 147.771 129.33 146.627 129.582 145.675C129.842 144.715 130.201 143.93 130.656 143.319C131.112 142.709 131.653 142.261 132.28 141.977C132.915 141.684 133.61 141.537 134.367 141.537C134.961 141.537 135.523 141.631 136.052 141.818C136.589 141.997 137.065 142.278 137.48 142.66C137.903 143.043 138.265 143.535 138.566 144.137C138.876 144.731 139.112 145.443 139.274 146.273C139.437 147.095 139.519 148.039 139.519 149.105ZM136.088 152.67V148.605C136.088 147.978 136.06 147.429 136.003 146.957C135.954 146.485 135.885 146.086 135.795 145.761C135.706 145.435 135.588 145.171 135.441 144.967C135.295 144.764 135.132 144.617 134.953 144.528C134.774 144.43 134.575 144.381 134.355 144.381C134.095 144.381 133.859 144.455 133.647 144.601C133.435 144.748 133.252 144.988 133.098 145.321C132.943 145.647 132.825 146.082 132.744 146.627C132.67 147.165 132.634 147.824 132.634 148.605V152.67C132.634 153.297 132.658 153.85 132.707 154.33C132.764 154.81 132.841 155.221 132.939 155.563C133.045 155.897 133.163 156.165 133.293 156.369C133.431 156.572 133.59 156.723 133.769 156.82C133.956 156.91 134.16 156.955 134.379 156.955C134.64 156.955 134.876 156.881 135.087 156.735C135.307 156.58 135.49 156.336 135.637 156.002C135.783 155.669 135.893 155.229 135.966 154.684C136.048 154.131 136.088 153.459 136.088 152.67ZM152.165 149.105V152.194C152.165 153.528 152.039 154.676 151.787 155.636C151.534 156.597 151.18 157.386 150.725 158.004C150.269 158.615 149.728 159.066 149.101 159.359C148.474 159.652 147.783 159.799 147.026 159.799C146.424 159.799 145.858 159.705 145.329 159.518C144.8 159.331 144.32 159.046 143.889 158.664C143.465 158.273 143.099 157.781 142.79 157.187C142.489 156.584 142.257 155.872 142.094 155.05C141.931 154.22 141.85 153.268 141.85 152.194V149.105C141.85 147.771 141.976 146.627 142.229 145.675C142.489 144.715 142.847 143.93 143.303 143.319C143.758 142.709 144.3 142.261 144.926 141.977C145.561 141.684 146.257 141.537 147.014 141.537C147.608 141.537 148.169 141.631 148.698 141.818C149.235 141.997 149.711 142.278 150.126 142.66C150.55 143.043 150.912 143.535 151.213 144.137C151.522 144.731 151.758 145.443 151.921 146.273C152.084 147.095 152.165 148.039 152.165 149.105ZM148.735 152.67V148.605C148.735 147.978 148.706 147.429 148.649 146.957C148.601 146.485 148.531 146.086 148.442 145.761C148.352 145.435 148.234 145.171 148.088 144.967C147.941 144.764 147.779 144.617 147.6 144.528C147.421 144.43 147.221 144.381 147.001 144.381C146.741 144.381 146.505 144.455 146.293 144.601C146.082 144.748 145.899 144.988 145.744 145.321C145.59 145.647 145.472 146.082 145.39 146.627C145.317 147.165 145.28 147.824 145.28 148.605V152.67C145.28 153.297 145.305 153.85 145.354 154.33C145.41 154.81 145.488 155.221 145.585 155.563C145.691 155.897 145.809 156.165 145.939 156.369C146.078 156.572 146.236 156.723 146.416 156.82C146.603 156.91 146.806 156.955 147.026 156.955C147.286 156.955 147.522 156.881 147.734 156.735C147.954 156.58 148.137 156.336 148.283 156.002C148.43 155.669 148.54 155.229 148.613 154.684C148.694 154.131 148.735 153.459 148.735 152.67ZM154.533 146.139V145.199C154.533 144.524 154.655 143.909 154.899 143.356C155.152 142.803 155.522 142.359 156.01 142.025C156.507 141.692 157.121 141.525 157.854 141.525C158.594 141.525 159.213 141.692 159.709 142.025C160.205 142.359 160.572 142.803 160.808 143.356C161.052 143.909 161.174 144.524 161.174 145.199V146.139C161.174 146.798 161.052 147.405 160.808 147.958C160.563 148.511 160.193 148.955 159.697 149.289C159.208 149.622 158.598 149.789 157.866 149.789C157.133 149.789 156.519 149.622 156.022 149.289C155.526 148.955 155.152 148.511 154.899 147.958C154.655 147.405 154.533 146.798 154.533 146.139ZM156.767 145.199V146.139C156.767 146.416 156.808 146.68 156.889 146.933C156.971 147.177 157.093 147.376 157.255 147.531C157.418 147.677 157.622 147.75 157.866 147.75C158.11 147.75 158.309 147.677 158.464 147.531C158.618 147.376 158.732 147.177 158.806 146.933C158.887 146.68 158.928 146.416 158.928 146.139V145.199C158.928 144.906 158.887 144.638 158.806 144.394C158.732 144.141 158.614 143.942 158.452 143.795C158.289 143.641 158.085 143.563 157.841 143.563C157.597 143.563 157.394 143.641 157.231 143.795C157.076 143.942 156.958 144.141 156.877 144.394C156.804 144.638 156.767 144.906 156.767 145.199ZM161.552 156.149V155.197C161.552 154.529 161.678 153.919 161.931 153.366C162.183 152.812 162.553 152.369 163.042 152.035C163.538 151.701 164.148 151.535 164.873 151.535C165.621 151.535 166.24 151.701 166.728 152.035C167.216 152.369 167.583 152.812 167.827 153.366C168.079 153.919 168.205 154.529 168.205 155.197V156.149C168.205 156.816 168.083 157.427 167.839 157.98C167.595 158.525 167.224 158.965 166.728 159.298C166.24 159.632 165.629 159.799 164.897 159.799C164.165 159.799 163.546 159.632 163.042 159.298C162.545 158.965 162.171 158.521 161.918 157.968C161.674 157.414 161.552 156.808 161.552 156.149ZM163.786 155.197V156.137C163.786 156.422 163.835 156.69 163.933 156.942C164.03 157.187 164.16 157.386 164.323 157.541C164.494 157.687 164.685 157.76 164.897 157.76C165.19 157.76 165.414 157.687 165.568 157.541C165.723 157.386 165.825 157.187 165.874 156.942C165.931 156.69 165.959 156.422 165.959 156.137V155.209C165.959 154.916 165.918 154.647 165.837 154.403C165.764 154.151 165.646 153.952 165.483 153.805C165.328 153.651 165.129 153.573 164.885 153.573C164.632 153.573 164.425 153.651 164.262 153.805C164.099 153.952 163.977 154.151 163.896 154.403C163.823 154.647 163.786 154.912 163.786 155.197ZM165.776 144.333L158.488 158.224L156.853 157.296L164.14 143.405L165.776 144.333Z" fill="black"/>
</svg>
