<svg width="260" height="260" viewBox="0 0 260 260" fill="none" xmlns="http://www.w3.org/2000/svg">
<path d="M108.26 96.5166V99.4707H100.875V96.5166H108.26ZM101.973 81.6973V99.4707H98.3965V81.6973H101.973ZM113.777 86.2627V99.4707H110.347V86.2627H113.777ZM110.188 82.8447C110.188 82.3158 110.355 81.8804 110.689 81.5386C111.031 81.1886 111.486 81.0137 112.056 81.0137C112.634 81.0137 113.09 81.1886 113.423 81.5386C113.757 81.8804 113.924 82.3158 113.924 82.8447C113.924 83.3656 113.753 83.8009 113.411 84.1509C113.077 84.4927 112.63 84.6636 112.068 84.6636C111.491 84.6636 111.031 84.4927 110.689 84.1509C110.355 83.8009 110.188 83.3656 110.188 82.8447ZM121.26 96.8706C121.578 96.8706 121.85 96.8055 122.078 96.6753C122.314 96.5451 122.493 96.3335 122.615 96.0405C122.737 95.7476 122.802 95.3691 122.811 94.9053H126.021C126.021 95.8981 125.809 96.7567 125.386 97.481C124.971 98.1971 124.41 98.7505 123.702 99.1411C123.002 99.5236 122.208 99.7148 121.321 99.7148C120.434 99.7148 119.661 99.5724 119.002 99.2876C118.343 99.0028 117.798 98.5877 117.366 98.0425C116.943 97.4972 116.622 96.834 116.402 96.0527C116.19 95.2633 116.084 94.36 116.084 93.3428V92.3784C116.084 91.3774 116.19 90.4823 116.402 89.6929C116.622 88.9035 116.943 88.2362 117.366 87.6909C117.798 87.1457 118.339 86.7306 118.99 86.4458C119.649 86.161 120.422 86.0186 121.309 86.0186C122.261 86.0186 123.087 86.2179 123.787 86.6167C124.487 87.0073 125.032 87.5851 125.423 88.3501C125.822 89.1151 126.021 90.0591 126.021 91.1821H122.811C122.802 90.6776 122.741 90.2585 122.627 89.9248C122.522 89.583 122.355 89.3226 122.127 89.1436C121.907 88.9564 121.614 88.8628 121.248 88.8628C120.866 88.8628 120.556 88.9442 120.32 89.1069C120.092 89.2616 119.917 89.4894 119.795 89.7905C119.681 90.0835 119.604 90.4497 119.563 90.8892C119.523 91.3286 119.502 91.825 119.502 92.3784V93.3428C119.502 93.9368 119.519 94.4536 119.551 94.8931C119.592 95.3244 119.669 95.6906 119.783 95.9917C119.905 96.2847 120.08 96.5044 120.308 96.6509C120.544 96.7974 120.861 96.8706 121.26 96.8706ZM119.917 99.4097H122.469L122.359 100.13C122.725 100.211 123.063 100.407 123.372 100.716C123.681 101.025 123.836 101.534 123.836 102.242C123.836 102.673 123.759 103.064 123.604 103.414C123.449 103.772 123.213 104.081 122.896 104.341C122.587 104.602 122.2 104.801 121.736 104.939C121.272 105.078 120.735 105.147 120.125 105.147L120.052 103.121C120.247 103.121 120.414 103.084 120.552 103.011C120.691 102.946 120.792 102.84 120.857 102.693C120.931 102.547 120.967 102.356 120.967 102.12C120.967 101.892 120.918 101.713 120.821 101.583C120.731 101.46 120.585 101.367 120.381 101.302C120.186 101.237 119.922 101.192 119.588 101.167L119.917 99.4097ZM127.596 93.3184V92.4272C127.596 91.3937 127.718 90.4782 127.962 89.6807C128.214 88.8831 128.572 88.2158 129.036 87.6787C129.5 87.1335 130.057 86.7225 130.708 86.4458C131.368 86.161 132.104 86.0186 132.918 86.0186C133.74 86.0186 134.476 86.161 135.127 86.4458C135.787 86.7225 136.348 87.1335 136.812 87.6787C137.284 88.2158 137.646 88.8831 137.898 89.6807C138.151 90.4782 138.277 91.3937 138.277 92.4272V93.3184C138.277 94.3438 138.151 95.2552 137.898 96.0527C137.646 96.8503 137.284 97.5216 136.812 98.0669C136.348 98.6121 135.791 99.0231 135.14 99.2998C134.489 99.5765 133.756 99.7148 132.942 99.7148C132.129 99.7148 131.392 99.5765 130.733 99.2998C130.082 99.0231 129.52 98.6121 129.048 98.0669C128.576 97.5216 128.214 96.8503 127.962 96.0527C127.718 95.2552 127.596 94.3438 127.596 93.3184ZM131.014 92.4272V93.3184C131.014 93.9287 131.054 94.4577 131.136 94.9053C131.225 95.3529 131.351 95.7231 131.514 96.0161C131.685 96.3091 131.889 96.5247 132.125 96.6631C132.361 96.8014 132.633 96.8706 132.942 96.8706C133.252 96.8706 133.528 96.8014 133.772 96.6631C134.017 96.5247 134.216 96.3091 134.371 96.0161C134.533 95.7231 134.651 95.3529 134.725 94.9053C134.806 94.4577 134.847 93.9287 134.847 93.3184V92.4272C134.847 91.8332 134.802 91.3123 134.712 90.8647C134.623 90.409 134.497 90.0387 134.334 89.7539C134.171 89.4609 133.968 89.2412 133.724 89.0947C133.488 88.9401 133.219 88.8628 132.918 88.8628C132.617 88.8628 132.348 88.9401 132.112 89.0947C131.884 89.2412 131.685 89.4609 131.514 89.7539C131.351 90.0387 131.225 90.409 131.136 90.8647C131.054 91.3123 131.014 91.8332 131.014 92.4272ZM134.896 80.7573L136.836 80.8916C136.836 81.4938 136.735 82.0431 136.531 82.5396C136.328 83.0278 136.039 83.4185 135.665 83.7114C135.298 84.0044 134.875 84.1509 134.395 84.1509C134.078 84.1509 133.801 84.098 133.565 83.9922C133.337 83.8864 133.121 83.7643 132.918 83.626C132.723 83.4876 132.523 83.3656 132.32 83.2598C132.116 83.154 131.884 83.1011 131.624 83.1011C131.396 83.1011 131.205 83.2028 131.05 83.4062C130.904 83.6097 130.831 83.8986 130.831 84.2729L128.89 84.1387C128.89 83.5527 128.991 83.0156 129.195 82.5273C129.406 82.0309 129.695 81.6322 130.062 81.3311C130.428 81.0218 130.843 80.8672 131.307 80.8672C131.567 80.8672 131.811 80.9242 132.039 81.0381C132.267 81.1439 132.491 81.266 132.71 81.4043C132.93 81.5426 133.154 81.6647 133.382 81.7705C133.61 81.8763 133.85 81.9292 134.102 81.9292C134.322 81.9292 134.509 81.8275 134.664 81.624C134.818 81.4206 134.896 81.1317 134.896 80.7573ZM145.76 99.7148C144.856 99.7148 144.055 99.5765 143.355 99.2998C142.663 99.0231 142.077 98.6243 141.597 98.1035C141.117 97.5745 140.751 96.9357 140.499 96.187C140.246 95.4383 140.12 94.5838 140.12 93.6235V92.5371C140.12 91.4629 140.242 90.5229 140.486 89.7173C140.73 88.9035 141.076 88.2199 141.524 87.6665C141.972 87.1131 142.521 86.7021 143.172 86.4336C143.831 86.1569 144.576 86.0186 145.406 86.0186C146.236 86.0186 146.964 86.1569 147.591 86.4336C148.226 86.7021 148.75 87.109 149.166 87.6543C149.581 88.1914 149.894 88.8587 150.105 89.6562C150.317 90.4538 150.423 91.3815 150.423 92.4395V94.002H141.573V91.5972H147.066V91.292C147.066 90.7549 147.009 90.3073 146.895 89.9492C146.781 89.583 146.602 89.3104 146.358 89.1313C146.114 88.9523 145.788 88.8628 145.381 88.8628C145.04 88.8628 144.751 88.932 144.515 89.0703C144.279 89.2087 144.091 89.4243 143.953 89.7173C143.815 90.0103 143.713 90.3927 143.648 90.8647C143.583 91.3286 143.55 91.8861 143.55 92.5371V93.6235C143.55 94.2339 143.603 94.7466 143.709 95.1616C143.815 95.5685 143.969 95.9022 144.173 96.1626C144.384 96.4149 144.641 96.598 144.942 96.7119C145.243 96.8177 145.593 96.8706 145.992 96.8706C146.594 96.8706 147.135 96.7648 147.615 96.5532C148.104 96.3335 148.519 96.0365 148.86 95.6621L150.228 97.7373C149.992 98.0465 149.666 98.3558 149.251 98.665C148.836 98.9743 148.34 99.2266 147.762 99.4219C147.184 99.6172 146.517 99.7148 145.76 99.7148ZM158.26 95.9062C158.26 95.6784 158.182 95.4749 158.028 95.2959C157.873 95.1169 157.629 94.9338 157.295 94.7466C156.962 94.5513 156.518 94.3356 155.965 94.0996C155.363 93.8555 154.83 93.6032 154.366 93.3428C153.902 93.0824 153.507 92.7935 153.182 92.4761C152.864 92.1587 152.624 91.7965 152.461 91.3896C152.299 90.9827 152.217 90.5189 152.217 89.998C152.217 89.4365 152.319 88.9198 152.522 88.4478C152.734 87.9676 153.035 87.5485 153.426 87.1904C153.816 86.8242 154.292 86.5394 154.854 86.3359C155.424 86.1243 156.062 86.0186 156.771 86.0186C157.763 86.0186 158.614 86.1935 159.322 86.5435C160.038 86.8853 160.587 87.3654 160.97 87.9839C161.352 88.6024 161.543 89.3226 161.543 90.1445H158.125C158.125 89.8516 158.081 89.5911 157.991 89.3633C157.902 89.1273 157.755 88.9442 157.552 88.814C157.356 88.6838 157.092 88.6187 156.758 88.6187C156.514 88.6187 156.294 88.6715 156.099 88.7773C155.912 88.8831 155.761 89.0256 155.647 89.2046C155.542 89.3755 155.489 89.5789 155.489 89.8149C155.489 89.994 155.525 90.1527 155.599 90.291C155.68 90.4294 155.806 90.5636 155.977 90.6938C156.148 90.8241 156.376 90.9624 156.661 91.1089C156.954 91.2472 157.312 91.4019 157.735 91.5728C158.614 91.8983 159.334 92.2482 159.896 92.6226C160.465 92.9969 160.888 93.4364 161.165 93.9409C161.442 94.4373 161.58 95.0518 161.58 95.7842C161.58 96.3701 161.466 96.9032 161.238 97.3833C161.019 97.8634 160.697 98.2785 160.274 98.6284C159.851 98.9784 159.342 99.2469 158.748 99.4341C158.162 99.6213 157.507 99.7148 156.783 99.7148C155.717 99.7148 154.817 99.5033 154.085 99.0801C153.353 98.6569 152.799 98.1157 152.425 97.4565C152.05 96.7892 151.863 96.0975 151.863 95.3813H155.11C155.127 95.8208 155.208 96.1667 155.354 96.4189C155.509 96.6631 155.717 96.834 155.977 96.9316C156.237 97.0293 156.526 97.0781 156.844 97.0781C157.161 97.0781 157.422 97.0374 157.625 96.9561C157.837 96.8665 157.995 96.7323 158.101 96.5532C158.207 96.366 158.26 96.1504 158.26 95.9062Z" fill="#666666"/>
<path d="M89.7293 253.605C66.9562 246.186 46.6756 232.619 31.1253 214.403C15.575 196.186 5.3595 174.027 1.60615 150.372C-2.14719 126.717 0.707495 102.484 9.8552 80.3489C19.0029 58.2135 34.088 39.0354 53.4459 24.9311C72.8038 10.8268 95.6819 2.34451 119.556 0.420236C143.429 -1.50403 167.371 3.20453 188.738 14.0264C210.105 24.8482 228.067 41.3626 240.642 61.7471C253.216 82.1317 259.915 105.594 259.999 129.545L215.361 129.701C215.306 113.974 210.908 98.5682 202.651 85.1831C194.394 71.798 182.599 60.9541 168.569 53.8482C154.539 46.7423 138.818 43.6505 123.142 44.914C107.466 46.1775 92.4432 51.7473 79.7322 61.0086C67.0213 70.2699 57.1159 82.8628 51.1093 97.3976C45.1026 111.932 43.2282 127.844 45.6927 143.377C48.1573 158.91 54.8651 173.46 65.0759 185.421C75.2867 197.383 88.6035 206.291 103.557 211.163L89.7293 253.605Z" fill="#00A65A"/>
<path d="M260 130C260 150.517 255.144 170.743 245.828 189.024C236.513 207.305 223.002 223.121 206.402 235.179C189.802 247.238 170.584 255.196 150.319 258.402C130.053 261.609 109.317 259.974 89.8047 253.63L103.607 211.179C116.419 215.345 130.035 216.419 143.342 214.313C156.649 212.207 169.268 206.982 180.168 199.064C191.068 191.146 199.939 180.761 206.056 168.757C212.173 156.753 215.362 143.472 215.362 130H260Z" fill="#D9D9D9"/>
<path d="M107.386 141.781V143.734L101.771 159.555H98.1572L103.797 144.625H96.6436V141.781H107.386ZM119.935 149.105V152.194C119.935 153.528 119.808 154.676 119.556 155.636C119.304 156.597 118.95 157.386 118.494 158.004C118.038 158.615 117.497 159.066 116.871 159.359C116.244 159.652 115.552 159.799 114.795 159.799C114.193 159.799 113.628 159.705 113.099 159.518C112.57 159.331 112.09 159.046 111.658 158.664C111.235 158.273 110.869 157.781 110.56 157.187C110.258 156.584 110.027 155.872 109.864 155.05C109.701 154.22 109.62 153.268 109.62 152.194V149.105C109.62 147.771 109.746 146.627 109.998 145.675C110.258 144.715 110.617 143.93 111.072 143.319C111.528 142.709 112.069 142.261 112.696 141.977C113.331 141.684 114.026 141.537 114.783 141.537C115.377 141.537 115.939 141.631 116.468 141.818C117.005 141.997 117.481 142.278 117.896 142.66C118.319 143.043 118.681 143.535 118.982 144.137C119.292 144.731 119.528 145.443 119.69 146.273C119.853 147.095 119.935 148.039 119.935 149.105ZM116.504 152.67V148.605C116.504 147.978 116.476 147.429 116.419 146.957C116.37 146.485 116.301 146.086 116.211 145.761C116.122 145.435 116.004 145.171 115.857 144.967C115.711 144.764 115.548 144.617 115.369 144.528C115.19 144.43 114.991 144.381 114.771 144.381C114.511 144.381 114.275 144.455 114.063 144.601C113.851 144.748 113.668 144.988 113.514 145.321C113.359 145.647 113.241 146.082 113.16 146.627C113.086 147.165 113.05 147.824 113.05 148.605V152.67C113.05 153.297 113.074 153.85 113.123 154.33C113.18 154.81 113.257 155.221 113.355 155.563C113.461 155.897 113.579 156.165 113.709 156.369C113.847 156.572 114.006 156.723 114.185 156.82C114.372 156.91 114.576 156.955 114.795 156.955C115.056 156.955 115.292 156.881 115.503 156.735C115.723 156.58 115.906 156.336 116.053 156.002C116.199 155.669 116.309 155.229 116.382 154.684C116.464 154.131 116.504 153.459 116.504 152.67ZM125.794 156.552V158.957C125.794 159.876 125.566 160.8 125.11 161.728C124.655 162.663 124.077 163.428 123.377 164.022L121.546 163.07C121.749 162.696 121.949 162.318 122.144 161.935C122.339 161.553 122.502 161.133 122.632 160.678C122.763 160.222 122.828 159.705 122.828 159.127V156.552H125.794ZM138.709 149.105V152.194C138.709 153.528 138.583 154.676 138.331 155.636C138.078 156.597 137.724 157.386 137.269 158.004C136.813 158.615 136.272 159.066 135.645 159.359C135.018 159.652 134.327 159.799 133.57 159.799C132.968 159.799 132.402 159.705 131.873 159.518C131.344 159.331 130.864 159.046 130.433 158.664C130.009 158.273 129.643 157.781 129.334 157.187C129.033 156.584 128.801 155.872 128.638 155.05C128.475 154.22 128.394 153.268 128.394 152.194V149.105C128.394 147.771 128.52 146.627 128.772 145.675C129.033 144.715 129.391 143.93 129.847 143.319C130.302 142.709 130.844 142.261 131.47 141.977C132.105 141.684 132.801 141.537 133.558 141.537C134.152 141.537 134.713 141.631 135.242 141.818C135.779 141.997 136.255 142.278 136.67 142.66C137.094 143.043 137.456 143.535 137.757 144.137C138.066 144.731 138.302 145.443 138.465 146.273C138.628 147.095 138.709 148.039 138.709 149.105ZM135.279 152.67V148.605C135.279 147.978 135.25 147.429 135.193 146.957C135.145 146.485 135.075 146.086 134.986 145.761C134.896 145.435 134.778 145.171 134.632 144.967C134.485 144.764 134.323 144.617 134.144 144.528C133.965 144.43 133.765 144.381 133.545 144.381C133.285 144.381 133.049 144.455 132.837 144.601C132.626 144.748 132.443 144.988 132.288 145.321C132.133 145.647 132.015 146.082 131.934 146.627C131.861 147.165 131.824 147.824 131.824 148.605V152.67C131.824 153.297 131.849 153.85 131.897 154.33C131.954 154.81 132.032 155.221 132.129 155.563C132.235 155.897 132.353 156.165 132.483 156.369C132.622 156.572 132.78 156.723 132.959 156.82C133.147 156.91 133.35 156.955 133.57 156.955C133.83 156.955 134.066 156.881 134.278 156.735C134.498 156.58 134.681 156.336 134.827 156.002C134.974 155.669 135.083 155.229 135.157 154.684C135.238 154.131 135.279 153.459 135.279 152.67ZM151.355 149.105V152.194C151.355 153.528 151.229 154.676 150.977 155.636C150.725 156.597 150.371 157.386 149.915 158.004C149.459 158.615 148.918 159.066 148.292 159.359C147.665 159.652 146.973 159.799 146.216 159.799C145.614 159.799 145.049 159.705 144.52 159.518C143.991 159.331 143.51 159.046 143.079 158.664C142.656 158.273 142.29 157.781 141.98 157.187C141.679 156.584 141.447 155.872 141.285 155.05C141.122 154.22 141.041 153.268 141.041 152.194V149.105C141.041 147.771 141.167 146.627 141.419 145.675C141.679 144.715 142.037 143.93 142.493 143.319C142.949 142.709 143.49 142.261 144.117 141.977C144.751 141.684 145.447 141.537 146.204 141.537C146.798 141.537 147.36 141.631 147.889 141.818C148.426 141.997 148.902 142.278 149.317 142.66C149.74 143.043 150.102 143.535 150.403 144.137C150.713 144.731 150.949 145.443 151.111 146.273C151.274 147.095 151.355 148.039 151.355 149.105ZM147.925 152.67V148.605C147.925 147.978 147.897 147.429 147.84 146.957C147.791 146.485 147.722 146.086 147.632 145.761C147.543 145.435 147.425 145.171 147.278 144.967C147.132 144.764 146.969 144.617 146.79 144.528C146.611 144.43 146.412 144.381 146.192 144.381C145.931 144.381 145.695 144.455 145.484 144.601C145.272 144.748 145.089 144.988 144.935 145.321C144.78 145.647 144.662 146.082 144.581 146.627C144.507 147.165 144.471 147.824 144.471 148.605V152.67C144.471 153.297 144.495 153.85 144.544 154.33C144.601 154.81 144.678 155.221 144.776 155.563C144.882 155.897 145 156.165 145.13 156.369C145.268 156.572 145.427 156.723 145.606 156.82C145.793 156.91 145.997 156.955 146.216 156.955C146.477 156.955 146.713 156.881 146.924 156.735C147.144 156.58 147.327 156.336 147.474 156.002C147.62 155.669 147.73 155.229 147.803 154.684C147.885 154.131 147.925 153.459 147.925 152.67ZM153.724 146.139V145.199C153.724 144.524 153.846 143.909 154.09 143.356C154.342 142.803 154.712 142.359 155.201 142.025C155.697 141.692 156.312 141.525 157.044 141.525C157.785 141.525 158.403 141.692 158.899 142.025C159.396 142.359 159.762 142.803 159.998 143.356C160.242 143.909 160.364 144.524 160.364 145.199V146.139C160.364 146.798 160.242 147.405 159.998 147.958C159.754 148.511 159.384 148.955 158.887 149.289C158.399 149.622 157.789 149.789 157.056 149.789C156.324 149.789 155.709 149.622 155.213 149.289C154.716 148.955 154.342 148.511 154.09 147.958C153.846 147.405 153.724 146.798 153.724 146.139ZM155.958 145.199V146.139C155.958 146.416 155.998 146.68 156.08 146.933C156.161 147.177 156.283 147.376 156.446 147.531C156.609 147.677 156.812 147.75 157.056 147.75C157.3 147.75 157.5 147.677 157.654 147.531C157.809 147.376 157.923 147.177 157.996 146.933C158.077 146.68 158.118 146.416 158.118 146.139V145.199C158.118 144.906 158.077 144.638 157.996 144.394C157.923 144.141 157.805 143.942 157.642 143.795C157.479 143.641 157.276 143.563 157.032 143.563C156.788 143.563 156.584 143.641 156.421 143.795C156.267 143.942 156.149 144.141 156.067 144.394C155.994 144.638 155.958 144.906 155.958 145.199ZM160.743 156.149V155.197C160.743 154.529 160.869 153.919 161.121 153.366C161.373 152.812 161.744 152.369 162.232 152.035C162.728 151.701 163.339 151.535 164.063 151.535C164.812 151.535 165.43 151.701 165.918 152.035C166.407 152.369 166.773 152.812 167.017 153.366C167.269 153.919 167.396 154.529 167.396 155.197V156.149C167.396 156.816 167.273 157.427 167.029 157.98C166.785 158.525 166.415 158.965 165.918 159.298C165.43 159.632 164.82 159.799 164.087 159.799C163.355 159.799 162.736 159.632 162.232 159.298C161.736 158.965 161.361 158.521 161.109 157.968C160.865 157.414 160.743 156.808 160.743 156.149ZM162.977 155.197V156.137C162.977 156.422 163.025 156.69 163.123 156.942C163.221 157.187 163.351 157.386 163.514 157.541C163.685 157.687 163.876 157.76 164.087 157.76C164.38 157.76 164.604 157.687 164.759 157.541C164.913 157.386 165.015 157.187 165.064 156.942C165.121 156.69 165.149 156.422 165.149 156.137V155.209C165.149 154.916 165.109 154.647 165.027 154.403C164.954 154.151 164.836 153.952 164.673 153.805C164.519 153.651 164.319 153.573 164.075 153.573C163.823 153.573 163.615 153.651 163.453 153.805C163.29 153.952 163.168 154.151 163.086 154.403C163.013 154.647 162.977 154.912 162.977 155.197ZM164.966 144.333L157.679 158.224L156.043 157.296L163.331 143.405L164.966 144.333Z" fill="black"/>
</svg>
