<svg width="16" height="24" viewBox="0 0 16 24" fill="none" xmlns="http://www.w3.org/2000/svg">
<path d="M10.309 11.406C10.309 9.43 13.519 9.258 13.519 5.395C13.519 2.598 11.574 1.258 11.375 1.137H13.313L15.25 0H8.973C2.586 0 1.563 4.469 1.563 5.95C1.563 8.156 3.289 10.898 6.762 10.898C7.078 10.898 7.414 10.878 7.77 10.84C7.71 11.004 7.46 11.566 7.46 12.074C7.46 13.137 8.14 13.812 8.375 14.223C4.575 14.188 0 15.836 0 19.503C0 20.843 1.152 24 6.566 24C12.742 24 14.613 20.187 14.613 18.05C14.609 13.969 10.309 13.293 10.309 11.406ZM8.211 10.043C6.051 10.043 4.227 7.324 4.227 4.418C4.227 3.555 4.641 1.047 7.031 1.047C10.109 1.047 10.859 5.609 10.859 6.852C10.859 7.141 11.062 10.043 8.211 10.043ZM8.063 22.68C6.082 22.68 2.664 21.836 2.664 18.836C2.664 17.796 3.27 15.082 8.527 15.082C8.797 15.082 9.031 15.094 9.23 15.113C10.324 15.93 12.59 17.109 12.59 19.281C12.59 20.266 12.004 22.68 8.063 22.68Z" fill="white"/>
</svg>
