<svg width="23" height="23" viewBox="0 0 23 23" fill="none" xmlns="http://www.w3.org/2000/svg">
<path d="M4.3125 5.271H18.6875V6.7085H4.3125V5.271Z" fill="#424242"/>
<path d="M1.91699 11.9793H21.0837V8.62516C21.0837 7.571 20.2212 6.7085 19.167 6.7085H3.83366C2.77949 6.7085 1.91699 7.571 1.91699 8.62516V11.9793Z" fill="#616161"/>
<path d="M3.83366 17.25H19.167C20.2212 17.25 21.0837 16.3875 21.0837 15.3333V11.5H1.91699V15.3333C1.91699 16.3875 2.77949 17.25 3.83366 17.25Z" fill="#424242"/>
<path d="M19.1667 9.10433C19.4313 9.10433 19.6458 8.8898 19.6458 8.62516C19.6458 8.36053 19.4313 8.146 19.1667 8.146C18.902 8.146 18.6875 8.36053 18.6875 8.62516C18.6875 8.8898 18.902 9.10433 19.1667 9.10433Z" fill="#00E676"/>
<path d="M5.27051 1.9165H17.7288V6.70817H5.27051V1.9165Z" fill="#90CAF9"/>
<path d="M17.9688 14.854H5.03125C4.64792 14.854 4.3125 14.5186 4.3125 14.1353C4.3125 13.7519 4.64792 13.4165 5.03125 13.4165H17.9688C18.3521 13.4165 18.6875 13.7519 18.6875 14.1353C18.6875 14.5186 18.3521 14.854 17.9688 14.854Z" fill="#242424"/>
<path d="M5.27051 14.854H17.7288V20.1248H5.27051V14.854Z" fill="#90CAF9"/>
<path d="M5.27051 13.896H17.7288V14.8543H5.27051V13.896Z" fill="#42A5F5"/>
<path d="M7.66699 15.8125H15.8128V16.7708H7.66699V15.8125ZM7.66699 17.7292H13.8962V18.6875H7.66699V17.7292Z" fill="#1976D2"/>
</svg>
