<svg width="19" height="19" viewBox="0 0 19 19" fill="none" xmlns="http://www.w3.org/2000/svg">
<path d="M8 16C9.775 15.9998 11.4989 15.4056 12.897 14.312L17.293 18.708L18.707 17.294L14.311 12.898C15.4051 11.4997 15.9997 9.77546 16 8C16 3.589 12.411 0 8 0C3.589 0 0 3.589 0 8C0 12.411 3.589 16 8 16ZM8 2C11.309 2 14 4.691 14 8C14 11.309 11.309 14 8 14C4.691 14 2 11.309 2 8C2 4.691 4.691 2 8 2Z" fill="white"/>
<path d="M9.41183 6.58609C9.79083 6.96609 9.99983 7.46809 9.99983 8.00009H11.9998C12.0005 7.47454 11.8972 6.95405 11.6957 6.46867C11.4942 5.98328 11.1985 5.54261 10.8258 5.17209C9.31183 3.66009 6.68683 3.66009 5.17383 5.17209L6.58583 6.58809C7.34583 5.83009 8.65583 5.83209 9.41183 6.58609Z" fill="white"/>
</svg>
