<svg width="16" height="17" viewBox="0 0 16 17" fill="none" xmlns="http://www.w3.org/2000/svg">
<path fill-rule="evenodd" clip-rule="evenodd" d="M2.6 7.21374V5.53012C2.6 4.06344 3.16893 2.65683 4.18162 1.61973C5.19432 0.582636 6.56783 0 8 0C9.43217 0 10.8057 0.582636 11.8184 1.61973C12.8311 2.65683 13.4 4.06344 13.4 5.53012V7.21374C14.292 7.28173 14.872 7.45378 15.2968 7.88882C16 8.60814 16 9.76742 16 12.0843C16 14.4013 16 15.5605 15.2968 16.2799C14.5944 17 13.4624 17 11.2 17H4.8C2.5376 17 1.4056 17 0.7032 16.2799C-4.76837e-08 15.5605 0 14.4013 0 12.0843C0 9.76742 -4.76837e-08 8.60814 0.7032 7.88882C1.1272 7.45378 1.708 7.28173 2.6 7.21374ZM3.8 5.53012C3.8 4.38937 4.2425 3.29534 5.03015 2.48871C5.8178 1.68208 6.88609 1.22892 8 1.22892C9.11391 1.22892 10.1822 1.68208 10.9698 2.48871C11.7575 3.29534 12.2 4.38937 12.2 5.53012V7.17195C11.8936 7.16867 11.5608 7.16867 11.2 7.16867H4.8C4.4384 7.16867 4.1064 7.16867 3.8 7.17195V5.53012Z" fill="white"/>
</svg>
