<svg width="33" height="24" viewBox="0 0 33 24" fill="none" xmlns="http://www.w3.org/2000/svg">
<path d="M21 0C19.4087 0 17.8826 0.632141 16.7574 1.75736C15.6321 2.88258 15 4.4087 15 6C15 7.5913 15.6321 9.11742 16.7574 10.2426C17.8826 11.3679 19.4087 12 21 12C22.5913 12 24.1174 11.3679 25.2426 10.2426C26.3679 9.11742 27 7.5913 27 6C27 4.4087 26.3679 2.88258 25.2426 1.75736C24.1174 0.632141 22.5913 0 21 0ZM21 2.85C21.4137 2.85 21.8233 2.93148 22.2055 3.08978C22.5876 3.24808 22.9349 3.48011 23.2274 3.77261C23.5199 4.06512 23.7519 4.41237 23.9102 4.79455C24.0685 5.17672 24.15 5.58634 24.15 6C24.15 6.41366 24.0685 6.82328 23.9102 7.20545C23.7519 7.58763 23.5199 7.93488 23.2274 8.22739C22.9349 8.51989 22.5876 8.75192 22.2055 8.91022C21.8233 9.06852 21.4137 9.15 21 9.15C20.5863 9.15 20.1767 9.06852 19.7945 8.91022C19.4124 8.75192 19.0651 8.51989 18.7726 8.22739C18.4801 7.93488 18.2481 7.58763 18.0898 7.20545C17.9315 6.82328 17.85 6.41366 17.85 6C17.85 5.16457 18.1819 4.36335 18.7726 3.77261C19.3634 3.18187 20.1646 2.85 21 2.85ZM4.5 4.5V9H0V12H4.5V16.5H7.5V12H12V9H7.5V4.5H4.5ZM21 13.5C16.995 13.5 9 15.495 9 19.5V24H33V19.5C33 15.495 25.005 13.5 21 13.5ZM21 16.35C25.455 16.35 30.15 18.54 30.15 19.5V21.15H11.85V19.5C11.85 18.54 16.5 16.35 21 16.35Z" fill="#27A844"/>
</svg>
