<svg width="43" height="43" viewBox="0 0 43 43" fill="none" xmlns="http://www.w3.org/2000/svg">
<path d="M15.75 14.8214C15.75 14.3384 15.9475 13.8751 16.2992 13.5335C16.6508 13.1919 17.1277 13 17.625 13H26.375C26.8723 13 27.3492 13.1919 27.7008 13.5335C28.0525 13.8751 28.25 14.3384 28.25 14.8214V15.4286H28.875C29.7038 15.4286 30.4987 15.7484 31.0847 16.3177C31.6708 16.887 32 17.6592 32 18.4643V24.5357C32 25.0188 31.8025 25.4821 31.4508 25.8237C31.0992 26.1652 30.6223 26.3571 30.125 26.3571H28.25V28.1786C28.25 28.6616 28.0525 29.1249 27.7008 29.4665C27.3492 29.8081 26.8723 30 26.375 30H17.625C17.1277 30 16.6508 29.8081 16.2992 29.4665C15.9475 29.1249 15.75 28.6616 15.75 28.1786V26.3571H13.875C13.3777 26.3571 12.9008 26.1652 12.5492 25.8237C12.1975 25.4821 12 25.0188 12 24.5357V18.4643C12 17.6592 12.3292 16.887 12.9153 16.3177C13.5013 15.7484 14.2962 15.4286 15.125 15.4286H15.75V14.8214ZM17 15.4286H27V14.8214C27 14.6604 26.9342 14.506 26.8169 14.3921C26.6997 14.2783 26.5408 14.2143 26.375 14.2143H17.625C17.4592 14.2143 17.3003 14.2783 17.1831 14.3921C17.0658 14.506 17 14.6604 17 14.8214V15.4286ZM15.75 25.1429V23.3214C15.75 22.8384 15.9475 22.3751 16.2992 22.0335C16.6508 21.6919 17.1277 21.5 17.625 21.5H26.375C26.8723 21.5 27.3492 21.6919 27.7008 22.0335C28.0525 22.3751 28.25 22.8384 28.25 23.3214V25.1429H30.125C30.2908 25.1429 30.4497 25.0789 30.5669 24.965C30.6842 24.8512 30.75 24.6967 30.75 24.5357V18.4643C30.75 17.9812 30.5525 17.5179 30.2008 17.1763C29.8492 16.8348 29.3723 16.6429 28.875 16.6429H15.125C14.6277 16.6429 14.1508 16.8348 13.7992 17.1763C13.4475 17.5179 13.25 17.9812 13.25 18.4643V24.5357C13.25 24.6967 13.3158 24.8512 13.4331 24.965C13.5503 25.0789 13.7092 25.1429 13.875 25.1429H15.75ZM17.625 22.7143C17.4592 22.7143 17.3003 22.7783 17.1831 22.8921C17.0658 23.006 17 23.1604 17 23.3214V28.1786C17 28.3396 17.0658 28.494 17.1831 28.6079C17.3003 28.7217 17.4592 28.7857 17.625 28.7857H26.375C26.5408 28.7857 26.6997 28.7217 26.8169 28.6079C26.9342 28.494 27 28.3396 27 28.1786V23.3214C27 23.1604 26.9342 23.006 26.8169 22.8921C26.6997 22.7783 26.5408 22.7143 26.375 22.7143H17.625Z" fill="#666666"/>
<circle cx="21.5" cy="21.5" r="21" stroke="#666666"/>
</svg>
