<svg width="25" height="25" viewBox="0 0 25 25" fill="none" xmlns="http://www.w3.org/2000/svg">
<path d="M24.5832 12.5003C24.5825 9.29582 23.3093 6.22275 21.0433 3.95683C18.7774 1.6909 15.7043 0.417633 12.4998 0.416992V2.83366C14.4115 2.83409 16.2802 3.40113 17.8698 4.46314C19.4593 5.52515 20.6985 7.03447 21.4306 8.80041C21.9165 9.97342 22.1666 11.2307 22.1665 12.5003H24.5832ZM0.416504 10.0837V4.04199C0.416504 3.72152 0.54381 3.41418 0.770416 3.18757C0.997023 2.96097 1.30437 2.83366 1.62484 2.83366H7.6665C7.98697 2.83366 8.29432 2.96097 8.52092 3.18757C8.74753 3.41418 8.87484 3.72152 8.87484 4.04199V8.87533C8.87484 9.1958 8.74753 9.50314 8.52092 9.72974C8.29432 9.95635 7.98697 10.0837 7.6665 10.0837H5.24984C5.24984 12.6474 6.26829 15.1062 8.08114 16.919C9.89399 18.7319 12.3527 19.7503 14.9165 19.7503V17.3337C14.9165 17.0132 15.0438 16.7058 15.2704 16.4792C15.497 16.2526 15.8044 16.1253 16.1248 16.1253H20.9582C21.2786 16.1253 21.586 16.2526 21.8126 16.4792C22.0392 16.7058 22.1665 17.0132 22.1665 17.3337V23.3753C22.1665 23.6958 22.0392 24.0031 21.8126 24.2297C21.586 24.4564 21.2786 24.5837 20.9582 24.5837H14.9165C6.90888 24.5837 0.416504 18.0913 0.416504 10.0837Z" fill="#666666"/>
</svg>
