<svg width="17" height="25" viewBox="0 0 17 25" fill="none" xmlns="http://www.w3.org/2000/svg">
<path d="M15.25 12.5C14.376 11.7674 13.265 11.3786 12.125 11.4062H4.79686C4.46274 11.4147 4.13035 11.3556 3.8196 11.2326C3.50884 11.1095 3.2261 10.9251 2.98831 10.6902C2.75052 10.4553 2.56257 10.1749 2.43571 9.86567C2.30884 9.55646 2.24568 9.22482 2.24999 8.89062C2.24184 8.76054 2.24184 8.63008 2.24999 8.5C2.34851 7.90282 2.66165 7.36215 3.1306 6.97951C3.59955 6.59686 4.19206 6.39858 4.79686 6.42188H12.0156C12.6045 6.42136 13.1743 6.63001 13.6236 7.01063C14.0729 7.39125 14.3724 7.91908 14.4687 8.5H16.8125C16.7144 7.29521 16.1665 6.17146 15.2777 5.35217C14.3889 4.53289 13.2244 4.07806 12.0156 4.07812H9.54686V0.484375H7.59374V4.07812H4.79686C3.58808 4.07806 2.42355 4.53289 1.53478 5.35217C0.64601 6.17146 0.0981016 7.29521 -1.34576e-05 8.5C-0.00780801 8.63009 -0.00780801 8.76053 -1.34576e-05 8.89062C-1.34576e-05 9.52056 0.124061 10.1443 0.365127 10.7263C0.606192 11.3083 0.959528 11.8371 1.40496 12.2825C2.30455 13.1821 3.52465 13.6875 4.79686 13.6875H12.2031C12.5346 13.6792 12.8644 13.7373 13.173 13.8584C13.4817 13.9795 13.763 14.1612 14.0004 14.3927C14.2377 14.6242 14.4263 14.9009 14.5551 15.2065C14.6838 15.512 14.7501 15.8403 14.75 16.1719C14.7662 16.3486 14.7662 16.5264 14.75 16.7031C14.6259 17.2529 14.3186 17.7441 13.8785 18.0962C13.4384 18.4483 12.8917 18.6403 12.3281 18.6406H4.98436C4.42077 18.6403 3.87404 18.4483 3.43395 18.0962C2.99385 17.7441 2.68655 17.2529 2.56249 16.7031H0.203112C0.33739 17.8771 0.898896 18.9607 1.78064 19.7473C2.66238 20.534 3.80272 20.9687 4.98436 20.9688H7.59374V24.5156H9.54686V20.9688H12.2031C13.3848 20.9687 14.5251 20.534 15.4068 19.7473C16.2886 18.9607 16.8501 17.8771 16.9844 16.7031V16.1719C16.9825 15.4701 16.8261 14.7773 16.5264 14.1427C16.2266 13.5081 15.7909 12.9472 15.25 12.5Z" fill="#666666"/>
</svg>
