<svg width="25" height="25" viewBox="0 0 25 25" fill="none" xmlns="http://www.w3.org/2000/svg">
<path d="M14.7059 16.9691C15.0098 16.9691 15.277 16.8534 15.5074 16.6221C15.7377 16.3907 15.8534 16.1235 15.8544 15.8206C15.8554 15.5176 15.7397 15.2505 15.5074 15.0191C15.275 14.7877 15.0078 14.6721 14.7059 14.6721C14.4039 14.6721 14.1368 14.7877 13.9044 15.0191C13.6721 15.2505 13.5564 15.5176 13.5574 15.8206C13.5583 16.1235 13.674 16.3907 13.9044 16.6221C14.1348 16.8534 14.402 16.9701 14.7059 16.9691ZM14.0559 12.8279H15.3559C15.3941 12.2113 15.4917 11.7471 15.6485 11.4353C15.8044 11.1235 16.1804 10.6882 16.7765 10.1294C17.398 9.56471 17.8314 9.05981 18.0765 8.61471C18.3216 8.17157 18.4441 7.66226 18.4441 7.08677C18.4441 6.09657 18.0912 5.27157 17.3853 4.61177C16.6794 3.95098 15.7863 3.62059 14.7059 3.62059C13.8892 3.62059 13.1637 3.84118 12.5294 4.28236C11.8951 4.72353 11.4123 5.325 11.0809 6.08677L12.2735 6.61177C12.551 6.03726 12.8892 5.60589 13.2882 5.31765C13.6873 5.02941 14.1598 4.88579 14.7059 4.88677C15.4078 4.88677 15.9897 5.09461 16.4515 5.5103C16.9123 5.92598 17.1426 6.46275 17.1426 7.12059C17.1426 7.52059 17.0309 7.89265 16.8074 8.23677C16.5828 8.58088 16.1971 8.9951 15.65 9.47941C15.0304 10.0206 14.6098 10.5172 14.3882 10.9691C14.1667 11.4211 14.0559 12.0407 14.0559 12.8279ZM6.78824 20.5882C6.11079 20.5882 5.54559 20.3618 5.09265 19.9088C4.63971 19.4559 4.41275 18.8907 4.41177 18.2132V2.375C4.41177 1.69853 4.63873 1.13334 5.09265 0.679415C5.54657 0.225493 6.11177 -0.000977223 6.78824 3.16937e-06H22.625C23.3015 3.16937e-06 23.8667 0.226474 24.3206 0.679415C24.7745 1.13236 25.001 1.69755 25 2.375V18.2132C25 18.8897 24.7735 19.4544 24.3206 19.9074C23.8676 20.3603 23.302 20.5873 22.6235 20.5882H6.78824ZM6.78824 19.1176H22.625C22.8505 19.1176 23.0578 19.0235 23.2471 18.8353C23.4363 18.6471 23.5304 18.4397 23.5294 18.2132V2.375C23.5294 2.14951 23.4353 1.94216 23.2471 1.75294C23.0588 1.56373 22.851 1.46961 22.6235 1.47059H6.78824C6.56177 1.47059 6.35392 1.56471 6.16471 1.75294C5.97549 1.94118 5.88137 2.14853 5.88235 2.375V18.2132C5.88235 18.4387 5.97647 18.6461 6.16471 18.8353C6.35294 19.0245 6.5603 19.1186 6.78677 19.1176M2.375 25C1.69853 25 1.13334 24.7735 0.679415 24.3206C0.225493 23.8676 -0.000977223 23.3025 3.16937e-06 22.625V5.31618H1.47059V22.625C1.47059 22.8505 1.56471 23.0578 1.75294 23.2471C1.94118 23.4363 2.14853 23.5304 2.375 23.5294H19.6838V25H2.375Z" fill="#666666"/>
</svg>
