<svg width="96" height="96" viewBox="0 0 96 96" fill="none" xmlns="http://www.w3.org/2000/svg">
<path d="M61.8001 66.0802L49.7601 54.0402C49.3201 53.6002 48.8001 53.5202 48.5201 53.5202C48.2401 53.5202 47.7201 53.6002 47.2801 54.0402L35.2001 66.1202C33.8401 67.4802 31.7201 69.6802 24.6401 69.6802L39.4801 84.4802C41.7301 86.7274 44.7801 87.9896 47.9601 87.9896C51.1401 87.9896 54.1901 86.7274 56.4401 84.4802L71.3201 69.6402C67.6801 69.6402 64.6401 68.9202 61.8001 66.0802ZM35.2001 29.8802L47.2801 41.9602C47.6001 42.2802 48.0801 42.4802 48.5201 42.4802C48.9601 42.4802 49.4401 42.2802 49.7601 41.9602L61.7201 30.0002C64.5601 27.0402 67.8001 26.3602 71.4401 26.3602L56.5601 11.5202C54.3101 9.27298 51.2601 8.01074 48.0801 8.01074C44.9001 8.01074 41.8501 9.27298 39.6001 11.5202L24.7601 26.3202C31.8001 26.3202 33.9601 28.6402 35.2001 29.8802Z" fill="#666666"/>
<path d="M84.4402 39.4003L75.4402 30.3603H70.4002C68.2402 30.3603 66.0802 31.2403 64.6002 32.8003L52.6002 44.8003C51.4802 45.9203 50.0002 46.4803 48.5202 46.4803C46.9962 46.4588 45.5374 45.8582 44.4402 44.8003L32.3602 32.6803C30.8402 31.1603 28.7602 30.2803 26.5602 30.2803H20.6802L11.5202 39.4803C9.27298 41.7303 8.01074 44.7803 8.01074 47.9603C8.01074 51.1403 9.27298 54.1903 11.5202 56.4403L20.6802 65.6403H26.6002C28.7602 65.6403 30.8402 64.7603 32.4002 63.2403L44.4802 51.1603C45.6002 50.0403 47.0802 49.4803 48.5602 49.4803C50.0402 49.4803 51.5202 50.0403 52.6402 51.1603L64.6802 63.2003C66.2002 64.7203 68.2802 65.6003 70.4802 65.6003H75.5202L84.5202 56.5603C86.7768 54.2698 88.0351 51.1792 88.0202 47.9638C88.0052 44.7484 86.7181 41.6696 84.4402 39.4003Z" fill="#666666"/>
</svg>
