<svg width="191" height="35" viewBox="0 0 191 35" fill="none" xmlns="http://www.w3.org/2000/svg">
<path d="M8.84766 18.3906H4.49707L4.48242 15.666H8.33496C8.93066 15.666 9.43848 15.5488 9.8584 15.3145C10.2783 15.0801 10.5957 14.7383 10.8105 14.2891C11.0352 13.8398 11.1475 13.2979 11.1475 12.6631C11.1475 11.96 11.0498 11.3887 10.8545 10.9492C10.6592 10.5 10.3516 10.1729 9.93164 9.96777C9.52148 9.7627 8.99414 9.66016 8.34961 9.66016H5.55176V28H1.99219V6.67188H8.34961C9.3457 6.67188 10.2344 6.78906 11.0156 7.02344C11.8066 7.24805 12.4756 7.59473 13.0225 8.06348C13.5693 8.53223 13.9844 9.13281 14.2676 9.86523C14.5605 10.5879 14.707 11.4473 14.707 12.4434C14.707 13.3125 14.5215 14.1133 14.1504 14.8457C13.7793 15.5684 13.2275 16.1641 12.4951 16.6328C11.7725 17.0918 10.874 17.3652 9.7998 17.4531L8.84766 18.3906ZM8.71582 28H3.3252L4.96582 25.0264H8.71582C9.35059 25.0264 9.87305 24.8896 10.2832 24.6162C10.6934 24.3428 11.001 23.9619 11.2061 23.4736C11.4111 22.9854 11.5137 22.4141 11.5137 21.7598C11.5137 21.0762 11.4258 20.4805 11.25 19.9727C11.0742 19.4648 10.791 19.0742 10.4004 18.8008C10.0098 18.5273 9.49219 18.3906 8.84766 18.3906H5.25879L5.28809 15.666H9.87305L10.6934 16.7061C11.7188 16.7256 12.5537 16.9795 13.1982 17.4678C13.8428 17.9463 14.3164 18.5664 14.6191 19.3281C14.9219 20.0898 15.0732 20.9053 15.0732 21.7744C15.0732 23.1318 14.8193 24.2744 14.3115 25.2021C13.8037 26.1201 13.0762 26.8184 12.1289 27.2969C11.1914 27.7656 10.0537 28 8.71582 28ZM21.7676 15.2119V28H18.3545V12.1504H21.6064L21.7676 15.2119ZM25.5908 12.0479L25.5762 15.417C25.3809 15.3682 25.1709 15.3389 24.9463 15.3291C24.7314 15.3096 24.5166 15.2998 24.3018 15.2998C23.833 15.2998 23.4277 15.3828 23.0859 15.5488C22.7441 15.7148 22.4561 15.9541 22.2217 16.2666C21.9873 16.5791 21.8018 16.9551 21.665 17.3945C21.5381 17.834 21.46 18.332 21.4307 18.8887L20.6982 18.918C20.6982 17.9219 20.7764 16.999 20.9326 16.1494C21.0889 15.29 21.3232 14.543 21.6357 13.9082C21.958 13.2637 22.3584 12.7607 22.8369 12.3994C23.3154 12.0381 23.8721 11.8574 24.5068 11.8574C24.6826 11.8574 24.8828 11.877 25.1074 11.916C25.332 11.9551 25.4932 11.999 25.5908 12.0479ZM34.7607 24.7773V16.8818C34.7607 16.335 34.6826 15.8955 34.5264 15.5635C34.3799 15.2314 34.1602 14.9922 33.8672 14.8457C33.584 14.6895 33.2275 14.6113 32.7979 14.6113C32.3486 14.6113 31.9678 14.7041 31.6553 14.8896C31.3525 15.0752 31.123 15.3291 30.9668 15.6514C30.8105 15.9639 30.7324 16.3252 30.7324 16.7354H27.3193C27.3193 16.1006 27.4463 15.4902 27.7002 14.9043C27.9639 14.3184 28.3398 13.7959 28.8281 13.3369C29.3164 12.8779 29.9072 12.5166 30.6006 12.2529C31.2939 11.9893 32.0654 11.8574 32.915 11.8574C33.9307 11.8574 34.834 12.0283 35.625 12.3701C36.416 12.7021 37.0361 13.2441 37.4854 13.9961C37.9443 14.7383 38.1738 15.7148 38.1738 16.9258V24.3232C38.1738 25.0557 38.2178 25.71 38.3057 26.2861C38.4033 26.8525 38.5352 27.3457 38.7012 27.7656V28H35.2295C35.0732 27.6191 34.9561 27.1309 34.8779 26.5352C34.7998 25.9395 34.7607 25.3535 34.7607 24.7773ZM35.2148 18.3467L35.2295 20.5586H33.5889C33.1006 20.5586 32.6611 20.627 32.2705 20.7637C31.8799 20.8906 31.5479 21.0762 31.2744 21.3203C31.0107 21.5547 30.8057 21.8428 30.6592 22.1846C30.5225 22.5264 30.4541 22.9023 30.4541 23.3125C30.4541 23.8105 30.5225 24.2158 30.6592 24.5283C30.8057 24.8408 31.0156 25.0752 31.2891 25.2314C31.5723 25.3779 31.9141 25.4512 32.3145 25.4512C32.8613 25.4512 33.335 25.334 33.7354 25.0996C34.1455 24.8555 34.458 24.5625 34.6729 24.2207C34.8975 23.8789 34.9854 23.5664 34.9365 23.2832L35.7129 24.7041C35.6348 25.0752 35.4883 25.4658 35.2734 25.876C35.0684 26.2861 34.7998 26.6768 34.4678 27.0479C34.1357 27.4189 33.7354 27.7217 33.2666 27.9561C32.7979 28.1807 32.2559 28.293 31.6406 28.293C30.752 28.293 29.9609 28.1074 29.2676 27.7363C28.5742 27.3652 28.0273 26.833 27.627 26.1396C27.2363 25.4365 27.041 24.5967 27.041 23.6201C27.041 22.8291 27.1729 22.1113 27.4365 21.4668C27.7002 20.8223 28.0908 20.2705 28.6084 19.8115C29.126 19.3428 29.7754 18.9814 30.5566 18.7275C31.3477 18.4736 32.2705 18.3467 33.3252 18.3467H35.2148ZM49.0137 23.8252C49.0137 23.4932 48.916 23.2002 48.7207 22.9463C48.5352 22.6826 48.2324 22.4238 47.8125 22.1699C47.3926 21.916 46.8311 21.6426 46.1279 21.3496C45.3955 21.0469 44.7461 20.7441 44.1797 20.4414C43.6133 20.1387 43.1348 19.8066 42.7441 19.4453C42.3535 19.0742 42.0557 18.6494 41.8506 18.1709C41.6455 17.6924 41.543 17.1357 41.543 16.501C41.543 15.8467 41.665 15.2412 41.9092 14.6846C42.1533 14.1279 42.5049 13.6396 42.9639 13.2197C43.4229 12.79 43.9746 12.458 44.6191 12.2236C45.2637 11.9795 45.9912 11.8574 46.8018 11.8574C47.9443 11.8574 48.9209 12.0674 49.7314 12.4873C50.5518 12.8975 51.1768 13.4736 51.6064 14.2158C52.0459 14.9482 52.2656 15.793 52.2656 16.75H48.8525C48.8525 16.3496 48.7793 15.9883 48.6328 15.666C48.4863 15.334 48.2617 15.0703 47.959 14.875C47.6562 14.6699 47.2705 14.5674 46.8018 14.5674C46.3721 14.5674 46.0107 14.6504 45.7178 14.8164C45.4346 14.9727 45.2197 15.1875 45.0732 15.4609C44.9365 15.7246 44.8682 16.0225 44.8682 16.3545C44.8682 16.5986 44.9121 16.8135 45 16.999C45.0879 17.1846 45.2344 17.3652 45.4395 17.541C45.6445 17.707 45.918 17.8779 46.2598 18.0537C46.6113 18.2295 47.0557 18.4297 47.5928 18.6543C48.6572 19.0645 49.541 19.4893 50.2441 19.9287C50.9473 20.3682 51.4746 20.8809 51.8262 21.4668C52.1777 22.0527 52.3535 22.7803 52.3535 23.6494C52.3535 24.3525 52.2217 24.9873 51.958 25.5537C51.7041 26.1201 51.333 26.6084 50.8447 27.0186C50.3662 27.4287 49.7852 27.7461 49.1016 27.9707C48.4277 28.1855 47.6758 28.293 46.8457 28.293C45.6055 28.293 44.5557 28.0488 43.6963 27.5605C42.8467 27.0625 42.2021 26.4229 41.7627 25.6416C41.3232 24.8604 41.1035 24.0352 41.1035 23.166H44.3994C44.4287 23.791 44.5605 24.2793 44.7949 24.6309C45.0391 24.9824 45.3467 25.2266 45.7178 25.3633C46.0889 25.4902 46.4746 25.5537 46.875 25.5537C47.3535 25.5537 47.749 25.4902 48.0615 25.3633C48.374 25.2266 48.6084 25.0264 48.7646 24.7627C48.9307 24.499 49.0137 24.1865 49.0137 23.8252ZM58.9453 12.1504V28H55.5322V12.1504H58.9453ZM55.3564 8.00488C55.3564 7.45801 55.5225 7.00391 55.8545 6.64258C56.1865 6.27148 56.6504 6.08594 57.2461 6.08594C57.8418 6.08594 58.3057 6.27148 58.6377 6.64258C58.9697 7.00391 59.1357 7.45801 59.1357 8.00488C59.1357 8.53223 58.9697 8.97656 58.6377 9.33789C58.3057 9.69922 57.8418 9.87988 57.2461 9.87988C56.6504 9.87988 56.1865 9.69922 55.8545 9.33789C55.5225 8.97656 55.3564 8.53223 55.3564 8.00488ZM66.2109 5.5V28H62.7979V5.5H66.2109Z" fill="#347BB7"/>
<path d="M86.2207 22.4922C86.2207 22.0527 86.1719 21.6621 86.0742 21.3203C85.9863 20.9688 85.8154 20.6514 85.5615 20.3682C85.3076 20.085 84.9463 19.8066 84.4775 19.5332C84.0186 19.2598 83.4229 18.9814 82.6904 18.6982C81.8506 18.376 81.0645 18.0244 80.332 17.6436C79.6094 17.2529 78.9697 16.8135 78.4131 16.3252C77.8662 15.8271 77.4365 15.2461 77.124 14.582C76.8115 13.918 76.6553 13.1465 76.6553 12.2676C76.6553 11.3984 76.8066 10.6074 77.1094 9.89453C77.4219 9.17188 77.8613 8.55176 78.4277 8.03418C79.0039 7.50684 79.6875 7.10156 80.4785 6.81836C81.2695 6.52539 82.1436 6.37891 83.1006 6.37891C84.4775 6.37891 85.6543 6.67188 86.6309 7.25781C87.6172 7.84375 88.3691 8.62988 88.8867 9.61621C89.4141 10.6025 89.6777 11.6963 89.6777 12.8975H86.1328C86.1328 12.2041 86.0254 11.5889 85.8105 11.0518C85.5957 10.5146 85.2637 10.0947 84.8145 9.79199C84.3652 9.48926 83.7842 9.33789 83.0713 9.33789C82.417 9.33789 81.875 9.46484 81.4453 9.71875C81.0254 9.97266 80.7129 10.3193 80.5078 10.7588C80.3125 11.1982 80.2148 11.7012 80.2148 12.2676C80.2148 12.6582 80.2979 13.0146 80.4639 13.3369C80.6299 13.6494 80.8691 13.9375 81.1816 14.2012C81.4941 14.4648 81.875 14.7139 82.3242 14.9482C82.7734 15.1826 83.291 15.4072 83.877 15.6221C84.873 15.9834 85.7422 16.3838 86.4844 16.8232C87.2266 17.2627 87.8369 17.7559 88.3154 18.3027C88.8037 18.8398 89.165 19.4502 89.3994 20.1338C89.6436 20.8174 89.7656 21.5938 89.7656 22.4629C89.7656 23.3418 89.6143 24.1426 89.3115 24.8652C89.0186 25.5781 88.5889 26.1885 88.0225 26.6963C87.4561 27.2041 86.7725 27.5996 85.9717 27.8828C85.1709 28.1562 84.2725 28.293 83.2764 28.293C82.3584 28.293 81.4746 28.1562 80.625 27.8828C79.7852 27.6094 79.0332 27.1943 78.3691 26.6377C77.7051 26.0713 77.1777 25.3633 76.7871 24.5137C76.4062 23.6641 76.2158 22.668 76.2158 21.5254H79.7754C79.7754 22.209 79.8584 22.7949 80.0244 23.2832C80.1904 23.7617 80.4297 24.1572 80.7422 24.4697C81.0645 24.7725 81.4404 24.9971 81.8701 25.1436C82.3096 25.2803 82.7979 25.3486 83.335 25.3486C83.999 25.3486 84.541 25.2314 84.9609 24.9971C85.3906 24.7529 85.708 24.416 85.9131 23.9863C86.1182 23.5566 86.2207 23.0586 86.2207 22.4922ZM99.082 12.1504V14.7871H91.3037V12.1504H99.082ZM93.4277 8.26855H96.8262V23.5762C96.8262 24.0645 96.8799 24.4355 96.9873 24.6895C97.0947 24.9434 97.2461 25.1143 97.4414 25.2021C97.6367 25.29 97.8662 25.334 98.1299 25.334C98.3252 25.334 98.5156 25.3193 98.7012 25.29C98.8965 25.251 99.0381 25.2168 99.126 25.1875V27.9414C98.8721 28.0391 98.5791 28.1221 98.2471 28.1904C97.915 28.2588 97.5146 28.293 97.0459 28.293C96.3525 28.293 95.7324 28.1514 95.1855 27.8682C94.6387 27.5752 94.209 27.1016 93.8965 26.4473C93.584 25.7832 93.4277 24.9043 93.4277 23.8105V8.26855ZM109.556 24.2646V12.1504H112.969V28H109.746L109.556 24.2646ZM110.039 20.9541L111.123 20.9248C111.123 21.9893 111.025 22.9707 110.83 23.8691C110.635 24.7676 110.332 25.5488 109.922 26.2129C109.521 26.8672 108.999 27.3799 108.354 27.751C107.72 28.1123 106.958 28.293 106.069 28.293C105.415 28.293 104.814 28.1807 104.268 27.9561C103.73 27.7314 103.267 27.3848 102.876 26.916C102.495 26.4473 102.197 25.8369 101.982 25.085C101.768 24.333 101.66 23.4346 101.66 22.3896V12.1504H105.073V22.4189C105.073 22.9854 105.122 23.459 105.22 23.8398C105.317 24.2109 105.454 24.5137 105.63 24.748C105.806 24.9727 106.001 25.1338 106.216 25.2314C106.44 25.3193 106.68 25.3633 106.934 25.3633C107.705 25.3633 108.315 25.1729 108.765 24.792C109.224 24.4014 109.551 23.874 109.746 23.21C109.941 22.5459 110.039 21.7939 110.039 20.9541ZM124.351 24.6895V5.5H127.764V28L124.673 28.0146L124.351 24.6895ZM115.84 20.7197V19.4746C115.84 18.1758 115.957 17.0527 116.191 16.1055C116.426 15.1484 116.768 14.3525 117.217 13.7178C117.676 13.083 118.228 12.6143 118.872 12.3115C119.517 12.0088 120.244 11.8574 121.055 11.8574C121.846 11.8574 122.529 12.0381 123.105 12.3994C123.682 12.751 124.17 13.2539 124.57 13.9082C124.971 14.5625 125.288 15.3438 125.522 16.252C125.767 17.1504 125.933 18.1562 126.021 19.2695V20.998C125.913 22.0723 125.742 23.0586 125.508 23.957C125.273 24.8457 124.956 25.6123 124.556 26.2568C124.155 26.9014 123.662 27.4043 123.076 27.7656C122.5 28.1172 121.821 28.293 121.04 28.293C120.229 28.293 119.502 28.1318 118.857 27.8096C118.223 27.4873 117.676 27.0088 117.217 26.374C116.768 25.7393 116.426 24.9531 116.191 24.0156C115.957 23.0684 115.84 21.9697 115.84 20.7197ZM119.253 19.4746V20.7197C119.253 21.5303 119.302 22.2285 119.399 22.8145C119.497 23.4004 119.653 23.8838 119.868 24.2646C120.083 24.6357 120.366 24.9141 120.718 25.0996C121.069 25.2754 121.494 25.3633 121.992 25.3633C122.617 25.3633 123.125 25.207 123.516 24.8945C123.916 24.582 124.224 24.1621 124.438 23.6348C124.663 23.0977 124.819 22.502 124.907 21.8477V18.4346C124.858 17.917 124.761 17.4385 124.614 16.999C124.468 16.5498 124.277 16.1592 124.043 15.8271C123.809 15.4951 123.521 15.2363 123.179 15.0508C122.847 14.8555 122.456 14.7578 122.007 14.7578C121.509 14.7578 121.084 14.8555 120.732 15.0508C120.381 15.2363 120.098 15.5244 119.883 15.915C119.668 16.2959 119.507 16.7842 119.399 17.3799C119.302 17.9658 119.253 18.6641 119.253 19.4746ZM137.329 28.293C136.304 28.293 135.391 28.1416 134.59 27.8389C133.789 27.5264 133.11 27.0674 132.554 26.4619C131.997 25.8467 131.572 25.0947 131.279 24.2061C130.986 23.3076 130.84 22.2676 130.84 21.0859V19.5625C130.84 18.2246 130.991 17.0723 131.294 16.1055C131.606 15.1289 132.036 14.3281 132.583 13.7031C133.13 13.0781 133.774 12.6143 134.517 12.3115C135.269 12.0088 136.084 11.8574 136.963 11.8574C137.959 11.8574 138.823 12.0186 139.556 12.3408C140.288 12.6631 140.889 13.1465 141.357 13.791C141.836 14.4355 142.188 15.2314 142.412 16.1787C142.646 17.126 142.764 18.2148 142.764 19.4453V21.1592H132.48V18.5811H139.395V18.2148C139.375 17.4922 139.287 16.8721 139.131 16.3545C138.975 15.8271 138.721 15.4268 138.369 15.1533C138.027 14.8701 137.554 14.7285 136.948 14.7285C136.509 14.7285 136.118 14.8115 135.776 14.9775C135.435 15.1436 135.151 15.4121 134.927 15.7832C134.712 16.1543 134.546 16.6523 134.429 17.2773C134.312 17.8926 134.253 18.6543 134.253 19.5625V21.0859C134.253 21.877 134.321 22.5459 134.458 23.0928C134.604 23.6396 134.819 24.0889 135.103 24.4404C135.386 24.7822 135.728 25.0361 136.128 25.2021C136.538 25.3584 137.012 25.4365 137.549 25.4365C138.34 25.4365 139.019 25.29 139.585 24.9971C140.161 24.6943 140.659 24.3037 141.079 23.8252L142.588 25.9199C142.305 26.3008 141.924 26.6768 141.445 27.0479C140.967 27.4092 140.386 27.707 139.702 27.9414C139.028 28.1758 138.237 28.293 137.329 28.293ZM148.872 15.5342V28H145.459V12.1504H148.667L148.872 15.5342ZM148.257 19.5039H147.173C147.163 18.3613 147.285 17.3213 147.539 16.3838C147.793 15.4463 148.154 14.6406 148.623 13.9668C149.102 13.293 149.668 12.7754 150.322 12.4141C150.986 12.043 151.724 11.8574 152.534 11.8574C153.159 11.8574 153.73 11.9648 154.248 12.1797C154.775 12.3848 155.225 12.7217 155.596 13.1904C155.967 13.6592 156.25 14.2695 156.445 15.0215C156.65 15.7734 156.753 16.6914 156.753 17.7754V28H153.34V17.7461C153.34 17.0039 153.257 16.418 153.091 15.9883C152.935 15.5488 152.7 15.2363 152.388 15.0508C152.075 14.8555 151.68 14.7578 151.201 14.7578C150.762 14.7578 150.356 14.8848 149.985 15.1387C149.624 15.3828 149.312 15.7246 149.048 16.1641C148.794 16.5938 148.599 17.0967 148.462 17.6729C148.325 18.2393 148.257 18.8496 148.257 19.5039ZM166.582 12.1504V14.7871H158.804V12.1504H166.582ZM160.928 8.26855H164.326V23.5762C164.326 24.0645 164.38 24.4355 164.487 24.6895C164.595 24.9434 164.746 25.1143 164.941 25.2021C165.137 25.29 165.366 25.334 165.63 25.334C165.825 25.334 166.016 25.3193 166.201 25.29C166.396 25.251 166.538 25.2168 166.626 25.1875V27.9414C166.372 28.0391 166.079 28.1221 165.747 28.1904C165.415 28.2588 165.015 28.293 164.546 28.293C163.853 28.293 163.232 28.1514 162.686 27.8682C162.139 27.5752 161.709 27.1016 161.396 26.4473C161.084 25.7832 160.928 24.9043 160.928 23.8105V8.26855Z" fill="#88C742"/>
<path d="M184.35 9H178.65V15.6463H172V21.3537H178.65V28H184.35V21.3537H191V15.6463H184.35V9Z" fill="#666666"/>
</svg>
