<svg width="18" height="20" viewBox="0 0 18 20" fill="none" xmlns="http://www.w3.org/2000/svg">
<path d="M4 9.00098H6V11.001H4V9.00098ZM4 13.001H6V15.001H4V13.001ZM8 9.00098H10V11.001H8V9.00098ZM8 13.001H10V15.001H8V13.001ZM12 9.00098H14V11.001H12V9.00098ZM12 13.001H14V15.001H12V13.001Z" fill="#666666"/>
<path d="M2 20.001H16C17.103 20.001 18 19.104 18 18.001V4.00098C18 2.89798 17.103 2.00098 16 2.00098H14V0.000976562H12V2.00098H6V0.000976562H4V2.00098H2C0.897 2.00098 0 2.89798 0 4.00098V18.001C0 19.104 0.897 20.001 2 20.001ZM16 6.00098L16.001 18.001H2V6.00098H16Z" fill="#666666"/>
</svg>
