<svg width="23" height="23" viewBox="0 0 23 23" fill="none" xmlns="http://www.w3.org/2000/svg">
<path d="M4.3125 5.27051H18.6875V6.70801H4.3125V5.27051Z" fill="#424242"/>
<path d="M1.91699 11.9788H21.0837V8.62467C21.0837 7.57051 20.2212 6.70801 19.167 6.70801H3.83366C2.77949 6.70801 1.91699 7.57051 1.91699 8.62467V11.9788Z" fill="#616161"/>
<path d="M3.83366 17.25H19.167C20.2212 17.25 21.0837 16.3875 21.0837 15.3333V11.5H1.91699V15.3333C1.91699 16.3875 2.77949 17.25 3.83366 17.25Z" fill="#424242"/>
<path d="M19.1667 9.10384C19.4313 9.10384 19.6458 8.88931 19.6458 8.62467C19.6458 8.36004 19.4313 8.14551 19.1667 8.14551C18.902 8.14551 18.6875 8.36004 18.6875 8.62467C18.6875 8.88931 18.902 9.10384 19.1667 9.10384Z" fill="#00E676"/>
<path d="M5.27051 1.91699H17.7288V6.70866H5.27051V1.91699Z" fill="#90CAF9"/>
<path d="M17.9688 14.8545H5.03125C4.64792 14.8545 4.3125 14.5191 4.3125 14.1357C4.3125 13.7524 4.64792 13.417 5.03125 13.417H17.9688C18.3521 13.417 18.6875 13.7524 18.6875 14.1357C18.6875 14.5191 18.3521 14.8545 17.9688 14.8545Z" fill="#242424"/>
<path d="M5.27051 14.8545H17.7288V20.1253H5.27051V14.8545Z" fill="#90CAF9"/>
<path d="M5.27051 13.8955H17.7288V14.8538H5.27051V13.8955Z" fill="#42A5F5"/>
<path d="M7.66699 15.8125H15.8128V16.7708H7.66699V15.8125ZM7.66699 17.7292H13.8962V18.6875H7.66699V17.7292Z" fill="#1976D2"/>
</svg>
