<svg width="43" height="43" viewBox="0 0 43 43" fill="none" xmlns="http://www.w3.org/2000/svg">
<path d="M26.3172 23.3846V25.5086C26.3172 26.0486 26.536 26.5692 26.9271 26.9514C27.3167 27.3349 27.9774 27.5495 28.5294 27.5495H13C13.552 27.5495 14.2127 27.3349 14.6024 26.9514C14.7959 26.7621 14.9493 26.5372 15.054 26.2897C15.1587 26.0421 15.2124 25.7766 15.2122 25.5086V20.5226C15.2122 19.0783 15.7972 17.6932 16.8385 16.6719C17.8798 15.6507 19.2921 15.0769 20.7647 15.0769M19.3529 31H22.1765M27.4706 19.9231C28.4066 19.9231 29.3044 19.5584 29.9663 18.9092C30.6282 18.2601 31 17.3796 31 16.4615C31 15.5435 30.6282 14.663 29.9663 14.0139C29.3044 13.3647 28.4066 13 27.4706 13C26.5345 13 25.6368 13.3647 24.9749 14.0139C24.313 14.663 23.9412 15.5435 23.9412 16.4615C23.9412 17.3796 24.313 18.2601 24.9749 18.9092C25.6368 19.5584 26.5345 19.9231 27.4706 19.9231Z" stroke="#666666" stroke-width="2" stroke-linecap="round" stroke-linejoin="round"/>
<circle cx="21.5" cy="21.5" r="21" stroke="#666666"/>
</svg>
