<svg width="43" height="43" viewBox="0 0 43 43" fill="none" xmlns="http://www.w3.org/2000/svg">
<path d="M21.5006 22.1741C21.947 22.1741 22.3088 21.8122 22.3088 21.3658C22.3088 20.9195 21.947 20.5576 21.5006 20.5576C21.0542 20.5576 20.6924 20.9195 20.6924 21.3658C20.6924 21.8122 21.0542 22.1741 21.5006 22.1741Z" stroke="#666666" stroke-width="2" stroke-linecap="round" stroke-linejoin="round"/>
<path d="M21.5002 25.8842C23.9959 25.8842 26.019 23.8611 26.019 21.3654C26.019 18.8698 23.9959 16.8467 21.5002 16.8467C19.0046 16.8467 16.9814 18.8698 16.9814 21.3654C16.9814 23.8611 19.0046 25.8842 21.5002 25.8842Z" stroke="#666666" stroke-width="2" stroke-linecap="round" stroke-linejoin="round"/>
<path d="M21.5 28.8682C26.2923 28.8682 32 24.4635 32 21.3652C32 18.2669 26.2923 13.8623 21.5 13.8623M21.5 28.8682C16.7077 28.8682 11 24.4635 11 21.3652C11 18.2669 16.7077 13.8623 21.5 13.8623" stroke="#666666" stroke-width="2" stroke-linecap="round" stroke-linejoin="round"/>
<circle cx="21.5" cy="21.5" r="21" stroke="#666666"/>
</svg>
