<svg width="27" height="25" viewBox="0 0 27 25" fill="none" xmlns="http://www.w3.org/2000/svg">
<path d="M22.7688 24.7789C22.8494 24.8887 22.971 24.9642 23.1081 24.9894C23.2451 25.0147 23.387 24.9878 23.5039 24.9143C23.6209 24.8409 23.7038 24.7266 23.7354 24.5955C23.767 24.4643 23.7447 24.3265 23.6733 24.2108M22.7688 24.7789L22.8247 24.7411C22.8313 24.7508 22.8379 24.7606 22.8445 24.7704L23.1916 24.536L23.2441 24.5006L23.2696 24.4833L23.6733 24.2108M22.7688 24.7789C20.633 21.6179 17.2538 19.8042 13.5006 19.8042C9.74744 19.8042 6.36824 21.6179 4.23244 24.7802L4.17806 24.7402C5.77001 22.4078 8.01037 20.8235 10.5738 20.1427L12.3237 19.678C12.7132 19.734 13.1065 19.7622 13.5006 19.7622C13.8553 19.7622 14.2107 19.7394 14.5642 19.6935C14.6031 19.6885 14.6419 19.6831 14.6806 19.6776L16.4274 20.1414C18.9925 20.8226 21.2388 22.4079 22.8232 24.7389L22.7688 24.7789ZM23.6733 24.2108L23.2424 24.4768L23.2328 24.4827L23.1974 24.5045L22.9351 24.6665L23.2007 24.487L23.2228 24.4721L23.2252 24.4705L23.5974 24.219C22.1716 22.109 20.2282 20.5462 17.9912 19.6557C18.0095 19.6456 18.0278 19.6355 18.046 19.6253C20.29 20.5199 22.2392 22.0868 23.6733 24.2108ZM20.6001 11.9866C20.6001 11.5619 20.5587 11.1369 20.4759 10.7171C20.2769 9.70959 19.8434 8.75614 19.2053 7.92901L18.967 7.62003L18.9558 7.6055L18.8961 7.62467L13.8068 9.2617L13.658 9.30958L13.6577 9.30966L13.5006 9.3602L13.3435 9.30966L13.3432 9.30958L13.1944 9.2617L8.10507 7.62467L20.6001 11.9866ZM20.6001 11.9866L20.5209 11.9866M20.6001 11.9866L14.7975 18.8716L16.3026 18.2505C16.7491 18.0663 17.1728 17.8394 17.5677 17.5742C18.0487 17.2514 18.4872 16.8718 18.8724 16.4437C19.232 16.0441 19.5404 15.6075 19.793 15.1434C20.0331 14.7021 20.2226 14.236 20.3576 13.753C20.5191 13.1751 20.6001 12.5812 20.6001 11.9867L20.5209 11.9866M20.5209 11.9866C20.521 13.0738 20.2499 14.145 19.7307 15.1098C19.2114 16.0746 18.4593 16.9047 17.5376 17.5299C16.616 18.1551 15.5521 18.557 14.4356 18.7018C13.3191 18.8466 12.183 18.73 11.123 18.3618C10.0631 17.9936 9.11053 17.3846 8.3458 16.5863C7.58107 15.7881 7.02661 14.8239 6.72927 13.7753C6.43192 12.7266 6.40042 11.6244 6.63741 10.5615C6.87441 9.49865 7.37294 8.50645 8.09091 7.66869L13.3292 9.35339C13.4403 9.38983 13.5609 9.38983 13.6721 9.35339L18.9103 7.66869C19.9528 8.88253 20.5226 10.41 20.5209 11.9866ZM3.7304 24.4849L3.75664 24.5027L3.3279 24.2121L3.7304 24.4849ZM16.6726 19.2182C16.6279 19.2062 16.5831 19.1945 16.5383 19.183L16.6841 19.1749L16.7056 19.2271C16.6946 19.2241 16.6836 19.2211 16.6726 19.2182ZM23.1955 24.4655L22.8518 24.7179L22.8224 24.7361C22.755 24.6269 22.7318 24.4917 22.7632 24.3614C22.7632 24.3614 22.7632 24.3614 22.7632 24.3614C22.7943 24.232 22.8737 24.1293 22.9721 24.0675C23.0695 24.0063 23.1825 23.9863 23.2893 24.006C23.3966 24.0258 23.501 24.0865 23.5748 24.187L23.2137 24.4522L23.2061 24.4578L23.1955 24.4655ZM0.101842 4.38596L0.131853 4.40836L0.101842 4.38596Z" fill="#666666" stroke="#666666" stroke-width="2"/>
</svg>
