<svg width="29" height="29" viewBox="0 0 29 29" fill="none" xmlns="http://www.w3.org/2000/svg">
<path d="M26.5832 14.5003C26.5825 11.2958 25.3093 8.22275 23.0433 5.95683C20.7774 3.6909 17.7043 2.41763 14.4998 2.41699V4.83366C16.4115 4.83409 18.2802 5.40113 19.8698 6.46314C21.4593 7.52515 22.6985 9.03447 23.4306 10.8004C23.9165 11.9734 24.1666 13.2307 24.1665 14.5003H26.5832ZM2.4165 12.0837V6.04199C2.4165 5.72152 2.54381 5.41418 2.77042 5.18757C2.99702 4.96097 3.30437 4.83366 3.62484 4.83366H9.6665C9.98697 4.83366 10.2943 4.96097 10.5209 5.18757C10.7475 5.41418 10.8748 5.72152 10.8748 6.04199V10.8753C10.8748 11.1958 10.7475 11.5031 10.5209 11.7297C10.2943 11.9564 9.98697 12.0837 9.6665 12.0837H7.24984C7.24984 14.6474 8.26829 17.1062 10.0811 18.919C11.894 20.7319 14.3527 21.7503 16.9165 21.7503V19.3337C16.9165 19.0132 17.0438 18.7058 17.2704 18.4792C17.497 18.2526 17.8044 18.1253 18.1248 18.1253H22.9582C23.2786 18.1253 23.586 18.2526 23.8126 18.4792C24.0392 18.7058 24.1665 19.0132 24.1665 19.3337V25.3753C24.1665 25.6958 24.0392 26.0031 23.8126 26.2297C23.586 26.4564 23.2786 26.5837 22.9582 26.5837H16.9165C8.90888 26.5837 2.4165 20.0913 2.4165 12.0837Z" fill="#666666"/>
<path d="M21.1978 11.7257C21.5625 12.6051 21.7502 13.5479 21.75 14.5H19.575C19.5752 13.8335 19.444 13.1735 19.189 12.5577C18.934 11.9419 18.5602 11.3824 18.0889 10.9111C17.6176 10.4398 17.0581 10.066 16.4423 9.81099C15.8265 9.556 15.1665 9.42484 14.5 9.425V7.25C15.9339 7.25008 17.3355 7.67533 18.5277 8.47199C19.7199 9.26865 20.6491 10.4009 21.1978 11.7257Z" fill="#666666"/>
</svg>
