<svg width="28" height="25" viewBox="0 0 28 25" fill="none" xmlns="http://www.w3.org/2000/svg">
<mask id="path-1-inside-1_395_36" fill="white">
<path d="M1.29167 17.5537L5.92875 12.9167H18.0833C18.7685 12.9167 19.4256 12.6445 19.91 12.16C20.3945 11.6756 20.6667 11.0185 20.6667 10.3333V3.875C20.6667 3.18986 20.3945 2.53278 19.91 2.04831C19.4256 1.56384 18.7685 1.29167 18.0833 1.29167H3.875C3.18986 1.29167 2.53278 1.56384 2.04831 2.04831C1.56384 2.53278 1.29167 3.18986 1.29167 3.875V17.5537ZM1.29167 19.375H0V3.875C0 2.84729 0.408258 1.86166 1.13496 1.13496C1.86166 0.408258 2.84729 0 3.875 0H18.0833C19.111 0 20.0967 0.408258 20.8234 1.13496C21.5501 1.86166 21.9583 2.84729 21.9583 3.875V10.3333C21.9583 11.361 21.5501 12.3467 20.8234 13.0734C20.0967 13.8001 19.111 14.2083 18.0833 14.2083H6.45833L1.29167 19.375ZM25.8333 22.7204V9.04167C25.8333 8.35652 25.5612 7.69944 25.0767 7.21497C24.5922 6.73051 23.9351 6.45833 23.25 6.45833V5.16667C24.2777 5.16667 25.2633 5.57492 25.99 6.30163C26.7167 7.02833 27.125 8.01395 27.125 9.04167V24.5417H25.8333L20.6667 19.375H9.04167C7.44 19.375 6.07083 18.4062 5.47667 17.0242L6.51 15.9908C6.72958 17.1792 7.75 18.0833 9.04167 18.0833H21.1962L25.8333 22.7204Z"/>
</mask>
<path d="M1.29167 17.5537L5.92875 12.9167H18.0833C18.7685 12.9167 19.4256 12.6445 19.91 12.16C20.3945 11.6756 20.6667 11.0185 20.6667 10.3333V3.875C20.6667 3.18986 20.3945 2.53278 19.91 2.04831C19.4256 1.56384 18.7685 1.29167 18.0833 1.29167H3.875C3.18986 1.29167 2.53278 1.56384 2.04831 2.04831C1.56384 2.53278 1.29167 3.18986 1.29167 3.875V17.5537ZM1.29167 19.375H0V3.875C0 2.84729 0.408258 1.86166 1.13496 1.13496C1.86166 0.408258 2.84729 0 3.875 0H18.0833C19.111 0 20.0967 0.408258 20.8234 1.13496C21.5501 1.86166 21.9583 2.84729 21.9583 3.875V10.3333C21.9583 11.361 21.5501 12.3467 20.8234 13.0734C20.0967 13.8001 19.111 14.2083 18.0833 14.2083H6.45833L1.29167 19.375ZM25.8333 22.7204V9.04167C25.8333 8.35652 25.5612 7.69944 25.0767 7.21497C24.5922 6.73051 23.9351 6.45833 23.25 6.45833V5.16667C24.2777 5.16667 25.2633 5.57492 25.99 6.30163C26.7167 7.02833 27.125 8.01395 27.125 9.04167V24.5417H25.8333L20.6667 19.375H9.04167C7.44 19.375 6.07083 18.4062 5.47667 17.0242L6.51 15.9908C6.72958 17.1792 7.75 18.0833 9.04167 18.0833H21.1962L25.8333 22.7204Z" fill="#666666"/>
<path d="M1.29167 17.5537H-0.708333V22.3822L2.70588 18.968L1.29167 17.5537ZM5.92875 12.9167V10.9167H5.10032L4.51454 11.5025L5.92875 12.9167ZM18.0833 1.29167V-0.708333V1.29167ZM3.875 1.29167L3.875 -0.708333L3.875 1.29167ZM1.29167 3.875H-0.708333H1.29167ZM1.29167 19.375V21.375H2.12009L2.70588 20.7892L1.29167 19.375ZM0 19.375H-2V21.375H0V19.375ZM0 3.875H-2H0ZM3.875 0L3.875 -2L3.875 0ZM21.9583 3.875L23.9583 3.875L21.9583 3.875ZM21.9583 10.3333H23.9583H21.9583ZM6.45833 14.2083V12.2083H5.62991L5.04412 12.7941L6.45833 14.2083ZM25.8333 22.7204L24.4191 24.1346L27.8333 27.5488V22.7204H25.8333ZM23.25 6.45833H21.25V8.45833H23.25V6.45833ZM23.25 5.16667V3.16667H21.25V5.16667H23.25ZM27.125 9.04167H29.125H27.125ZM27.125 24.5417V26.5417H29.125V24.5417H27.125ZM25.8333 24.5417L24.4191 25.9559L25.0049 26.5417H25.8333V24.5417ZM20.6667 19.375L22.0809 17.9608L21.4951 17.375H20.6667V19.375ZM5.47667 17.0242L4.06245 15.61L3.10382 16.5686L3.63927 17.8141L5.47667 17.0242ZM6.51 15.9908L8.47671 15.6274L7.78552 11.8869L5.09579 14.5766L6.51 15.9908ZM21.1962 18.0833L22.6105 16.6691L22.0247 16.0833H21.1962V18.0833ZM2.70588 18.968L7.34296 14.3309L4.51454 11.5025L-0.122547 16.1395L2.70588 18.968ZM5.92875 14.9167H18.0833V10.9167H5.92875V14.9167ZM18.0833 14.9167C19.2989 14.9167 20.4647 14.4338 21.3242 13.5742L18.4958 10.7458C18.3864 10.8552 18.238 10.9167 18.0833 10.9167V14.9167ZM21.3242 13.5742C22.1838 12.7147 22.6667 11.5489 22.6667 10.3333H18.6667C18.6667 10.488 18.6052 10.6364 18.4958 10.7458L21.3242 13.5742ZM22.6667 10.3333V3.875H18.6667V10.3333H22.6667ZM22.6667 3.875C22.6667 2.65942 22.1838 1.49363 21.3242 0.634094L18.4958 3.46252C18.6052 3.57192 18.6667 3.72029 18.6667 3.875H22.6667ZM21.3242 0.634094C20.4647 -0.225448 19.2989 -0.708333 18.0833 -0.708333V3.29167C18.238 3.29167 18.3864 3.35312 18.4958 3.46252L21.3242 0.634094ZM18.0833 -0.708333H3.875V3.29167H18.0833V-0.708333ZM3.875 -0.708333C2.65942 -0.708333 1.49364 -0.225448 0.634094 0.634094L3.46252 3.46252C3.57192 3.35312 3.72029 3.29167 3.875 3.29167L3.875 -0.708333ZM0.634094 0.634094C-0.225448 1.49364 -0.708333 2.65942 -0.708333 3.875L3.29167 3.875C3.29167 3.72029 3.35312 3.57192 3.46252 3.46252L0.634094 0.634094ZM-0.708333 3.875V17.5537H3.29167V3.875H-0.708333ZM1.29167 17.375H0V21.375H1.29167V17.375ZM2 19.375V3.875H-2V19.375H2ZM2 3.875C2 3.37772 2.19754 2.90081 2.54917 2.54917L-0.279252 -0.279252C-1.38103 0.822524 -2 2.31685 -2 3.875L2 3.875ZM2.54917 2.54917C2.90081 2.19754 3.37772 2 3.875 2L3.875 -2C2.31685 -2 0.822524 -1.38103 -0.279252 -0.279252L2.54917 2.54917ZM3.875 2H18.0833V-2H3.875V2ZM18.0833 2C18.5806 2 19.0575 2.19754 19.4092 2.54917L22.2376 -0.279252C21.1358 -1.38103 19.6415 -2 18.0833 -2V2ZM19.4092 2.54917C19.7608 2.90081 19.9583 3.37772 19.9583 3.875L23.9583 3.875C23.9583 2.31685 23.3394 0.822524 22.2376 -0.279252L19.4092 2.54917ZM19.9583 3.875V10.3333H23.9583V3.875H19.9583ZM19.9583 10.3333C19.9583 10.8306 19.7608 11.3075 19.4092 11.6592L22.2376 14.4876C23.3394 13.3858 23.9583 11.8915 23.9583 10.3333H19.9583ZM19.4092 11.6592C19.0575 12.0108 18.5806 12.2083 18.0833 12.2083V16.2083C19.6415 16.2083 21.1358 15.5894 22.2376 14.4876L19.4092 11.6592ZM18.0833 12.2083H6.45833V16.2083H18.0833V12.2083ZM5.04412 12.7941L-0.122547 17.9608L2.70588 20.7892L7.87255 15.6225L5.04412 12.7941ZM27.8333 22.7204V9.04167H23.8333V22.7204H27.8333ZM27.8333 9.04167C27.8333 7.82609 27.3504 6.6603 26.4909 5.80076L23.6625 8.62919C23.7719 8.73859 23.8333 8.88696 23.8333 9.04167H27.8333ZM26.4909 5.80076C25.6314 4.94122 24.4656 4.45833 23.25 4.45833V8.45833C23.4047 8.45833 23.5531 8.51979 23.6625 8.62919L26.4909 5.80076ZM25.25 6.45833V5.16667H21.25V6.45833H25.25ZM23.25 7.16667C23.7473 7.16667 24.2242 7.36421 24.5758 7.71584L27.4043 4.88741C26.3025 3.78564 24.8081 3.16667 23.25 3.16667V7.16667ZM24.5758 7.71584C24.9275 8.06747 25.125 8.54438 25.125 9.04167H29.125C29.125 7.48352 28.506 5.98919 27.4043 4.88741L24.5758 7.71584ZM25.125 9.04167V24.5417H29.125V9.04167H25.125ZM27.125 22.5417H25.8333V26.5417H27.125V22.5417ZM27.2475 23.1275L22.0809 17.9608L19.2525 20.7892L24.4191 25.9559L27.2475 23.1275ZM20.6667 17.375H9.04167V21.375H20.6667V17.375ZM9.04167 17.375C8.27039 17.375 7.60506 16.9111 7.31407 16.2343L3.63927 17.8141C4.53661 19.9014 6.60961 21.375 9.04167 21.375V17.375ZM6.89088 18.4384L7.92421 17.405L5.09579 14.5766L4.06245 15.61L6.89088 18.4384ZM4.54329 16.3542C4.93384 18.4678 6.76227 20.0833 9.04167 20.0833V16.0833C8.73773 16.0833 8.52532 15.8905 8.47671 15.6274L4.54329 16.3542ZM9.04167 20.0833H21.1962V16.0833H9.04167V20.0833ZM19.782 19.4975L24.4191 24.1346L27.2475 21.3062L22.6105 16.6691L19.782 19.4975Z" fill="#666666" mask="url(#path-1-inside-1_395_36)"/>
</svg>
