<svg width="25" height="25" viewBox="0 0 25 25" fill="none" xmlns="http://www.w3.org/2000/svg">
<path d="M19.25 12.5C18.376 11.7674 17.265 11.3786 16.125 11.4062H8.79686C8.46274 11.4147 8.13035 11.3556 7.8196 11.2326C7.50884 11.1095 7.2261 10.9251 6.98831 10.6902C6.75052 10.4553 6.56257 10.1749 6.43571 9.86567C6.30884 9.55646 6.24568 9.22482 6.24999 8.89062C6.24184 8.76054 6.24184 8.63008 6.24999 8.5C6.34851 7.90282 6.66165 7.36215 7.1306 6.97951C7.59955 6.59686 8.19206 6.39858 8.79686 6.42188H16.0156C16.6045 6.42136 17.1743 6.63001 17.6236 7.01063C18.0729 7.39125 18.3724 7.91908 18.4687 8.5H20.8125C20.7144 7.29521 20.1665 6.17146 19.2777 5.35217C18.3889 4.53289 17.2244 4.07806 16.0156 4.07812H13.5469V0.484375H11.5937V4.07812H8.79686C7.58808 4.07806 6.42355 4.53289 5.53478 5.35217C4.64601 6.17146 4.0981 7.29521 3.99999 8.5C3.99219 8.63009 3.99219 8.76053 3.99999 8.89062C3.99999 9.52056 4.12406 10.1443 4.36513 10.7263C4.60619 11.3083 4.95953 11.8371 5.40496 12.2825C6.30455 13.1821 7.52465 13.6875 8.79686 13.6875H16.2031C16.5346 13.6792 16.8644 13.7373 17.173 13.8584C17.4817 13.9795 17.763 14.1612 18.0004 14.3927C18.2377 14.6242 18.4263 14.9009 18.5551 15.2065C18.6838 15.512 18.7501 15.8403 18.75 16.1719C18.7662 16.3486 18.7662 16.5264 18.75 16.7031C18.6259 17.2529 18.3186 17.7441 17.8785 18.0962C17.4384 18.4483 16.8917 18.6403 16.3281 18.6406H8.98436C8.42077 18.6403 7.87404 18.4483 7.43395 18.0962C6.99385 17.7441 6.68655 17.2529 6.56249 16.7031H4.20311C4.33739 17.8771 4.8989 18.9607 5.78064 19.7473C6.66238 20.534 7.80272 20.9687 8.98436 20.9688H11.5937V24.5156H13.5469V20.9688H16.2031C17.3848 20.9687 18.5251 20.534 19.4068 19.7473C20.2886 18.9607 20.8501 17.8771 20.9844 16.7031V16.1719C20.9825 15.4701 20.8261 14.7773 20.5264 14.1427C20.2266 13.5081 19.7909 12.9472 19.25 12.5Z" fill="#666666"/>
</svg>
