<svg width="33" height="33" viewBox="0 0 33 33" fill="none" xmlns="http://www.w3.org/2000/svg">
<path fill-rule="evenodd" clip-rule="evenodd" d="M4.125 4.125H25.4375V7.5625H24.0625V5.5H5.5V21.3125H20.2036V22.6875H4.125V4.125ZM24.75 13.0625C25.297 13.0625 25.8216 12.8452 26.2084 12.4584C26.5952 12.0716 26.8125 11.547 26.8125 11C26.8125 10.453 26.5952 9.92839 26.2084 9.54159C25.8216 9.1548 25.297 8.9375 24.75 8.9375C24.203 8.9375 23.6784 9.1548 23.2916 9.54159C22.9048 9.92839 22.6875 10.453 22.6875 11C22.6875 11.547 22.9048 12.0716 23.2916 12.4584C23.6784 12.8452 24.203 13.0625 24.75 13.0625ZM26.1463 14.4444C27.0394 14.4444 27.7461 14.8459 28.2088 15.466C28.6412 16.0469 28.8241 16.7654 28.8654 17.4288C28.9062 18.1094 28.8135 18.7914 28.5924 19.4363C28.3862 20.0344 28.0376 20.6532 27.5 21.0774V27.8438C27.5005 28.1029 27.4034 28.3526 27.2281 28.5434C27.0528 28.7342 26.8122 28.8521 26.5539 28.8735C26.2957 28.8949 26.0389 28.8183 25.8346 28.6589C25.6303 28.4996 25.4934 28.2692 25.4513 28.0136L24.5644 22.6875H24.3595L23.3571 28.0335C23.3095 28.2858 23.1695 28.5113 22.9645 28.6658C22.7594 28.8204 22.5041 28.8929 22.2485 28.8692C21.9928 28.8454 21.7552 28.7272 21.5821 28.5376C21.409 28.3479 21.3129 28.1005 21.3125 27.8438V18.0352C21.175 18.2446 21.0393 18.4552 20.9055 18.667L20.8519 18.7516L20.8381 18.7736L20.8347 18.7798C20.742 18.9285 20.613 19.0512 20.4597 19.1363C20.3065 19.2213 20.1341 19.2659 19.9588 19.2658H16.5213C16.2478 19.2658 15.9855 19.1572 15.7921 18.9638C15.5987 18.7704 15.4901 18.5081 15.4901 18.2346C15.4901 17.9611 15.5987 17.6988 15.7921 17.5054C15.9855 17.312 16.2478 17.2033 16.5213 17.2033H19.393C19.5601 16.9448 19.7801 16.6093 20.0111 16.2724C20.2517 15.9211 20.5171 15.5492 20.7536 15.2577C20.8684 15.1154 20.9969 14.9669 21.1262 14.8452C21.1894 14.7854 21.2774 14.7077 21.3847 14.6389C21.5736 14.514 21.7948 14.4466 22.0213 14.4451L26.1463 14.4444Z" fill="#666666"/>
</svg>
