<svg width="19" height="19" viewBox="0 0 19 19" fill="none" xmlns="http://www.w3.org/2000/svg">
<path d="M13.568 3.02841L15.0976 1.49798C15.4164 1.17913 15.8489 1 16.2998 1C16.7507 1 17.1832 1.17913 17.502 1.49798C17.8209 1.81683 18 2.24928 18 2.7002C18 3.15112 17.8209 3.58358 17.502 3.90243L7.87426 13.5302C7.39493 14.0092 6.80383 14.3613 6.15433 14.5547L3.71996 15.28L4.44529 12.8457C4.63866 12.1962 4.99076 11.6051 5.46981 11.1257L13.568 3.02841ZM13.568 3.02841L15.9598 5.42017M14.5998 11.6534V15.96C14.5998 16.5011 14.3849 17.0199 14.0023 17.4025C13.6198 17.7851 13.1009 18 12.5598 18H3.03997C2.49894 18 1.98006 17.7851 1.59749 17.4025C1.21493 17.0199 1 16.5011 1 15.96V6.44015C1 5.89912 1.21493 5.38024 1.59749 4.99767C1.98006 4.6151 2.49894 4.40018 3.03997 4.40018H7.34658" stroke="#666666" stroke-width="2" stroke-linecap="round" stroke-linejoin="round"/>
</svg>
