<svg width="17" height="16" viewBox="0 0 17 16" fill="none" xmlns="http://www.w3.org/2000/svg">
<path d="M0 13.23V11.584C0 11.1707 0.12 10.7843 0.36 10.425C0.600667 10.065 0.924 9.786 1.33 9.588C2.274 9.13467 3.21867 8.79533 4.164 8.57C5.108 8.34334 6.05333 8.23 7 8.23C7.36867 8.23 7.73733 8.249 8.106 8.287C8.47467 8.32434 8.84333 8.381 9.212 8.457C9.222 9.20567 9.39367 9.90667 9.727 10.56C10.0603 11.2133 10.518 11.77 11.1 12.23V13.23H0ZM14.692 15.615L13.525 14.458V10.87C12.9543 10.7033 12.4903 10.383 12.133 9.909C11.775 9.43567 11.596 8.895 11.596 8.287C11.596 7.53767 11.8607 6.89833 12.39 6.369C12.9193 5.83967 13.5587 5.575 14.308 5.575C15.0573 5.575 15.6933 5.84 16.216 6.37C16.7387 6.9 17 7.54 17 8.29C17 8.87134 16.8387 9.383 16.516 9.825C16.194 10.267 15.7783 10.5877 15.269 10.787L16.231 11.748L15.077 12.908L16.231 14.068L14.692 15.615ZM7 5.999C6.17533 5.999 5.469 5.70533 4.881 5.118C4.293 4.53067 3.99933 3.82433 4 2.999C4.00067 2.17367 4.29433 1.46733 4.881 0.880001C5.46767 0.292668 6.174 -0.000665533 7 1.13379e-06C7.826 0.0006678 8.53233 0.294001 9.119 0.880001C9.70567 1.466 9.99933 2.17267 10 3C10.0007 3.82733 9.707 4.53333 9.119 5.118C8.531 5.70267 7.82467 5.99633 7 5.999ZM14.308 8.672C14.5147 8.672 14.6943 8.59233 14.847 8.433C15.0003 8.273 15.077 8.08967 15.077 7.883C15.077 7.677 15.0003 7.49733 14.847 7.344C14.6937 7.19067 14.5137 7.114 14.307 7.114C14.1003 7.114 13.9177 7.19067 13.759 7.344C13.6003 7.49733 13.5203 7.67733 13.519 7.884C13.5177 8.09067 13.5977 8.27367 13.759 8.433C13.9203 8.59233 14.1033 8.67134 14.308 8.672Z" fill="#666666"/>
</svg>
