<svg width="27" height="20" viewBox="0 0 27 20" fill="none" xmlns="http://www.w3.org/2000/svg">
<path d="M24.7926 1.26074C24.0618 0.719306 22.0255 0 13.4928 0C4.34913 0 2.99255 0.826031 2.55719 1.09631C0.240187 2.52926 0.0202022 8.87329 0 10.1596C0.0278142 11.8586 0.294578 17.5111 2.55554 18.9094C2.99005 19.1787 4.33901 20 13.4928 20C22.031 20 24.0648 19.2842 24.7926 18.7449C26.7674 17.2825 26.9945 12.246 27 10.1376C26.9949 8.44211 26.8221 2.76573 24.7926 1.26074ZM23.8081 17.3367C23.5144 17.5544 21.8278 18.2646 13.4928 18.2646C5.43467 18.2646 3.74391 17.6208 3.42447 17.4225C2.61111 16.9201 1.75266 14.2533 1.68526 10.1549C1.75185 6.06548 2.62209 3.08023 3.4262 2.58392C3.74649 2.38479 5.44355 1.73576 13.4928 1.73576C21.821 1.73576 23.5122 2.45076 23.8081 2.66941C24.53 3.20477 25.3029 6.02299 25.3143 10.1432C25.3029 14.328 24.525 16.8056 23.8081 17.3367ZM18.9895 9.31752L11.4055 4.5266C11.2777 4.44723 11.1317 4.40424 10.9824 4.40203C10.8331 4.39982 10.6859 4.43846 10.5559 4.51402C10.4258 4.58958 10.3175 4.69937 10.2421 4.83216C10.1667 4.96495 10.127 5.11597 10.1269 5.26977V14.8533C10.127 15.0834 10.2158 15.304 10.3739 15.4667C10.5319 15.6294 10.7462 15.7208 10.9698 15.721C11.1232 15.721 11.2737 15.678 11.4051 15.5964L18.9891 10.8038C19.2419 10.6464 19.3966 10.3648 19.3966 10.0607C19.3966 9.75653 19.2423 9.47413 18.9895 9.31752ZM11.8131 13.3162V6.80597L16.9229 10.0606L11.8131 13.3162Z" fill="white"/>
</svg>
