<svg width="14" height="27" viewBox="0 0 14 27" fill="none" xmlns="http://www.w3.org/2000/svg">
<path d="M8.90047 1.74373C9.00423 1.74373 9.06394 1.74809 9.06394 1.74809H11.341L11.3293 4.36365H9.06745C7.82274 4.36365 7.85152 5.42641 7.85152 5.42641V9.57294H12.2557L11.641 12.185H7.83713V25.2567H5.22389L5.22215 12.185H1.75048L1.7435 9.57294H5.22346V5.50837C5.22384 1.96428 8.1676 1.74373 8.90047 1.74373ZM8.90047 0C8.27354 0 7.0484 0.103778 5.88783 0.803004C4.78917 1.46387 3.47994 2.81739 3.47994 5.50796V7.8288H1.74389C1.28044 7.8288 0.836185 8.01364 0.508332 8.34148C0.346342 8.5041 0.218053 8.69709 0.130823 8.90939C0.0435941 9.12169 -0.00085915 9.34912 1.25766e-05 9.57864L0.00698809 12.1907C0.0104759 13.1511 0.790435 13.9283 1.75089 13.9283H3.47866L3.4804 25.2563C3.4804 26.2193 4.26126 27 5.2243 27H7.83757C8.80061 27 9.58147 26.2193 9.58147 25.2563V13.9283H11.6414C12.4153 13.9283 13.0967 13.4183 13.3147 12.6759L13.9294 10.0638C14.0842 9.53682 13.9813 8.96706 13.6517 8.52806C13.4895 8.31097 13.2789 8.13472 13.0367 8.01333C12.7944 7.89195 12.5271 7.82877 12.2561 7.82883H9.5958V6.10823L11.3297 6.10736C12.2893 6.10736 13.0692 5.33184 13.0736 4.3715L13.0853 1.84443C13.0871 1.81235 13.088 1.78022 13.088 1.74809C13.088 0.785131 12.3089 0.00438649 11.3458 0.00438649H9.1132C9.06306 0.00177093 8.99069 2.72454e-05 8.90047 0Z" fill="white"/>
</svg>
