<svg width="25" height="20" viewBox="0 0 25 20" fill="none" xmlns="http://www.w3.org/2000/svg">
<path d="M16.7066 1.5335C17.9969 1.5335 19.1618 2.05195 19.9824 2.88431C21.0034 2.69031 21.9657 2.33682 22.8305 1.84722C22.4959 2.84484 21.7842 3.68178 20.8586 4.21125C21.7643 4.10659 22.6314 3.87808 23.436 3.53647C22.8329 4.39298 22.0735 5.14713 21.1967 5.74983C21.2049 5.93271 21.2096 6.11751 21.2096 6.30152C21.2096 11.9501 16.6953 18.4652 8.44049 18.4652C5.90674 18.4652 3.54672 17.7552 1.56191 16.5429C1.91699 16.5834 2.27416 16.6036 2.63163 16.6034C4.73398 16.6034 6.66999 15.9206 8.20625 14.7727C6.24132 14.7397 4.58286 13.5025 4.01404 11.8052C4.29263 11.8565 4.57545 11.8822 4.85888 11.8822C5.26686 11.8822 5.6643 11.8305 6.03987 11.7323C3.9871 11.3409 2.43991 9.61291 2.43991 7.54059V7.48579C3.04544 7.80631 3.73685 7.99878 4.47355 8.02102C3.26875 7.25343 2.47661 5.94683 2.47661 4.46343C2.47661 3.67938 2.69839 2.94479 3.0845 2.31563C5.29734 4.90051 8.6041 6.6028 12.3344 6.78185C12.2575 6.46974 12.2177 6.14004 12.2177 5.8084C12.2177 3.44704 14.2271 1.5335 16.7066 1.5335ZM16.7065 0C13.6403 0 11.1 2.19997 10.7087 5.04249C8.19997 4.54752 5.91843 3.2432 4.2791 1.32965C4.13255 1.15846 3.94964 1.02082 3.7432 0.926381C3.53676 0.831941 3.31178 0.782986 3.08404 0.782948C3.04314 0.782953 3.00226 0.784488 2.96147 0.787549C2.71394 0.807007 2.47468 0.884058 2.26348 1.01233C2.05228 1.1406 1.87521 1.31641 1.74691 1.52521C1.20251 2.41236 0.914854 3.42855 0.91493 4.46434C0.91493 5.15561 1.0414 5.82886 1.28113 6.4584C1.02581 6.73713 0.878622 7.10175 0.878622 7.48668V7.5415C0.878622 9.04368 1.48336 10.4377 2.48749 11.4825C2.42971 11.7455 2.4426 12.0208 2.53083 12.2845C2.87715 13.3193 3.50766 14.2111 4.32517 14.8904C3.77623 15.0105 3.20977 15.071 2.63156 15.071C2.32587 15.071 2.02837 15.0546 1.74689 15.0208C1.68442 15.0131 1.62274 15.0104 1.56067 15.0104C0.90478 15.0104 0.309407 15.4165 0.0884358 16.0357C-0.154008 16.7143 0.115008 17.4665 0.736514 17.8465C3.04307 19.2558 5.70719 20 8.44005 20C17.3226 20 22.6657 13.1713 22.7696 6.50091C23.4985 5.9087 24.1424 5.22232 24.6838 4.46046C24.8893 4.19536 25.0005 3.87123 25 3.538C25 3.0162 24.7342 2.55497 24.3293 2.27775C24.5046 1.6877 24.3047 1.04896 23.8167 0.658655C23.5317 0.430916 23.1823 0.31513 22.8309 0.31513C22.557 0.314877 22.2879 0.385634 22.0509 0.520248C21.5347 0.812422 20.9827 1.04361 20.4014 1.21003C19.3496 0.432881 18.0456 2.39624e-05 16.7065 0Z" fill="white"/>
</svg>
