<svg width="16" height="16" viewBox="0 0 16 16" fill="none" xmlns="http://www.w3.org/2000/svg">
<path d="M1.99984 3.33333V3C1.91143 3 1.82665 3.03512 1.76414 3.09763C1.70162 3.16014 1.6665 3.24493 1.6665 3.33333H1.99984ZM13.9998 3.33333H14.3332C14.3332 3.24493 14.2981 3.16014 14.2355 3.09763C14.173 3.03512 14.0882 3 13.9998 3V3.33333ZM1.99984 3.66667H13.9998V3H1.99984V3.66667ZM13.6665 3.33333V11.3333H14.3332V3.33333H13.6665ZM12.6665 12.3333H3.33317V13H12.6665V12.3333ZM2.33317 11.3333V3.33333H1.6665V11.3333H2.33317ZM3.33317 12.3333C3.06795 12.3333 2.8136 12.228 2.62606 12.0404C2.43853 11.8529 2.33317 11.5985 2.33317 11.3333H1.6665C1.6665 11.7754 1.8421 12.1993 2.15466 12.5118C2.46722 12.8244 2.89114 13 3.33317 13V12.3333ZM13.6665 11.3333C13.6665 11.5985 13.5611 11.8529 13.3736 12.0404C13.1861 12.228 12.9317 12.3333 12.6665 12.3333V13C13.1085 13 13.5325 12.8244 13.845 12.5118C14.1576 12.1993 14.3332 11.7754 14.3332 11.3333H13.6665Z" fill="white"/>
<path d="M2 3.3335L8 9.3335L14 3.3335" stroke="white" stroke-linecap="round" stroke-linejoin="round"/>
</svg>
