<svg width="15" height="19" viewBox="0 0 15 19" fill="none" xmlns="http://www.w3.org/2000/svg">
<path d="M12.6379 19H2.36206C1.7356 19 1.1348 18.7482 0.69183 18.3C0.248859 17.8517 0 17.2438 0 16.6099V15.8193C0 12.0249 3.36451 8.93595 7.5 8.93595C11.6355 8.93595 15 12.0229 15 15.8193V16.6099C15 17.2438 14.7511 17.8517 14.3082 18.3C13.8652 18.7482 13.2644 19 12.6379 19ZM7.5 9.89388C3.88511 9.89388 0.944822 12.5516 0.944822 15.8212V16.6119C0.944822 16.9922 1.09414 17.3569 1.35992 17.6259C1.6257 17.8948 1.98618 18.0459 2.36206 18.0459H12.6379C13.0138 18.0459 13.3743 17.8948 13.6401 17.6259C13.9059 17.3569 14.0552 16.9922 14.0552 16.6119V15.8193C14.0552 12.5516 11.1149 9.89388 7.5 9.89388ZM7.5 7.50287C6.76669 7.50306 6.04979 7.2832 5.43998 6.8711C4.83016 6.459 4.35481 5.87318 4.07406 5.18771C3.7933 4.50224 3.71975 3.74792 3.8627 3.02015C4.00564 2.29238 4.35867 1.62385 4.87713 1.09911C5.3956 0.574366 6.05621 0.216982 6.77541 0.0721544C7.49462 -0.072673 8.24012 0.00156206 8.91763 0.285471C9.59514 0.56938 10.1742 1.05021 10.5816 1.66715C10.9891 2.28409 11.2065 3.00943 11.2065 3.75144C11.2058 4.74598 10.8151 5.69958 10.1201 6.40292C9.42523 7.10626 8.48289 7.50186 7.5 7.50287ZM7.5 0.95698C6.95352 0.956791 6.41925 1.1206 5.96479 1.42769C5.51033 1.73478 5.15609 2.17136 4.94687 2.68219C4.73765 3.19303 4.68286 3.75517 4.78943 4.29751C4.896 4.83986 5.15914 5.33804 5.54556 5.72904C5.93198 6.12005 6.42433 6.3863 6.96032 6.49413C7.49631 6.60197 8.05187 6.54653 8.55672 6.33483C9.06157 6.12313 9.49302 5.76469 9.79652 5.30484C10.1 4.84499 10.2619 4.3044 10.2617 3.75144C10.261 3.01053 9.96976 2.30019 9.452 1.7763C8.93424 1.2524 8.23222 0.95774 7.5 0.95698Z" fill="#666666"/>
</svg>
