<svg width="14" height="14" viewBox="0 0 14 14" fill="none" xmlns="http://www.w3.org/2000/svg">
<path d="M10.8377 7.58185C10.6996 7.44375 10.5122 7.36618 10.3169 7.36618C10.1216 7.36618 9.93425 7.44375 9.79611 7.58185L8.62189 8.75602C8.07751 8.59396 7.06167 8.22565 6.41784 7.58185C5.77401 6.93805 5.40568 5.92225 5.24362 5.37789L6.41784 4.20372C6.55594 4.06558 6.63352 3.87826 6.63352 3.68293C6.63352 3.48761 6.55594 3.30028 6.41784 3.16214L3.47125 0.215672C3.3331 0.0775771 3.14577 0 2.95044 0C2.7551 0 2.56777 0.0775771 2.42963 0.215672L0.431835 2.21338C0.151909 2.49329 -0.00573367 2.87781 0.000159517 3.27043C0.0171024 4.31937 0.294819 7.96268 3.16627 10.834C6.03773 13.7054 9.68119 13.9823 10.7309 14H10.7515C11.1405 14 11.5081 13.8468 11.7865 13.5683L13.7843 11.5706C13.9224 11.4325 14 11.2452 14 11.0498C14 10.8545 13.9224 10.6672 13.7843 10.5291L10.8377 7.58185ZM10.7442 12.526C9.82484 12.5106 6.67935 12.2638 4.20789 9.7917C1.72834 7.31225 1.48819 4.15584 1.47346 3.25496L2.95044 1.77804L4.85541 3.68293L3.90292 4.63538C3.81634 4.72189 3.75268 4.82862 3.71769 4.94591C3.68271 5.0632 3.67751 5.18737 3.70255 5.30717C3.72023 5.39188 4.15265 7.40064 5.37548 8.62343C6.59832 9.84621 8.60716 10.2786 8.69187 10.2963C8.81161 10.3221 8.93592 10.3174 9.05334 10.2825C9.17075 10.2476 9.27749 10.1837 9.36369 10.0967L10.3169 9.14421L12.2219 11.0491L10.7442 12.526Z" fill="white"/>
</svg>
