<svg width="27" height="25" viewBox="0 0 27 25" fill="none" xmlns="http://www.w3.org/2000/svg">
<mask id="path-1-inside-1_544_124" fill="white">
<path d="M26.6327 4.19637L13.6721 0.0269665C13.5608 -0.00898883 13.4404 -0.00898883 13.3292 0.0269665L0.368567 4.19637C0.261273 4.23104 0.167974 4.29736 0.101842 4.38596C0.0357096 4.47457 8.58078e-05 4.58098 0 4.69018V15.1137C0 15.2519 0.0568954 15.3845 0.15817 15.4822C0.259444 15.5799 0.396801 15.6349 0.540024 15.6349C0.683248 15.6349 0.820605 15.5799 0.921879 15.4822C1.02315 15.3845 1.08005 15.2519 1.08005 15.1137V5.41331L7.00412 7.31951C6.27268 8.26766 5.77356 9.36355 5.5443 10.5247C5.31504 11.6859 5.36162 12.8822 5.68053 14.0235C5.99944 15.1648 6.58237 16.2214 7.38548 17.1139C8.18858 18.0064 9.19095 18.7115 10.3172 19.1762C7.50094 19.9241 5.05193 21.6688 3.3279 24.2121C3.25649 24.3278 3.23425 24.4656 3.26583 24.5968C3.2974 24.7279 3.38035 24.8422 3.49729 24.9157C3.61423 24.9891 3.75609 25.016 3.89313 24.9907C4.03017 24.9655 4.15177 24.89 4.23244 24.7802C6.36824 21.6179 9.74744 19.8042 13.5006 19.8042C17.2538 19.8042 20.633 21.6179 22.7688 24.7789C22.8494 24.8887 22.971 24.9642 23.1081 24.9894C23.2451 25.0147 23.387 24.9878 23.5039 24.9143C23.6209 24.8409 23.7038 24.7266 23.7354 24.5955C23.767 24.4643 23.7447 24.3265 23.6733 24.2108C21.956 21.6674 19.5003 19.9228 16.6841 19.1749C17.8103 18.7102 18.8126 18.0051 19.6157 17.1126C20.4188 16.2201 21.0018 15.1635 21.3207 14.0222C21.6396 12.8809 21.6862 11.6846 21.4569 10.5234C21.2277 9.36225 20.7285 8.26636 19.9971 7.3182L26.6327 5.18269C26.7397 5.14782 26.8328 5.08141 26.8987 4.99282C26.9646 4.90424 27 4.79793 27 4.68888C27 4.57982 26.9646 4.47351 26.8987 4.38493C26.8328 4.29634 26.7397 4.22993 26.6327 4.19506V4.19637ZM20.5209 11.9866C20.521 13.0738 20.2499 14.145 19.7307 15.1098C19.2114 16.0746 18.4593 16.9047 17.5376 17.5299C16.616 18.1551 15.5521 18.557 14.4356 18.7018C13.3191 18.8466 12.183 18.73 11.123 18.3618C10.0631 17.9936 9.11053 17.3846 8.3458 16.5863C7.58107 15.7881 7.02661 14.8239 6.72927 13.7753C6.43192 12.7266 6.40042 11.6244 6.63741 10.5615C6.87441 9.49865 7.37294 8.50645 8.09091 7.66869L13.3292 9.35339C13.4403 9.38983 13.5609 9.38983 13.6721 9.35339L18.9103 7.66869C19.9528 8.88253 20.5226 10.41 20.5209 11.9866ZM13.5006 8.30974L2.24785 4.69018L13.5006 1.07062L24.7534 4.69018L13.5006 8.30974Z"/>
</mask>
<path d="M26.6327 4.19637L13.6721 0.0269665C13.5608 -0.00898883 13.4404 -0.00898883 13.3292 0.0269665L0.368567 4.19637C0.261273 4.23104 0.167974 4.29736 0.101842 4.38596C0.0357096 4.47457 8.58078e-05 4.58098 0 4.69018V15.1137C0 15.2519 0.0568954 15.3845 0.15817 15.4822C0.259444 15.5799 0.396801 15.6349 0.540024 15.6349C0.683248 15.6349 0.820605 15.5799 0.921879 15.4822C1.02315 15.3845 1.08005 15.2519 1.08005 15.1137V5.41331L7.00412 7.31951C6.27268 8.26766 5.77356 9.36355 5.5443 10.5247C5.31504 11.6859 5.36162 12.8822 5.68053 14.0235C5.99944 15.1648 6.58237 16.2214 7.38548 17.1139C8.18858 18.0064 9.19095 18.7115 10.3172 19.1762C7.50094 19.9241 5.05193 21.6688 3.3279 24.2121C3.25649 24.3278 3.23425 24.4656 3.26583 24.5968C3.2974 24.7279 3.38035 24.8422 3.49729 24.9157C3.61423 24.9891 3.75609 25.016 3.89313 24.9907C4.03017 24.9655 4.15177 24.89 4.23244 24.7802C6.36824 21.6179 9.74744 19.8042 13.5006 19.8042C17.2538 19.8042 20.633 21.6179 22.7688 24.7789C22.8494 24.8887 22.971 24.9642 23.1081 24.9894C23.2451 25.0147 23.387 24.9878 23.5039 24.9143C23.6209 24.8409 23.7038 24.7266 23.7354 24.5955C23.767 24.4643 23.7447 24.3265 23.6733 24.2108C21.956 21.6674 19.5003 19.9228 16.6841 19.1749C17.8103 18.7102 18.8126 18.0051 19.6157 17.1126C20.4188 16.2201 21.0018 15.1635 21.3207 14.0222C21.6396 12.8809 21.6862 11.6846 21.4569 10.5234C21.2277 9.36225 20.7285 8.26636 19.9971 7.3182L26.6327 5.18269C26.7397 5.14782 26.8328 5.08141 26.8987 4.99282C26.9646 4.90424 27 4.79793 27 4.68888C27 4.57982 26.9646 4.47351 26.8987 4.38493C26.8328 4.29634 26.7397 4.22993 26.6327 4.19506V4.19637ZM20.5209 11.9866C20.521 13.0738 20.2499 14.145 19.7307 15.1098C19.2114 16.0746 18.4593 16.9047 17.5376 17.5299C16.616 18.1551 15.5521 18.557 14.4356 18.7018C13.3191 18.8466 12.183 18.73 11.123 18.3618C10.0631 17.9936 9.11053 17.3846 8.3458 16.5863C7.58107 15.7881 7.02661 14.8239 6.72927 13.7753C6.43192 12.7266 6.40042 11.6244 6.63741 10.5615C6.87441 9.49865 7.37294 8.50645 8.09091 7.66869L13.3292 9.35339C13.4403 9.38983 13.5609 9.38983 13.6721 9.35339L18.9103 7.66869C19.9528 8.88253 20.5226 10.41 20.5209 11.9866ZM13.5006 8.30974L2.24785 4.69018L13.5006 1.07062L24.7534 4.69018L13.5006 8.30974Z" fill="#666666"/>
<path d="M26.6327 4.19637L23.5702 13.7159L36.6327 17.9181V4.19637H26.6327ZM13.6721 0.0269665L10.5972 9.54251L10.6096 9.5465L13.6721 0.0269665ZM13.3292 0.0269665L16.3916 9.54651L16.404 9.5425L13.3292 0.0269665ZM0.368567 4.19637L-2.69386 -5.32318L-2.70626 -5.31917L0.368567 4.19637ZM0 4.69018L-10 4.68232V4.69018H0ZM1.08005 5.41331L4.1431 -4.10602L-8.91995 -8.30934V5.41331H1.08005ZM7.00412 7.31951L14.9219 13.4276L23.6146 2.15935L10.0672 -2.19983L7.00412 7.31951ZM10.3172 19.1762L12.8838 28.8412L41.5252 21.2351L14.1313 9.9322L10.3172 19.1762ZM3.3279 24.2121L-4.94959 18.6011L-5.06934 18.7778L-5.18145 18.9594L3.3279 24.2121ZM4.23244 24.7802L12.2928 30.6988L12.4092 30.5403L12.5194 30.3772L4.23244 24.7802ZM22.7688 24.7789L14.4829 30.3775L14.5925 30.5397L14.7084 30.6975L22.7688 24.7789ZM23.6733 24.2108L32.1827 18.9581L32.0753 18.7842L31.961 18.6149L23.6733 24.2108ZM16.6841 19.1749L12.8699 9.93089L-14.524 21.2338L14.1174 28.8399L16.6841 19.1749ZM19.9971 7.3182L16.9336 -2.20097L3.38712 2.15867L12.0793 13.4263L19.9971 7.3182ZM26.6327 5.18269L29.6962 14.7019L29.7128 14.6965L29.7295 14.6911L26.6327 5.18269ZM26.6327 4.19506L29.7295 -5.31334L16.6327 -9.57889V4.19506H26.6327ZM20.5209 11.9866L10.5209 11.9762V11.987L20.5209 11.9866ZM8.09091 7.66869L11.1526 -1.85107L4.82394 -3.88648L0.497879 1.16133L8.09091 7.66869ZM13.3292 9.35339L16.4432 -0.14939L16.417 -0.157955L16.3909 -0.166376L13.3292 9.35339ZM13.6721 9.35339L10.6104 -0.166376L10.5842 -0.157955L10.558 -0.14939L13.6721 9.35339ZM18.9103 7.66869L26.4965 1.15337L22.1701 -3.88416L15.8486 -1.85107L18.9103 7.66869ZM13.5006 8.30974L10.4385 17.8294L13.5006 18.8143L16.5627 17.8294L13.5006 8.30974ZM2.24785 4.69018L-0.814235 -4.82947L-30.4096 4.69018L-0.814235 14.2098L2.24785 4.69018ZM13.5006 1.07062L16.5627 -8.44903L13.5006 -9.43397L10.4385 -8.44903L13.5006 1.07062ZM24.7534 4.69018L27.8155 14.2098L57.4108 4.69018L27.8155 -4.82947L24.7534 4.69018ZM29.6951 -5.32317L16.7345 -9.49257L10.6096 9.5465L23.5702 13.7159L29.6951 -5.32317ZM16.7469 -9.48857C14.6366 -10.1705 12.3646 -10.1705 10.2543 -9.48857L16.404 9.5425C14.5162 10.1525 12.485 10.1525 10.5972 9.5425L16.7469 -9.48857ZM10.2667 -9.49257L-2.69385 -5.32317L3.43099 13.7159L16.3916 9.5465L10.2667 -9.49257ZM-2.70626 -5.31917C-4.74464 -4.6605 -6.57974 -3.38053 -7.91211 -1.5954L8.11579 10.3673C6.91569 11.9752 5.26718 13.1226 3.44339 13.7119L-2.70626 -5.31917ZM-7.91211 -1.5954C-9.24869 0.195391 -9.9982 2.39123 -10 4.68232L10 4.69804C9.99837 6.77073 9.32011 8.75374 8.11579 10.3673L-7.91211 -1.5954ZM-10 4.69018V15.1137H10V4.69018H-10ZM-10 15.1137C-10 18.021 -8.79998 20.7342 -6.7862 22.6777L7.10254 8.28667C8.91378 10.0347 10 12.4828 10 15.1137H-10ZM-6.7862 22.6777C-4.78449 24.6096 -2.14297 25.6349 0.540024 25.6349V5.63485C2.93657 5.63485 5.30338 6.55031 7.10254 8.28667L-6.7862 22.6777ZM0.540024 25.6349C3.22302 25.6349 5.86454 24.6096 7.86625 22.6777L-6.02249 8.28667C-4.22333 6.55031 -1.85653 5.63485 0.540024 5.63485V25.6349ZM7.86625 22.6777C9.88003 20.7342 11.08 18.021 11.08 15.1137H-8.91995C-8.91995 12.4828 -7.83373 10.0347 -6.02249 8.28667L7.86625 22.6777ZM11.08 15.1137V5.41331H-8.91995V15.1137H11.08ZM-1.983 14.9326L3.94106 16.8388L10.0672 -2.19983L4.1431 -4.10602L-1.983 14.9326ZM-0.913694 1.21145C-2.57877 3.36987 -3.73371 5.89012 -4.26632 8.58779L15.3549 12.4617C15.2808 12.837 15.1241 13.1655 14.9219 13.4276L-0.913694 1.21145ZM-4.26632 8.58779C-4.79911 11.2864 -4.69013 14.0678 -3.95055 16.7146L15.3116 11.3323C15.4134 11.6965 15.4292 12.0855 15.3549 12.4617L-4.26632 8.58779ZM-3.95055 16.7146C-3.21131 19.3602 -1.86784 21.7806 -0.0480787 23.8029L14.819 10.425C15.0326 10.6623 15.2102 10.9693 15.3116 11.3323L-3.95055 16.7146ZM-0.0480787 23.8029C1.77041 25.8238 4.01552 27.3939 6.503 28.4203L14.1313 9.9322C14.3664 10.0292 14.6068 10.1891 14.819 10.425L-0.0480787 23.8029ZM7.7505 9.51123C2.52718 10.8984 -1.91827 14.1292 -4.94959 18.6011L11.6054 29.8231C12.0221 29.2083 12.4747 28.9499 12.8838 28.8412L7.7505 9.51123ZM-5.18145 18.9594C-6.64092 21.3237 -7.1173 24.1923 -6.45636 26.9375L12.988 22.256C13.5858 24.7389 13.1539 27.3318 11.8372 29.4648L-5.18145 18.9594ZM-6.45636 26.9375C-5.79749 29.6741 -4.09159 31.9582 -1.82115 33.3841L8.81573 16.4472C10.8523 17.7263 12.3923 19.7818 12.988 22.256L-6.45636 26.9375ZM-1.82115 33.3841C0.439123 34.8036 3.12939 35.2999 5.70557 34.8251L2.08069 15.1564C4.38278 14.7321 6.78934 15.1746 8.81573 16.4472L-1.82115 33.3841ZM5.70557 34.8251C8.28566 34.3496 10.6672 32.9127 12.2928 30.6988L-3.82791 18.8615C-2.36365 16.8674 -0.225307 15.5814 2.08069 15.1564L5.70557 34.8251ZM12.5194 30.3772C12.7059 30.101 12.8784 29.9769 12.9899 29.917C13.0995 29.8582 13.2552 29.8042 13.5006 29.8042V9.80425C6.3606 9.80425 -0.0957192 13.3218 -4.05448 19.1831L12.5194 30.3772ZM13.5006 29.8042C13.7461 29.8042 13.9021 29.8583 14.012 29.9173C14.1239 29.9773 14.2965 30.1016 14.4829 30.3775L31.0546 19.1802C27.0959 13.3214 20.6402 9.80425 13.5006 9.80425V29.8042ZM14.7084 30.6975C16.334 32.9113 18.7155 34.3483 21.2957 34.8238L24.9205 15.1551C27.2266 15.5801 29.3649 16.8661 30.8291 18.8602L14.7084 30.6975ZM21.2957 34.8238C23.8718 35.2986 26.5621 34.8023 28.8224 33.3828L18.1855 16.4459C20.2119 15.1733 22.6184 14.7308 24.9205 15.1551L21.2957 34.8238ZM28.8224 33.3828C31.0929 31.9568 32.7987 29.6727 33.4576 26.9362L14.0132 22.2547C14.6089 19.7806 16.1488 17.725 18.1855 16.4459L28.8224 33.3828ZM33.4576 26.9362C34.1185 24.1911 33.6422 21.3225 32.1827 18.9581L15.164 29.4635C13.8473 27.3304 13.4154 24.7375 14.0132 22.2547L33.4576 26.9362ZM31.961 18.6149C28.9264 14.1205 24.4632 10.8942 19.2507 9.50993L14.1174 28.8399C14.5374 28.9515 14.9857 29.2144 15.3856 29.8067L31.961 18.6149ZM20.4982 28.419C22.9857 27.3926 25.2308 25.8225 27.0493 23.8016L12.1822 10.4237C12.3945 10.1878 12.6348 10.0279 12.8699 9.93089L20.4982 28.419ZM27.0493 23.8016C28.8691 21.7793 30.2125 19.3589 30.9518 16.7133L11.6896 11.331C11.791 10.968 11.9686 10.661 12.1822 10.4237L27.0493 23.8016ZM30.9518 16.7133C31.6913 14.0665 31.8003 11.2851 31.2675 8.58649L11.6463 12.4604C11.572 12.0841 11.5878 11.6952 11.6896 11.331L30.9518 16.7133ZM31.2675 8.58649C30.7349 5.88881 29.58 3.36856 27.9149 1.21015L12.0793 13.4263C11.8771 13.1642 11.7204 12.8357 11.6463 12.4604L31.2675 8.58649ZM23.0606 16.8374L29.6962 14.7019L23.5691 -4.33649L16.9336 -2.20097L23.0606 16.8374ZM29.7295 14.6911C31.7639 14.0285 33.5941 12.7466 34.9221 10.9615L18.8752 -0.975814C20.0714 -2.58374 21.7156 -3.73287 23.5358 -4.32571L29.7295 14.6911ZM34.9221 10.9615C36.2542 9.17075 37 6.97694 37 4.68888H17C17 2.61892 17.6749 0.63772 18.8752 -0.975814L34.9221 10.9615ZM37 4.68888C37 2.40083 36.2542 0.207006 34.9221 -1.58371L18.8752 10.3536C17.6749 8.74002 17 6.75882 17 4.68888H37ZM34.9221 -1.58371C33.5941 -3.36881 31.7639 -4.65075 29.7295 -5.31334L23.5358 13.7035C21.7156 13.1106 20.0714 11.9615 18.8752 10.3536L34.9221 -1.58371ZM16.6327 4.19506V4.19637H36.6327V4.19506H16.6327ZM10.5209 11.987C10.5209 11.4065 10.6666 10.8508 10.925 10.3707L28.5364 19.8489C29.8333 17.4393 30.521 14.7411 30.5209 11.9862L10.5209 11.987ZM10.925 10.3707C11.1822 9.89273 11.5349 9.51812 11.9238 9.25429L23.1514 25.8054C25.3836 24.2912 27.2407 22.2566 28.5364 19.8489L10.925 10.3707ZM11.9238 9.25429C12.3112 8.99153 12.7325 8.83894 13.1495 8.78486L15.7217 28.6188C18.3716 28.2751 20.9209 27.3186 23.1514 25.8054L11.9238 9.25429ZM13.1495 8.78486C13.5661 8.73083 13.9939 8.77288 14.4045 8.9155L7.84158 27.8081C10.372 28.6871 13.0722 28.9624 15.7217 28.6188L13.1495 8.78486ZM14.4045 8.9155C14.816 9.05848 15.2201 9.30654 15.567 9.66865L1.12461 23.504C3.00097 25.4627 5.31014 26.9287 7.84158 27.8081L14.4045 8.9155ZM15.567 9.66865C15.9155 10.0325 16.1951 10.5011 16.35 11.0472L-2.89143 16.5033C-2.14189 19.1466 -0.75339 21.5436 1.12461 23.504L15.567 9.66865ZM16.35 11.0472C16.5053 11.5949 16.5225 12.1781 16.3977 12.7379L-3.12289 8.38514C-3.72169 11.0706 -3.64142 13.8584 -2.89143 16.5033L16.35 11.0472ZM16.3977 12.7379C16.2732 13.2963 16.0177 13.7867 15.684 14.1761L0.497879 1.16133C-1.27179 3.22624 -2.52437 5.70098 -3.12289 8.38514L16.3977 12.7379ZM5.02921 17.1885L10.2674 18.8732L16.3909 -0.166376L11.1526 -1.85107L5.02921 17.1885ZM10.2151 18.8562C12.3494 19.5556 14.6518 19.5556 16.7861 18.8562L10.558 -0.14939C12.4699 -0.775913 14.5313 -0.775913 16.4432 -0.14939L10.2151 18.8562ZM16.7338 18.8732L21.972 17.1885L15.8486 -1.85107L10.6104 -0.166376L16.7338 18.8732ZM11.3241 14.184C10.8323 13.6114 10.52 12.8325 10.5209 11.9762L30.5209 11.997C30.5251 7.98754 29.0733 4.15371 26.4965 1.15337L11.3241 14.184ZM16.5627 -1.20991L5.30994 -4.82947L-0.814235 14.2098L10.4385 17.8294L16.5627 -1.20991ZM5.30994 14.2098L16.5627 10.5903L10.4385 -8.44903L-0.814235 -4.82947L5.30994 14.2098ZM10.4385 10.5903L21.6913 14.2098L27.8155 -4.82947L16.5627 -8.44903L10.4385 10.5903ZM21.6913 -4.82947L10.4385 -1.20991L16.5627 17.8294L27.8155 14.2098L21.6913 -4.82947Z" fill="white" mask="url(#path-1-inside-1_544_124)"/>
</svg>
