<svg width="25" height="25" viewBox="0 0 25 25" fill="none" xmlns="http://www.w3.org/2000/svg">
<path d="M24.1667 12.0833C24.166 8.87883 22.8928 5.80576 20.6268 3.53983C18.3609 1.27391 15.2878 0.000640708 12.0833 0V2.41667C13.995 2.4171 15.8637 2.98414 17.4533 4.04615C19.0428 5.10816 20.282 6.61747 21.0141 8.38342C21.5 9.55643 21.7501 10.8137 21.75 12.0833H24.1667ZM0 9.66667V3.625C0 3.30453 0.127306 2.99719 0.353913 2.77058C0.580519 2.54397 0.887863 2.41667 1.20833 2.41667H7.25C7.57047 2.41667 7.87781 2.54397 8.10442 2.77058C8.33103 2.99719 8.45833 3.30453 8.45833 3.625V8.45833C8.45833 8.7788 8.33103 9.08615 8.10442 9.31275C7.87781 9.53936 7.57047 9.66667 7.25 9.66667H4.83333C4.83333 12.2304 5.85178 14.6892 7.66463 16.502C9.47748 18.3149 11.9362 19.3333 14.5 19.3333V16.9167C14.5 16.5962 14.6273 16.2889 14.8539 16.0622C15.0805 15.8356 15.3879 15.7083 15.7083 15.7083H20.5417C20.8621 15.7083 21.1695 15.8356 21.3961 16.0622C21.6227 16.2889 21.75 16.5962 21.75 16.9167V22.9583C21.75 23.2788 21.6227 23.5861 21.3961 23.8128C21.1695 24.0394 20.8621 24.1667 20.5417 24.1667H14.5C6.49237 24.1667 0 17.6743 0 9.66667Z" fill="white"/>
<path d="M18.7813 9.30868C19.146 10.1881 19.3337 11.1309 19.3335 12.083H17.1585C17.1587 11.4165 17.0275 10.7565 16.7725 10.1407C16.5175 9.5249 16.1437 8.96538 15.6724 8.49409C15.2011 8.0228 14.6416 7.64898 14.0258 7.394C13.41 7.13901 12.75 7.00785 12.0835 7.00801V4.83301C13.5174 4.83308 14.919 5.25834 16.1112 6.055C17.3034 6.85166 18.2326 7.98394 18.7813 9.30868Z" fill="white"/>
</svg>
