<svg width="20" height="18" viewBox="0 0 20 18" fill="none" xmlns="http://www.w3.org/2000/svg">
<path d="M0.632131 13.2995L5.29513 17.7001C5.39568 17.7953 5.51521 17.8708 5.64682 17.9223C5.77843 17.9738 5.91953 18.0002 6.06199 18H19.0791V15.9527H11.532L19.3655 8.56001C20.2115 7.76259 20.2115 6.46257 19.3655 5.66516L13.9953 0.598147C13.588 0.215092 13.0365 0 12.4615 0C11.8866 0 11.3351 0.215092 10.9278 0.598147L5.77564 5.45941L0.619114 10.4169C0.219947 10.8028 -0.00241537 11.3214 1.97921e-05 11.8607C0.00245496 12.4 0.229493 12.9168 0.632131 13.2995ZM12.4615 2.04557L17.8307 7.11258L15.0257 9.75971L9.65659 4.6927L12.4615 2.04557ZM7.31695 6.89966L8.12286 6.14012L13.492 11.2071L8.54914 15.8719C8.52275 15.8976 8.49777 15.9246 8.4743 15.9527H6.51104L2.16694 11.851L7.31695 6.89966Z" fill="white"/>
</svg>
