<svg width="31" height="24" viewBox="0 0 31 24" fill="none" xmlns="http://www.w3.org/2000/svg">
<path d="M29.8929 1.24682e-06H21.9768C20.278 1.24682e-06 18.6173 0.481641 17.1884 1.39027L15.5 2.45944L13.8116 1.39027C12.3841 0.481815 10.7216 -0.000895374 9.02321 1.24682e-06H1.10714C0.494754 1.24682e-06 0 0.488473 0 1.09308V20.4953C0 21.0999 0.494754 21.5884 1.10714 21.5884H9.02321C10.722 21.5884 12.3827 22.07 13.8116 22.9787L15.3478 23.9556C15.3927 23.9829 15.4446 24 15.4965 24C15.5484 24 15.6003 23.9863 15.6453 23.9556L17.1815 22.9787C18.6138 22.07 20.278 21.5884 21.9768 21.5884H29.8929C30.5052 21.5884 31 21.0999 31 20.4953V1.09308C31 0.488473 30.5052 1.24682e-06 29.8929 1.24682e-06ZM9.02321 19.129H2.49107V2.45944H9.02321C10.248 2.45944 11.4382 2.80444 12.4657 3.45688L14.1541 4.52605L14.3929 4.67976V20.4611C12.746 19.5867 10.9054 19.129 9.02321 19.129ZM28.5089 19.129H21.9768C20.0946 19.129 18.254 19.5867 16.6071 20.4611V4.67976L16.8459 4.52605L18.5343 3.45688C19.5618 2.80444 20.752 2.45944 21.9768 2.45944H28.5089V19.129ZM11.5177 6.83177H5.0894C4.95446 6.83177 4.84375 6.94791 4.84375 7.08796V8.62511C4.84375 8.76516 4.95446 8.8813 5.0894 8.8813H11.5143C11.6492 8.8813 11.7599 8.76516 11.7599 8.62511V7.08796C11.7634 6.94791 11.6527 6.83177 11.5177 6.83177ZM19.2366 7.08796V8.62511C19.2366 8.76516 19.3473 8.8813 19.4823 8.8813H25.9071C26.0421 8.8813 26.1528 8.76516 26.1528 8.62511V7.08796C26.1528 6.94791 26.0421 6.83177 25.9071 6.83177H19.4823C19.3473 6.83177 19.2366 6.94791 19.2366 7.08796ZM11.5177 11.614H5.0894C4.95446 11.614 4.84375 11.7301 4.84375 11.8702V13.4073C4.84375 13.5474 4.95446 13.6635 5.0894 13.6635H11.5143C11.6492 13.6635 11.7599 13.5474 11.7599 13.4073V11.8702C11.7634 11.7301 11.6527 11.614 11.5177 11.614ZM25.9106 11.614H19.4823C19.3473 11.614 19.2366 11.7301 19.2366 11.8702V13.4073C19.2366 13.5474 19.3473 13.6635 19.4823 13.6635H25.9071C26.0421 13.6635 26.1528 13.5474 26.1528 13.4073V11.8702C26.1562 11.7301 26.0455 11.614 25.9106 11.614Z" fill="#27A844"/>
</svg>
