<svg width="26" height="26" viewBox="0 0 26 26" fill="none" xmlns="http://www.w3.org/2000/svg">
<path d="M4.51472 4.51472C3.40042 5.62902 2.5165 6.95189 1.91345 8.4078C1.31039 9.86371 1 11.4241 1 13C1 14.5759 1.31039 16.1363 1.91345 17.5922C2.5165 19.0481 3.40042 20.371 4.51472 21.4853C5.62902 22.5996 6.95189 23.4835 8.4078 24.0866C9.86371 24.6896 11.4241 25 13 25C14.5759 25 16.1363 24.6896 17.5922 24.0866C19.0481 23.4835 20.371 22.5996 21.4853 21.4853M4.51472 4.51472C5.62902 3.40042 6.95189 2.5165 8.4078 1.91345C9.86371 1.31039 11.4241 1 13 1C14.5759 1 16.1363 1.31039 17.5922 1.91345C19.0481 2.5165 20.371 3.40042 21.4853 4.51472C22.5996 5.62902 23.4835 6.95189 24.0866 8.4078C24.6896 9.86371 25 11.4241 25 13C25 14.5759 24.6896 16.1363 24.0866 17.5922C23.4835 19.0481 22.5996 20.371 21.4853 21.4853M4.51472 4.51472L13 13L21.4853 21.4853" stroke="#27A844" stroke-width="2" stroke-linecap="round" stroke-linejoin="round"/>
</svg>
