<svg width="59" height="79" viewBox="0 0 59 79" fill="none" xmlns="http://www.w3.org/2000/svg">
<path d="M9.84766 7.86426H54.0843V11.6735H9.84766V7.86426Z" fill="white"/>
<path d="M56.5424 14.7455H9.50413C8.87696 14.7367 8.25808 14.6008 7.68483 14.3463C7.11158 14.0917 6.59582 13.7237 6.16867 13.2644C5.74151 12.8051 5.41181 12.264 5.19944 11.6738C4.98708 11.0836 4.89644 10.4565 4.93301 9.83036C4.92996 8.58425 5.40031 7.3835 6.24893 6.471C7.09755 5.55851 8.26107 5.0024 9.50413 4.91518H56.5424C57.1942 4.91518 57.8193 4.65626 58.2802 4.19537C58.7411 3.73448 59 3.10938 59 2.45759C59 1.8058 58.7411 1.1807 58.2802 0.719811C57.8193 0.258924 57.1942 0 56.5424 0H9.50413C6.95705 0.089202 4.54417 1.16415 2.77439 2.99812C1.0046 4.83209 0.0162702 7.28172 0.0178317 9.83036C-0.00594389 10.2314 -0.00594389 10.6335 0.0178317 11.0346C-0.00584675 11.2305 -0.00584675 11.4285 0.0178317 11.6244V68.8125C0.0162702 71.3612 1.0046 73.8108 2.77439 75.6448C4.54417 77.4787 6.95705 78.5537 9.50413 78.6429H56.5424C57.1942 78.6429 57.8193 78.384 58.2802 77.9231C58.7411 77.4622 59 76.8371 59 76.1853V17.3752C59.0014 16.7066 58.7481 16.0625 58.2916 15.574C57.8351 15.0855 57.2096 14.7893 56.5424 14.7455ZM54.0848 73.7277H9.50413C8.26107 73.6405 7.09755 73.0844 6.24893 72.1719C5.40031 71.2594 4.92996 70.0586 4.93301 68.8125V18.5548C6.33037 19.3257 7.90893 19.7076 9.50413 19.6607H54.0848V73.7277Z" fill="white"/>
</svg>
