<svg width="119" height="83" viewBox="0 0 119 83" fill="none" xmlns="http://www.w3.org/2000/svg">
<path fill-rule="evenodd" clip-rule="evenodd" d="M56.4243 59.3885C55.3027 59.5161 54.1747 59.5793 53.0459 59.5779H35.5V73.9583C35.5 73.9583 33.1156 73.4761 29.5833 72.1153C19.4836 68.231 0 57.1846 0 29.7904C0 13.3421 13.3362 0 29.7904 0H53.0429C67.3968 0 79.381 10.153 82.2032 23.6667H94.504C100.824 23.6675 106.885 26.1787 111.354 30.648C115.823 35.1174 118.333 41.1788 118.333 47.499C118.333 69.0327 101.092 77.9403 91.7083 81.1915C88.2027 82.4073 85.7917 82.8333 85.7917 82.8333V71.3284H77.0823C72.893 71.3311 68.7772 70.2286 65.1501 68.1323C61.5231 66.0359 58.5132 63.0199 56.4243 59.3885ZM29.5833 53.6612V65.7164C26.6359 64.4229 23.832 62.8246 21.2172 60.9476C13.5551 55.4066 5.91667 46.0139 5.91667 29.7875C5.91745 23.4563 8.43306 17.3846 12.9102 12.9081C17.3873 8.43152 23.4592 5.91667 29.7904 5.91667H53.0429C59.1323 5.91676 64.9916 8.24377 69.4218 12.4216C73.852 16.5994 76.5183 22.3122 76.8752 28.3911C76.8634 28.6534 76.8466 28.9138 76.825 29.1721C76.5162 33.1294 75.4182 36.9847 73.5957 40.5108C71.7732 44.0369 69.2631 47.1624 66.2134 49.703C62.3104 52.2915 57.7293 53.6686 53.0459 53.6612H29.5833ZM69.7427 54.46C67.7076 56.1302 65.493 57.569 63.1397 58.7495C64.8184 60.8311 66.9422 62.5099 69.355 63.6628C71.7678 64.8157 74.4082 65.4133 77.0823 65.4117H91.7083V74.8813C94.2125 73.8941 96.6216 72.6812 98.906 71.2574C105.908 66.8347 112.417 59.6518 112.417 47.499C112.417 42.748 110.53 38.1915 107.17 34.8318C103.811 31.472 99.255 29.5841 94.504 29.5833H82.8333V29.7904C82.8333 40.0529 77.6415 49.1024 69.7427 54.46Z" fill="white"/>
</svg>
