<svg width="106" height="77" viewBox="0 0 106 77" fill="none" xmlns="http://www.w3.org/2000/svg">
<path d="M93.4375 50.3125V57.5H86.25V50.3125H93.4375ZM83.8542 26.3542H76.6667V23.9583C76.6667 20.1458 78.1812 16.4895 80.877 13.7937C83.5728 11.0978 87.2292 9.58333 91.0417 9.58333C94.8541 9.58333 98.5105 11.0978 101.206 13.7937C103.902 16.4895 105.417 20.1458 105.417 23.9583C105.417 28.6062 103.021 32.9667 99.2354 35.5062L97.7979 36.4167C95.0667 38.3333 93.4375 41.2562 93.4375 44.5625V45.5208H86.25V44.5625C86.25 38.8604 89.125 33.5417 93.8687 30.4271L95.2583 29.5167C97.1271 28.2708 98.2292 26.2104 98.2292 23.9583C98.2292 22.0521 97.4719 20.2239 96.124 18.876C94.7761 17.5281 92.9479 16.7708 91.0417 16.7708C89.1354 16.7708 87.3073 17.5281 85.9593 18.876C84.6114 20.2239 83.8542 22.0521 83.8542 23.9583V26.3542ZM38.3333 43.125C51.1271 43.125 76.6667 49.5458 76.6667 62.2917V76.6667H0V62.2917C0 49.5458 25.5396 43.125 38.3333 43.125ZM38.3333 0C43.4166 0 48.2918 2.01934 51.8862 5.61379C55.4807 9.20823 57.5 14.0834 57.5 19.1667C57.5 24.25 55.4807 29.1251 51.8862 32.7195C48.2918 36.314 43.4166 38.3333 38.3333 38.3333C33.25 38.3333 28.3749 36.314 24.7805 32.7195C21.186 29.1251 19.1667 24.25 19.1667 19.1667C19.1667 14.0834 21.186 9.20823 24.7805 5.61379C28.3749 2.01934 33.25 0 38.3333 0ZM38.3333 52.2292C24.1021 52.2292 9.10417 59.225 9.10417 62.2917V67.5625H67.5625V62.2917C67.5625 59.225 52.5646 52.2292 38.3333 52.2292ZM38.3333 9.10417C35.6646 9.10417 33.1052 10.1643 31.2181 12.0514C29.331 13.9385 28.2708 16.4979 28.2708 19.1667C28.2708 21.8354 29.331 24.3948 31.2181 26.2819C33.1052 28.169 35.6646 29.2292 38.3333 29.2292C41.0021 29.2292 43.5615 28.169 45.4486 26.2819C47.3357 24.3948 48.3958 21.8354 48.3958 19.1667C48.3958 16.4979 47.3357 13.9385 45.4486 12.0514C43.5615 10.1643 41.0021 9.10417 38.3333 9.10417Z" fill="white"/>
</svg>
