<svg width="21" height="21" viewBox="0 0 21 21" fill="none" xmlns="http://www.w3.org/2000/svg">
<path d="M10.5761 0.000976562C4.88126 0.000976562 0.152134 4.1335 0.152134 9.33343C0.152134 11.78 1.29679 13.9303 2.99954 15.5812C2.93364 16.527 2.46016 17.0925 1.80525 17.6474C1.45299 17.9445 1.0633 18.2228 0.711852 18.5655C0.360401 18.9082 1.252e-06 19.3734 1.252e-06 20.0181C-0.000315485 20.1992 0.059473 20.3754 0.169945 20.5187C0.280416 20.662 0.43529 20.7644 0.610159 20.8097C2.13799 21.2201 3.78298 20.9174 5.28803 20.3755C6.6434 19.8875 7.78724 19.1653 8.69515 18.4635C9.30857 18.5647 9.92686 18.6414 10.5761 18.6414C16.2709 18.6414 21 14.5334 21 9.33343C21 4.13431 16.2709 0.000976562 10.5761 0.000976562ZM10.5761 1.63309C15.4948 1.63309 19.3729 5.13399 19.3729 9.33424C19.3729 13.5353 15.4948 17.0101 10.5761 17.0101C9.93744 17.0101 9.32565 16.9717 8.72037 16.8575C8.60183 16.8298 8.47861 16.8291 8.35977 16.8555C8.24094 16.8819 8.12952 16.9348 8.03374 17.0101C7.29911 17.6295 6.0666 18.3737 4.75435 18.8462C3.94569 19.1376 3.12726 19.2706 2.36416 19.3057C2.535 19.1669 2.67086 19.069 2.87262 18.8976C3.69186 18.204 4.67788 17.0892 4.67788 15.4033C4.67732 15.2872 4.65207 15.1725 4.60381 15.0669C4.55555 14.9614 4.48539 14.8674 4.39802 14.7912C2.77093 13.3827 1.78003 11.4633 1.78003 9.33424C1.78003 5.13235 5.65738 1.63309 10.5761 1.63309ZM10.5761 3.97845C9.38423 3.97845 8.36404 4.80267 8.36404 6.35073C8.36404 7.3602 8.83915 8.37048 9.45745 9.00292C9.69825 9.637 9.2687 9.88753 9.17759 9.92099C7.93042 10.3731 6.4571 11.1965 6.4571 12.0117V12.3178C6.4571 13.4276 8.59102 13.6691 10.5761 13.6691C12.5644 13.6691 14.695 13.4276 14.695 12.3178V12.0117C14.695 11.1736 13.2331 10.3551 11.9233 9.92099C11.8631 9.9014 11.4848 9.72187 11.7199 9.00292C12.3341 8.36803 12.7881 7.35693 12.7881 6.35073C12.7881 4.80348 11.7679 3.97845 10.5761 3.97845Z" fill="#666666"/>
</svg>
