<svg width="36" height="28" viewBox="0 0 36 28" fill="none" xmlns="http://www.w3.org/2000/svg">
<path d="M7 21H21V19H7V21ZM7 13H29V11H7V13ZM3.232 28C2.31067 28 1.542 27.692 0.926 27.076C0.31 26.46 0.00133333 25.6907 0 24.768V3.232C0 2.31067 0.308667 1.542 0.926 0.926C1.54333 0.31 2.31133 0.00133333 3.23 0H13.192L17.192 4H32.77C33.69 4 34.4587 4.30867 35.076 4.926C35.6933 5.54333 36.0013 6.312 36 7.232V24.77C36 25.69 35.692 26.4587 35.076 27.076C34.46 27.6933 33.6913 28.0013 32.77 28H3.232ZM3.232 26H32.77C33.1287 26 33.4233 25.8847 33.654 25.654C33.8847 25.4233 34 25.1287 34 24.77V7.23C34 6.87133 33.8847 6.57667 33.654 6.346C33.4233 6.11533 33.1287 6 32.77 6H16.39L12.39 2H3.23C2.87133 2 2.57667 2.11533 2.346 2.346C2.11533 2.57667 2 2.872 2 3.232V24.77C2 25.1287 2.11533 25.4233 2.346 25.654C2.57667 25.8847 2.872 26 3.232 26Z" fill="#666666"/>
</svg>
