<svg width="92" height="92" viewBox="0 0 92 92" fill="none" xmlns="http://www.w3.org/2000/svg">
<path d="M46 0C20.595 0 0 20.595 0 46C0 71.405 20.595 92 46 92C71.405 92 92 71.405 92 46C92 20.595 71.405 0 46 0ZM46 9.99511C65.885 9.99511 81.9993 26.12 81.9993 46C81.9993 65.8801 65.885 81.9993 46 81.9993C26.115 81.9993 10.0007 65.8801 10.0007 46C10.0008 26.12 26.115 9.99511 46 9.99511ZM63.6262 24.1567L36.9651 50.8235L28.3176 42.176L19.833 50.655L28.4804 59.3025L37.0212 67.8433L45.5003 59.3586L72.1669 32.6975L63.6262 24.1567Z" fill="#4AAD50"/>
</svg>
