<svg width="35" height="47" viewBox="0 0 35 47" fill="none" xmlns="http://www.w3.org/2000/svg">
<path d="M17 28.3332C20.0058 28.3332 22.8885 27.1391 25.0139 25.0137C27.1393 22.8883 28.3333 20.0056 28.3333 16.9998C28.3333 13.9941 27.1393 11.1114 25.0139 8.98596C22.8885 6.86055 20.0058 5.6665 17 5.6665" stroke="#666666" stroke-width="1.5" stroke-linecap="round"/>
<path d="M5.66699 17H19.8337M19.8337 17L15.5837 12.75M19.8337 17L15.5837 21.25" stroke="#666666" stroke-width="1.5" stroke-linecap="round" stroke-linejoin="round"/>
<path d="M7.73828 41.5132V43H3.30713V41.5132H7.73828ZM3.77588 32.3359V43H1.99609V32.3359H3.77588ZM8.771 39.3599V38.7227C8.771 38.1074 8.84668 37.563 8.99805 37.0894C9.14941 36.6157 9.36426 36.2202 9.64258 35.9028C9.92578 35.5806 10.2578 35.3389 10.6387 35.1777C11.0195 35.0117 11.4395 34.9287 11.8984 34.9287C12.3672 34.9287 12.792 35.0117 13.1729 35.1777C13.5586 35.3389 13.8906 35.5806 14.1689 35.9028C14.4521 36.2202 14.6694 36.6157 14.8208 37.0894C14.9722 37.563 15.0479 38.1074 15.0479 38.7227V39.3599C15.0479 39.9751 14.9722 40.5195 14.8208 40.9932C14.6694 41.4668 14.4521 41.8647 14.1689 42.187C13.8906 42.5044 13.561 42.7437 13.1802 42.9048C12.7993 43.0659 12.377 43.1465 11.9131 43.1465C11.4541 43.1465 11.0317 43.0659 10.646 42.9048C10.2651 42.7437 9.93311 42.5044 9.6499 42.187C9.3667 41.8647 9.14941 41.4668 8.99805 40.9932C8.84668 40.5195 8.771 39.9751 8.771 39.3599ZM10.4775 38.7227V39.3599C10.4775 39.7554 10.5117 40.1021 10.5801 40.3999C10.6484 40.6929 10.7461 40.937 10.873 41.1323C11 41.3276 11.1514 41.4741 11.3271 41.5718C11.5029 41.6694 11.6982 41.7183 11.9131 41.7183C12.1523 41.7183 12.3599 41.6694 12.5356 41.5718C12.7163 41.4741 12.8652 41.3276 12.9824 41.1323C13.1045 40.937 13.1948 40.6929 13.2534 40.3999C13.312 40.1021 13.3413 39.7554 13.3413 39.3599V38.7227C13.3413 38.332 13.3071 37.9902 13.2388 37.6973C13.1704 37.3994 13.0728 37.1528 12.9458 36.9575C12.8188 36.7573 12.665 36.6084 12.4844 36.5107C12.3086 36.4131 12.1133 36.3643 11.8984 36.3643C11.6885 36.3643 11.4956 36.4131 11.3198 36.5107C11.1489 36.6084 11 36.7573 10.873 36.9575C10.7461 37.1528 10.6484 37.3994 10.5801 37.6973C10.5117 37.9902 10.4775 38.332 10.4775 38.7227ZM20.7461 35.0752H22.2915V43.0293C22.2915 43.7422 22.1597 44.3257 21.896 44.7798C21.6372 45.2388 21.2759 45.5781 20.812 45.7979C20.3481 46.0176 19.811 46.1274 19.2007 46.1274C18.9761 46.1274 18.71 46.0908 18.4023 46.0176C18.0947 45.9443 17.7944 45.8369 17.5015 45.6953C17.2085 45.5537 16.9644 45.3779 16.769 45.168L17.3916 43.9814C17.6211 44.2158 17.8921 44.3965 18.2046 44.5234C18.5171 44.6553 18.8174 44.7212 19.1055 44.7212C19.418 44.7212 19.6816 44.6675 19.8965 44.5601C20.1162 44.4575 20.2847 44.2842 20.4019 44.04C20.519 43.8008 20.5776 43.4761 20.5776 43.0659V36.8696L20.7461 35.0752ZM16.2637 39.3599V38.7373C16.2637 38.0879 16.3247 37.5264 16.4468 37.0527C16.5688 36.5742 16.7446 36.1763 16.9741 35.8589C17.2036 35.5415 17.4844 35.3071 17.8164 35.1558C18.1484 35.0044 18.5195 34.9287 18.9297 34.9287C19.3545 34.9287 19.7134 35.019 20.0063 35.1997C20.3042 35.3755 20.5459 35.627 20.7314 35.9541C20.9219 36.2812 21.0708 36.6719 21.1782 37.126C21.2856 37.5752 21.3638 38.0781 21.4126 38.6348V39.499C21.3638 40.0361 21.2808 40.5293 21.1636 40.9785C21.0464 41.4229 20.8877 41.8062 20.6875 42.1284C20.4922 42.4507 20.248 42.7021 19.9551 42.8828C19.667 43.0586 19.3203 43.1465 18.915 43.1465C18.5098 43.1465 18.1436 43.0659 17.8164 42.9048C17.4893 42.7437 17.2085 42.5044 16.9741 42.187C16.7446 41.8696 16.5688 41.4766 16.4468 41.0078C16.3247 40.5342 16.2637 39.9849 16.2637 39.3599ZM17.9702 38.7373V39.3599C17.9702 39.7651 17.9971 40.1143 18.0508 40.4072C18.1094 40.7002 18.1948 40.9419 18.3071 41.1323C18.4194 41.3179 18.5659 41.457 18.7466 41.5498C18.9272 41.6377 19.1421 41.6816 19.3911 41.6816C19.7183 41.6816 19.9819 41.6035 20.1821 41.4473C20.3872 41.291 20.5435 41.0811 20.6509 40.8174C20.7632 40.5488 20.8413 40.251 20.8853 39.9238V38.2173C20.8608 37.9585 20.812 37.7192 20.7388 37.4995C20.6704 37.2749 20.5752 37.0796 20.4531 36.9136C20.3359 36.7476 20.1895 36.6182 20.0137 36.5254C19.8428 36.4277 19.6401 36.3789 19.4058 36.3789C19.1616 36.3789 18.9468 36.4277 18.7612 36.5254C18.5806 36.6182 18.4316 36.7622 18.3145 36.9575C18.1973 37.1479 18.1094 37.3921 18.0508 37.6899C17.9971 37.9829 17.9702 38.332 17.9702 38.7373ZM25.8145 35.0752V43H24.1079V35.0752H25.8145ZM24.02 33.0024C24.02 32.729 24.103 32.502 24.269 32.3213C24.4351 32.1357 24.667 32.043 24.9648 32.043C25.2627 32.043 25.4946 32.1357 25.6606 32.3213C25.8267 32.502 25.9097 32.729 25.9097 33.0024C25.9097 33.2661 25.8267 33.4883 25.6606 33.6689C25.4946 33.8496 25.2627 33.9399 24.9648 33.9399C24.667 33.9399 24.4351 33.8496 24.269 33.6689C24.103 33.4883 24.02 33.2661 24.02 33.0024ZM29.3228 36.7671V43H27.6162V35.0752H29.2202L29.3228 36.7671ZM29.0151 38.752H28.4731C28.4683 38.1807 28.5293 37.6606 28.6562 37.1919C28.7832 36.7231 28.9639 36.3203 29.1982 35.9834C29.4375 35.6465 29.7207 35.3877 30.0479 35.207C30.3799 35.0215 30.7485 34.9287 31.1538 34.9287C31.4663 34.9287 31.752 34.9824 32.0107 35.0898C32.2744 35.1924 32.499 35.3608 32.6846 35.5952C32.8701 35.8296 33.0117 36.1348 33.1094 36.5107C33.2119 36.8867 33.2632 37.3457 33.2632 37.8877V43H31.5566V37.873C31.5566 37.502 31.5151 37.209 31.4321 36.9941C31.354 36.7744 31.2368 36.6182 31.0806 36.5254C30.9243 36.4277 30.7266 36.3789 30.4873 36.3789C30.2676 36.3789 30.0649 36.4424 29.8794 36.5693C29.6987 36.6914 29.5425 36.8623 29.4106 37.082C29.2837 37.2969 29.186 37.5483 29.1177 37.8364C29.0493 38.1196 29.0151 38.4248 29.0151 38.752Z" fill="#666666"/>
</svg>
