<svg width="42" height="43" viewBox="0 0 42 43" fill="none" xmlns="http://www.w3.org/2000/svg">
<path d="M6.19629 35.521H7.96875C7.93457 36.2925 7.77832 36.9492 7.5 37.4912C7.22168 38.0283 6.82129 38.4385 6.29883 38.7217C5.78125 39.0049 5.14893 39.1465 4.40186 39.1465C3.83545 39.1465 3.32764 39.0439 2.87842 38.8389C2.43408 38.6338 2.05566 38.3384 1.74316 37.9526C1.43066 37.562 1.19141 37.0859 1.02539 36.5244C0.864258 35.9629 0.783691 35.3257 0.783691 34.6128V32.7231C0.783691 32.0103 0.866699 31.373 1.03271 30.8115C1.20361 30.25 1.44775 29.7739 1.76514 29.3833C2.08252 28.9927 2.46826 28.6973 2.92236 28.4971C3.38135 28.292 3.89893 28.1895 4.4751 28.1895C5.2124 28.1895 5.83252 28.3311 6.33545 28.6143C6.83838 28.8975 7.22656 29.3125 7.5 29.8594C7.77344 30.4062 7.93213 31.0728 7.97607 31.8589H6.20361C6.1792 31.3267 6.10596 30.9019 5.98389 30.5845C5.8667 30.2622 5.68604 30.0303 5.44189 29.8887C5.20264 29.7471 4.88037 29.6763 4.4751 29.6763C4.13818 29.6763 3.84766 29.7397 3.60352 29.8667C3.36426 29.9937 3.1665 30.1841 3.01025 30.438C2.85889 30.687 2.74414 31.002 2.66602 31.3828C2.59277 31.7588 2.55615 32.2007 2.55615 32.7085V34.6128C2.55615 35.1011 2.58789 35.5332 2.65137 35.9092C2.71484 36.2852 2.81738 36.605 2.95898 36.8687C3.10059 37.1274 3.28857 37.3252 3.52295 37.4619C3.75732 37.5938 4.05029 37.6597 4.40186 37.6597C4.82178 37.6597 5.15625 37.5938 5.40527 37.4619C5.65918 37.3301 5.84717 37.1079 5.96924 36.7954C6.09131 36.4829 6.16699 36.0581 6.19629 35.521ZM13.3081 37.1323V31.0752H15.0146V39H13.4033L13.3081 37.1323ZM13.5498 35.4771L14.0918 35.4624C14.0918 35.9946 14.043 36.4854 13.9453 36.9346C13.8477 37.3838 13.6963 37.7744 13.4912 38.1064C13.291 38.4336 13.0298 38.6899 12.7075 38.8755C12.3901 39.0562 12.0093 39.1465 11.5649 39.1465C11.2378 39.1465 10.9375 39.0903 10.6641 38.978C10.3955 38.8657 10.1636 38.6924 9.96826 38.458C9.77783 38.2236 9.62891 37.9185 9.52148 37.5425C9.41406 37.1665 9.36035 36.7173 9.36035 36.1948V31.0752H11.0669V36.2095C11.0669 36.4927 11.0913 36.7295 11.1401 36.9199C11.189 37.1055 11.2573 37.2568 11.3452 37.374C11.4331 37.4863 11.5308 37.5669 11.6382 37.6157C11.7505 37.6597 11.8701 37.6816 11.9971 37.6816C12.3828 37.6816 12.688 37.5864 12.9126 37.396C13.1421 37.2007 13.3057 36.937 13.4033 36.605C13.501 36.2729 13.5498 35.897 13.5498 35.4771ZM18.4277 32.606V39H16.7212V31.0752H18.3472L18.4277 32.606ZM20.3394 31.0239L20.332 32.7085C20.2344 32.6841 20.1294 32.6694 20.0171 32.6646C19.9097 32.6548 19.8022 32.6499 19.6948 32.6499C19.4604 32.6499 19.2578 32.6914 19.0869 32.7744C18.916 32.8574 18.772 32.9771 18.6548 33.1333C18.5376 33.2896 18.4448 33.4775 18.3765 33.6973C18.313 33.917 18.2739 34.166 18.2593 34.4443L17.8931 34.459C17.8931 33.9609 17.9321 33.4995 18.0103 33.0747C18.0884 32.645 18.2056 32.2715 18.3618 31.9541C18.5229 31.6318 18.7231 31.3804 18.9624 31.1997C19.2017 31.019 19.48 30.9287 19.7974 30.9287C19.8853 30.9287 19.9854 30.9385 20.0977 30.958C20.21 30.9775 20.2905 30.9995 20.3394 31.0239ZM25.1807 36.9126C25.1807 36.7466 25.1318 36.6001 25.0342 36.4731C24.9414 36.3413 24.79 36.2119 24.5801 36.085C24.3701 35.958 24.0894 35.8213 23.7378 35.6748C23.3716 35.5234 23.0469 35.3721 22.7637 35.2207C22.4805 35.0693 22.2412 34.9033 22.0459 34.7227C21.8506 34.5371 21.7017 34.3247 21.5991 34.0854C21.4966 33.8462 21.4453 33.5679 21.4453 33.2505C21.4453 32.9233 21.5063 32.6206 21.6284 32.3423C21.7505 32.064 21.9263 31.8198 22.1558 31.6099C22.3853 31.395 22.6611 31.229 22.9834 31.1118C23.3057 30.9897 23.6694 30.9287 24.0747 30.9287C24.646 30.9287 25.1343 31.0337 25.5396 31.2437C25.9497 31.4487 26.2622 31.7368 26.4771 32.1079C26.6968 32.4741 26.8066 32.8965 26.8066 33.375H25.1001C25.1001 33.1748 25.0635 32.9941 24.9902 32.833C24.917 32.667 24.8047 32.5352 24.6533 32.4375C24.502 32.335 24.3091 32.2837 24.0747 32.2837C23.8599 32.2837 23.6792 32.3252 23.5327 32.4082C23.3911 32.4863 23.2837 32.5938 23.2104 32.7305C23.1421 32.8623 23.1079 33.0112 23.1079 33.1772C23.1079 33.2993 23.1299 33.4067 23.1738 33.4995C23.2178 33.5923 23.291 33.6826 23.3936 33.7705C23.4961 33.8535 23.6328 33.939 23.8037 34.0269C23.9795 34.1147 24.2017 34.2148 24.4702 34.3271C25.0024 34.5322 25.4443 34.7446 25.7959 34.9644C26.1475 35.1841 26.4111 35.4404 26.5869 35.7334C26.7627 36.0264 26.8506 36.3901 26.8506 36.8247C26.8506 37.1763 26.7847 37.4937 26.6528 37.7769C26.5259 38.0601 26.3403 38.3042 26.0962 38.5093C25.8569 38.7144 25.5664 38.873 25.2246 38.9854C24.8877 39.0928 24.5117 39.1465 24.0967 39.1465C23.4766 39.1465 22.9517 39.0244 22.522 38.7803C22.0972 38.5312 21.7749 38.2114 21.5552 37.8208C21.3354 37.4302 21.2256 37.0176 21.2256 36.583H22.8735C22.8882 36.8955 22.9541 37.1396 23.0713 37.3154C23.1934 37.4912 23.3472 37.6133 23.5327 37.6816C23.7183 37.7451 23.9111 37.7769 24.1113 37.7769C24.3506 37.7769 24.5483 37.7451 24.7046 37.6816C24.8608 37.6133 24.978 37.5132 25.0562 37.3813C25.1392 37.2495 25.1807 37.0933 25.1807 36.9126ZM28.0884 35.3599V34.7227C28.0884 34.1074 28.1641 33.563 28.3154 33.0894C28.4668 32.6157 28.6816 32.2202 28.96 31.9028C29.2432 31.5806 29.5752 31.3389 29.9561 31.1777C30.3369 31.0117 30.7568 30.9287 31.2158 30.9287C31.6846 30.9287 32.1094 31.0117 32.4902 31.1777C32.876 31.3389 33.208 31.5806 33.4863 31.9028C33.7695 32.2202 33.9868 32.6157 34.1382 33.0894C34.2896 33.563 34.3652 34.1074 34.3652 34.7227V35.3599C34.3652 35.9751 34.2896 36.5195 34.1382 36.9932C33.9868 37.4668 33.7695 37.8647 33.4863 38.187C33.208 38.5044 32.8784 38.7437 32.4976 38.9048C32.1167 39.0659 31.6943 39.1465 31.2305 39.1465C30.7715 39.1465 30.3491 39.0659 29.9634 38.9048C29.5825 38.7437 29.2505 38.5044 28.9673 38.187C28.6841 37.8647 28.4668 37.4668 28.3154 36.9932C28.1641 36.5195 28.0884 35.9751 28.0884 35.3599ZM29.7949 34.7227V35.3599C29.7949 35.7554 29.8291 36.1021 29.8975 36.3999C29.9658 36.6929 30.0635 36.937 30.1904 37.1323C30.3174 37.3276 30.4688 37.4741 30.6445 37.5718C30.8203 37.6694 31.0156 37.7183 31.2305 37.7183C31.4697 37.7183 31.6772 37.6694 31.853 37.5718C32.0337 37.4741 32.1826 37.3276 32.2998 37.1323C32.4219 36.937 32.5122 36.6929 32.5708 36.3999C32.6294 36.1021 32.6587 35.7554 32.6587 35.3599V34.7227C32.6587 34.332 32.6245 33.9902 32.5562 33.6973C32.4878 33.3994 32.3901 33.1528 32.2632 32.9575C32.1362 32.7573 31.9824 32.6084 31.8018 32.5107C31.626 32.4131 31.4307 32.3643 31.2158 32.3643C31.0059 32.3643 30.813 32.4131 30.6372 32.5107C30.4663 32.6084 30.3174 32.7573 30.1904 32.9575C30.0635 33.1528 29.9658 33.3994 29.8975 33.6973C29.8291 33.9902 29.7949 34.332 29.7949 34.7227ZM39.5068 36.9126C39.5068 36.7466 39.458 36.6001 39.3604 36.4731C39.2676 36.3413 39.1162 36.2119 38.9062 36.085C38.6963 35.958 38.4155 35.8213 38.064 35.6748C37.6978 35.5234 37.373 35.3721 37.0898 35.2207C36.8066 35.0693 36.5674 34.9033 36.3721 34.7227C36.1768 34.5371 36.0278 34.3247 35.9253 34.0854C35.8228 33.8462 35.7715 33.5679 35.7715 33.2505C35.7715 32.9233 35.8325 32.6206 35.9546 32.3423C36.0767 32.064 36.2524 31.8198 36.4819 31.6099C36.7114 31.395 36.9873 31.229 37.3096 31.1118C37.6318 30.9897 37.9956 30.9287 38.4009 30.9287C38.9722 30.9287 39.4604 31.0337 39.8657 31.2437C40.2759 31.4487 40.5884 31.7368 40.8032 32.1079C41.0229 32.4741 41.1328 32.8965 41.1328 33.375H39.4263C39.4263 33.1748 39.3896 32.9941 39.3164 32.833C39.2432 32.667 39.1309 32.5352 38.9795 32.4375C38.8281 32.335 38.6353 32.2837 38.4009 32.2837C38.186 32.2837 38.0054 32.3252 37.8589 32.4082C37.7173 32.4863 37.6099 32.5938 37.5366 32.7305C37.4683 32.8623 37.4341 33.0112 37.4341 33.1772C37.4341 33.2993 37.4561 33.4067 37.5 33.4995C37.5439 33.5923 37.6172 33.6826 37.7197 33.7705C37.8223 33.8535 37.959 33.939 38.1299 34.0269C38.3057 34.1147 38.5278 34.2148 38.7964 34.3271C39.3286 34.5322 39.7705 34.7446 40.1221 34.9644C40.4736 35.1841 40.7373 35.4404 40.9131 35.7334C41.0889 36.0264 41.1768 36.3901 41.1768 36.8247C41.1768 37.1763 41.1108 37.4937 40.979 37.7769C40.8521 38.0601 40.6665 38.3042 40.4224 38.5093C40.1831 38.7144 39.8926 38.873 39.5508 38.9854C39.2139 39.0928 38.8379 39.1465 38.4229 39.1465C37.8027 39.1465 37.2778 39.0244 36.8481 38.7803C36.4233 38.5312 36.1011 38.2114 35.8813 37.8208C35.6616 37.4302 35.5518 37.0176 35.5518 36.583H37.1997C37.2144 36.8955 37.2803 37.1396 37.3975 37.3154C37.5195 37.4912 37.6733 37.6133 37.8589 37.6816C38.0444 37.7451 38.2373 37.7769 38.4375 37.7769C38.6768 37.7769 38.8745 37.7451 39.0308 37.6816C39.187 37.6133 39.3042 37.5132 39.3823 37.3813C39.4653 37.2495 39.5068 37.0933 39.5068 36.9126Z" fill="#666666"/>
<path d="M34.8929 1.24682e-06H26.9768C25.278 1.24682e-06 23.6173 0.481641 22.1884 1.39027L20.5 2.45944L18.8116 1.39027C17.3841 0.481815 15.7216 -0.000895374 14.0232 1.24682e-06H6.10714C5.49475 1.24682e-06 5 0.488473 5 1.09308V20.4953C5 21.0999 5.49475 21.5884 6.10714 21.5884H14.0232C15.722 21.5884 17.3827 22.07 18.8116 22.9787L20.3478 23.9556C20.3927 23.9829 20.4446 24 20.4965 24C20.5484 24 20.6003 23.9863 20.6453 23.9556L22.1815 22.9787C23.6138 22.07 25.278 21.5884 26.9768 21.5884H34.8929C35.5052 21.5884 36 21.0999 36 20.4953V1.09308C36 0.488473 35.5052 1.24682e-06 34.8929 1.24682e-06ZM14.0232 19.129H7.49107V2.45944H14.0232C15.248 2.45944 16.4382 2.80444 17.4657 3.45688L19.1541 4.52605L19.3929 4.67976V20.4611C17.746 19.5867 15.9054 19.129 14.0232 19.129ZM33.5089 19.129H26.9768C25.0946 19.129 23.254 19.5867 21.6071 20.4611V4.67976L21.8459 4.52605L23.5343 3.45688C24.5618 2.80444 25.752 2.45944 26.9768 2.45944H33.5089V19.129ZM16.5177 6.83177H10.0894C9.95446 6.83177 9.84375 6.94791 9.84375 7.08796V8.62511C9.84375 8.76516 9.95446 8.8813 10.0894 8.8813H16.5143C16.6492 8.8813 16.7599 8.76516 16.7599 8.62511V7.08796C16.7634 6.94791 16.6527 6.83177 16.5177 6.83177ZM24.2366 7.08796V8.62511C24.2366 8.76516 24.3473 8.8813 24.4823 8.8813H30.9071C31.0421 8.8813 31.1528 8.76516 31.1528 8.62511V7.08796C31.1528 6.94791 31.0421 6.83177 30.9071 6.83177H24.4823C24.3473 6.83177 24.2366 6.94791 24.2366 7.08796ZM16.5177 11.614H10.0894C9.95446 11.614 9.84375 11.7301 9.84375 11.8702V13.4073C9.84375 13.5474 9.95446 13.6635 10.0894 13.6635H16.5143C16.6492 13.6635 16.7599 13.5474 16.7599 13.4073V11.8702C16.7634 11.7301 16.6527 11.614 16.5177 11.614ZM30.9106 11.614H24.4823C24.3473 11.614 24.2366 11.7301 24.2366 11.8702V13.4073C24.2366 13.5474 24.3473 13.6635 24.4823 13.6635H30.9071C31.0421 13.6635 31.1528 13.5474 31.1528 13.4073V11.8702C31.1562 11.7301 31.0455 11.614 30.9106 11.614Z" fill="#27A844"/>
</svg>
