<svg width="68" height="43" viewBox="0 0 68 43" fill="none" xmlns="http://www.w3.org/2000/svg">
<path d="M39.25 12.5C38.376 11.7674 37.265 11.3786 36.125 11.4062H28.7969C28.4627 11.4147 28.1304 11.3556 27.8196 11.2326C27.5088 11.1095 27.2261 10.9251 26.9883 10.6902C26.7505 10.4553 26.5626 10.1749 26.4357 9.86567C26.3088 9.55646 26.2457 9.22482 26.25 8.89062C26.2418 8.76054 26.2418 8.63008 26.25 8.5C26.3485 7.90282 26.6616 7.36215 27.1306 6.97951C27.5996 6.59686 28.1921 6.39858 28.7969 6.42188H36.0156C36.6045 6.42136 37.1743 6.63001 37.6236 7.01063C38.0729 7.39125 38.3724 7.91908 38.4687 8.5H40.8125C40.7144 7.29521 40.1665 6.17146 39.2777 5.35217C38.3889 4.53289 37.2244 4.07806 36.0156 4.07812H33.5469V0.484375H31.5937V4.07812H28.7969C27.5881 4.07806 26.4235 4.53289 25.5348 5.35217C24.646 6.17146 24.0981 7.29521 24 8.5C23.9922 8.63009 23.9922 8.76053 24 8.89062C24 9.52056 24.1241 10.1443 24.3651 10.7263C24.6062 11.3083 24.9595 11.8371 25.405 12.2825C26.3045 13.1821 27.5247 13.6875 28.7969 13.6875H36.2031C36.5346 13.6792 36.8644 13.7373 37.173 13.8584C37.4817 13.9795 37.763 14.1612 38.0004 14.3927C38.2377 14.6242 38.4263 14.9009 38.5551 15.2065C38.6838 15.512 38.7501 15.8403 38.75 16.1719C38.7662 16.3486 38.7662 16.5264 38.75 16.7031C38.6259 17.2529 38.3186 17.7441 37.8785 18.0962C37.4384 18.4483 36.8917 18.6403 36.3281 18.6406H28.9844C28.4208 18.6403 27.874 18.4483 27.4339 18.0962C26.9939 17.7441 26.6865 17.2529 26.5625 16.7031H24.2031C24.3374 17.8771 24.8989 18.9607 25.7806 19.7473C26.6624 20.534 27.8027 20.9687 28.9844 20.9688H31.5937V24.5156H33.5469V20.9688H36.2031C37.3848 20.9687 38.5251 20.534 39.4068 19.7473C40.2886 18.9607 40.8501 17.8771 40.9844 16.7031V16.1719C40.9825 15.4701 40.8261 14.7773 40.5264 14.1427C40.2266 13.5081 39.7909 12.9472 39.25 12.5Z" fill="#27A844"/>
<path d="M4.51904 35.0449H2.27051V33.5581H4.51904C4.88525 33.5581 5.18066 33.48 5.40527 33.3237C5.63477 33.1675 5.80078 32.9526 5.90332 32.6792C6.01074 32.4058 6.06445 32.0957 6.06445 31.749C6.06445 31.417 6.01074 31.1045 5.90332 30.8115C5.80078 30.5186 5.63721 30.2817 5.4126 30.1011C5.18799 29.9204 4.89014 29.8301 4.51904 29.8301H2.76855V39H0.996094V28.3359H4.51904C5.22217 28.3359 5.82275 28.4824 6.3208 28.7754C6.81885 29.0684 7.19971 29.4712 7.46338 29.9839C7.72705 30.4917 7.85889 31.0752 7.85889 31.7344C7.85889 32.4229 7.72705 33.0137 7.46338 33.5068C7.19971 34 6.81885 34.3809 6.3208 34.6494C5.82275 34.9131 5.22217 35.0449 4.51904 35.0449ZM12.8833 37.3887V33.4409C12.8833 33.1675 12.8442 32.9478 12.7661 32.7817C12.6929 32.6157 12.583 32.4961 12.4365 32.4229C12.2949 32.3447 12.1167 32.3057 11.9019 32.3057C11.6772 32.3057 11.4868 32.3521 11.3306 32.4448C11.1792 32.5376 11.0645 32.6646 10.9863 32.8257C10.9082 32.9819 10.8691 33.1626 10.8691 33.3677H9.1626C9.1626 33.0503 9.22607 32.7451 9.35303 32.4521C9.48486 32.1592 9.67285 31.8979 9.91699 31.6685C10.1611 31.439 10.4565 31.2583 10.8032 31.1265C11.1499 30.9946 11.5356 30.9287 11.9604 30.9287C12.4683 30.9287 12.9199 31.0142 13.3154 31.1851C13.7109 31.3511 14.021 31.6221 14.2456 31.998C14.4751 32.3691 14.5898 32.8574 14.5898 33.4629V37.1616C14.5898 37.5278 14.6118 37.855 14.6558 38.1431C14.7046 38.4263 14.7705 38.6729 14.8535 38.8828V39H13.1177C13.0396 38.8096 12.981 38.5654 12.9419 38.2676C12.9028 37.9697 12.8833 37.6768 12.8833 37.3887ZM13.1104 34.1733L13.1177 35.2793H12.2974C12.0532 35.2793 11.8335 35.3135 11.6382 35.3818C11.4429 35.4453 11.2769 35.5381 11.1401 35.6602C11.0083 35.7773 10.9058 35.9214 10.8325 36.0923C10.7642 36.2632 10.73 36.4512 10.73 36.6562C10.73 36.9053 10.7642 37.1079 10.8325 37.2642C10.9058 37.4204 11.0107 37.5376 11.1475 37.6157C11.2891 37.689 11.46 37.7256 11.6602 37.7256C11.9336 37.7256 12.1704 37.667 12.3706 37.5498C12.5757 37.4277 12.7319 37.2812 12.8394 37.1104C12.9517 36.9395 12.9956 36.7832 12.9712 36.6416L13.3594 37.3521C13.3203 37.5376 13.2471 37.7329 13.1396 37.938C13.0371 38.1431 12.9028 38.3384 12.7368 38.5239C12.5708 38.7095 12.3706 38.8608 12.1362 38.978C11.9019 39.0903 11.6309 39.1465 11.3232 39.1465C10.8789 39.1465 10.4834 39.0537 10.1367 38.8682C9.79004 38.6826 9.5166 38.4165 9.31641 38.0698C9.12109 37.7183 9.02344 37.2983 9.02344 36.8101C9.02344 36.4146 9.08936 36.0557 9.22119 35.7334C9.35303 35.4111 9.54834 35.1353 9.80713 34.9058C10.0659 34.6714 10.3906 34.4907 10.7812 34.3638C11.1768 34.2368 11.6382 34.1733 12.1655 34.1733H13.1104ZM20.5664 31.0752H22.1118V39.0293C22.1118 39.7422 21.98 40.3257 21.7163 40.7798C21.4575 41.2388 21.0962 41.5781 20.6323 41.7979C20.1685 42.0176 19.6313 42.1274 19.021 42.1274C18.7964 42.1274 18.5303 42.0908 18.2227 42.0176C17.915 41.9443 17.6147 41.8369 17.3218 41.6953C17.0288 41.5537 16.7847 41.3779 16.5894 41.168L17.2119 39.9814C17.4414 40.2158 17.7124 40.3965 18.0249 40.5234C18.3374 40.6553 18.6377 40.7212 18.9258 40.7212C19.2383 40.7212 19.502 40.6675 19.7168 40.5601C19.9365 40.4575 20.105 40.2842 20.2222 40.04C20.3394 39.8008 20.3979 39.4761 20.3979 39.0659V32.8696L20.5664 31.0752ZM16.084 35.3599V34.7373C16.084 34.0879 16.145 33.5264 16.2671 33.0527C16.3892 32.5742 16.5649 32.1763 16.7944 31.8589C17.0239 31.5415 17.3047 31.3071 17.6367 31.1558C17.9688 31.0044 18.3398 30.9287 18.75 30.9287C19.1748 30.9287 19.5337 31.019 19.8267 31.1997C20.1245 31.3755 20.3662 31.627 20.5518 31.9541C20.7422 32.2812 20.8911 32.6719 20.9985 33.126C21.106 33.5752 21.1841 34.0781 21.2329 34.6348V35.499C21.1841 36.0361 21.1011 36.5293 20.9839 36.9785C20.8667 37.4229 20.708 37.8062 20.5078 38.1284C20.3125 38.4507 20.0684 38.7021 19.7754 38.8828C19.4873 39.0586 19.1406 39.1465 18.7354 39.1465C18.3301 39.1465 17.9639 39.0659 17.6367 38.9048C17.3096 38.7437 17.0288 38.5044 16.7944 38.187C16.5649 37.8696 16.3892 37.4766 16.2671 37.0078C16.145 36.5342 16.084 35.9849 16.084 35.3599ZM17.7905 34.7373V35.3599C17.7905 35.7651 17.8174 36.1143 17.8711 36.4072C17.9297 36.7002 18.0151 36.9419 18.1274 37.1323C18.2397 37.3179 18.3862 37.457 18.5669 37.5498C18.7476 37.6377 18.9624 37.6816 19.2114 37.6816C19.5386 37.6816 19.8022 37.6035 20.0024 37.4473C20.2075 37.291 20.3638 37.0811 20.4712 36.8174C20.5835 36.5488 20.6616 36.251 20.7056 35.9238V34.2173C20.6812 33.9585 20.6323 33.7192 20.5591 33.4995C20.4907 33.2749 20.3955 33.0796 20.2734 32.9136C20.1562 32.7476 20.0098 32.6182 19.834 32.5254C19.6631 32.4277 19.4604 32.3789 19.2261 32.3789C18.9819 32.3789 18.7671 32.4277 18.5815 32.5254C18.4009 32.6182 18.252 32.7622 18.1348 32.9575C18.0176 33.1479 17.9297 33.3921 17.8711 33.6899C17.8174 33.9829 17.7905 34.332 17.7905 34.7373ZM27.5024 37.3887V33.4409C27.5024 33.1675 27.4634 32.9478 27.3853 32.7817C27.312 32.6157 27.2021 32.4961 27.0557 32.4229C26.9141 32.3447 26.7358 32.3057 26.521 32.3057C26.2964 32.3057 26.106 32.3521 25.9497 32.4448C25.7983 32.5376 25.6836 32.6646 25.6055 32.8257C25.5273 32.9819 25.4883 33.1626 25.4883 33.3677H23.7817C23.7817 33.0503 23.8452 32.7451 23.9722 32.4521C24.104 32.1592 24.292 31.8979 24.5361 31.6685C24.7803 31.439 25.0757 31.2583 25.4224 31.1265C25.769 30.9946 26.1548 30.9287 26.5796 30.9287C27.0874 30.9287 27.5391 31.0142 27.9346 31.1851C28.3301 31.3511 28.6401 31.6221 28.8647 31.998C29.0942 32.3691 29.209 32.8574 29.209 33.4629V37.1616C29.209 37.5278 29.231 37.855 29.2749 38.1431C29.3237 38.4263 29.3896 38.6729 29.4727 38.8828V39H27.7368C27.6587 38.8096 27.6001 38.5654 27.561 38.2676C27.522 37.9697 27.5024 37.6768 27.5024 37.3887ZM27.7295 34.1733L27.7368 35.2793H26.9165C26.6724 35.2793 26.4526 35.3135 26.2573 35.3818C26.062 35.4453 25.896 35.5381 25.7593 35.6602C25.6274 35.7773 25.5249 35.9214 25.4517 36.0923C25.3833 36.2632 25.3491 36.4512 25.3491 36.6562C25.3491 36.9053 25.3833 37.1079 25.4517 37.2642C25.5249 37.4204 25.6299 37.5376 25.7666 37.6157C25.9082 37.689 26.0791 37.7256 26.2793 37.7256C26.5527 37.7256 26.7896 37.667 26.9897 37.5498C27.1948 37.4277 27.3511 37.2812 27.4585 37.1104C27.5708 36.9395 27.6147 36.7832 27.5903 36.6416L27.9785 37.3521C27.9395 37.5376 27.8662 37.7329 27.7588 37.938C27.6562 38.1431 27.522 38.3384 27.356 38.5239C27.1899 38.7095 26.9897 38.8608 26.7554 38.978C26.521 39.0903 26.25 39.1465 25.9424 39.1465C25.498 39.1465 25.1025 39.0537 24.7559 38.8682C24.4092 38.6826 24.1357 38.4165 23.9355 38.0698C23.7402 37.7183 23.6426 37.2983 23.6426 36.8101C23.6426 36.4146 23.7085 36.0557 23.8403 35.7334C23.9722 35.4111 24.1675 35.1353 24.4263 34.9058C24.6851 34.6714 25.0098 34.4907 25.4004 34.3638C25.7959 34.2368 26.2573 34.1733 26.7847 34.1733H27.7295ZM32.6733 32.6865V39H30.9668V31.0752H32.5708L32.6733 32.6865ZM32.395 34.752H31.8164C31.8066 34.2002 31.8555 33.6924 31.9629 33.2285C32.0752 32.7646 32.2412 32.3594 32.4609 32.0127C32.6855 31.666 32.9663 31.3999 33.3032 31.2144C33.6401 31.0239 34.0356 30.9287 34.4897 30.9287C34.7827 30.9287 35.0537 30.9824 35.3027 31.0898C35.5566 31.1924 35.7764 31.356 35.9619 31.5806C36.1523 31.8052 36.2988 32.0933 36.4014 32.4448C36.5039 32.7964 36.5552 33.2212 36.5552 33.7192V39H34.8486V33.8804C34.8486 33.4995 34.8047 33.2017 34.7168 32.9868C34.6338 32.7671 34.5117 32.6108 34.3506 32.5181C34.1895 32.4253 33.9941 32.3789 33.7646 32.3789C33.5156 32.3789 33.3032 32.4424 33.1274 32.5693C32.9517 32.6914 32.8101 32.8623 32.7026 33.082C32.5952 33.2969 32.5171 33.5483 32.4683 33.8364C32.4194 34.1196 32.395 34.4248 32.395 34.752ZM36.4453 34.2979L35.647 34.481C35.6372 33.9976 35.686 33.5435 35.7935 33.1187C35.9009 32.689 36.062 32.3105 36.2769 31.9834C36.4966 31.6562 36.77 31.3999 37.0972 31.2144C37.4292 31.0239 37.8125 30.9287 38.2471 30.9287C38.584 30.9287 38.8867 30.9849 39.1553 31.0972C39.4287 31.2046 39.6606 31.3755 39.8511 31.6099C40.0415 31.8442 40.1855 32.1494 40.2832 32.5254C40.3857 32.8965 40.437 33.3481 40.437 33.8804V39H38.7231V33.873C38.7231 33.4775 38.6792 33.1724 38.5913 32.9575C38.5083 32.7427 38.3862 32.5938 38.2251 32.5107C38.064 32.4229 37.8711 32.3789 37.6465 32.3789C37.4512 32.3789 37.2778 32.4302 37.1265 32.5327C36.98 32.6304 36.8555 32.7671 36.7529 32.9429C36.6504 33.1187 36.5723 33.3237 36.5186 33.5581C36.4697 33.7876 36.4453 34.0342 36.4453 34.2979ZM45.1978 39.1465C44.6851 39.1465 44.2285 39.0708 43.8281 38.9194C43.4277 38.7632 43.0884 38.5337 42.8101 38.231C42.5317 37.9233 42.3193 37.5474 42.1729 37.103C42.0264 36.6538 41.9531 36.1338 41.9531 35.543V34.7812C41.9531 34.1123 42.0288 33.5361 42.1802 33.0527C42.3364 32.5645 42.5513 32.1641 42.8247 31.8516C43.0981 31.5391 43.4204 31.3071 43.7915 31.1558C44.1675 31.0044 44.5752 30.9287 45.0146 30.9287C45.5127 30.9287 45.9448 31.0093 46.311 31.1704C46.6772 31.3315 46.9775 31.5732 47.2119 31.8955C47.4512 32.2178 47.627 32.6157 47.7393 33.0894C47.8564 33.563 47.915 34.1074 47.915 34.7227V35.5796H42.7734V34.2905H46.2305V34.1074C46.2207 33.7461 46.1768 33.436 46.0986 33.1772C46.0205 32.9136 45.8936 32.7134 45.7178 32.5767C45.5469 32.4351 45.3101 32.3643 45.0073 32.3643C44.7876 32.3643 44.5923 32.4058 44.4214 32.4888C44.2505 32.5718 44.1089 32.7061 43.9966 32.8916C43.8892 33.0771 43.8062 33.3262 43.7476 33.6387C43.689 33.9463 43.6597 34.3271 43.6597 34.7812V35.543C43.6597 35.9385 43.6938 36.2729 43.7622 36.5464C43.8354 36.8198 43.9429 37.0444 44.0845 37.2202C44.2261 37.3911 44.397 37.5181 44.5972 37.6011C44.8022 37.6792 45.0391 37.7183 45.3076 37.7183C45.7031 37.7183 46.0425 37.645 46.3257 37.4985C46.6138 37.3472 46.8628 37.1519 47.0728 36.9126L47.8271 37.96C47.6855 38.1504 47.4951 38.3384 47.2559 38.5239C47.0166 38.7046 46.7261 38.8535 46.3843 38.9707C46.0474 39.0879 45.6519 39.1465 45.1978 39.1465ZM50.9692 32.7671V39H49.2627V31.0752H50.8667L50.9692 32.7671ZM50.6616 34.752H50.1196C50.1147 34.1807 50.1758 33.6606 50.3027 33.1919C50.4297 32.7231 50.6104 32.3203 50.8447 31.9834C51.084 31.6465 51.3672 31.3877 51.6943 31.207C52.0264 31.0215 52.395 30.9287 52.8003 30.9287C53.1128 30.9287 53.3984 30.9824 53.6572 31.0898C53.9209 31.1924 54.1455 31.3608 54.3311 31.5952C54.5166 31.8296 54.6582 32.1348 54.7559 32.5107C54.8584 32.8867 54.9097 33.3457 54.9097 33.8877V39H53.2031V33.873C53.2031 33.502 53.1616 33.209 53.0786 32.9941C53.0005 32.7744 52.8833 32.6182 52.7271 32.5254C52.5708 32.4277 52.373 32.3789 52.1338 32.3789C51.9141 32.3789 51.7114 32.4424 51.5259 32.5693C51.3452 32.6914 51.189 32.8623 51.0571 33.082C50.9302 33.2969 50.8325 33.5483 50.7642 33.8364C50.6958 34.1196 50.6616 34.4248 50.6616 34.752ZM59.8242 31.0752V32.3936H55.9351V31.0752H59.8242ZM56.9971 29.1343H58.6963V36.7881C58.6963 37.0322 58.7231 37.2178 58.7769 37.3447C58.8306 37.4717 58.9062 37.5571 59.0039 37.6011C59.1016 37.645 59.2163 37.667 59.3481 37.667C59.4458 37.667 59.541 37.6597 59.6338 37.645C59.7314 37.6255 59.8022 37.6084 59.8462 37.5938V38.9707C59.7192 39.0195 59.5728 39.061 59.4067 39.0952C59.2407 39.1294 59.0405 39.1465 58.8062 39.1465C58.4595 39.1465 58.1494 39.0757 57.876 38.9341C57.6025 38.7876 57.3877 38.5508 57.2314 38.2236C57.0752 37.8916 56.9971 37.4521 56.9971 36.9053V29.1343ZM60.7104 35.3599V34.7227C60.7104 34.1074 60.7861 33.563 60.9375 33.0894C61.0889 32.6157 61.3037 32.2202 61.582 31.9028C61.8652 31.5806 62.1973 31.3389 62.5781 31.1777C62.959 31.0117 63.3789 30.9287 63.8379 30.9287C64.3066 30.9287 64.7314 31.0117 65.1123 31.1777C65.498 31.3389 65.8301 31.5806 66.1084 31.9028C66.3916 32.2202 66.6089 32.6157 66.7603 33.0894C66.9116 33.563 66.9873 34.1074 66.9873 34.7227V35.3599C66.9873 35.9751 66.9116 36.5195 66.7603 36.9932C66.6089 37.4668 66.3916 37.8647 66.1084 38.187C65.8301 38.5044 65.5005 38.7437 65.1196 38.9048C64.7388 39.0659 64.3164 39.1465 63.8525 39.1465C63.3936 39.1465 62.9712 39.0659 62.5854 38.9048C62.2046 38.7437 61.8726 38.5044 61.5894 38.187C61.3062 37.8647 61.0889 37.4668 60.9375 36.9932C60.7861 36.5195 60.7104 35.9751 60.7104 35.3599ZM62.417 34.7227V35.3599C62.417 35.7554 62.4512 36.1021 62.5195 36.3999C62.5879 36.6929 62.6855 36.937 62.8125 37.1323C62.9395 37.3276 63.0908 37.4741 63.2666 37.5718C63.4424 37.6694 63.6377 37.7183 63.8525 37.7183C64.0918 37.7183 64.2993 37.6694 64.4751 37.5718C64.6558 37.4741 64.8047 37.3276 64.9219 37.1323C65.0439 36.937 65.1343 36.6929 65.1929 36.3999C65.2515 36.1021 65.2808 35.7554 65.2808 35.3599V34.7227C65.2808 34.332 65.2466 33.9902 65.1782 33.6973C65.1099 33.3994 65.0122 33.1528 64.8853 32.9575C64.7583 32.7573 64.6045 32.6084 64.4238 32.5107C64.248 32.4131 64.0527 32.3643 63.8379 32.3643C63.6279 32.3643 63.4351 32.4131 63.2593 32.5107C63.0884 32.6084 62.9395 32.7573 62.8125 32.9575C62.6855 33.1528 62.5879 33.3994 62.5195 33.6973C62.4512 33.9902 62.417 34.332 62.417 34.7227Z" fill="#666666"/>
</svg>
