<svg width="35" height="43" viewBox="0 0 35 43" fill="none" xmlns="http://www.w3.org/2000/svg">
<path d="M31.6327 4.19637L18.6721 0.0269665C18.5608 -0.00898883 18.4404 -0.00898883 18.3292 0.0269665L5.36857 4.19637C5.26127 4.23104 5.16797 4.29736 5.10184 4.38596C5.03571 4.47457 5.00009 4.58098 5 4.69018V15.1137C5 15.2519 5.0569 15.3845 5.15817 15.4822C5.25944 15.5799 5.3968 15.6349 5.54002 15.6349C5.68325 15.6349 5.8206 15.5799 5.92188 15.4822C6.02315 15.3845 6.08005 15.2519 6.08005 15.1137V5.41331L12.0041 7.31951C11.2727 8.26766 10.7736 9.36355 10.5443 10.5247C10.315 11.6859 10.3616 12.8822 10.6805 14.0235C10.9994 15.1648 11.5824 16.2214 12.3855 17.1139C13.1886 18.0064 14.1909 18.7115 15.3172 19.1762C12.5009 19.9241 10.0519 21.6688 8.3279 24.2121C8.25649 24.3278 8.23425 24.4656 8.26583 24.5968C8.2974 24.7279 8.38035 24.8422 8.49729 24.9157C8.61423 24.9891 8.75609 25.016 8.89313 24.9907C9.03017 24.9655 9.15177 24.89 9.23244 24.7802C11.3682 21.6179 14.7474 19.8042 18.5006 19.8042C22.2538 19.8042 25.633 21.6179 27.7688 24.7789C27.8494 24.8887 27.971 24.9642 28.1081 24.9894C28.2451 25.0147 28.387 24.9878 28.5039 24.9143C28.6209 24.8409 28.7038 24.7266 28.7354 24.5955C28.767 24.4643 28.7447 24.3265 28.6733 24.2108C26.956 21.6674 24.5003 19.9228 21.6841 19.1749C22.8103 18.7102 23.8126 18.0051 24.6157 17.1126C25.4188 16.2201 26.0018 15.1635 26.3207 14.0222C26.6396 12.8809 26.6862 11.6846 26.4569 10.5234C26.2277 9.36225 25.7285 8.26636 24.9971 7.3182L31.6327 5.18269C31.7397 5.14782 31.8328 5.08141 31.8987 4.99282C31.9646 4.90424 32 4.79793 32 4.68888C32 4.57982 31.9646 4.47351 31.8987 4.38493C31.8328 4.29634 31.7397 4.22993 31.6327 4.19506V4.19637ZM25.5209 11.9866C25.521 13.0738 25.2499 14.145 24.7307 15.1098C24.2114 16.0746 23.4593 16.9047 22.5376 17.5299C21.616 18.1551 20.5521 18.557 19.4356 18.7018C18.3191 18.8466 17.183 18.73 16.123 18.3618C15.0631 17.9936 14.1105 17.3846 13.3458 16.5863C12.5811 15.7881 12.0266 14.8239 11.7293 13.7753C11.4319 12.7266 11.4004 11.6244 11.6374 10.5615C11.8744 9.49865 12.3729 8.50645 13.0909 7.66869L18.3292 9.35339C18.4403 9.38983 18.5609 9.38983 18.6721 9.35339L23.9103 7.66869C24.9528 8.88253 25.5226 10.41 25.5209 11.9866ZM18.5006 8.30974L7.24785 4.69018L18.5006 1.07062L29.7534 4.69018L18.5006 8.30974Z" fill="#27A844"/>
<path d="M4.67285 29.8008L2.09473 39H0.234375L3.61816 28.3359H4.77539L4.67285 29.8008ZM6.73096 39L4.14551 29.8008L4.021 28.3359H5.2002L8.59863 39H6.73096ZM6.7749 35.0376V36.5317H1.80908V35.0376H6.7749ZM11.4844 27.75V39H9.77783V27.75H11.4844ZM17.2192 37.1323V31.0752H18.9258V39H17.3145L17.2192 37.1323ZM17.4609 35.4771L18.0029 35.4624C18.0029 35.9946 17.9541 36.4854 17.8564 36.9346C17.7588 37.3838 17.6074 37.7744 17.4023 38.1064C17.2021 38.4336 16.9409 38.6899 16.6187 38.8755C16.3013 39.0562 15.9204 39.1465 15.4761 39.1465C15.1489 39.1465 14.8486 39.0903 14.5752 38.978C14.3066 38.8657 14.0747 38.6924 13.8794 38.458C13.689 38.2236 13.54 37.9185 13.4326 37.5425C13.3252 37.1665 13.2715 36.7173 13.2715 36.1948V31.0752H14.978V36.2095C14.978 36.4927 15.0024 36.7295 15.0513 36.9199C15.1001 37.1055 15.1685 37.2568 15.2563 37.374C15.3442 37.4863 15.4419 37.5669 15.5493 37.6157C15.6616 37.6597 15.7812 37.6816 15.9082 37.6816C16.2939 37.6816 16.5991 37.5864 16.8237 37.396C17.0532 37.2007 17.2168 36.937 17.3145 36.605C17.4121 36.2729 17.4609 35.897 17.4609 35.4771ZM22.3169 32.7671V39H20.6104V31.0752H22.2144L22.3169 32.7671ZM22.0093 34.752H21.4673C21.4624 34.1807 21.5234 33.6606 21.6504 33.1919C21.7773 32.7231 21.958 32.3203 22.1924 31.9834C22.4316 31.6465 22.7148 31.3877 23.042 31.207C23.374 31.0215 23.7427 30.9287 24.1479 30.9287C24.4604 30.9287 24.7461 30.9824 25.0049 31.0898C25.2686 31.1924 25.4932 31.3608 25.6787 31.5952C25.8643 31.8296 26.0059 32.1348 26.1035 32.5107C26.2061 32.8867 26.2573 33.3457 26.2573 33.8877V39H24.5508V33.873C24.5508 33.502 24.5093 33.209 24.4263 32.9941C24.3481 32.7744 24.231 32.6182 24.0747 32.5254C23.9185 32.4277 23.7207 32.3789 23.4814 32.3789C23.2617 32.3789 23.0591 32.4424 22.8735 32.5693C22.6929 32.6914 22.5366 32.8623 22.4048 33.082C22.2778 33.2969 22.1802 33.5483 22.1118 33.8364C22.0435 34.1196 22.0093 34.4248 22.0093 34.752ZM27.7222 35.3599V34.7227C27.7222 34.1074 27.7979 33.563 27.9492 33.0894C28.1006 32.6157 28.3154 32.2202 28.5938 31.9028C28.877 31.5806 29.209 31.3389 29.5898 31.1777C29.9707 31.0117 30.3906 30.9287 30.8496 30.9287C31.3184 30.9287 31.7432 31.0117 32.124 31.1777C32.5098 31.3389 32.8418 31.5806 33.1201 31.9028C33.4033 32.2202 33.6206 32.6157 33.772 33.0894C33.9233 33.563 33.999 34.1074 33.999 34.7227V35.3599C33.999 35.9751 33.9233 36.5195 33.772 36.9932C33.6206 37.4668 33.4033 37.8647 33.1201 38.187C32.8418 38.5044 32.5122 38.7437 32.1313 38.9048C31.7505 39.0659 31.3281 39.1465 30.8643 39.1465C30.4053 39.1465 29.9829 39.0659 29.5972 38.9048C29.2163 38.7437 28.8843 38.5044 28.6011 38.187C28.3179 37.8647 28.1006 37.4668 27.9492 36.9932C27.7979 36.5195 27.7222 35.9751 27.7222 35.3599ZM29.4287 34.7227V35.3599C29.4287 35.7554 29.4629 36.1021 29.5312 36.3999C29.5996 36.6929 29.6973 36.937 29.8242 37.1323C29.9512 37.3276 30.1025 37.4741 30.2783 37.5718C30.4541 37.6694 30.6494 37.7183 30.8643 37.7183C31.1035 37.7183 31.311 37.6694 31.4868 37.5718C31.6675 37.4741 31.8164 37.3276 31.9336 37.1323C32.0557 36.937 32.146 36.6929 32.2046 36.3999C32.2632 36.1021 32.2925 35.7554 32.2925 35.3599V34.7227C32.2925 34.332 32.2583 33.9902 32.1899 33.6973C32.1216 33.3994 32.0239 33.1528 31.897 32.9575C31.77 32.7573 31.6162 32.6084 31.4355 32.5107C31.2598 32.4131 31.0645 32.3643 30.8496 32.3643C30.6396 32.3643 30.4468 32.4131 30.271 32.5107C30.1001 32.6084 29.9512 32.7573 29.8242 32.9575C29.6973 33.1528 29.5996 33.3994 29.5312 33.6973C29.4629 33.9902 29.4287 34.332 29.4287 34.7227Z" fill="#666666"/>
</svg>
