<svg width="54" height="43" viewBox="0 0 54 43" fill="none" xmlns="http://www.w3.org/2000/svg">
<path d="M27 0C25.4087 0 23.8826 0.632141 22.7574 1.75736C21.6321 2.88258 21 4.4087 21 6C21 7.5913 21.6321 9.11742 22.7574 10.2426C23.8826 11.3679 25.4087 12 27 12C28.5913 12 30.1174 11.3679 31.2426 10.2426C32.3679 9.11742 33 7.5913 33 6C33 4.4087 32.3679 2.88258 31.2426 1.75736C30.1174 0.632141 28.5913 0 27 0ZM27 2.85C27.4137 2.85 27.8233 2.93148 28.2055 3.08978C28.5876 3.24808 28.9349 3.48011 29.2274 3.77261C29.5199 4.06512 29.7519 4.41237 29.9102 4.79455C30.0685 5.17672 30.15 5.58634 30.15 6C30.15 6.41366 30.0685 6.82328 29.9102 7.20545C29.7519 7.58763 29.5199 7.93488 29.2274 8.22739C28.9349 8.51989 28.5876 8.75192 28.2055 8.91022C27.8233 9.06852 27.4137 9.15 27 9.15C26.5863 9.15 26.1767 9.06852 25.7945 8.91022C25.4124 8.75192 25.0651 8.51989 24.7726 8.22739C24.4801 7.93488 24.2481 7.58763 24.0898 7.20545C23.9315 6.82328 23.85 6.41366 23.85 6C23.85 5.16457 24.1819 4.36335 24.7726 3.77261C25.3634 3.18187 26.1646 2.85 27 2.85ZM10.5 4.5V9H6V12H10.5V16.5H13.5V12H18V9H13.5V4.5H10.5ZM27 13.5C22.995 13.5 15 15.495 15 19.5V24H39V19.5C39 15.495 31.005 13.5 27 13.5ZM27 16.35C31.455 16.35 36.15 18.54 36.15 19.5V21.15H17.85V19.5C17.85 18.54 22.5 16.35 27 16.35Z" fill="#27A844"/>
<path d="M6.19629 35.521H7.96875C7.93457 36.2925 7.77832 36.9492 7.5 37.4912C7.22168 38.0283 6.82129 38.4385 6.29883 38.7217C5.78125 39.0049 5.14893 39.1465 4.40186 39.1465C3.83545 39.1465 3.32764 39.0439 2.87842 38.8389C2.43408 38.6338 2.05566 38.3384 1.74316 37.9526C1.43066 37.562 1.19141 37.0859 1.02539 36.5244C0.864258 35.9629 0.783691 35.3257 0.783691 34.6128V32.7231C0.783691 32.0103 0.866699 31.373 1.03271 30.8115C1.20361 30.25 1.44775 29.7739 1.76514 29.3833C2.08252 28.9927 2.46826 28.6973 2.92236 28.4971C3.38135 28.292 3.89893 28.1895 4.4751 28.1895C5.2124 28.1895 5.83252 28.3311 6.33545 28.6143C6.83838 28.8975 7.22656 29.3125 7.5 29.8594C7.77344 30.4062 7.93213 31.0728 7.97607 31.8589H6.20361C6.1792 31.3267 6.10596 30.9019 5.98389 30.5845C5.8667 30.2622 5.68604 30.0303 5.44189 29.8887C5.20264 29.7471 4.88037 29.6763 4.4751 29.6763C4.13818 29.6763 3.84766 29.7397 3.60352 29.8667C3.36426 29.9937 3.1665 30.1841 3.01025 30.438C2.85889 30.687 2.74414 31.002 2.66602 31.3828C2.59277 31.7588 2.55615 32.2007 2.55615 32.7085V34.6128C2.55615 35.1011 2.58789 35.5332 2.65137 35.9092C2.71484 36.2852 2.81738 36.605 2.95898 36.8687C3.10059 37.1274 3.28857 37.3252 3.52295 37.4619C3.75732 37.5938 4.05029 37.6597 4.40186 37.6597C4.82178 37.6597 5.15625 37.5938 5.40527 37.4619C5.65918 37.3301 5.84717 37.1079 5.96924 36.7954C6.09131 36.4829 6.16699 36.0581 6.19629 35.521ZM13.0737 37.3887V33.4409C13.0737 33.1675 13.0347 32.9478 12.9565 32.7817C12.8833 32.6157 12.7734 32.4961 12.627 32.4229C12.4854 32.3447 12.3071 32.3057 12.0923 32.3057C11.8677 32.3057 11.6772 32.3521 11.521 32.4448C11.3696 32.5376 11.2549 32.6646 11.1768 32.8257C11.0986 32.9819 11.0596 33.1626 11.0596 33.3677H9.35303C9.35303 33.0503 9.4165 32.7451 9.54346 32.4521C9.67529 32.1592 9.86328 31.8979 10.1074 31.6685C10.3516 31.439 10.647 31.2583 10.9937 31.1265C11.3403 30.9946 11.7261 30.9287 12.1509 30.9287C12.6587 30.9287 13.1104 31.0142 13.5059 31.1851C13.9014 31.3511 14.2114 31.6221 14.436 31.998C14.6655 32.3691 14.7803 32.8574 14.7803 33.4629V37.1616C14.7803 37.5278 14.8022 37.855 14.8462 38.1431C14.895 38.4263 14.9609 38.6729 15.0439 38.8828V39H13.3081C13.23 38.8096 13.1714 38.5654 13.1323 38.2676C13.0933 37.9697 13.0737 37.6768 13.0737 37.3887ZM13.3008 34.1733L13.3081 35.2793H12.4878C12.2437 35.2793 12.0239 35.3135 11.8286 35.3818C11.6333 35.4453 11.4673 35.5381 11.3306 35.6602C11.1987 35.7773 11.0962 35.9214 11.0229 36.0923C10.9546 36.2632 10.9204 36.4512 10.9204 36.6562C10.9204 36.9053 10.9546 37.1079 11.0229 37.2642C11.0962 37.4204 11.2012 37.5376 11.3379 37.6157C11.4795 37.689 11.6504 37.7256 11.8506 37.7256C12.124 37.7256 12.3608 37.667 12.561 37.5498C12.7661 37.4277 12.9224 37.2812 13.0298 37.1104C13.1421 36.9395 13.186 36.7832 13.1616 36.6416L13.5498 37.3521C13.5107 37.5376 13.4375 37.7329 13.3301 37.938C13.2275 38.1431 13.0933 38.3384 12.9272 38.5239C12.7612 38.7095 12.561 38.8608 12.3267 38.978C12.0923 39.0903 11.8213 39.1465 11.5137 39.1465C11.0693 39.1465 10.6738 39.0537 10.3271 38.8682C9.98047 38.6826 9.70703 38.4165 9.50684 38.0698C9.31152 37.7183 9.21387 37.2983 9.21387 36.8101C9.21387 36.4146 9.27979 36.0557 9.41162 35.7334C9.54346 35.4111 9.73877 35.1353 9.99756 34.9058C10.2563 34.6714 10.5811 34.4907 10.9717 34.3638C11.3672 34.2368 11.8286 34.1733 12.356 34.1733H13.3008ZM20.5151 37.3447V27.75H22.2217V39L20.6763 39.0073L20.5151 37.3447ZM16.2598 35.3599V34.7373C16.2598 34.0879 16.3184 33.5264 16.4355 33.0527C16.5527 32.5742 16.7236 32.1763 16.9482 31.8589C17.1777 31.5415 17.4536 31.3071 17.7759 31.1558C18.0981 31.0044 18.4619 30.9287 18.8672 30.9287C19.2627 30.9287 19.6045 31.019 19.8926 31.1997C20.1807 31.3755 20.4248 31.627 20.625 31.9541C20.8252 32.2812 20.9839 32.6719 21.1011 33.126C21.2231 33.5752 21.3062 34.0781 21.3501 34.6348V35.499C21.2964 36.0361 21.2109 36.5293 21.0938 36.9785C20.9766 37.4229 20.8179 37.8062 20.6177 38.1284C20.4175 38.4507 20.1709 38.7021 19.8779 38.8828C19.5898 39.0586 19.2505 39.1465 18.8599 39.1465C18.4546 39.1465 18.0908 39.0659 17.7686 38.9048C17.4512 38.7437 17.1777 38.5044 16.9482 38.187C16.7236 37.8696 16.5527 37.4766 16.4355 37.0078C16.3184 36.5342 16.2598 35.9849 16.2598 35.3599ZM17.9663 34.7373V35.3599C17.9663 35.7651 17.9907 36.1143 18.0396 36.4072C18.0884 36.7002 18.1665 36.9419 18.2739 37.1323C18.3813 37.3179 18.5229 37.457 18.6987 37.5498C18.8745 37.6377 19.0869 37.6816 19.3359 37.6816C19.6484 37.6816 19.9023 37.6035 20.0977 37.4473C20.2979 37.291 20.4517 37.0811 20.5591 36.8174C20.6714 36.5488 20.7495 36.251 20.7935 35.9238V34.2173C20.769 33.9585 20.7202 33.7192 20.647 33.4995C20.5737 33.2749 20.4785 33.0796 20.3613 32.9136C20.2441 32.7476 20.1001 32.6182 19.9292 32.5254C19.7632 32.4277 19.5679 32.3789 19.3433 32.3789C19.0942 32.3789 18.8818 32.4277 18.7061 32.5254C18.5303 32.6182 18.3887 32.7622 18.2812 32.9575C18.1738 33.1479 18.0933 33.3921 18.0396 33.6899C17.9907 33.9829 17.9663 34.332 17.9663 34.7373ZM27.6489 37.3887V33.4409C27.6489 33.1675 27.6099 32.9478 27.5317 32.7817C27.4585 32.6157 27.3486 32.4961 27.2021 32.4229C27.0605 32.3447 26.8823 32.3057 26.6675 32.3057C26.4429 32.3057 26.2524 32.3521 26.0962 32.4448C25.9448 32.5376 25.8301 32.6646 25.752 32.8257C25.6738 32.9819 25.6348 33.1626 25.6348 33.3677H23.9282C23.9282 33.0503 23.9917 32.7451 24.1187 32.4521C24.2505 32.1592 24.4385 31.8979 24.6826 31.6685C24.9268 31.439 25.2222 31.2583 25.5688 31.1265C25.9155 30.9946 26.3013 30.9287 26.7261 30.9287C27.2339 30.9287 27.6855 31.0142 28.0811 31.1851C28.4766 31.3511 28.7866 31.6221 29.0112 31.998C29.2407 32.3691 29.3555 32.8574 29.3555 33.4629V37.1616C29.3555 37.5278 29.3774 37.855 29.4214 38.1431C29.4702 38.4263 29.5361 38.6729 29.6191 38.8828V39H27.8833C27.8052 38.8096 27.7466 38.5654 27.7075 38.2676C27.6685 37.9697 27.6489 37.6768 27.6489 37.3887ZM27.876 34.1733L27.8833 35.2793H27.063C26.8188 35.2793 26.5991 35.3135 26.4038 35.3818C26.2085 35.4453 26.0425 35.5381 25.9058 35.6602C25.7739 35.7773 25.6714 35.9214 25.5981 36.0923C25.5298 36.2632 25.4956 36.4512 25.4956 36.6562C25.4956 36.9053 25.5298 37.1079 25.5981 37.2642C25.6714 37.4204 25.7764 37.5376 25.9131 37.6157C26.0547 37.689 26.2256 37.7256 26.4258 37.7256C26.6992 37.7256 26.936 37.667 27.1362 37.5498C27.3413 37.4277 27.4976 37.2812 27.605 37.1104C27.7173 36.9395 27.7612 36.7832 27.7368 36.6416L28.125 37.3521C28.0859 37.5376 28.0127 37.7329 27.9053 37.938C27.8027 38.1431 27.6685 38.3384 27.5024 38.5239C27.3364 38.7095 27.1362 38.8608 26.9019 38.978C26.6675 39.0903 26.3965 39.1465 26.0889 39.1465C25.6445 39.1465 25.249 39.0537 24.9023 38.8682C24.5557 38.6826 24.2822 38.4165 24.082 38.0698C23.8867 37.7183 23.7891 37.2983 23.7891 36.8101C23.7891 36.4146 23.855 36.0557 23.9868 35.7334C24.1187 35.4111 24.314 35.1353 24.5728 34.9058C24.8315 34.6714 25.1562 34.4907 25.5469 34.3638C25.9424 34.2368 26.4038 34.1733 26.9312 34.1733H27.876ZM34.7754 36.9126C34.7754 36.7466 34.7266 36.6001 34.6289 36.4731C34.5361 36.3413 34.3848 36.2119 34.1748 36.085C33.9648 35.958 33.6841 35.8213 33.3325 35.6748C32.9663 35.5234 32.6416 35.3721 32.3584 35.2207C32.0752 35.0693 31.8359 34.9033 31.6406 34.7227C31.4453 34.5371 31.2964 34.3247 31.1938 34.0854C31.0913 33.8462 31.04 33.5679 31.04 33.2505C31.04 32.9233 31.1011 32.6206 31.2231 32.3423C31.3452 32.064 31.521 31.8198 31.7505 31.6099C31.98 31.395 32.2559 31.229 32.5781 31.1118C32.9004 30.9897 33.2642 30.9287 33.6694 30.9287C34.2407 30.9287 34.729 31.0337 35.1343 31.2437C35.5444 31.4487 35.8569 31.7368 36.0718 32.1079C36.2915 32.4741 36.4014 32.8965 36.4014 33.375H34.6948C34.6948 33.1748 34.6582 32.9941 34.585 32.833C34.5117 32.667 34.3994 32.5352 34.248 32.4375C34.0967 32.335 33.9038 32.2837 33.6694 32.2837C33.4546 32.2837 33.2739 32.3252 33.1274 32.4082C32.9858 32.4863 32.8784 32.5938 32.8052 32.7305C32.7368 32.8623 32.7026 33.0112 32.7026 33.1772C32.7026 33.2993 32.7246 33.4067 32.7686 33.4995C32.8125 33.5923 32.8857 33.6826 32.9883 33.7705C33.0908 33.8535 33.2275 33.939 33.3984 34.0269C33.5742 34.1147 33.7964 34.2148 34.0649 34.3271C34.5972 34.5322 35.0391 34.7446 35.3906 34.9644C35.7422 35.1841 36.0059 35.4404 36.1816 35.7334C36.3574 36.0264 36.4453 36.3901 36.4453 36.8247C36.4453 37.1763 36.3794 37.4937 36.2476 37.7769C36.1206 38.0601 35.9351 38.3042 35.6909 38.5093C35.4517 38.7144 35.1611 38.873 34.8193 38.9854C34.4824 39.0928 34.1064 39.1465 33.6914 39.1465C33.0713 39.1465 32.5464 39.0244 32.1167 38.7803C31.6919 38.5312 31.3696 38.2114 31.1499 37.8208C30.9302 37.4302 30.8203 37.0176 30.8203 36.583H32.4683C32.4829 36.8955 32.5488 37.1396 32.666 37.3154C32.7881 37.4912 32.9419 37.6133 33.1274 37.6816C33.313 37.7451 33.5059 37.7769 33.7061 37.7769C33.9453 37.7769 34.1431 37.7451 34.2993 37.6816C34.4556 37.6133 34.5728 37.5132 34.6509 37.3813C34.7339 37.2495 34.7754 37.0933 34.7754 36.9126ZM41.1328 31.0752V32.3936H37.2437V31.0752H41.1328ZM38.3057 29.1343H40.0049V36.7881C40.0049 37.0322 40.0317 37.2178 40.0854 37.3447C40.1392 37.4717 40.2148 37.5571 40.3125 37.6011C40.4102 37.645 40.5249 37.667 40.6567 37.667C40.7544 37.667 40.8496 37.6597 40.9424 37.645C41.04 37.6255 41.1108 37.6084 41.1548 37.5938V38.9707C41.0278 39.0195 40.8813 39.061 40.7153 39.0952C40.5493 39.1294 40.3491 39.1465 40.1147 39.1465C39.7681 39.1465 39.458 39.0757 39.1846 38.9341C38.9111 38.7876 38.6963 38.5508 38.54 38.2236C38.3838 37.8916 38.3057 37.4521 38.3057 36.9053V29.1343ZM44.165 32.606V39H42.4585V31.0752H44.0845L44.165 32.606ZM46.0767 31.0239L46.0693 32.7085C45.9717 32.6841 45.8667 32.6694 45.7544 32.6646C45.647 32.6548 45.5396 32.6499 45.4321 32.6499C45.1978 32.6499 44.9951 32.6914 44.8242 32.7744C44.6533 32.8574 44.5093 32.9771 44.3921 33.1333C44.2749 33.2896 44.1821 33.4775 44.1138 33.6973C44.0503 33.917 44.0112 34.166 43.9966 34.4443L43.6304 34.459C43.6304 33.9609 43.6694 33.4995 43.7476 33.0747C43.8257 32.645 43.9429 32.2715 44.0991 31.9541C44.2603 31.6318 44.4604 31.3804 44.6997 31.1997C44.939 31.019 45.2173 30.9287 45.5347 30.9287C45.6226 30.9287 45.7227 30.9385 45.835 30.958C45.9473 30.9775 46.0278 30.9995 46.0767 31.0239ZM46.7798 35.3599V34.7227C46.7798 34.1074 46.8555 33.563 47.0068 33.0894C47.1582 32.6157 47.373 32.2202 47.6514 31.9028C47.9346 31.5806 48.2666 31.3389 48.6475 31.1777C49.0283 31.0117 49.4482 30.9287 49.9072 30.9287C50.376 30.9287 50.8008 31.0117 51.1816 31.1777C51.5674 31.3389 51.8994 31.5806 52.1777 31.9028C52.4609 32.2202 52.6782 32.6157 52.8296 33.0894C52.981 33.563 53.0566 34.1074 53.0566 34.7227V35.3599C53.0566 35.9751 52.981 36.5195 52.8296 36.9932C52.6782 37.4668 52.4609 37.8647 52.1777 38.187C51.8994 38.5044 51.5698 38.7437 51.189 38.9048C50.8081 39.0659 50.3857 39.1465 49.9219 39.1465C49.4629 39.1465 49.0405 39.0659 48.6548 38.9048C48.2739 38.7437 47.9419 38.5044 47.6587 38.187C47.3755 37.8647 47.1582 37.4668 47.0068 36.9932C46.8555 36.5195 46.7798 35.9751 46.7798 35.3599ZM48.4863 34.7227V35.3599C48.4863 35.7554 48.5205 36.1021 48.5889 36.3999C48.6572 36.6929 48.7549 36.937 48.8818 37.1323C49.0088 37.3276 49.1602 37.4741 49.3359 37.5718C49.5117 37.6694 49.707 37.7183 49.9219 37.7183C50.1611 37.7183 50.3687 37.6694 50.5444 37.5718C50.7251 37.4741 50.874 37.3276 50.9912 37.1323C51.1133 36.937 51.2036 36.6929 51.2622 36.3999C51.3208 36.1021 51.3501 35.7554 51.3501 35.3599V34.7227C51.3501 34.332 51.3159 33.9902 51.2476 33.6973C51.1792 33.3994 51.0815 33.1528 50.9546 32.9575C50.8276 32.7573 50.6738 32.6084 50.4932 32.5107C50.3174 32.4131 50.1221 32.3643 49.9072 32.3643C49.6973 32.3643 49.5044 32.4131 49.3286 32.5107C49.1577 32.6084 49.0088 32.7573 48.8818 32.9575C48.7549 33.1528 48.6572 33.3994 48.5889 33.6973C48.5205 33.9902 48.4863 34.332 48.4863 34.7227Z" fill="#666666"/>
</svg>
