<svg width="95" height="43" viewBox="0 0 95 43" fill="none" xmlns="http://www.w3.org/2000/svg">
<path d="M4.67285 29.8008L2.09473 39H0.234375L3.61816 28.3359H4.77539L4.67285 29.8008ZM6.73096 39L4.14551 29.8008L4.021 28.3359H5.2002L8.59863 39H6.73096ZM6.7749 35.0376V36.5317H1.80908V35.0376H6.7749ZM12.4878 37.7183C12.7075 37.7183 12.9028 37.6719 13.0737 37.5791C13.2495 37.4863 13.3887 37.3423 13.4912 37.147C13.5938 36.9468 13.6499 36.688 13.6597 36.3706H15.2637C15.2539 36.9321 15.1245 37.4229 14.8755 37.8428C14.6265 38.2578 14.2944 38.5801 13.8794 38.8096C13.4692 39.0342 13.0127 39.1465 12.5098 39.1465C11.9873 39.1465 11.5308 39.0635 11.1401 38.8975C10.7544 38.7266 10.4346 38.48 10.1807 38.1577C9.92676 37.8354 9.73633 37.4448 9.60938 36.9858C9.4873 36.522 9.42627 35.9922 9.42627 35.3965V34.6787C9.42627 34.0879 9.4873 33.5605 9.60938 33.0967C9.73633 32.6328 9.92676 32.2397 10.1807 31.9175C10.4346 31.5952 10.7544 31.3511 11.1401 31.1851C11.5259 31.0142 11.98 30.9287 12.5024 30.9287C13.0591 30.9287 13.54 31.0459 13.9453 31.2803C14.3555 31.5098 14.6753 31.8467 14.9048 32.291C15.1343 32.7354 15.2539 33.2798 15.2637 33.9243H13.6597C13.6499 33.5825 13.5986 33.2969 13.5059 33.0674C13.4131 32.833 13.2812 32.6572 13.1104 32.54C12.9443 32.4229 12.7344 32.3643 12.4805 32.3643C12.2021 32.3643 11.9727 32.418 11.792 32.5254C11.6162 32.6279 11.4795 32.7793 11.3818 32.9795C11.2891 33.1797 11.2231 33.4238 11.1841 33.7119C11.1499 33.9951 11.1328 34.3174 11.1328 34.6787V35.3965C11.1328 35.7676 11.1499 36.0972 11.1841 36.3853C11.2183 36.6685 11.2817 36.9102 11.3745 37.1104C11.4722 37.3105 11.6113 37.4619 11.792 37.5645C11.9727 37.667 12.2046 37.7183 12.4878 37.7183ZM19.6216 39.1465C19.1089 39.1465 18.6523 39.0708 18.252 38.9194C17.8516 38.7632 17.5122 38.5337 17.2339 38.231C16.9556 37.9233 16.7432 37.5474 16.5967 37.103C16.4502 36.6538 16.377 36.1338 16.377 35.543V34.7812C16.377 34.1123 16.4526 33.5361 16.604 33.0527C16.7603 32.5645 16.9751 32.1641 17.2485 31.8516C17.522 31.5391 17.8442 31.3071 18.2153 31.1558C18.5913 31.0044 18.999 30.9287 19.4385 30.9287C19.9365 30.9287 20.3687 31.0093 20.7349 31.1704C21.1011 31.3315 21.4014 31.5732 21.6357 31.8955C21.875 32.2178 22.0508 32.6157 22.1631 33.0894C22.2803 33.563 22.3389 34.1074 22.3389 34.7227V35.5796H17.1973V34.2905H20.6543V34.1074C20.6445 33.7461 20.6006 33.436 20.5225 33.1772C20.4443 32.9136 20.3174 32.7134 20.1416 32.5767C19.9707 32.4351 19.7339 32.3643 19.4312 32.3643C19.2114 32.3643 19.0161 32.4058 18.8452 32.4888C18.6743 32.5718 18.5327 32.7061 18.4204 32.8916C18.313 33.0771 18.23 33.3262 18.1714 33.6387C18.1128 33.9463 18.0835 34.3271 18.0835 34.7812V35.543C18.0835 35.9385 18.1177 36.2729 18.186 36.5464C18.2593 36.8198 18.3667 37.0444 18.5083 37.2202C18.6499 37.3911 18.8208 37.5181 19.021 37.6011C19.2261 37.6792 19.4629 37.7183 19.7314 37.7183C20.127 37.7183 20.4663 37.645 20.7495 37.4985C21.0376 37.3472 21.2866 37.1519 21.4966 36.9126L22.251 37.96C22.1094 38.1504 21.9189 38.3384 21.6797 38.5239C21.4404 38.7046 21.1499 38.8535 20.8081 38.9707C20.4712 39.0879 20.0757 39.1465 19.6216 39.1465ZM27.3779 36.9126C27.3779 36.7466 27.3291 36.6001 27.2314 36.4731C27.1387 36.3413 26.9873 36.2119 26.7773 36.085C26.5674 35.958 26.2866 35.8213 25.9351 35.6748C25.5688 35.5234 25.2441 35.3721 24.9609 35.2207C24.6777 35.0693 24.4385 34.9033 24.2432 34.7227C24.0479 34.5371 23.8989 34.3247 23.7964 34.0854C23.6938 33.8462 23.6426 33.5679 23.6426 33.2505C23.6426 32.9233 23.7036 32.6206 23.8257 32.3423C23.9478 32.064 24.1235 31.8198 24.353 31.6099C24.5825 31.395 24.8584 31.229 25.1807 31.1118C25.5029 30.9897 25.8667 30.9287 26.272 30.9287C26.8433 30.9287 27.3315 31.0337 27.7368 31.2437C28.147 31.4487 28.4595 31.7368 28.6743 32.1079C28.894 32.4741 29.0039 32.8965 29.0039 33.375H27.2974C27.2974 33.1748 27.2607 32.9941 27.1875 32.833C27.1143 32.667 27.002 32.5352 26.8506 32.4375C26.6992 32.335 26.5063 32.2837 26.272 32.2837C26.0571 32.2837 25.8765 32.3252 25.73 32.4082C25.5884 32.4863 25.481 32.5938 25.4077 32.7305C25.3394 32.8623 25.3052 33.0112 25.3052 33.1772C25.3052 33.2993 25.3271 33.4067 25.3711 33.4995C25.415 33.5923 25.4883 33.6826 25.5908 33.7705C25.6934 33.8535 25.8301 33.939 26.001 34.0269C26.1768 34.1147 26.3989 34.2148 26.6675 34.3271C27.1997 34.5322 27.6416 34.7446 27.9932 34.9644C28.3447 35.1841 28.6084 35.4404 28.7842 35.7334C28.96 36.0264 29.0479 36.3901 29.0479 36.8247C29.0479 37.1763 28.9819 37.4937 28.8501 37.7769C28.7231 38.0601 28.5376 38.3042 28.2935 38.5093C28.0542 38.7144 27.7637 38.873 27.4219 38.9854C27.085 39.0928 26.709 39.1465 26.2939 39.1465C25.6738 39.1465 25.1489 39.0244 24.7192 38.7803C24.2944 38.5312 23.9722 38.2114 23.7524 37.8208C23.5327 37.4302 23.4229 37.0176 23.4229 36.583H25.0708C25.0854 36.8955 25.1514 37.1396 25.2686 37.3154C25.3906 37.4912 25.5444 37.6133 25.73 37.6816C25.9155 37.7451 26.1084 37.7769 26.3086 37.7769C26.5479 37.7769 26.7456 37.7451 26.9019 37.6816C27.0581 37.6133 27.1753 37.5132 27.2534 37.3813C27.3364 37.2495 27.3779 37.0933 27.3779 36.9126ZM34.2041 36.9126C34.2041 36.7466 34.1553 36.6001 34.0576 36.4731C33.9648 36.3413 33.8135 36.2119 33.6035 36.085C33.3936 35.958 33.1128 35.8213 32.7612 35.6748C32.395 35.5234 32.0703 35.3721 31.7871 35.2207C31.5039 35.0693 31.2646 34.9033 31.0693 34.7227C30.874 34.5371 30.7251 34.3247 30.6226 34.0854C30.52 33.8462 30.4688 33.5679 30.4688 33.2505C30.4688 32.9233 30.5298 32.6206 30.6519 32.3423C30.7739 32.064 30.9497 31.8198 31.1792 31.6099C31.4087 31.395 31.6846 31.229 32.0068 31.1118C32.3291 30.9897 32.6929 30.9287 33.0981 30.9287C33.6694 30.9287 34.1577 31.0337 34.563 31.2437C34.9731 31.4487 35.2856 31.7368 35.5005 32.1079C35.7202 32.4741 35.8301 32.8965 35.8301 33.375H34.1235C34.1235 33.1748 34.0869 32.9941 34.0137 32.833C33.9404 32.667 33.8281 32.5352 33.6768 32.4375C33.5254 32.335 33.3325 32.2837 33.0981 32.2837C32.8833 32.2837 32.7026 32.3252 32.5562 32.4082C32.4146 32.4863 32.3071 32.5938 32.2339 32.7305C32.1655 32.8623 32.1313 33.0112 32.1313 33.1772C32.1313 33.2993 32.1533 33.4067 32.1973 33.4995C32.2412 33.5923 32.3145 33.6826 32.417 33.7705C32.5195 33.8535 32.6562 33.939 32.8271 34.0269C33.0029 34.1147 33.2251 34.2148 33.4937 34.3271C34.0259 34.5322 34.4678 34.7446 34.8193 34.9644C35.1709 35.1841 35.4346 35.4404 35.6104 35.7334C35.7861 36.0264 35.874 36.3901 35.874 36.8247C35.874 37.1763 35.8081 37.4937 35.6763 37.7769C35.5493 38.0601 35.3638 38.3042 35.1196 38.5093C34.8804 38.7144 34.5898 38.873 34.248 38.9854C33.9111 39.0928 33.5352 39.1465 33.1201 39.1465C32.5 39.1465 31.9751 39.0244 31.5454 38.7803C31.1206 38.5312 30.7983 38.2114 30.5786 37.8208C30.3589 37.4302 30.249 37.0176 30.249 36.583H31.897C31.9116 36.8955 31.9775 37.1396 32.0947 37.3154C32.2168 37.4912 32.3706 37.6133 32.5562 37.6816C32.7417 37.7451 32.9346 37.7769 33.1348 37.7769C33.374 37.7769 33.5718 37.7451 33.728 37.6816C33.8843 37.6133 34.0015 37.5132 34.0796 37.3813C34.1626 37.2495 34.2041 37.0933 34.2041 36.9126ZM37.1118 35.3599V34.7227C37.1118 34.1074 37.1875 33.563 37.3389 33.0894C37.4902 32.6157 37.7051 32.2202 37.9834 31.9028C38.2666 31.5806 38.5986 31.3389 38.9795 31.1777C39.3604 31.0117 39.7803 30.9287 40.2393 30.9287C40.708 30.9287 41.1328 31.0117 41.5137 31.1777C41.8994 31.3389 42.2314 31.5806 42.5098 31.9028C42.793 32.2202 43.0103 32.6157 43.1616 33.0894C43.313 33.563 43.3887 34.1074 43.3887 34.7227V35.3599C43.3887 35.9751 43.313 36.5195 43.1616 36.9932C43.0103 37.4668 42.793 37.8647 42.5098 38.187C42.2314 38.5044 41.9019 38.7437 41.521 38.9048C41.1401 39.0659 40.7178 39.1465 40.2539 39.1465C39.7949 39.1465 39.3726 39.0659 38.9868 38.9048C38.606 38.7437 38.2739 38.5044 37.9907 38.187C37.7075 37.8647 37.4902 37.4668 37.3389 36.9932C37.1875 36.5195 37.1118 35.9751 37.1118 35.3599ZM38.8184 34.7227V35.3599C38.8184 35.7554 38.8525 36.1021 38.9209 36.3999C38.9893 36.6929 39.0869 36.937 39.2139 37.1323C39.3408 37.3276 39.4922 37.4741 39.668 37.5718C39.8438 37.6694 40.0391 37.7183 40.2539 37.7183C40.4932 37.7183 40.7007 37.6694 40.8765 37.5718C41.0571 37.4741 41.2061 37.3276 41.3232 37.1323C41.4453 36.937 41.5356 36.6929 41.5942 36.3999C41.6528 36.1021 41.6821 35.7554 41.6821 35.3599V34.7227C41.6821 34.332 41.6479 33.9902 41.5796 33.6973C41.5112 33.3994 41.4136 33.1528 41.2866 32.9575C41.1597 32.7573 41.0059 32.6084 40.8252 32.5107C40.6494 32.4131 40.4541 32.3643 40.2393 32.3643C40.0293 32.3643 39.8364 32.4131 39.6606 32.5107C39.4897 32.6084 39.3408 32.7573 39.2139 32.9575C39.0869 33.1528 38.9893 33.3994 38.9209 33.6973C38.8525 33.9902 38.8184 34.332 38.8184 34.7227ZM48.4644 28.3359H51.687C52.3901 28.3359 52.9858 28.458 53.4741 28.7021C53.9624 28.9463 54.3335 29.3076 54.5874 29.7861C54.8462 30.2598 54.9756 30.8481 54.9756 31.5513C54.9756 32.0835 54.895 32.5522 54.7339 32.9575C54.5776 33.3628 54.3506 33.7046 54.0527 33.9829C53.7549 34.2563 53.396 34.4688 52.9761 34.6201L52.4561 34.9058H49.7314L49.7241 33.4116H51.6431C51.9897 33.4116 52.2778 33.3359 52.5073 33.1846C52.7368 33.0332 52.9077 32.8232 53.02 32.5547C53.1372 32.2861 53.1958 31.981 53.1958 31.6392C53.1958 31.2729 53.1445 30.9556 53.042 30.687C52.9395 30.4136 52.7783 30.2036 52.5586 30.0571C52.3389 29.9058 52.0483 29.8301 51.687 29.8301H50.2441V39H48.4644V28.3359ZM53.4302 39L51.4014 34.21L53.2544 34.2026L55.3345 38.9048V39H53.4302ZM59.4946 39.1465C58.9819 39.1465 58.5254 39.0708 58.125 38.9194C57.7246 38.7632 57.3853 38.5337 57.1069 38.231C56.8286 37.9233 56.6162 37.5474 56.4697 37.103C56.3232 36.6538 56.25 36.1338 56.25 35.543V34.7812C56.25 34.1123 56.3257 33.5361 56.4771 33.0527C56.6333 32.5645 56.8481 32.1641 57.1216 31.8516C57.395 31.5391 57.7173 31.3071 58.0884 31.1558C58.4644 31.0044 58.8721 30.9287 59.3115 30.9287C59.8096 30.9287 60.2417 31.0093 60.6079 31.1704C60.9741 31.3315 61.2744 31.5732 61.5088 31.8955C61.748 32.2178 61.9238 32.6157 62.0361 33.0894C62.1533 33.563 62.2119 34.1074 62.2119 34.7227V35.5796H57.0703V34.2905H60.5273V34.1074C60.5176 33.7461 60.4736 33.436 60.3955 33.1772C60.3174 32.9136 60.1904 32.7134 60.0146 32.5767C59.8438 32.4351 59.6069 32.3643 59.3042 32.3643C59.0845 32.3643 58.8892 32.4058 58.7183 32.4888C58.5474 32.5718 58.4058 32.7061 58.2935 32.8916C58.186 33.0771 58.103 33.3262 58.0444 33.6387C57.9858 33.9463 57.9565 34.3271 57.9565 34.7812V35.543C57.9565 35.9385 57.9907 36.2729 58.0591 36.5464C58.1323 36.8198 58.2397 37.0444 58.3813 37.2202C58.5229 37.3911 58.6938 37.5181 58.894 37.6011C59.0991 37.6792 59.3359 37.7183 59.6045 37.7183C60 37.7183 60.3394 37.645 60.6226 37.4985C60.9106 37.3472 61.1597 37.1519 61.3696 36.9126L62.124 37.96C61.9824 38.1504 61.792 38.3384 61.5527 38.5239C61.3135 38.7046 61.0229 38.8535 60.6812 38.9707C60.3442 39.0879 59.9487 39.1465 59.4946 39.1465ZM67.251 36.9126C67.251 36.7466 67.2021 36.6001 67.1045 36.4731C67.0117 36.3413 66.8604 36.2119 66.6504 36.085C66.4404 35.958 66.1597 35.8213 65.8081 35.6748C65.4419 35.5234 65.1172 35.3721 64.834 35.2207C64.5508 35.0693 64.3115 34.9033 64.1162 34.7227C63.9209 34.5371 63.772 34.3247 63.6694 34.0854C63.5669 33.8462 63.5156 33.5679 63.5156 33.2505C63.5156 32.9233 63.5767 32.6206 63.6987 32.3423C63.8208 32.064 63.9966 31.8198 64.2261 31.6099C64.4556 31.395 64.7314 31.229 65.0537 31.1118C65.376 30.9897 65.7397 30.9287 66.145 30.9287C66.7163 30.9287 67.2046 31.0337 67.6099 31.2437C68.02 31.4487 68.3325 31.7368 68.5474 32.1079C68.7671 32.4741 68.877 32.8965 68.877 33.375H67.1704C67.1704 33.1748 67.1338 32.9941 67.0605 32.833C66.9873 32.667 66.875 32.5352 66.7236 32.4375C66.5723 32.335 66.3794 32.2837 66.145 32.2837C65.9302 32.2837 65.7495 32.3252 65.603 32.4082C65.4614 32.4863 65.354 32.5938 65.2808 32.7305C65.2124 32.8623 65.1782 33.0112 65.1782 33.1772C65.1782 33.2993 65.2002 33.4067 65.2441 33.4995C65.2881 33.5923 65.3613 33.6826 65.4639 33.7705C65.5664 33.8535 65.7031 33.939 65.874 34.0269C66.0498 34.1147 66.272 34.2148 66.5405 34.3271C67.0728 34.5322 67.5146 34.7446 67.8662 34.9644C68.2178 35.1841 68.4814 35.4404 68.6572 35.7334C68.833 36.0264 68.9209 36.3901 68.9209 36.8247C68.9209 37.1763 68.855 37.4937 68.7231 37.7769C68.5962 38.0601 68.4106 38.3042 68.1665 38.5093C67.9272 38.7144 67.6367 38.873 67.2949 38.9854C66.958 39.0928 66.582 39.1465 66.167 39.1465C65.5469 39.1465 65.022 39.0244 64.5923 38.7803C64.1675 38.5312 63.8452 38.2114 63.6255 37.8208C63.4058 37.4302 63.2959 37.0176 63.2959 36.583H64.9438C64.9585 36.8955 65.0244 37.1396 65.1416 37.3154C65.2637 37.4912 65.4175 37.6133 65.603 37.6816C65.7886 37.7451 65.9814 37.7769 66.1816 37.7769C66.4209 37.7769 66.6187 37.7451 66.7749 37.6816C66.9312 37.6133 67.0483 37.5132 67.1265 37.3813C67.2095 37.2495 67.251 37.0933 67.251 36.9126ZM73.6084 31.0752V32.3936H69.7192V31.0752H73.6084ZM70.7812 29.1343H72.4805V36.7881C72.4805 37.0322 72.5073 37.2178 72.561 37.3447C72.6147 37.4717 72.6904 37.5571 72.7881 37.6011C72.8857 37.645 73.0005 37.667 73.1323 37.667C73.23 37.667 73.3252 37.6597 73.418 37.645C73.5156 37.6255 73.5864 37.6084 73.6304 37.5938V38.9707C73.5034 39.0195 73.3569 39.061 73.1909 39.0952C73.0249 39.1294 72.8247 39.1465 72.5903 39.1465C72.2437 39.1465 71.9336 39.0757 71.6602 38.9341C71.3867 38.7876 71.1719 38.5508 71.0156 38.2236C70.8594 37.8916 70.7812 37.4521 70.7812 36.9053V29.1343ZM76.6406 32.606V39H74.9341V31.0752H76.5601L76.6406 32.606ZM78.5522 31.0239L78.5449 32.7085C78.4473 32.6841 78.3423 32.6694 78.23 32.6646C78.1226 32.6548 78.0151 32.6499 77.9077 32.6499C77.6733 32.6499 77.4707 32.6914 77.2998 32.7744C77.1289 32.8574 76.9849 32.9771 76.8677 33.1333C76.7505 33.2896 76.6577 33.4775 76.5894 33.6973C76.5259 33.917 76.4868 34.166 76.4722 34.4443L76.106 34.459C76.106 33.9609 76.145 33.4995 76.2231 33.0747C76.3013 32.645 76.4185 32.2715 76.5747 31.9541C76.7358 31.6318 76.936 31.3804 77.1753 31.1997C77.4146 31.019 77.6929 30.9287 78.0103 30.9287C78.0981 30.9287 78.1982 30.9385 78.3105 30.958C78.4229 30.9775 78.5034 30.9995 78.5522 31.0239ZM81.5332 31.0752V39H79.8267V31.0752H81.5332ZM79.7388 29.0024C79.7388 28.729 79.8218 28.502 79.9878 28.3213C80.1538 28.1357 80.3857 28.043 80.6836 28.043C80.9814 28.043 81.2134 28.1357 81.3794 28.3213C81.5454 28.502 81.6284 28.729 81.6284 29.0024C81.6284 29.2661 81.5454 29.4883 81.3794 29.6689C81.2134 29.8496 80.9814 29.9399 80.6836 29.9399C80.3857 29.9399 80.1538 29.8496 79.9878 29.6689C79.8218 29.4883 79.7388 29.2661 79.7388 29.0024ZM86.5576 31.0752V32.3936H82.6685V31.0752H86.5576ZM83.7305 29.1343H85.4297V36.7881C85.4297 37.0322 85.4565 37.2178 85.5103 37.3447C85.564 37.4717 85.6396 37.5571 85.7373 37.6011C85.835 37.645 85.9497 37.667 86.0815 37.667C86.1792 37.667 86.2744 37.6597 86.3672 37.645C86.4648 37.6255 86.5356 37.6084 86.5796 37.5938V38.9707C86.4526 39.0195 86.3062 39.061 86.1401 39.0952C85.9741 39.1294 85.7739 39.1465 85.5396 39.1465C85.1929 39.1465 84.8828 39.0757 84.6094 38.9341C84.3359 38.7876 84.1211 38.5508 83.9648 38.2236C83.8086 37.8916 83.7305 37.4521 83.7305 36.9053V29.1343ZM87.4438 35.3599V34.7227C87.4438 34.1074 87.5195 33.563 87.6709 33.0894C87.8223 32.6157 88.0371 32.2202 88.3154 31.9028C88.5986 31.5806 88.9307 31.3389 89.3115 31.1777C89.6924 31.0117 90.1123 30.9287 90.5713 30.9287C91.04 30.9287 91.4648 31.0117 91.8457 31.1777C92.2314 31.3389 92.5635 31.5806 92.8418 31.9028C93.125 32.2202 93.3423 32.6157 93.4937 33.0894C93.645 33.563 93.7207 34.1074 93.7207 34.7227V35.3599C93.7207 35.9751 93.645 36.5195 93.4937 36.9932C93.3423 37.4668 93.125 37.8647 92.8418 38.187C92.5635 38.5044 92.2339 38.7437 91.853 38.9048C91.4722 39.0659 91.0498 39.1465 90.5859 39.1465C90.127 39.1465 89.7046 39.0659 89.3188 38.9048C88.938 38.7437 88.606 38.5044 88.3228 38.187C88.0396 37.8647 87.8223 37.4668 87.6709 36.9932C87.5195 36.5195 87.4438 35.9751 87.4438 35.3599ZM89.1504 34.7227V35.3599C89.1504 35.7554 89.1846 36.1021 89.2529 36.3999C89.3213 36.6929 89.4189 36.937 89.5459 37.1323C89.6729 37.3276 89.8242 37.4741 90 37.5718C90.1758 37.6694 90.3711 37.7183 90.5859 37.7183C90.8252 37.7183 91.0327 37.6694 91.2085 37.5718C91.3892 37.4741 91.5381 37.3276 91.6553 37.1323C91.7773 36.937 91.8677 36.6929 91.9263 36.3999C91.9849 36.1021 92.0142 35.7554 92.0142 35.3599V34.7227C92.0142 34.332 91.98 33.9902 91.9116 33.6973C91.8433 33.3994 91.7456 33.1528 91.6187 32.9575C91.4917 32.7573 91.3379 32.6084 91.1572 32.5107C90.9814 32.4131 90.7861 32.3643 90.5713 32.3643C90.3613 32.3643 90.1685 32.4131 89.9927 32.5107C89.8218 32.6084 89.6729 32.7573 89.5459 32.9575C89.4189 33.1528 89.3213 33.3994 89.2529 33.6973C89.1846 33.9902 89.1504 34.332 89.1504 34.7227Z" fill="#666666"/>
<path d="M35.5147 4.51472C34.4004 5.62902 33.5165 6.95189 32.9134 8.4078C32.3104 9.86371 32 11.4241 32 13C32 14.5759 32.3104 16.1363 32.9134 17.5922C33.5165 19.0481 34.4004 20.371 35.5147 21.4853C36.629 22.5996 37.9519 23.4835 39.4078 24.0866C40.8637 24.6896 42.4241 25 44 25C45.5759 25 47.1363 24.6896 48.5922 24.0866C50.0481 23.4835 51.371 22.5996 52.4853 21.4853M35.5147 4.51472C36.629 3.40042 37.9519 2.5165 39.4078 1.91345C40.8637 1.31039 42.4241 1 44 1C45.5759 1 47.1363 1.31039 48.5922 1.91345C50.0481 2.5165 51.371 3.40042 52.4853 4.51472C53.5996 5.62902 54.4835 6.95189 55.0866 8.4078C55.6896 9.86371 56 11.4241 56 13C56 14.5759 55.6896 16.1363 55.0866 17.5922C54.4835 19.0481 53.5996 20.371 52.4853 21.4853M35.5147 4.51472L44 13L52.4853 21.4853" stroke="#666666" stroke-width="2" stroke-linecap="round" stroke-linejoin="round"/>
</svg>
