<svg width="47" height="45" viewBox="0 0 47 45" fill="none" xmlns="http://www.w3.org/2000/svg">
<path d="M35.5837 14.4998C35.583 11.2953 34.3097 8.22226 32.0438 5.95634C29.7779 3.69041 26.7048 2.41714 23.5003 2.4165V4.83317C25.412 4.83361 27.2807 5.40065 28.8703 6.46265C30.4598 7.52466 31.699 9.03398 32.4311 10.7999C32.917 11.9729 33.1671 13.2302 33.167 14.4998H35.5837ZM11.417 12.0832V6.0415C11.417 5.72103 11.5443 5.41369 11.7709 5.18708C11.9975 4.96048 12.3049 4.83317 12.6253 4.83317H18.667C18.9875 4.83317 19.2948 4.96048 19.5214 5.18708C19.748 5.41369 19.8753 5.72103 19.8753 6.0415V10.8748C19.8753 11.1953 19.748 11.5027 19.5214 11.7293C19.2948 11.9559 18.9875 12.0832 18.667 12.0832H16.2503C16.2503 14.6469 17.2688 17.1057 19.0816 18.9185C20.8945 20.7314 23.3532 21.7498 25.917 21.7498V19.3332C25.917 19.0127 26.0443 18.7054 26.2709 18.4787C26.4975 18.2521 26.8049 18.1248 27.1253 18.1248H31.9587C32.2791 18.1248 32.5865 18.2521 32.8131 18.4787C33.0397 18.7054 33.167 19.0127 33.167 19.3332V25.3748C33.167 25.6953 33.0397 26.0027 32.8131 26.2293C32.5865 26.4559 32.2791 26.5832 31.9587 26.5832H25.917C17.9094 26.5832 11.417 20.0908 11.417 12.0832Z" fill="#27A844"/>
<path d="M30.1978 11.7257C30.5625 12.6051 30.7502 13.5479 30.75 14.5H28.575C28.5752 13.8335 28.444 13.1735 28.189 12.5577C27.934 11.9419 27.5602 11.3824 27.0889 10.9111C26.6176 10.4398 26.0581 10.066 25.4423 9.81099C24.8265 9.556 24.1665 9.42484 23.5 9.425V7.25C24.9339 7.25008 26.3355 7.67533 27.5277 8.47199C28.7199 9.26865 29.6491 10.4009 30.1978 11.7257Z" fill="#27A844"/>
<path d="M6.19629 37.521H7.96875C7.93457 38.2925 7.77832 38.9492 7.5 39.4912C7.22168 40.0283 6.82129 40.4385 6.29883 40.7217C5.78125 41.0049 5.14893 41.1465 4.40186 41.1465C3.83545 41.1465 3.32764 41.0439 2.87842 40.8389C2.43408 40.6338 2.05566 40.3384 1.74316 39.9526C1.43066 39.562 1.19141 39.0859 1.02539 38.5244C0.864258 37.9629 0.783691 37.3257 0.783691 36.6128V34.7231C0.783691 34.0103 0.866699 33.373 1.03271 32.8115C1.20361 32.25 1.44775 31.7739 1.76514 31.3833C2.08252 30.9927 2.46826 30.6973 2.92236 30.4971C3.38135 30.292 3.89893 30.1895 4.4751 30.1895C5.2124 30.1895 5.83252 30.3311 6.33545 30.6143C6.83838 30.8975 7.22656 31.3125 7.5 31.8594C7.77344 32.4062 7.93213 33.0728 7.97607 33.8589H6.20361C6.1792 33.3267 6.10596 32.9019 5.98389 32.5845C5.8667 32.2622 5.68604 32.0303 5.44189 31.8887C5.20264 31.7471 4.88037 31.6763 4.4751 31.6763C4.13818 31.6763 3.84766 31.7397 3.60352 31.8667C3.36426 31.9937 3.1665 32.1841 3.01025 32.438C2.85889 32.687 2.74414 33.002 2.66602 33.3828C2.59277 33.7588 2.55615 34.2007 2.55615 34.7085V36.6128C2.55615 37.1011 2.58789 37.5332 2.65137 37.9092C2.71484 38.2852 2.81738 38.605 2.95898 38.8687C3.10059 39.1274 3.28857 39.3252 3.52295 39.4619C3.75732 39.5938 4.05029 39.6597 4.40186 39.6597C4.82178 39.6597 5.15625 39.5938 5.40527 39.4619C5.65918 39.3301 5.84717 39.1079 5.96924 38.7954C6.09131 38.4829 6.16699 38.0581 6.19629 37.521ZM9.14795 37.3599V36.7227C9.14795 36.1074 9.22363 35.563 9.375 35.0894C9.52637 34.6157 9.74121 34.2202 10.0195 33.9028C10.3027 33.5806 10.6348 33.3389 11.0156 33.1777C11.3965 33.0117 11.8164 32.9287 12.2754 32.9287C12.7441 32.9287 13.1689 33.0117 13.5498 33.1777C13.9355 33.3389 14.2676 33.5806 14.5459 33.9028C14.8291 34.2202 15.0464 34.6157 15.1978 35.0894C15.3491 35.563 15.4248 36.1074 15.4248 36.7227V37.3599C15.4248 37.9751 15.3491 38.5195 15.1978 38.9932C15.0464 39.4668 14.8291 39.8647 14.5459 40.187C14.2676 40.5044 13.938 40.7437 13.5571 40.9048C13.1763 41.0659 12.7539 41.1465 12.29 41.1465C11.8311 41.1465 11.4087 41.0659 11.0229 40.9048C10.6421 40.7437 10.3101 40.5044 10.0269 40.187C9.74365 39.8647 9.52637 39.4668 9.375 38.9932C9.22363 38.5195 9.14795 37.9751 9.14795 37.3599ZM10.8545 36.7227V37.3599C10.8545 37.7554 10.8887 38.1021 10.957 38.3999C11.0254 38.6929 11.123 38.937 11.25 39.1323C11.377 39.3276 11.5283 39.4741 11.7041 39.5718C11.8799 39.6694 12.0752 39.7183 12.29 39.7183C12.5293 39.7183 12.7368 39.6694 12.9126 39.5718C13.0933 39.4741 13.2422 39.3276 13.3594 39.1323C13.4814 38.937 13.5718 38.6929 13.6304 38.3999C13.689 38.1021 13.7183 37.7554 13.7183 37.3599V36.7227C13.7183 36.332 13.6841 35.9902 13.6157 35.6973C13.5474 35.3994 13.4497 35.1528 13.3228 34.9575C13.1958 34.7573 13.042 34.6084 12.8613 34.5107C12.6855 34.4131 12.4902 34.3643 12.2754 34.3643C12.0654 34.3643 11.8726 34.4131 11.6968 34.5107C11.5259 34.6084 11.377 34.7573 11.25 34.9575C11.123 35.1528 11.0254 35.3994 10.957 35.6973C10.8887 35.9902 10.8545 36.332 10.8545 36.7227ZM18.5815 34.7671V41H16.875V33.0752H18.479L18.5815 34.7671ZM18.2739 36.752H17.7319C17.7271 36.1807 17.7881 35.6606 17.915 35.1919C18.042 34.7231 18.2227 34.3203 18.457 33.9834C18.6963 33.6465 18.9795 33.3877 19.3066 33.207C19.6387 33.0215 20.0073 32.9287 20.4126 32.9287C20.7251 32.9287 21.0107 32.9824 21.2695 33.0898C21.5332 33.1924 21.7578 33.3608 21.9434 33.5952C22.1289 33.8296 22.2705 34.1348 22.3682 34.5107C22.4707 34.8867 22.522 35.3457 22.522 35.8877V41H20.8154V35.873C20.8154 35.502 20.7739 35.209 20.6909 34.9941C20.6128 34.7744 20.4956 34.6182 20.3394 34.5254C20.1831 34.4277 19.9854 34.3789 19.7461 34.3789C19.5264 34.3789 19.3237 34.4424 19.1382 34.5693C18.9575 34.6914 18.8013 34.8623 18.6694 35.082C18.5425 35.2969 18.4448 35.5483 18.3765 35.8364C18.3081 36.1196 18.2739 36.4248 18.2739 36.752ZM27.4365 33.0752V34.3936H23.5474V33.0752H27.4365ZM24.6094 31.1343H26.3086V38.7881C26.3086 39.0322 26.3354 39.2178 26.3892 39.3447C26.4429 39.4717 26.5186 39.5571 26.6162 39.6011C26.7139 39.645 26.8286 39.667 26.9604 39.667C27.0581 39.667 27.1533 39.6597 27.2461 39.645C27.3438 39.6255 27.4146 39.6084 27.4585 39.5938V40.9707C27.3315 41.0195 27.1851 41.061 27.019 41.0952C26.853 41.1294 26.6528 41.1465 26.4185 41.1465C26.0718 41.1465 25.7617 41.0757 25.4883 40.9341C25.2148 40.7876 25 40.5508 24.8438 40.2236C24.6875 39.8916 24.6094 39.4521 24.6094 38.9053V31.1343ZM32.439 39.3887V35.4409C32.439 35.1675 32.3999 34.9478 32.3218 34.7817C32.2485 34.6157 32.1387 34.4961 31.9922 34.4229C31.8506 34.3447 31.6724 34.3057 31.4575 34.3057C31.2329 34.3057 31.0425 34.3521 30.8862 34.4448C30.7349 34.5376 30.6201 34.6646 30.542 34.8257C30.4639 34.9819 30.4248 35.1626 30.4248 35.3677H28.7183C28.7183 35.0503 28.7817 34.7451 28.9087 34.4521C29.0405 34.1592 29.2285 33.8979 29.4727 33.6685C29.7168 33.439 30.0122 33.2583 30.3589 33.1265C30.7056 32.9946 31.0913 32.9287 31.5161 32.9287C32.0239 32.9287 32.4756 33.0142 32.8711 33.1851C33.2666 33.3511 33.5767 33.6221 33.8013 33.998C34.0308 34.3691 34.1455 34.8574 34.1455 35.4629V39.1616C34.1455 39.5278 34.1675 39.855 34.2114 40.1431C34.2603 40.4263 34.3262 40.6729 34.4092 40.8828V41H32.6733C32.5952 40.8096 32.5366 40.5654 32.4976 40.2676C32.4585 39.9697 32.439 39.6768 32.439 39.3887ZM32.666 36.1733L32.6733 37.2793H31.853C31.6089 37.2793 31.3892 37.3135 31.1938 37.3818C30.9985 37.4453 30.8325 37.5381 30.6958 37.6602C30.564 37.7773 30.4614 37.9214 30.3882 38.0923C30.3198 38.2632 30.2856 38.4512 30.2856 38.6562C30.2856 38.9053 30.3198 39.1079 30.3882 39.2642C30.4614 39.4204 30.5664 39.5376 30.7031 39.6157C30.8447 39.689 31.0156 39.7256 31.2158 39.7256C31.4893 39.7256 31.7261 39.667 31.9263 39.5498C32.1313 39.4277 32.2876 39.2812 32.395 39.1104C32.5073 38.9395 32.5513 38.7832 32.5269 38.6416L32.915 39.3521C32.876 39.5376 32.8027 39.7329 32.6953 39.938C32.5928 40.1431 32.4585 40.3384 32.2925 40.5239C32.1265 40.7095 31.9263 40.8608 31.6919 40.978C31.4575 41.0903 31.1865 41.1465 30.8789 41.1465C30.4346 41.1465 30.0391 41.0537 29.6924 40.8682C29.3457 40.6826 29.0723 40.4165 28.8721 40.0698C28.6768 39.7183 28.5791 39.2983 28.5791 38.8101C28.5791 38.4146 28.645 38.0557 28.7769 37.7334C28.9087 37.4111 29.104 37.1353 29.3628 36.9058C29.6216 36.6714 29.9463 36.4907 30.3369 36.3638C30.7324 36.2368 31.1938 36.1733 31.7212 36.1733H32.666ZM39.0967 33.0752V34.3936H35.2075V33.0752H39.0967ZM36.2695 31.1343H37.9688V38.7881C37.9688 39.0322 37.9956 39.2178 38.0493 39.3447C38.103 39.4717 38.1787 39.5571 38.2764 39.6011C38.374 39.645 38.4888 39.667 38.6206 39.667C38.7183 39.667 38.8135 39.6597 38.9062 39.645C39.0039 39.6255 39.0747 39.6084 39.1187 39.5938V40.9707C38.9917 41.0195 38.8452 41.061 38.6792 41.0952C38.5132 41.1294 38.313 41.1465 38.0786 41.1465C37.7319 41.1465 37.4219 41.0757 37.1484 40.9341C36.875 40.7876 36.6602 40.5508 36.5039 40.2236C36.3477 39.8916 36.2695 39.4521 36.2695 38.9053V31.1343ZM39.9829 37.3599V36.7227C39.9829 36.1074 40.0586 35.563 40.21 35.0894C40.3613 34.6157 40.5762 34.2202 40.8545 33.9028C41.1377 33.5806 41.4697 33.3389 41.8506 33.1777C42.2314 33.0117 42.6514 32.9287 43.1104 32.9287C43.5791 32.9287 44.0039 33.0117 44.3848 33.1777C44.7705 33.3389 45.1025 33.5806 45.3809 33.9028C45.6641 34.2202 45.8813 34.6157 46.0327 35.0894C46.1841 35.563 46.2598 36.1074 46.2598 36.7227V37.3599C46.2598 37.9751 46.1841 38.5195 46.0327 38.9932C45.8813 39.4668 45.6641 39.8647 45.3809 40.187C45.1025 40.5044 44.7729 40.7437 44.3921 40.9048C44.0112 41.0659 43.5889 41.1465 43.125 41.1465C42.666 41.1465 42.2437 41.0659 41.8579 40.9048C41.4771 40.7437 41.145 40.5044 40.8618 40.187C40.5786 39.8647 40.3613 39.4668 40.21 38.9932C40.0586 38.5195 39.9829 37.9751 39.9829 37.3599ZM41.6895 36.7227V37.3599C41.6895 37.7554 41.7236 38.1021 41.792 38.3999C41.8604 38.6929 41.958 38.937 42.085 39.1323C42.2119 39.3276 42.3633 39.4741 42.5391 39.5718C42.7148 39.6694 42.9102 39.7183 43.125 39.7183C43.3643 39.7183 43.5718 39.6694 43.7476 39.5718C43.9282 39.4741 44.0771 39.3276 44.1943 39.1323C44.3164 38.937 44.4067 38.6929 44.4653 38.3999C44.5239 38.1021 44.5532 37.7554 44.5532 37.3599V36.7227C44.5532 36.332 44.519 35.9902 44.4507 35.6973C44.3823 35.3994 44.2847 35.1528 44.1577 34.9575C44.0308 34.7573 43.877 34.6084 43.6963 34.5107C43.5205 34.4131 43.3252 34.3643 43.1104 34.3643C42.9004 34.3643 42.7075 34.4131 42.5317 34.5107C42.3608 34.6084 42.2119 34.7573 42.085 34.9575C41.958 35.1528 41.8604 35.3994 41.792 35.6973C41.7236 35.9902 41.6895 36.332 41.6895 36.7227Z" fill="#666666"/>
</svg>
