<svg width="56" height="43" viewBox="0 0 56 43" fill="none" xmlns="http://www.w3.org/2000/svg">
<path d="M29.7059 16.9691C30.0098 16.9691 30.277 16.8534 30.5074 16.6221C30.7377 16.3907 30.8534 16.1235 30.8544 15.8206C30.8554 15.5176 30.7397 15.2505 30.5074 15.0191C30.275 14.7877 30.0078 14.6721 29.7059 14.6721C29.4039 14.6721 29.1368 14.7877 28.9044 15.0191C28.6721 15.2505 28.5564 15.5176 28.5574 15.8206C28.5583 16.1235 28.674 16.3907 28.9044 16.6221C29.1348 16.8534 29.402 16.9701 29.7059 16.9691ZM29.0559 12.8279H30.3559C30.3941 12.2113 30.4917 11.7471 30.6485 11.4353C30.8044 11.1235 31.1804 10.6882 31.7765 10.1294C32.398 9.56471 32.8314 9.05981 33.0765 8.61471C33.3216 8.17157 33.4441 7.66226 33.4441 7.08677C33.4441 6.09657 33.0912 5.27157 32.3853 4.61177C31.6794 3.95098 30.7863 3.62059 29.7059 3.62059C28.8892 3.62059 28.1637 3.84118 27.5294 4.28236C26.8951 4.72353 26.4123 5.325 26.0809 6.08677L27.2735 6.61177C27.551 6.03726 27.8892 5.60589 28.2882 5.31765C28.6873 5.02941 29.1598 4.88579 29.7059 4.88677C30.4078 4.88677 30.9897 5.09461 31.4515 5.5103C31.9123 5.92598 32.1426 6.46275 32.1426 7.12059C32.1426 7.52059 32.0309 7.89265 31.8074 8.23677C31.5828 8.58088 31.1971 8.9951 30.65 9.47941C30.0304 10.0206 29.6098 10.5172 29.3882 10.9691C29.1667 11.4211 29.0559 12.0407 29.0559 12.8279ZM21.7882 20.5882C21.1108 20.5882 20.5456 20.3618 20.0926 19.9088C19.6397 19.4559 19.4127 18.8907 19.4118 18.2132V2.375C19.4118 1.69853 19.6387 1.13334 20.0926 0.679415C20.5466 0.225493 21.1118 -0.000977223 21.7882 3.16937e-06H37.625C38.3015 3.16937e-06 38.8667 0.226474 39.3206 0.679415C39.7745 1.13236 40.001 1.69755 40 2.375V18.2132C40 18.8897 39.7735 19.4544 39.3206 19.9074C38.8676 20.3603 38.302 20.5873 37.6235 20.5882H21.7882ZM21.7882 19.1176H37.625C37.8505 19.1176 38.0578 19.0235 38.2471 18.8353C38.4363 18.6471 38.5304 18.4397 38.5294 18.2132V2.375C38.5294 2.14951 38.4353 1.94216 38.2471 1.75294C38.0588 1.56373 37.851 1.46961 37.6235 1.47059H21.7882C21.5618 1.47059 21.3539 1.56471 21.1647 1.75294C20.9755 1.94118 20.8814 2.14853 20.8824 2.375V18.2132C20.8824 18.4387 20.9765 18.6461 21.1647 18.8353C21.3529 19.0245 21.5603 19.1186 21.7868 19.1176M17.375 25C16.6985 25 16.1333 24.7735 15.6794 24.3206C15.2255 23.8676 14.999 23.3025 15 22.625V5.31618H16.4706V22.625C16.4706 22.8505 16.5647 23.0578 16.7529 23.2471C16.9412 23.4363 17.1485 23.5304 17.375 23.5294H34.6838V25H17.375Z" fill="#666666"/>
<path d="M1.00342 28.3359H4.22607C4.9292 28.3359 5.5249 28.458 6.01318 28.7021C6.50146 28.9463 6.87256 29.3076 7.12646 29.7861C7.38525 30.2598 7.51465 30.8481 7.51465 31.5513C7.51465 32.0835 7.43408 32.5522 7.27295 32.9575C7.1167 33.3628 6.88965 33.7046 6.5918 33.9829C6.29395 34.2563 5.93506 34.4688 5.51514 34.6201L4.99512 34.9058H2.27051L2.26318 33.4116H4.18213C4.52881 33.4116 4.81689 33.3359 5.04639 33.1846C5.27588 33.0332 5.44678 32.8232 5.55908 32.5547C5.67627 32.2861 5.73486 31.981 5.73486 31.6392C5.73486 31.2729 5.68359 30.9556 5.58105 30.687C5.47852 30.4136 5.31738 30.2036 5.09766 30.0571C4.87793 29.9058 4.5874 29.8301 4.22607 29.8301H2.7832V39H1.00342V28.3359ZM5.96924 39L3.94043 34.21L5.79346 34.2026L7.87354 38.9048V39H5.96924ZM12.0337 39.1465C11.521 39.1465 11.0645 39.0708 10.6641 38.9194C10.2637 38.7632 9.92432 38.5337 9.646 38.231C9.36768 37.9233 9.15527 37.5474 9.00879 37.103C8.8623 36.6538 8.78906 36.1338 8.78906 35.543V34.7812C8.78906 34.1123 8.86475 33.5361 9.01611 33.0527C9.17236 32.5645 9.38721 32.1641 9.66064 31.8516C9.93408 31.5391 10.2563 31.3071 10.6274 31.1558C11.0034 31.0044 11.4111 30.9287 11.8506 30.9287C12.3486 30.9287 12.7808 31.0093 13.147 31.1704C13.5132 31.3315 13.8135 31.5732 14.0479 31.8955C14.2871 32.2178 14.4629 32.6157 14.5752 33.0894C14.6924 33.563 14.751 34.1074 14.751 34.7227V35.5796H9.60938V34.2905H13.0664V34.1074C13.0566 33.7461 13.0127 33.436 12.9346 33.1772C12.8564 32.9136 12.7295 32.7134 12.5537 32.5767C12.3828 32.4351 12.146 32.3643 11.8433 32.3643C11.6235 32.3643 11.4282 32.4058 11.2573 32.4888C11.0864 32.5718 10.9448 32.7061 10.8325 32.8916C10.7251 33.0771 10.6421 33.3262 10.5835 33.6387C10.5249 33.9463 10.4956 34.3271 10.4956 34.7812V35.543C10.4956 35.9385 10.5298 36.2729 10.5981 36.5464C10.6714 36.8198 10.7788 37.0444 10.9204 37.2202C11.062 37.3911 11.2329 37.5181 11.4331 37.6011C11.6382 37.6792 11.875 37.7183 12.1436 37.7183C12.5391 37.7183 12.8784 37.645 13.1616 37.4985C13.4497 37.3472 13.6987 37.1519 13.9087 36.9126L14.6631 37.96C14.5215 38.1504 14.3311 38.3384 14.0918 38.5239C13.8525 38.7046 13.562 38.8535 13.2202 38.9707C12.8833 39.0879 12.4878 39.1465 12.0337 39.1465ZM18.9331 37.7183C19.1528 37.7183 19.3481 37.6719 19.519 37.5791C19.6948 37.4863 19.834 37.3423 19.9365 37.147C20.0391 36.9468 20.0952 36.688 20.105 36.3706H21.709C21.6992 36.9321 21.5698 37.4229 21.3208 37.8428C21.0718 38.2578 20.7397 38.5801 20.3247 38.8096C19.9146 39.0342 19.458 39.1465 18.9551 39.1465C18.4326 39.1465 17.9761 39.0635 17.5854 38.8975C17.1997 38.7266 16.8799 38.48 16.626 38.1577C16.3721 37.8354 16.1816 37.4448 16.0547 36.9858C15.9326 36.522 15.8716 35.9922 15.8716 35.3965V34.6787C15.8716 34.0879 15.9326 33.5605 16.0547 33.0967C16.1816 32.6328 16.3721 32.2397 16.626 31.9175C16.8799 31.5952 17.1997 31.3511 17.5854 31.1851C17.9712 31.0142 18.4253 30.9287 18.9478 30.9287C19.5044 30.9287 19.9854 31.0459 20.3906 31.2803C20.8008 31.5098 21.1206 31.8467 21.3501 32.291C21.5796 32.7354 21.6992 33.2798 21.709 33.9243H20.105C20.0952 33.5825 20.0439 33.2969 19.9512 33.0674C19.8584 32.833 19.7266 32.6572 19.5557 32.54C19.3896 32.4229 19.1797 32.3643 18.9258 32.3643C18.6475 32.3643 18.418 32.418 18.2373 32.5254C18.0615 32.6279 17.9248 32.7793 17.8271 32.9795C17.7344 33.1797 17.6685 33.4238 17.6294 33.7119C17.5952 33.9951 17.5781 34.3174 17.5781 34.6787V35.3965C17.5781 35.7676 17.5952 36.0972 17.6294 36.3853C17.6636 36.6685 17.7271 36.9102 17.8198 37.1104C17.9175 37.3105 18.0566 37.4619 18.2373 37.5645C18.418 37.667 18.6499 37.7183 18.9331 37.7183ZM26.9458 37.1323V31.0752H28.6523V39H27.041L26.9458 37.1323ZM27.1875 35.4771L27.7295 35.4624C27.7295 35.9946 27.6807 36.4854 27.583 36.9346C27.4854 37.3838 27.334 37.7744 27.1289 38.1064C26.9287 38.4336 26.6675 38.6899 26.3452 38.8755C26.0278 39.0562 25.647 39.1465 25.2026 39.1465C24.8755 39.1465 24.5752 39.0903 24.3018 38.978C24.0332 38.8657 23.8013 38.6924 23.606 38.458C23.4155 38.2236 23.2666 37.9185 23.1592 37.5425C23.0518 37.1665 22.998 36.7173 22.998 36.1948V31.0752H24.7046V36.2095C24.7046 36.4927 24.729 36.7295 24.7778 36.9199C24.8267 37.1055 24.895 37.2568 24.9829 37.374C25.0708 37.4863 25.1685 37.5669 25.2759 37.6157C25.3882 37.6597 25.5078 37.6816 25.6348 37.6816C26.0205 37.6816 26.3257 37.5864 26.5503 37.396C26.7798 37.2007 26.9434 36.937 27.041 36.605C27.1387 36.2729 27.1875 35.897 27.1875 35.4771ZM32.0654 32.606V39H30.3589V31.0752H31.9849L32.0654 32.606ZM33.9771 31.0239L33.9697 32.7085C33.8721 32.6841 33.7671 32.6694 33.6548 32.6646C33.5474 32.6548 33.4399 32.6499 33.3325 32.6499C33.0981 32.6499 32.8955 32.6914 32.7246 32.7744C32.5537 32.8574 32.4097 32.9771 32.2925 33.1333C32.1753 33.2896 32.0825 33.4775 32.0142 33.6973C31.9507 33.917 31.9116 34.166 31.897 34.4443L31.5308 34.459C31.5308 33.9609 31.5698 33.4995 31.6479 33.0747C31.7261 32.645 31.8433 32.2715 31.9995 31.9541C32.1606 31.6318 32.3608 31.3804 32.6001 31.1997C32.8394 31.019 33.1177 30.9287 33.4351 30.9287C33.5229 30.9287 33.623 30.9385 33.7354 30.958C33.8477 30.9775 33.9282 30.9995 33.9771 31.0239ZM38.8184 36.9126C38.8184 36.7466 38.7695 36.6001 38.6719 36.4731C38.5791 36.3413 38.4277 36.2119 38.2178 36.085C38.0078 35.958 37.7271 35.8213 37.3755 35.6748C37.0093 35.5234 36.6846 35.3721 36.4014 35.2207C36.1182 35.0693 35.8789 34.9033 35.6836 34.7227C35.4883 34.5371 35.3394 34.3247 35.2368 34.0854C35.1343 33.8462 35.083 33.5679 35.083 33.2505C35.083 32.9233 35.144 32.6206 35.2661 32.3423C35.3882 32.064 35.564 31.8198 35.7935 31.6099C36.0229 31.395 36.2988 31.229 36.6211 31.1118C36.9434 30.9897 37.3071 30.9287 37.7124 30.9287C38.2837 30.9287 38.772 31.0337 39.1772 31.2437C39.5874 31.4487 39.8999 31.7368 40.1147 32.1079C40.3345 32.4741 40.4443 32.8965 40.4443 33.375H38.7378C38.7378 33.1748 38.7012 32.9941 38.6279 32.833C38.5547 32.667 38.4424 32.5352 38.291 32.4375C38.1396 32.335 37.9468 32.2837 37.7124 32.2837C37.4976 32.2837 37.3169 32.3252 37.1704 32.4082C37.0288 32.4863 36.9214 32.5938 36.8481 32.7305C36.7798 32.8623 36.7456 33.0112 36.7456 33.1772C36.7456 33.2993 36.7676 33.4067 36.8115 33.4995C36.8555 33.5923 36.9287 33.6826 37.0312 33.7705C37.1338 33.8535 37.2705 33.939 37.4414 34.0269C37.6172 34.1147 37.8394 34.2148 38.1079 34.3271C38.6401 34.5322 39.082 34.7446 39.4336 34.9644C39.7852 35.1841 40.0488 35.4404 40.2246 35.7334C40.4004 36.0264 40.4883 36.3901 40.4883 36.8247C40.4883 37.1763 40.4224 37.4937 40.2905 37.7769C40.1636 38.0601 39.978 38.3042 39.7339 38.5093C39.4946 38.7144 39.2041 38.873 38.8623 38.9854C38.5254 39.0928 38.1494 39.1465 37.7344 39.1465C37.1143 39.1465 36.5894 39.0244 36.1597 38.7803C35.7349 38.5312 35.4126 38.2114 35.1929 37.8208C34.9731 37.4302 34.8633 37.0176 34.8633 36.583H36.5112C36.5259 36.8955 36.5918 37.1396 36.709 37.3154C36.8311 37.4912 36.9849 37.6133 37.1704 37.6816C37.356 37.7451 37.5488 37.7769 37.749 37.7769C37.9883 37.7769 38.186 37.7451 38.3423 37.6816C38.4985 37.6133 38.6157 37.5132 38.6938 37.3813C38.7769 37.2495 38.8184 37.0933 38.8184 36.9126ZM41.7261 35.3599V34.7227C41.7261 34.1074 41.8018 33.563 41.9531 33.0894C42.1045 32.6157 42.3193 32.2202 42.5977 31.9028C42.8809 31.5806 43.2129 31.3389 43.5938 31.1777C43.9746 31.0117 44.3945 30.9287 44.8535 30.9287C45.3223 30.9287 45.7471 31.0117 46.1279 31.1777C46.5137 31.3389 46.8457 31.5806 47.124 31.9028C47.4072 32.2202 47.6245 32.6157 47.7759 33.0894C47.9272 33.563 48.0029 34.1074 48.0029 34.7227V35.3599C48.0029 35.9751 47.9272 36.5195 47.7759 36.9932C47.6245 37.4668 47.4072 37.8647 47.124 38.187C46.8457 38.5044 46.5161 38.7437 46.1353 38.9048C45.7544 39.0659 45.332 39.1465 44.8682 39.1465C44.4092 39.1465 43.9868 39.0659 43.6011 38.9048C43.2202 38.7437 42.8882 38.5044 42.605 38.187C42.3218 37.8647 42.1045 37.4668 41.9531 36.9932C41.8018 36.5195 41.7261 35.9751 41.7261 35.3599ZM43.4326 34.7227V35.3599C43.4326 35.7554 43.4668 36.1021 43.5352 36.3999C43.6035 36.6929 43.7012 36.937 43.8281 37.1323C43.9551 37.3276 44.1064 37.4741 44.2822 37.5718C44.458 37.6694 44.6533 37.7183 44.8682 37.7183C45.1074 37.7183 45.3149 37.6694 45.4907 37.5718C45.6714 37.4741 45.8203 37.3276 45.9375 37.1323C46.0596 36.937 46.1499 36.6929 46.2085 36.3999C46.2671 36.1021 46.2964 35.7554 46.2964 35.3599V34.7227C46.2964 34.332 46.2622 33.9902 46.1938 33.6973C46.1255 33.3994 46.0278 33.1528 45.9009 32.9575C45.7739 32.7573 45.6201 32.6084 45.4395 32.5107C45.2637 32.4131 45.0684 32.3643 44.8535 32.3643C44.6436 32.3643 44.4507 32.4131 44.2749 32.5107C44.104 32.6084 43.9551 32.7573 43.8281 32.9575C43.7012 33.1528 43.6035 33.3994 43.5352 33.6973C43.4668 33.9902 43.4326 34.332 43.4326 34.7227ZM53.1445 36.9126C53.1445 36.7466 53.0957 36.6001 52.998 36.4731C52.9053 36.3413 52.7539 36.2119 52.5439 36.085C52.334 35.958 52.0532 35.8213 51.7017 35.6748C51.3354 35.5234 51.0107 35.3721 50.7275 35.2207C50.4443 35.0693 50.2051 34.9033 50.0098 34.7227C49.8145 34.5371 49.6655 34.3247 49.563 34.0854C49.4604 33.8462 49.4092 33.5679 49.4092 33.2505C49.4092 32.9233 49.4702 32.6206 49.5923 32.3423C49.7144 32.064 49.8901 31.8198 50.1196 31.6099C50.3491 31.395 50.625 31.229 50.9473 31.1118C51.2695 30.9897 51.6333 30.9287 52.0386 30.9287C52.6099 30.9287 53.0981 31.0337 53.5034 31.2437C53.9136 31.4487 54.2261 31.7368 54.4409 32.1079C54.6606 32.4741 54.7705 32.8965 54.7705 33.375H53.064C53.064 33.1748 53.0273 32.9941 52.9541 32.833C52.8809 32.667 52.7686 32.5352 52.6172 32.4375C52.4658 32.335 52.2729 32.2837 52.0386 32.2837C51.8237 32.2837 51.6431 32.3252 51.4966 32.4082C51.355 32.4863 51.2476 32.5938 51.1743 32.7305C51.106 32.8623 51.0718 33.0112 51.0718 33.1772C51.0718 33.2993 51.0938 33.4067 51.1377 33.4995C51.1816 33.5923 51.2549 33.6826 51.3574 33.7705C51.46 33.8535 51.5967 33.939 51.7676 34.0269C51.9434 34.1147 52.1655 34.2148 52.4341 34.3271C52.9663 34.5322 53.4082 34.7446 53.7598 34.9644C54.1113 35.1841 54.375 35.4404 54.5508 35.7334C54.7266 36.0264 54.8145 36.3901 54.8145 36.8247C54.8145 37.1763 54.7485 37.4937 54.6167 37.7769C54.4897 38.0601 54.3042 38.3042 54.0601 38.5093C53.8208 38.7144 53.5303 38.873 53.1885 38.9854C52.8516 39.0928 52.4756 39.1465 52.0605 39.1465C51.4404 39.1465 50.9155 39.0244 50.4858 38.7803C50.061 38.5312 49.7388 38.2114 49.519 37.8208C49.2993 37.4302 49.1895 37.0176 49.1895 36.583H50.8374C50.8521 36.8955 50.918 37.1396 51.0352 37.3154C51.1572 37.4912 51.311 37.6133 51.4966 37.6816C51.6821 37.7451 51.875 37.7769 52.0752 37.7769C52.3145 37.7769 52.5122 37.7451 52.6685 37.6816C52.8247 37.6133 52.9419 37.5132 53.02 37.3813C53.103 37.2495 53.1445 37.0933 53.1445 36.9126Z" fill="#666666"/>
</svg>
