<svg width="36" height="47" viewBox="0 0 36 47" fill="none" xmlns="http://www.w3.org/2000/svg">
<path d="M4.66699 10.6665L17.643 4.17848C17.754 4.12308 17.8763 4.09424 18.0003 4.09424C18.1244 4.09424 18.2467 4.12308 18.3577 4.17848L31.3337 10.6665M28.667 14.6665V25.3331C28.667 26.0404 28.386 26.7187 27.8859 27.2188C27.3858 27.7189 26.7076 27.9998 26.0003 27.9998H10.0003C9.29308 27.9998 8.6148 27.7189 8.11471 27.2188C7.61461 26.7187 7.33366 26.0404 7.33366 25.3331V14.6665" stroke="#27A844" stroke-width="1.5" stroke-linecap="round" stroke-linejoin="round"/>
<path d="M6.84814 36.7744V38.2686H2.3584V36.7744H6.84814ZM2.77588 32.3359V43H0.996094V32.3359H2.77588ZM8.23975 32.3359V43H6.46729V32.3359H8.23975ZM9.86572 39.3599V38.7227C9.86572 38.1074 9.94141 37.563 10.0928 37.0894C10.2441 36.6157 10.459 36.2202 10.7373 35.9028C11.0205 35.5806 11.3525 35.3389 11.7334 35.1777C12.1143 35.0117 12.5342 34.9287 12.9932 34.9287C13.4619 34.9287 13.8867 35.0117 14.2676 35.1777C14.6533 35.3389 14.9854 35.5806 15.2637 35.9028C15.5469 36.2202 15.7642 36.6157 15.9155 37.0894C16.0669 37.563 16.1426 38.1074 16.1426 38.7227V39.3599C16.1426 39.9751 16.0669 40.5195 15.9155 40.9932C15.7642 41.4668 15.5469 41.8647 15.2637 42.187C14.9854 42.5044 14.6558 42.7437 14.2749 42.9048C13.894 43.0659 13.4717 43.1465 13.0078 43.1465C12.5488 43.1465 12.1265 43.0659 11.7407 42.9048C11.3599 42.7437 11.0278 42.5044 10.7446 42.187C10.4614 41.8647 10.2441 41.4668 10.0928 40.9932C9.94141 40.5195 9.86572 39.9751 9.86572 39.3599ZM11.5723 38.7227V39.3599C11.5723 39.7554 11.6064 40.1021 11.6748 40.3999C11.7432 40.6929 11.8408 40.937 11.9678 41.1323C12.0947 41.3276 12.2461 41.4741 12.4219 41.5718C12.5977 41.6694 12.793 41.7183 13.0078 41.7183C13.2471 41.7183 13.4546 41.6694 13.6304 41.5718C13.811 41.4741 13.96 41.3276 14.0771 41.1323C14.1992 40.937 14.2896 40.6929 14.3481 40.3999C14.4067 40.1021 14.436 39.7554 14.436 39.3599V38.7227C14.436 38.332 14.4019 37.9902 14.3335 37.6973C14.2651 37.3994 14.1675 37.1528 14.0405 36.9575C13.9136 36.7573 13.7598 36.6084 13.5791 36.5107C13.4033 36.4131 13.208 36.3643 12.9932 36.3643C12.7832 36.3643 12.5903 36.4131 12.4146 36.5107C12.2437 36.6084 12.0947 36.7573 11.9678 36.9575C11.8408 37.1528 11.7432 37.3994 11.6748 37.6973C11.6064 37.9902 11.5723 38.332 11.5723 38.7227ZM19.3286 36.6865V43H17.6221V35.0752H19.2261L19.3286 36.6865ZM19.0503 38.752H18.4717C18.4619 38.2002 18.5107 37.6924 18.6182 37.2285C18.7305 36.7646 18.8965 36.3594 19.1162 36.0127C19.3408 35.666 19.6216 35.3999 19.9585 35.2144C20.2954 35.0239 20.6909 34.9287 21.145 34.9287C21.438 34.9287 21.709 34.9824 21.958 35.0898C22.2119 35.1924 22.4316 35.356 22.6172 35.5806C22.8076 35.8052 22.9541 36.0933 23.0566 36.4448C23.1592 36.7964 23.2104 37.2212 23.2104 37.7192V43H21.5039V37.8804C21.5039 37.4995 21.46 37.2017 21.3721 36.9868C21.2891 36.7671 21.167 36.6108 21.0059 36.5181C20.8447 36.4253 20.6494 36.3789 20.4199 36.3789C20.1709 36.3789 19.9585 36.4424 19.7827 36.5693C19.6069 36.6914 19.4653 36.8623 19.3579 37.082C19.2505 37.2969 19.1724 37.5483 19.1235 37.8364C19.0747 38.1196 19.0503 38.4248 19.0503 38.752ZM23.1006 38.2979L22.3022 38.481C22.2925 37.9976 22.3413 37.5435 22.4487 37.1187C22.5562 36.689 22.7173 36.3105 22.9321 35.9834C23.1519 35.6562 23.4253 35.3999 23.7524 35.2144C24.0845 35.0239 24.4678 34.9287 24.9023 34.9287C25.2393 34.9287 25.542 34.9849 25.8105 35.0972C26.084 35.2046 26.3159 35.3755 26.5063 35.6099C26.6968 35.8442 26.8408 36.1494 26.9385 36.5254C27.041 36.8965 27.0923 37.3481 27.0923 37.8804V43H25.3784V37.873C25.3784 37.4775 25.3345 37.1724 25.2466 36.9575C25.1636 36.7427 25.0415 36.5938 24.8804 36.5107C24.7192 36.4229 24.5264 36.3789 24.3018 36.3789C24.1064 36.3789 23.9331 36.4302 23.7817 36.5327C23.6353 36.6304 23.5107 36.7671 23.4082 36.9429C23.3057 37.1187 23.2275 37.3237 23.1738 37.5581C23.125 37.7876 23.1006 38.0342 23.1006 38.2979ZM31.853 43.1465C31.3403 43.1465 30.8838 43.0708 30.4834 42.9194C30.083 42.7632 29.7437 42.5337 29.4653 42.231C29.187 41.9233 28.9746 41.5474 28.8281 41.103C28.6816 40.6538 28.6084 40.1338 28.6084 39.543V38.7812C28.6084 38.1123 28.6841 37.5361 28.8354 37.0527C28.9917 36.5645 29.2065 36.1641 29.48 35.8516C29.7534 35.5391 30.0757 35.3071 30.4468 35.1558C30.8228 35.0044 31.2305 34.9287 31.6699 34.9287C32.168 34.9287 32.6001 35.0093 32.9663 35.1704C33.3325 35.3315 33.6328 35.5732 33.8672 35.8955C34.1064 36.2178 34.2822 36.6157 34.3945 37.0894C34.5117 37.563 34.5703 38.1074 34.5703 38.7227V39.5796H29.4287V38.2905H32.8857V38.1074C32.876 37.7461 32.832 37.436 32.7539 37.1772C32.6758 36.9136 32.5488 36.7134 32.373 36.5767C32.2021 36.4351 31.9653 36.3643 31.6626 36.3643C31.4429 36.3643 31.2476 36.4058 31.0767 36.4888C30.9058 36.5718 30.7642 36.7061 30.6519 36.8916C30.5444 37.0771 30.4614 37.3262 30.4028 37.6387C30.3442 37.9463 30.3149 38.3271 30.3149 38.7812V39.543C30.3149 39.9385 30.3491 40.2729 30.4175 40.5464C30.4907 40.8198 30.5981 41.0444 30.7397 41.2202C30.8813 41.3911 31.0522 41.5181 31.2524 41.6011C31.4575 41.6792 31.6943 41.7183 31.9629 41.7183C32.3584 41.7183 32.6978 41.645 32.981 41.4985C33.269 41.3472 33.5181 41.1519 33.728 40.9126L34.4824 41.96C34.3408 42.1504 34.1504 42.3384 33.9111 42.5239C33.6719 42.7046 33.3813 42.8535 33.0396 42.9707C32.7026 43.0879 32.3071 43.1465 31.853 43.1465Z" fill="#666666"/>
</svg>
