<svg width="21" height="22" viewBox="0 0 21 22" fill="none" xmlns="http://www.w3.org/2000/svg">
<path d="M10.5 0C13.358 0 13.7101 0.0216963 14.8284 0.0650888C15.926 0.108481 16.6923 0.303748 17.3757 0.585799C18.0799 0.86785 18.6598 1.23669 19.2396 1.84418C19.8195 2.45168 20.1716 3.05917 20.4408 3.79684C20.7101 4.51282 20.8964 5.31558 20.9379 6.46548C20.9793 7.63708 21 8.00592 21 11C21 13.9941 20.9793 14.3629 20.9379 15.5345C20.8964 16.6844 20.7101 17.4872 20.4408 18.2032C20.1716 18.9408 19.8195 19.5483 19.2396 20.1558C18.6598 20.7633 18.0799 21.1322 17.3757 21.4142C16.6923 21.6963 15.926 21.8915 14.8284 21.9349C13.7101 21.9783 13.358 22 10.5 22C7.64201 22 7.28994 21.9783 6.1716 21.9349C5.07396 21.8915 4.30769 21.6963 3.62426 21.4142C2.92012 21.1322 2.34024 20.7633 1.76035 20.1558C1.18047 19.5483 0.828402 18.9408 0.559172 18.2032C0.289941 17.4872 0.10355 16.6844 0.0621302 15.5345C0.0207101 14.3629 0 13.9941 0 11C0 8.00592 0.0207101 7.63708 0.0621302 6.46548C0.10355 5.31558 0.289941 4.51282 0.559172 3.79684C0.828402 3.05917 1.18047 2.45168 1.76035 1.84418C2.34024 1.23669 2.92012 0.86785 3.62426 0.585799C4.30769 0.303748 5.07396 0.108481 6.1716 0.0650888C7.28994 0.0216963 7.64201 0 10.5 0ZM10.5 1.43195C7.51775 1.43195 7.16568 1.45365 6.00592 1.49704C4.92899 1.54043 4.3284 1.7574 3.93491 1.90927C2.92012 2.3432 2.23669 3.05917 1.82249 4.12229C1.67751 4.53452 1.47041 5.16371 1.42899 6.29191C1.38757 7.5069 1.36686 7.87574 1.36686 11C1.36686 14.1243 1.38757 14.4931 1.42899 15.7081C1.47041 16.8363 1.67751 17.4655 1.82249 17.8777C2.23669 18.9408 2.92012 19.6568 3.93491 20.0907C4.3284 20.2426 4.92899 20.4596 6.00592 20.503C7.16568 20.5464 7.51775 20.568 10.5 20.568C13.4822 20.568 13.8343 20.5464 14.9941 20.503C16.071 20.4596 16.6716 20.2426 17.0651 20.0907C18.0799 19.6568 18.7633 18.9408 19.1775 17.8777C19.3225 17.4655 19.5296 16.8363 19.571 15.7081C19.6124 14.4931 19.6331 14.1243 19.6331 11C19.6331 7.87574 19.6124 7.5069 19.571 6.29191C19.5296 5.16371 19.3225 4.53452 19.1775 4.12229C18.7633 3.05917 18.0799 2.3432 17.0651 1.90927C16.6716 1.7574 16.071 1.54043 14.9941 1.49704C13.8343 1.45365 13.4822 1.43195 10.5 1.43195ZM10.5 15.4043C12.8195 15.4043 14.7041 13.43 14.7041 11C14.7041 8.57002 12.8195 6.59566 10.5 6.59566C8.18047 6.59566 6.29586 8.57002 6.29586 11C6.29586 13.43 8.18047 15.4043 10.5 15.4043ZM10.5 5.35897C13.4822 5.35897 15.8846 7.87574 15.8846 11C15.8846 14.1243 13.4822 16.641 10.5 16.641C7.51775 16.641 5.11538 14.1243 5.11538 11C5.11538 7.87574 7.51775 5.35897 10.5 5.35897ZM17.3757 5.14201C17.3757 5.87968 16.7959 6.44379 16.0917 6.44379C15.3876 6.44379 14.8491 5.87968 14.8491 5.14201C14.8491 4.40434 15.3876 3.79684 16.0917 3.79684C16.7959 3.79684 17.3757 4.40434 17.3757 5.14201Z" fill="white"/>
</svg>
